<svg width="313" height="244" viewBox="0 0 313 244" fill="none" xmlns="http://www.w3.org/2000/svg">
<rect x="0.908447" width="312" height="243.002" fill="#022027"/>
<rect x="20.1605" y="17.9653" width="274.496" height="196.207" rx="25" fill="white"/>
<rect x="46.3029" y="57.6031" width="184.003" height="122.877" rx="25" fill="#FCFCFC"/>
<rect x="33.2317" y="29.8567" width="249.359" height="177.379" rx="25" fill="#040404"/>
<rect x="46.3029" y="38.7751" width="182.997" height="154.587" rx="25" fill="white"/>
<path d="M54.3467 59.6755C54.3467 54.1527 58.8238 49.6755 64.3467 49.6755H211.256C216.779 49.6755 221.256 54.1527 221.256 59.6755V177.417C221.256 182.94 216.779 187.417 211.256 187.417H64.3467C58.8238 187.417 54.3467 182.94 54.3467 177.417V59.6755Z" fill="#2C1552"/>
<ellipse cx="253.432" cy="71.9718" rx="7.03836" ry="6.44114" fill="#D9D9D9"/>
<ellipse cx="253.432" cy="97.7364" rx="7.03836" ry="6.44114" fill="#D9D9D9"/>
<ellipse cx="253.432" cy="118.546" rx="7.03836" ry="6.44114" fill="#D9D9D9"/>
<rect x="236.339" y="137.87" width="34.1863" height="6.93661" rx="3.46831" fill="#D9D9D9"/>
<rect x="236.339" y="152.734" width="34.1863" height="6.93661" rx="3.46831" fill="#D9D9D9"/>
<rect x="236.339" y="167.598" width="34.1863" height="6.93661" rx="3.46831" fill="#D9D9D9"/>
<rect width="12.8149" height="35.8002" rx="6.40747" transform="matrix(0.813138 0.582071 -0.593275 0.805 87.6519 206.245)" fill="#FDFBFB"/>
<rect width="12.8207" height="32.5335" rx="6.41035" transform="matrix(0.83177 -0.55512 0.566315 0.824189 211.202 216.335)" fill="#FDFBFB"/>
<path d="M181.694 56.7273V64H180.522L177.095 59.0462H177.035V64H175.717V56.7273H176.896L180.32 61.6847H180.384V56.7273H181.694ZM185.487 64.1065C184.941 64.1065 184.468 63.9929 184.07 63.7656C183.675 63.536 183.371 63.2116 183.158 62.7926C182.945 62.3712 182.838 61.8752 182.838 61.3047C182.838 60.7436 182.945 60.2512 183.158 59.8274C183.373 59.4013 183.674 59.0698 184.06 58.8331C184.446 58.594 184.899 58.4744 185.42 58.4744C185.756 58.4744 186.073 58.5289 186.372 58.6378C186.672 58.7443 186.937 58.91 187.167 59.1349C187.399 59.3598 187.581 59.6463 187.714 59.9943C187.847 60.34 187.913 60.7519 187.913 61.2301V61.6243H183.442V60.7578H186.681C186.678 60.5116 186.625 60.2926 186.521 60.1009C186.417 59.9067 186.271 59.754 186.084 59.6428C185.899 59.5315 185.684 59.4759 185.438 59.4759C185.175 59.4759 184.944 59.5398 184.745 59.6676C184.546 59.7931 184.391 59.9588 184.28 60.1648C184.171 60.3684 184.115 60.5921 184.113 60.8359V61.5923C184.113 61.9096 184.171 62.1818 184.287 62.4091C184.403 62.634 184.565 62.8068 184.774 62.9276C184.982 63.0459 185.226 63.1051 185.505 63.1051C185.692 63.1051 185.861 63.0791 186.013 63.027C186.164 62.9725 186.296 62.8932 186.407 62.7891C186.518 62.6849 186.602 62.5559 186.659 62.402L187.86 62.5369C187.784 62.8542 187.639 63.1312 187.426 63.3679C187.216 63.6023 186.946 63.7846 186.617 63.9148C186.288 64.0426 185.911 64.1065 185.487 64.1065ZM190.097 64L188.556 58.5455H189.866L190.825 62.3807H190.874L191.855 58.5455H193.151L194.131 62.3594H194.184L195.129 58.5455H196.443L194.898 64H193.559L192.536 60.3139H192.462L191.439 64H190.097ZM201.651 59.9872L200.479 60.1151C200.446 59.9967 200.388 59.8854 200.305 59.7812C200.225 59.6771 200.116 59.593 199.979 59.5291C199.841 59.4652 199.673 59.4332 199.474 59.4332C199.207 59.4332 198.982 59.4912 198.8 59.6072C198.62 59.7232 198.531 59.8736 198.533 60.0582C198.531 60.2169 198.589 60.3459 198.707 60.4453C198.828 60.5447 199.027 60.6264 199.304 60.6903L200.234 60.8892C200.75 61.0005 201.134 61.1768 201.385 61.4183C201.638 61.6598 201.766 61.9759 201.768 62.3665C201.766 62.7098 201.665 63.0128 201.467 63.2756C201.27 63.536 200.997 63.7396 200.646 63.8864C200.296 64.0331 199.893 64.1065 199.439 64.1065C198.771 64.1065 198.234 63.9669 197.827 63.6875C197.42 63.4058 197.177 63.014 197.099 62.5121L198.352 62.3913C198.409 62.6375 198.53 62.8234 198.714 62.9489C198.899 63.0743 199.139 63.1371 199.435 63.1371C199.741 63.1371 199.986 63.0743 200.17 62.9489C200.357 62.8234 200.451 62.6683 200.451 62.4837C200.451 62.3274 200.391 62.1984 200.27 62.0966C200.152 61.9948 199.967 61.9167 199.716 61.8622L198.786 61.6669C198.262 61.558 197.875 61.3745 197.624 61.1165C197.373 60.8561 197.249 60.527 197.251 60.1293C197.249 59.7931 197.34 59.5019 197.525 59.2557C197.712 59.0071 197.971 58.8153 198.303 58.6804C198.636 58.5431 199.021 58.4744 199.457 58.4744C200.096 58.4744 200.599 58.6106 200.966 58.8828C201.335 59.1551 201.564 59.5232 201.651 59.9872ZM202.814 64V63.0483L205.339 60.5732C205.581 60.3293 205.782 60.1127 205.943 59.9233C206.104 59.7339 206.225 59.5504 206.305 59.3729C206.386 59.1953 206.426 59.0059 206.426 58.8047C206.426 58.575 206.374 58.3786 206.27 58.2152C206.165 58.0495 206.022 57.9216 205.84 57.8317C205.658 57.7417 205.45 57.6967 205.218 57.6967C204.979 57.6967 204.77 57.7464 204.59 57.8459C204.41 57.9429 204.27 58.0814 204.171 58.2614C204.074 58.4413 204.025 58.6555 204.025 58.9041H202.772C202.772 58.4425 202.877 58.0412 203.088 57.7003C203.298 57.3594 203.588 57.0954 203.958 56.9084C204.329 56.7214 204.756 56.6278 205.236 56.6278C205.724 56.6278 206.152 56.719 206.522 56.9013C206.891 57.0836 207.177 57.3333 207.381 57.6506C207.587 57.9678 207.69 58.33 207.69 58.7372C207.69 59.0095 207.638 59.277 207.534 59.5398C207.43 59.8026 207.246 60.0937 206.983 60.4134C206.723 60.733 206.357 61.12 205.886 61.5746L204.632 62.8494V62.8991H207.8V64H202.814ZM208.738 62.6506V61.603L211.824 56.7273H212.697V58.2188H212.164L210.087 61.5107V61.5675H214.395V62.6506H208.738ZM212.207 64V62.331L212.221 61.8622V56.7273H213.464V64H212.207Z" fill="#850D0D"/>
<path d="M78.1571 104V94.5455H81.7026C82.4289 94.5455 83.0383 94.6809 83.5307 94.9517C84.0262 95.2225 84.4002 95.5949 84.6525 96.0689C84.908 96.5398 85.0357 97.0753 85.0357 97.6754C85.0357 98.2817 84.908 98.8203 84.6525 99.2912C84.3971 99.7621 84.0201 100.133 83.5215 100.404C83.0229 100.672 82.4089 100.805 81.6795 100.805H79.3297V99.3974H81.4487C81.8734 99.3974 82.2212 99.3235 82.492 99.1758C82.7628 99.0281 82.9629 98.8249 83.0922 98.5664C83.2245 98.3079 83.2907 98.0109 83.2907 97.6754C83.2907 97.34 83.2245 97.0445 83.0922 96.7891C82.9629 96.5336 82.7613 96.3351 82.4874 96.1935C82.2166 96.0489 81.8672 95.9766 81.4395 95.9766H79.8699V104H78.1571ZM86.4495 104V96.9091H88.0699V98.0909H88.1437C88.273 97.6816 88.4946 97.3661 88.8085 97.1445C89.1255 96.9199 89.4871 96.8075 89.8934 96.8075C89.9857 96.8075 90.0888 96.8121 90.2027 96.8214C90.3196 96.8275 90.4166 96.8383 90.4935 96.8537V98.391C90.4227 98.3664 90.3104 98.3448 90.1565 98.3263C90.0057 98.3048 89.8595 98.294 89.718 98.294C89.4133 98.294 89.1394 98.3602 88.8962 98.4925C88.6562 98.6218 88.4669 98.8018 88.3284 99.0327C88.1899 99.2635 88.1206 99.5297 88.1206 99.8313V104H86.4495ZM94.451 104.138C93.7401 104.138 93.1261 103.991 92.609 103.695C92.0951 103.397 91.6996 102.975 91.4226 102.43C91.1456 101.883 91.0071 101.238 91.0071 100.496C91.0071 99.7667 91.1456 99.1265 91.4226 98.5756C91.7027 98.0217 92.0935 97.5908 92.5952 97.283C93.0968 96.9722 93.6862 96.8168 94.3633 96.8168C94.8003 96.8168 95.2127 96.8875 95.6005 97.0291C95.9914 97.1676 96.3361 97.383 96.6346 97.6754C96.9362 97.9678 97.1732 98.3402 97.3455 98.7926C97.5179 99.242 97.604 99.7775 97.604 100.399V100.912H91.7919V99.7852H96.0021C95.9991 99.4651 95.9298 99.1804 95.7944 98.9311C95.659 98.6787 95.4697 98.4802 95.2266 98.3356C94.9865 98.1909 94.7064 98.1186 94.3864 98.1186C94.0447 98.1186 93.7447 98.2017 93.4862 98.3679C93.2276 98.531 93.026 98.7464 92.8814 99.0142C92.7398 99.2789 92.6675 99.5697 92.6644 99.8867V100.87C92.6644 101.282 92.7398 101.636 92.8906 101.932C93.0414 102.224 93.2522 102.449 93.5231 102.606C93.7939 102.76 94.1109 102.837 94.4741 102.837C94.7172 102.837 94.9373 102.803 95.1342 102.735C95.3312 102.664 95.502 102.561 95.6467 102.426C95.7913 102.29 95.9006 102.123 95.9744 101.923L97.5348 102.098C97.4363 102.51 97.2486 102.871 96.9716 103.178C96.6977 103.483 96.3468 103.72 95.919 103.889C95.4912 104.055 95.0019 104.138 94.451 104.138ZM101.649 104.125C101.092 104.125 100.594 103.982 100.153 103.695C99.7134 103.409 99.3656 102.994 99.1102 102.449C98.8547 101.904 98.727 101.242 98.727 100.464C98.727 99.6759 98.8563 99.0111 99.1148 98.4695C99.3764 97.9247 99.7288 97.5138 100.172 97.2369C100.615 96.9568 101.109 96.8168 101.654 96.8168C102.069 96.8168 102.411 96.8875 102.679 97.0291C102.946 97.1676 103.159 97.3353 103.316 97.5323C103.473 97.7262 103.594 97.9093 103.68 98.0817H103.75V94.5455H105.426V104H103.782V102.883H103.68C103.594 103.055 103.47 103.238 103.307 103.432C103.143 103.623 102.928 103.786 102.66 103.922C102.392 104.057 102.055 104.125 101.649 104.125ZM102.116 102.754C102.469 102.754 102.771 102.658 103.02 102.467C103.27 102.273 103.459 102.004 103.588 101.659C103.717 101.315 103.782 100.913 103.782 100.455C103.782 99.996 103.717 99.5974 103.588 99.2589C103.462 98.9203 103.274 98.6572 103.025 98.4695C102.779 98.2817 102.476 98.1879 102.116 98.1879C101.743 98.1879 101.432 98.2848 101.183 98.4787C100.934 98.6726 100.746 98.9403 100.62 99.282C100.494 99.6236 100.43 100.014 100.43 100.455C100.43 100.898 100.494 101.293 100.62 101.641C100.749 101.986 100.938 102.258 101.188 102.458C101.44 102.655 101.749 102.754 102.116 102.754ZM107.206 104V96.9091H108.877V104H107.206ZM108.047 95.9027C107.782 95.9027 107.554 95.815 107.363 95.6396C107.172 95.4611 107.077 95.2472 107.077 94.9979C107.077 94.7455 107.172 94.5316 107.363 94.3562C107.554 94.1777 107.782 94.0884 108.047 94.0884C108.314 94.0884 108.542 94.1777 108.73 94.3562C108.921 94.5316 109.016 94.7455 109.016 94.9979C109.016 95.2472 108.921 95.4611 108.73 95.6396C108.542 95.815 108.314 95.9027 108.047 95.9027ZM113.689 104.138C112.981 104.138 112.373 103.983 111.866 103.672C111.361 103.361 110.971 102.932 110.698 102.384C110.427 101.833 110.291 101.199 110.291 100.482C110.291 99.7621 110.43 99.1265 110.707 98.5756C110.984 98.0217 111.375 97.5908 111.879 97.283C112.387 96.9722 112.987 96.8168 113.68 96.8168C114.255 96.8168 114.765 96.9229 115.208 97.1353C115.654 97.3446 116.01 97.6416 116.274 98.0263C116.539 98.4079 116.69 98.8542 116.727 99.3651H115.129C115.065 99.0234 114.911 98.7388 114.668 98.511C114.428 98.2802 114.106 98.1648 113.703 98.1648C113.361 98.1648 113.061 98.2571 112.803 98.4418C112.544 98.6233 112.343 98.8849 112.198 99.2266C112.056 99.5682 111.986 99.9775 111.986 100.455C111.986 100.938 112.056 101.353 112.198 101.701C112.339 102.046 112.538 102.312 112.793 102.5C113.052 102.684 113.355 102.777 113.703 102.777C113.949 102.777 114.169 102.73 114.363 102.638C114.56 102.543 114.725 102.406 114.857 102.227C114.989 102.049 115.08 101.832 115.129 101.576H116.727C116.687 102.078 116.539 102.523 116.283 102.911C116.028 103.295 115.68 103.597 115.24 103.815C114.8 104.031 114.283 104.138 113.689 104.138ZM121.64 96.9091V98.2017H117.563V96.9091H121.64ZM118.57 95.2102H120.241V101.867C120.241 102.092 120.275 102.264 120.343 102.384C120.413 102.501 120.506 102.581 120.619 102.624C120.733 102.667 120.86 102.689 120.998 102.689C121.103 102.689 121.198 102.681 121.284 102.666C121.374 102.65 121.441 102.637 121.487 102.624L121.769 103.931C121.68 103.962 121.552 103.995 121.386 104.032C121.223 104.069 121.023 104.091 120.786 104.097C120.367 104.109 119.99 104.046 119.655 103.908C119.319 103.766 119.053 103.548 118.856 103.252C118.662 102.957 118.567 102.587 118.57 102.144V95.2102ZM123.037 104V96.9091H124.709V104H123.037ZM123.878 95.9027C123.613 95.9027 123.385 95.815 123.194 95.6396C123.004 95.4611 122.908 95.2472 122.908 94.9979C122.908 94.7455 123.004 94.5316 123.194 94.3562C123.385 94.1777 123.613 94.0884 123.878 94.0884C124.145 94.0884 124.373 94.1777 124.561 94.3562C124.752 94.5316 124.847 94.7455 124.847 94.9979C124.847 95.2472 124.752 95.4611 124.561 95.6396C124.373 95.815 124.145 95.9027 123.878 95.9027ZM129.52 104.138C128.828 104.138 128.227 103.986 127.72 103.681C127.212 103.377 126.818 102.951 126.538 102.403C126.261 101.855 126.122 101.215 126.122 100.482C126.122 99.7498 126.261 99.1081 126.538 98.5572C126.818 98.0063 127.212 97.5785 127.72 97.2738C128.227 96.9691 128.828 96.8168 129.52 96.8168C130.213 96.8168 130.813 96.9691 131.32 97.2738C131.828 97.5785 132.221 98.0063 132.498 98.5572C132.778 99.1081 132.918 99.7498 132.918 100.482C132.918 101.215 132.778 101.855 132.498 102.403C132.221 102.951 131.828 103.377 131.32 103.681C130.813 103.986 130.213 104.138 129.52 104.138ZM129.529 102.8C129.905 102.8 130.219 102.697 130.471 102.49C130.723 102.281 130.911 102.001 131.034 101.65C131.16 101.299 131.224 100.908 131.224 100.478C131.224 100.044 131.16 99.6513 131.034 99.3004C130.911 98.9465 130.723 98.6649 130.471 98.4556C130.219 98.2463 129.905 98.1417 129.529 98.1417C129.145 98.1417 128.825 98.2463 128.569 98.4556C128.317 98.6649 128.127 98.9465 128.001 99.3004C127.878 99.6513 127.817 100.044 127.817 100.478C127.817 100.908 127.878 101.299 128.001 101.65C128.127 102.001 128.317 102.281 128.569 102.49C128.825 102.697 129.145 102.8 129.529 102.8ZM136.007 99.8452V104H134.336V96.9091H135.934V98.114H136.017C136.18 97.717 136.44 97.4015 136.797 97.1676C137.157 96.9337 137.602 96.8168 138.131 96.8168C138.62 96.8168 139.047 96.9214 139.41 97.1307C139.776 97.34 140.059 97.6431 140.259 98.0401C140.462 98.4371 140.562 98.9188 140.559 99.4851V104H138.888V99.7436C138.888 99.2696 138.765 98.8988 138.519 98.631C138.276 98.3633 137.939 98.2294 137.508 98.2294C137.215 98.2294 136.955 98.294 136.728 98.4233C136.503 98.5495 136.326 98.7326 136.197 98.9727C136.07 99.2127 136.007 99.5036 136.007 99.8452ZM145.557 104V94.5455H149.102C149.828 94.5455 150.438 94.6716 150.93 94.924C151.426 95.1764 151.8 95.5303 152.052 95.9858C152.307 96.4382 152.435 96.966 152.435 97.5692C152.435 98.1755 152.306 98.7018 152.047 99.1481C151.792 99.5913 151.415 99.9344 150.916 100.178C150.418 100.418 149.805 100.538 149.079 100.538H146.554V99.1158H148.848C149.273 99.1158 149.621 99.0573 149.891 98.9403C150.162 98.8203 150.362 98.6464 150.492 98.4187C150.624 98.1879 150.69 97.9047 150.69 97.5692C150.69 97.2338 150.624 96.9476 150.492 96.7106C150.359 96.4705 150.158 96.2889 149.887 96.1658C149.616 96.0397 149.267 95.9766 148.839 95.9766H147.269V104H145.557ZM150.441 99.7159L152.781 104H150.87L148.571 99.7159H150.441ZM156.975 104.138C156.264 104.138 155.65 103.991 155.133 103.695C154.619 103.397 154.224 102.975 153.947 102.43C153.67 101.883 153.532 101.238 153.532 100.496C153.532 99.7667 153.67 99.1265 153.947 98.5756C154.227 98.0217 154.618 97.5908 155.12 97.283C155.621 96.9722 156.211 96.8168 156.888 96.8168C157.325 96.8168 157.737 96.8875 158.125 97.0291C158.516 97.1676 158.86 97.383 159.159 97.6754C159.461 97.9678 159.698 98.3402 159.87 98.7926C160.042 99.242 160.128 99.7775 160.128 100.399V100.912H154.316V99.7852H158.527C158.523 99.4651 158.454 99.1804 158.319 98.9311C158.183 98.6787 157.994 98.4802 157.751 98.3356C157.511 98.1909 157.231 98.1186 156.911 98.1186C156.569 98.1186 156.269 98.2017 156.011 98.3679C155.752 98.531 155.55 98.7464 155.406 99.0142C155.264 99.2789 155.192 99.5697 155.189 99.8867V100.87C155.189 101.282 155.264 101.636 155.415 101.932C155.566 102.224 155.777 102.449 156.047 102.606C156.318 102.76 156.635 102.837 156.998 102.837C157.242 102.837 157.462 102.803 157.659 102.735C157.856 102.664 158.026 102.561 158.171 102.426C158.316 102.29 158.425 102.123 158.499 101.923L160.059 102.098C159.961 102.51 159.773 102.871 159.496 103.178C159.222 103.483 158.871 103.72 158.443 103.889C158.016 104.055 157.526 104.138 156.975 104.138ZM167.147 98.7834L165.623 98.9496C165.58 98.7957 165.505 98.651 165.397 98.5156C165.292 98.3802 165.151 98.271 164.972 98.1879C164.794 98.1048 164.575 98.0632 164.317 98.0632C163.969 98.0632 163.677 98.1386 163.44 98.2894C163.206 98.4402 163.09 98.6357 163.093 98.8757C163.09 99.0819 163.166 99.2496 163.32 99.3789C163.477 99.5082 163.735 99.6143 164.095 99.6974L165.305 99.956C165.976 100.101 166.474 100.33 166.8 100.644C167.13 100.958 167.296 101.369 167.299 101.876C167.296 102.323 167.165 102.717 166.907 103.058C166.651 103.397 166.296 103.661 165.84 103.852C165.385 104.043 164.862 104.138 164.271 104.138C163.403 104.138 162.704 103.957 162.175 103.594C161.645 103.228 161.33 102.718 161.228 102.066L162.858 101.909C162.932 102.229 163.089 102.47 163.329 102.634C163.569 102.797 163.881 102.878 164.266 102.878C164.663 102.878 164.982 102.797 165.222 102.634C165.465 102.47 165.586 102.269 165.586 102.029C165.586 101.826 165.508 101.658 165.351 101.526C165.197 101.393 164.957 101.292 164.631 101.221L163.421 100.967C162.741 100.825 162.238 100.587 161.912 100.251C161.585 99.9129 161.424 99.4851 161.427 98.968C161.424 98.531 161.542 98.1525 161.782 97.8324C162.025 97.5092 162.362 97.2599 162.793 97.0845C163.227 96.906 163.727 96.8168 164.294 96.8168C165.125 96.8168 165.779 96.9937 166.256 97.3477C166.736 97.7016 167.033 98.1802 167.147 98.7834ZM173.197 101.018V96.9091H174.868V104H173.247V102.74H173.173C173.013 103.137 172.75 103.461 172.384 103.714C172.021 103.966 171.573 104.092 171.041 104.092C170.576 104.092 170.165 103.989 169.808 103.783C169.454 103.574 169.177 103.271 168.977 102.874C168.777 102.473 168.677 101.99 168.677 101.424V96.9091H170.348V101.165C170.348 101.615 170.471 101.972 170.718 102.237C170.964 102.501 171.287 102.634 171.687 102.634C171.933 102.634 172.172 102.574 172.403 102.453C172.633 102.333 172.823 102.155 172.97 101.918C173.121 101.678 173.197 101.378 173.197 101.018ZM178.257 94.5455V104H176.586V94.5455H178.257ZM183.517 96.9091V98.2017H179.44V96.9091H183.517ZM180.447 95.2102H182.118V101.867C182.118 102.092 182.152 102.264 182.219 102.384C182.29 102.501 182.383 102.581 182.496 102.624C182.61 102.667 182.737 102.689 182.875 102.689C182.98 102.689 183.075 102.681 183.161 102.666C183.25 102.65 183.318 102.637 183.364 102.624L183.646 103.931C183.557 103.962 183.429 103.995 183.263 104.032C183.1 104.069 182.9 104.091 182.663 104.097C182.244 104.109 181.867 104.046 181.532 103.908C181.196 103.766 180.93 103.548 180.733 103.252C180.539 102.957 180.444 102.587 180.447 102.144V95.2102Z" fill="#DEF7E3"/>
<path d="M74.3977 125.832V124.727H80.2003V125.832H77.9524V132H76.6456V125.832H74.3977ZM82.8858 132.107C82.339 132.107 81.8667 131.993 81.4689 131.766C81.0736 131.536 80.7694 131.212 80.5563 130.793C80.3432 130.371 80.2367 129.875 80.2367 129.305C80.2367 128.744 80.3432 128.251 80.5563 127.827C80.7717 127.401 81.0724 127.07 81.4583 126.833C81.8442 126.594 82.2975 126.474 82.8184 126.474C83.1545 126.474 83.4718 126.529 83.7701 126.638C84.0707 126.744 84.3359 126.91 84.5655 127.135C84.7975 127.36 84.9798 127.646 85.1124 127.994C85.245 128.34 85.3113 128.752 85.3113 129.23V129.624H80.8404V128.758H84.079C84.0766 128.512 84.0234 128.293 83.9192 128.101C83.815 127.907 83.6694 127.754 83.4824 127.643C83.2978 127.531 83.0823 127.476 82.8361 127.476C82.5733 127.476 82.3425 127.54 82.1436 127.668C81.9448 127.793 81.7897 127.959 81.6784 128.165C81.5695 128.368 81.5139 128.592 81.5115 128.836V129.592C81.5115 129.91 81.5695 130.182 81.6855 130.409C81.8016 130.634 81.9637 130.807 82.1721 130.928C82.3804 131.046 82.6242 131.105 82.9036 131.105C83.0906 131.105 83.2599 131.079 83.4114 131.027C83.5629 130.973 83.6943 130.893 83.8056 130.789C83.9168 130.685 84.0009 130.556 84.0577 130.402L85.258 130.537C85.1822 130.854 85.0378 131.131 84.8248 131.368C84.6141 131.602 84.3442 131.785 84.0151 131.915C83.686 132.043 83.3096 132.107 82.8858 132.107ZM88.7781 132.107C88.2335 132.107 87.766 131.987 87.3754 131.748C86.9871 131.509 86.6876 131.179 86.4769 130.757C86.2686 130.333 86.1644 129.846 86.1644 129.294C86.1644 128.74 86.271 128.251 86.484 127.827C86.6971 127.401 86.9978 127.07 87.386 126.833C87.7766 126.594 88.2383 126.474 88.771 126.474C89.2137 126.474 89.6055 126.556 89.9464 126.719C90.2897 126.88 90.5631 127.109 90.7667 127.405C90.9703 127.698 91.0863 128.042 91.1147 128.435H89.886C89.8363 128.172 89.7179 127.953 89.5309 127.778C89.3462 127.6 89.0988 127.511 88.7887 127.511C88.5259 127.511 88.2951 127.582 88.0962 127.724C87.8974 127.864 87.7423 128.065 87.631 128.328C87.5221 128.591 87.4677 128.906 87.4677 129.273C87.4677 129.644 87.5221 129.964 87.631 130.232C87.7399 130.497 87.8926 130.701 88.0891 130.846C88.288 130.988 88.5212 131.059 88.7887 131.059C88.9781 131.059 89.1474 131.023 89.2965 130.952C89.448 130.879 89.5747 130.774 89.6765 130.636C89.7783 130.499 89.8481 130.332 89.886 130.136H91.1147C91.0839 130.522 90.9703 130.864 90.7738 131.162C90.5773 131.458 90.3098 131.69 89.9712 131.858C89.6327 132.024 89.235 132.107 88.7781 132.107ZM93.4558 128.804V132H92.1703V124.727H93.4274V127.472H93.4913C93.6191 127.165 93.8168 126.922 94.0843 126.744C94.3542 126.564 94.6975 126.474 95.1142 126.474C95.493 126.474 95.8232 126.554 96.1049 126.712C96.3867 126.871 96.6045 127.103 96.7583 127.408C96.9146 127.714 96.9927 128.087 96.9927 128.527V132H95.7072V128.726C95.7072 128.359 95.6125 128.074 95.4231 127.87C95.2361 127.664 94.9733 127.561 94.6348 127.561C94.4075 127.561 94.2039 127.611 94.024 127.71C93.8464 127.807 93.7067 127.948 93.6049 128.133C93.5055 128.317 93.4558 128.541 93.4558 128.804ZM99.5886 128.804V132H98.3031V126.545H99.5318V127.472H99.5957C99.7212 127.167 99.9212 126.924 100.196 126.744C100.473 126.564 100.815 126.474 101.222 126.474C101.599 126.474 101.926 126.555 102.206 126.716C102.488 126.877 102.705 127.11 102.859 127.415C103.015 127.721 103.092 128.091 103.09 128.527V132H101.805V128.726C101.805 128.361 101.71 128.076 101.52 127.87C101.333 127.664 101.074 127.561 100.743 127.561C100.518 127.561 100.318 127.611 100.143 127.71C99.9698 127.807 99.8336 127.948 99.7342 128.133C99.6371 128.317 99.5886 128.541 99.5886 128.804ZM106.776 132.107C106.243 132.107 105.782 131.989 105.391 131.755C105.001 131.521 104.698 131.193 104.482 130.771C104.269 130.35 104.162 129.857 104.162 129.294C104.162 128.731 104.269 128.237 104.482 127.813C104.698 127.389 105.001 127.06 105.391 126.826C105.782 126.592 106.243 126.474 106.776 126.474C107.309 126.474 107.77 126.592 108.161 126.826C108.552 127.06 108.854 127.389 109.067 127.813C109.282 128.237 109.39 128.731 109.39 129.294C109.39 129.857 109.282 130.35 109.067 130.771C108.854 131.193 108.552 131.521 108.161 131.755C107.77 131.989 107.309 132.107 106.776 132.107ZM106.783 131.077C107.072 131.077 107.314 130.997 107.508 130.839C107.702 130.678 107.846 130.462 107.941 130.192C108.038 129.923 108.086 129.622 108.086 129.29C108.086 128.957 108.038 128.655 107.941 128.385C107.846 128.113 107.702 127.896 107.508 127.735C107.314 127.574 107.072 127.494 106.783 127.494C106.487 127.494 106.241 127.574 106.045 127.735C105.85 127.896 105.705 128.113 105.608 128.385C105.513 128.655 105.466 128.957 105.466 129.29C105.466 129.622 105.513 129.923 105.608 130.192C105.705 130.462 105.85 130.678 106.045 130.839C106.241 130.997 106.487 131.077 106.783 131.077ZM111.766 124.727V132H110.481V124.727H111.766ZM115.468 132.107C114.935 132.107 114.473 131.989 114.083 131.755C113.692 131.521 113.389 131.193 113.173 130.771C112.96 130.35 112.854 129.857 112.854 129.294C112.854 128.731 112.96 128.237 113.173 127.813C113.389 127.389 113.692 127.06 114.083 126.826C114.473 126.592 114.935 126.474 115.468 126.474C116 126.474 116.462 126.592 116.852 126.826C117.243 127.06 117.545 127.389 117.758 127.813C117.973 128.237 118.081 128.731 118.081 129.294C118.081 129.857 117.973 130.35 117.758 130.771C117.545 131.193 117.243 131.521 116.852 131.755C116.462 131.989 116 132.107 115.468 132.107ZM115.475 131.077C115.763 131.077 116.005 130.997 116.199 130.839C116.393 130.678 116.538 130.462 116.632 130.192C116.729 129.923 116.778 129.622 116.778 129.29C116.778 128.957 116.729 128.655 116.632 128.385C116.538 128.113 116.393 127.896 116.199 127.735C116.005 127.574 115.763 127.494 115.475 127.494C115.179 127.494 114.932 127.574 114.736 127.735C114.542 127.896 114.396 128.113 114.299 128.385C114.204 128.655 114.157 128.957 114.157 129.29C114.157 129.622 114.204 129.923 114.299 130.192C114.396 130.462 114.542 130.678 114.736 130.839C114.932 130.997 115.179 131.077 115.475 131.077ZM121.544 134.159C121.083 134.159 120.686 134.096 120.355 133.971C120.023 133.848 119.757 133.682 119.556 133.474C119.355 133.265 119.215 133.035 119.137 132.781L120.294 132.501C120.346 132.607 120.422 132.713 120.522 132.817C120.621 132.923 120.755 133.011 120.923 133.08C121.093 133.151 121.308 133.186 121.566 133.186C121.93 133.186 122.232 133.097 122.471 132.92C122.71 132.745 122.83 132.456 122.83 132.053V131.02H122.766C122.7 131.152 122.603 131.289 122.475 131.428C122.349 131.568 122.182 131.685 121.974 131.78C121.768 131.875 121.509 131.922 121.196 131.922C120.777 131.922 120.397 131.824 120.056 131.627C119.718 131.428 119.448 131.132 119.247 130.739C119.048 130.344 118.949 129.849 118.949 129.255C118.949 128.656 119.048 128.151 119.247 127.739C119.448 127.324 119.719 127.011 120.06 126.798C120.401 126.582 120.781 126.474 121.2 126.474C121.52 126.474 121.782 126.529 121.988 126.638C122.197 126.744 122.362 126.873 122.485 127.025C122.609 127.174 122.702 127.315 122.766 127.447H122.837V126.545H124.105V132.089C124.105 132.555 123.993 132.941 123.771 133.246C123.548 133.552 123.244 133.78 122.858 133.932C122.472 134.083 122.034 134.159 121.544 134.159ZM121.555 130.913C121.827 130.913 122.059 130.847 122.251 130.714C122.443 130.582 122.588 130.391 122.688 130.143C122.787 129.894 122.837 129.596 122.837 129.248C122.837 128.905 122.787 128.604 122.688 128.346C122.591 128.088 122.446 127.888 122.255 127.746C122.065 127.601 121.832 127.529 121.555 127.529C121.269 127.529 121.029 127.604 120.838 127.753C120.646 127.902 120.502 128.107 120.404 128.367C120.307 128.625 120.259 128.919 120.259 129.248C120.259 129.582 120.307 129.874 120.404 130.125C120.504 130.374 120.65 130.568 120.841 130.707C121.035 130.845 121.273 130.913 121.555 130.913ZM125.422 132V126.545H126.708V132H125.422ZM126.069 125.771C125.865 125.771 125.69 125.704 125.543 125.569C125.396 125.432 125.323 125.267 125.323 125.075C125.323 124.881 125.396 124.717 125.543 124.582C125.69 124.444 125.865 124.376 126.069 124.376C126.275 124.376 126.45 124.444 126.594 124.582C126.741 124.717 126.814 124.881 126.814 125.075C126.814 125.267 126.741 125.432 126.594 125.569C126.45 125.704 126.275 125.771 126.069 125.771ZM130.409 132.107C129.864 132.107 129.397 131.987 129.006 131.748C128.618 131.509 128.318 131.179 128.108 130.757C127.899 130.333 127.795 129.846 127.795 129.294C127.795 128.74 127.902 128.251 128.115 127.827C128.328 127.401 128.629 127.07 129.017 126.833C129.407 126.594 129.869 126.474 130.402 126.474C130.845 126.474 131.236 126.556 131.577 126.719C131.921 126.88 132.194 127.109 132.398 127.405C132.601 127.698 132.717 128.042 132.746 128.435H131.517C131.467 128.172 131.349 127.953 131.162 127.778C130.977 127.6 130.73 127.511 130.42 127.511C130.157 127.511 129.926 127.582 129.727 127.724C129.528 127.864 129.373 128.065 129.262 128.328C129.153 128.591 129.099 128.906 129.099 129.273C129.099 129.644 129.153 129.964 129.262 130.232C129.371 130.497 129.523 130.701 129.72 130.846C129.919 130.988 130.152 131.059 130.42 131.059C130.609 131.059 130.778 131.023 130.927 130.952C131.079 130.879 131.206 130.774 131.307 130.636C131.409 130.499 131.479 130.332 131.517 130.136H132.746C132.715 130.522 132.601 130.864 132.405 131.162C132.208 131.458 131.941 131.69 131.602 131.858C131.264 132.024 130.866 132.107 130.409 132.107ZM135.371 132.11C135.025 132.11 134.714 132.049 134.437 131.925C134.162 131.8 133.944 131.615 133.783 131.371C133.625 131.128 133.545 130.827 133.545 130.469C133.545 130.162 133.602 129.907 133.716 129.706C133.83 129.505 133.985 129.344 134.181 129.223C134.378 129.102 134.599 129.011 134.845 128.95C135.094 128.886 135.351 128.839 135.616 128.811C135.935 128.778 136.195 128.748 136.393 128.722C136.592 128.694 136.737 128.651 136.827 128.594C136.919 128.535 136.965 128.444 136.965 128.321V128.3C136.965 128.032 136.886 127.825 136.727 127.678C136.569 127.531 136.34 127.458 136.042 127.458C135.727 127.458 135.477 127.527 135.293 127.664C135.11 127.801 134.987 127.964 134.923 128.151L133.723 127.98C133.818 127.649 133.974 127.372 134.192 127.149C134.41 126.924 134.676 126.756 134.991 126.645C135.306 126.531 135.654 126.474 136.035 126.474C136.298 126.474 136.559 126.505 136.82 126.567C137.08 126.628 137.318 126.73 137.533 126.872C137.749 127.012 137.922 127.202 138.052 127.444C138.184 127.685 138.251 127.987 138.251 128.349V132H137.015V131.251H136.972C136.894 131.402 136.784 131.544 136.642 131.677C136.502 131.807 136.326 131.912 136.113 131.993C135.902 132.071 135.655 132.11 135.371 132.11ZM135.705 131.165C135.963 131.165 136.186 131.115 136.376 131.013C136.565 130.909 136.711 130.771 136.812 130.601C136.917 130.43 136.969 130.245 136.969 130.043V129.401C136.929 129.434 136.86 129.464 136.763 129.493C136.668 129.521 136.562 129.546 136.443 129.567C136.325 129.589 136.208 129.608 136.092 129.624C135.976 129.641 135.875 129.655 135.79 129.667C135.598 129.693 135.426 129.736 135.275 129.795C135.123 129.854 135.004 129.937 134.916 130.043C134.829 130.147 134.785 130.282 134.785 130.448C134.785 130.685 134.871 130.864 135.044 130.984C135.217 131.105 135.437 131.165 135.705 131.165ZM140.829 124.727V132H139.543V124.727H140.829ZM144.688 132V124.727H147.415C147.974 124.727 148.443 124.831 148.822 125.04C149.203 125.248 149.49 125.535 149.684 125.899C149.881 126.261 149.979 126.673 149.979 127.135C149.979 127.601 149.881 128.016 149.684 128.378C149.488 128.74 149.198 129.025 148.814 129.234C148.431 129.44 147.959 129.543 147.398 129.543H145.59V128.46H147.22C147.547 128.46 147.814 128.403 148.023 128.289C148.231 128.175 148.385 128.019 148.484 127.82C148.586 127.621 148.637 127.393 148.637 127.135C148.637 126.877 148.586 126.65 148.484 126.453C148.385 126.257 148.23 126.104 148.019 125.995C147.811 125.884 147.542 125.828 147.213 125.828H146.006V132H144.688ZM152.539 132.11C152.193 132.11 151.882 132.049 151.605 131.925C151.33 131.8 151.112 131.615 150.951 131.371C150.793 131.128 150.713 130.827 150.713 130.469C150.713 130.162 150.77 129.907 150.884 129.706C150.998 129.505 151.153 129.344 151.349 129.223C151.546 129.102 151.767 129.011 152.013 128.95C152.262 128.886 152.519 128.839 152.784 128.811C153.103 128.778 153.363 128.748 153.561 128.722C153.76 128.694 153.905 128.651 153.995 128.594C154.087 128.535 154.133 128.444 154.133 128.321V128.3C154.133 128.032 154.054 127.825 153.895 127.678C153.737 127.531 153.508 127.458 153.21 127.458C152.895 127.458 152.645 127.527 152.461 127.664C152.278 127.801 152.155 127.964 152.091 128.151L150.891 127.98C150.986 127.649 151.142 127.372 151.36 127.149C151.578 126.924 151.844 126.756 152.159 126.645C152.474 126.531 152.822 126.474 153.203 126.474C153.466 126.474 153.727 126.505 153.988 126.567C154.248 126.628 154.486 126.73 154.701 126.872C154.917 127.012 155.09 127.202 155.22 127.444C155.352 127.685 155.419 127.987 155.419 128.349V132H154.183V131.251H154.14C154.062 131.402 153.952 131.544 153.81 131.677C153.67 131.807 153.494 131.912 153.281 131.993C153.07 132.071 152.823 132.11 152.539 132.11ZM152.873 131.165C153.131 131.165 153.354 131.115 153.544 131.013C153.733 130.909 153.879 130.771 153.98 130.601C154.085 130.43 154.137 130.245 154.137 130.043V129.401C154.096 129.434 154.028 129.464 153.931 129.493C153.836 129.521 153.73 129.546 153.611 129.567C153.493 129.589 153.376 129.608 153.26 129.624C153.144 129.641 153.043 129.655 152.958 129.667C152.766 129.693 152.594 129.736 152.443 129.795C152.291 129.854 152.172 129.937 152.084 130.043C151.997 130.147 151.953 130.282 151.953 130.448C151.953 130.685 152.039 130.864 152.212 130.984C152.385 131.105 152.605 131.165 152.873 131.165ZM156.711 132V126.545H157.958V127.455H158.015C158.114 127.14 158.284 126.897 158.526 126.727C158.77 126.554 159.048 126.467 159.36 126.467C159.431 126.467 159.511 126.471 159.598 126.478C159.688 126.483 159.763 126.491 159.822 126.503V127.685C159.768 127.666 159.681 127.65 159.563 127.636C159.447 127.619 159.334 127.611 159.225 127.611C158.991 127.611 158.78 127.662 158.593 127.763C158.409 127.863 158.263 128.001 158.157 128.179C158.05 128.357 157.997 128.561 157.997 128.793V132H156.711ZM163.693 126.545V127.54H160.557V126.545H163.693ZM161.331 125.239H162.617V130.359C162.617 130.532 162.643 130.665 162.695 130.757C162.749 130.847 162.82 130.909 162.908 130.942C162.996 130.975 163.093 130.991 163.199 130.991C163.28 130.991 163.353 130.986 163.419 130.974C163.488 130.962 163.54 130.951 163.576 130.942L163.792 131.947C163.724 131.97 163.625 131.996 163.498 132.025C163.372 132.053 163.218 132.07 163.036 132.075C162.714 132.084 162.424 132.036 162.166 131.929C161.908 131.82 161.703 131.652 161.551 131.425C161.402 131.197 161.329 130.913 161.331 130.572V125.239ZM165.567 134.045C165.392 134.045 165.23 134.031 165.08 134.003C164.934 133.977 164.816 133.946 164.729 133.911L165.027 132.909C165.214 132.964 165.381 132.99 165.528 132.987C165.675 132.985 165.804 132.939 165.915 132.849C166.029 132.761 166.124 132.614 166.203 132.408L166.313 132.114L164.335 126.545H165.698L166.955 130.665H167.012L168.273 126.545H169.64L167.456 132.661C167.354 132.949 167.219 133.197 167.051 133.403C166.883 133.611 166.677 133.77 166.433 133.879C166.192 133.99 165.903 134.045 165.567 134.045ZM171.322 132.078C171.106 132.078 170.921 132.002 170.768 131.851C170.614 131.699 170.538 131.515 170.54 131.297C170.538 131.084 170.614 130.902 170.768 130.75C170.921 130.598 171.106 130.523 171.322 130.523C171.53 130.523 171.711 130.598 171.865 130.75C172.021 130.902 172.1 131.084 172.103 131.297C172.1 131.441 172.063 131.573 171.989 131.691C171.918 131.809 171.823 131.904 171.705 131.975C171.589 132.044 171.461 132.078 171.322 132.078ZM171.322 128.186C171.106 128.186 170.921 128.11 170.768 127.959C170.614 127.805 170.538 127.62 170.54 127.405C170.538 127.192 170.614 127.009 170.768 126.858C170.921 126.704 171.106 126.627 171.322 126.627C171.53 126.627 171.711 126.704 171.865 126.858C172.021 127.009 172.1 127.192 172.103 127.405C172.1 127.547 172.063 127.677 171.989 127.795C171.918 127.914 171.823 128.009 171.705 128.08C171.589 128.151 171.461 128.186 171.322 128.186ZM173.284 130.651V129.603L176.37 124.727H177.244V126.219H176.711L174.634 129.511V129.567H178.941V130.651H173.284ZM176.754 132V130.331L176.768 129.862V124.727H178.011V132H176.754ZM180.076 132V131.048L182.601 128.573C182.842 128.329 183.044 128.113 183.205 127.923C183.366 127.734 183.486 127.55 183.567 127.373C183.647 127.195 183.688 127.006 183.688 126.805C183.688 126.575 183.635 126.379 183.531 126.215C183.427 126.049 183.284 125.922 183.102 125.832C182.919 125.742 182.712 125.697 182.48 125.697C182.241 125.697 182.031 125.746 181.852 125.846C181.672 125.943 181.532 126.081 181.433 126.261C181.335 126.441 181.287 126.656 181.287 126.904H180.033C180.033 126.442 180.139 126.041 180.349 125.7C180.56 125.359 180.85 125.095 181.219 124.908C181.591 124.721 182.017 124.628 182.498 124.628C182.986 124.628 183.414 124.719 183.783 124.901C184.153 125.084 184.439 125.333 184.643 125.651C184.849 125.968 184.952 126.33 184.952 126.737C184.952 127.009 184.9 127.277 184.795 127.54C184.691 127.803 184.508 128.094 184.245 128.413C183.985 128.733 183.619 129.12 183.148 129.575L181.894 130.849V130.899H185.062V132H180.076ZM190.175 130.636V130.253C190.175 129.971 190.235 129.712 190.353 129.475C190.474 129.238 190.649 129.048 190.879 128.903C191.108 128.759 191.386 128.687 191.713 128.687C192.049 128.687 192.331 128.759 192.558 128.903C192.786 129.045 192.957 129.235 193.073 129.472C193.192 129.708 193.251 129.969 193.251 130.253V130.636C193.251 130.918 193.192 131.177 193.073 131.414C192.955 131.651 192.781 131.841 192.551 131.986C192.324 132.13 192.045 132.202 191.713 132.202C191.382 132.202 191.101 132.13 190.871 131.986C190.642 131.841 190.468 131.651 190.349 131.414C190.233 131.177 190.175 130.918 190.175 130.636ZM191.102 130.253V130.636C191.102 130.823 191.147 130.995 191.237 131.151C191.327 131.308 191.486 131.386 191.713 131.386C191.943 131.386 192.1 131.309 192.185 131.155C192.273 130.999 192.317 130.826 192.317 130.636V130.253C192.317 130.063 192.275 129.891 192.192 129.734C192.11 129.576 191.95 129.496 191.713 129.496C191.491 129.496 191.333 129.576 191.241 129.734C191.148 129.891 191.102 130.063 191.102 130.253ZM186.479 126.474V126.091C186.479 125.807 186.539 125.546 186.66 125.31C186.781 125.073 186.956 124.884 187.185 124.741C187.415 124.597 187.693 124.525 188.02 124.525C188.354 124.525 188.634 124.597 188.862 124.741C189.091 124.884 189.264 125.073 189.38 125.31C189.496 125.546 189.554 125.807 189.554 126.091V126.474C189.554 126.759 189.495 127.019 189.376 127.256C189.26 127.49 189.088 127.678 188.858 127.82C188.628 127.962 188.349 128.033 188.02 128.033C187.686 128.033 187.404 127.962 187.175 127.82C186.947 127.678 186.775 127.489 186.656 127.252C186.538 127.015 186.479 126.756 186.479 126.474ZM187.413 126.091V126.474C187.413 126.664 187.456 126.837 187.544 126.993C187.634 127.147 187.793 127.224 188.02 127.224C188.247 127.224 188.403 127.147 188.489 126.993C188.576 126.837 188.62 126.664 188.62 126.474V126.091C188.62 125.902 188.579 125.729 188.496 125.572C188.413 125.414 188.254 125.335 188.02 125.335C187.795 125.335 187.638 125.414 187.548 125.572C187.458 125.731 187.413 125.904 187.413 126.091ZM186.884 132L191.884 124.727H192.771L187.771 132H186.884Z" fill="#2A8543"/>
<path d="M79.5895 139.05C79.5303 138.858 79.4486 138.686 79.3445 138.535C79.2427 138.381 79.1196 138.25 78.9751 138.141C78.8331 138.032 78.6697 137.95 78.4851 137.896C78.3004 137.839 78.0992 137.81 77.8814 137.81C77.4908 137.81 77.1428 137.909 76.8374 138.105C76.532 138.302 76.2917 138.59 76.1165 138.972C75.9437 139.35 75.8572 139.812 75.8572 140.357C75.8572 140.906 75.9437 141.371 76.1165 141.752C76.2893 142.133 76.5296 142.423 76.8374 142.622C77.1451 142.819 77.5026 142.917 77.9098 142.917C78.2791 142.917 78.5987 142.846 78.8686 142.704C79.1409 142.562 79.3504 142.361 79.4972 142.1C79.6439 141.837 79.7173 141.53 79.7173 141.177L80.0156 141.223H78.0412V140.193H80.9922V141.067C80.9922 141.689 80.8596 142.228 80.5945 142.683C80.3293 143.137 79.9647 143.487 79.5007 143.734C79.0367 143.978 78.504 144.099 77.9027 144.099C77.2327 144.099 76.6444 143.949 76.1378 143.648C75.6335 143.345 75.2393 142.916 74.9553 142.359C74.6735 141.801 74.5327 141.138 74.5327 140.371C74.5327 139.784 74.6155 139.259 74.7812 138.798C74.9493 138.336 75.1837 137.944 75.4844 137.622C75.785 137.298 76.1378 137.052 76.5426 136.884C76.9474 136.713 77.3878 136.628 77.8636 136.628C78.2661 136.628 78.6413 136.687 78.9893 136.805C79.3374 136.921 79.6463 137.087 79.9162 137.303C80.1884 137.518 80.4122 137.774 80.5874 138.07C80.7625 138.366 80.8774 138.692 80.9318 139.05H79.5895ZM82.2093 144V138.545H83.4558V139.455H83.5126C83.612 139.14 83.7825 138.897 84.024 138.727C84.2678 138.554 84.546 138.467 84.8585 138.467C84.9295 138.467 85.0088 138.471 85.0964 138.478C85.1864 138.483 85.2609 138.491 85.3201 138.503V139.685C85.2657 139.666 85.1793 139.65 85.0609 139.636C84.9449 139.619 84.8324 139.611 84.7235 139.611C84.4892 139.611 84.2785 139.662 84.0914 139.763C83.9068 139.863 83.7612 140.001 83.6547 140.179C83.5481 140.357 83.4949 140.561 83.4949 140.793V144H82.2093ZM88.3643 144.107C87.8175 144.107 87.3452 143.993 86.9474 143.766C86.5521 143.536 86.2479 143.212 86.0348 142.793C85.8217 142.371 85.7152 141.875 85.7152 141.305C85.7152 140.744 85.8217 140.251 86.0348 139.827C86.2502 139.401 86.5509 139.07 86.9368 138.833C87.3227 138.594 87.776 138.474 88.2969 138.474C88.633 138.474 88.9503 138.529 89.2486 138.638C89.5492 138.744 89.8144 138.91 90.044 139.135C90.276 139.36 90.4583 139.646 90.5909 139.994C90.7235 140.34 90.7898 140.752 90.7898 141.23V141.624H86.3189V140.758H89.5575C89.5552 140.512 89.5019 140.293 89.3977 140.101C89.2936 139.907 89.148 139.754 88.9609 139.643C88.7763 139.531 88.5608 139.476 88.3146 139.476C88.0518 139.476 87.821 139.54 87.6222 139.668C87.4233 139.793 87.2682 139.959 87.157 140.165C87.0481 140.368 86.9924 140.592 86.9901 140.836V141.592C86.9901 141.91 87.0481 142.182 87.1641 142.409C87.2801 142.634 87.4422 142.807 87.6506 142.928C87.8589 143.046 88.1027 143.105 88.3821 143.105C88.5691 143.105 88.7384 143.079 88.8899 143.027C89.0414 142.973 89.1728 142.893 89.2841 142.789C89.3954 142.685 89.4794 142.556 89.5362 142.402L90.7365 142.537C90.6607 142.854 90.5163 143.131 90.3033 143.368C90.0926 143.602 89.8227 143.785 89.4936 143.915C89.1645 144.043 88.7881 144.107 88.3643 144.107ZM94.2921 144.107C93.7452 144.107 93.2729 143.993 92.8752 143.766C92.4798 143.536 92.1756 143.212 91.9625 142.793C91.7495 142.371 91.6429 141.875 91.6429 141.305C91.6429 140.744 91.7495 140.251 91.9625 139.827C92.178 139.401 92.4786 139.07 92.8645 138.833C93.2504 138.594 93.7038 138.474 94.2246 138.474C94.5608 138.474 94.878 138.529 95.1763 138.638C95.477 138.744 95.7421 138.91 95.9718 139.135C96.2038 139.36 96.3861 139.646 96.5186 139.994C96.6512 140.34 96.7175 140.752 96.7175 141.23V141.624H92.2466V140.758H95.4853C95.4829 140.512 95.4296 140.293 95.3255 140.101C95.2213 139.907 95.0757 139.754 94.8887 139.643C94.704 139.531 94.4886 139.476 94.2424 139.476C93.9796 139.476 93.7488 139.54 93.5499 139.668C93.351 139.793 93.196 139.959 93.0847 140.165C92.9758 140.368 92.9202 140.592 92.9178 140.836V141.592C92.9178 141.91 92.9758 142.182 93.0918 142.409C93.2078 142.634 93.37 142.807 93.5783 142.928C93.7866 143.046 94.0305 143.105 94.3098 143.105C94.4969 143.105 94.6661 143.079 94.8176 143.027C94.9692 142.973 95.1006 142.893 95.2118 142.789C95.3231 142.685 95.4071 142.556 95.464 142.402L96.6642 142.537C96.5885 142.854 96.4441 143.131 96.231 143.368C96.0203 143.602 95.7504 143.785 95.4213 143.915C95.0923 144.043 94.7158 144.107 94.2921 144.107ZM99.0906 140.804V144H97.805V138.545H99.0337V139.472H99.0977C99.2231 139.167 99.4232 138.924 99.6978 138.744C99.9748 138.564 100.317 138.474 100.724 138.474C101.1 138.474 101.428 138.555 101.708 138.716C101.989 138.877 102.207 139.11 102.361 139.415C102.517 139.721 102.594 140.091 102.592 140.527V144H101.306V140.726C101.306 140.361 101.212 140.076 101.022 139.87C100.835 139.664 100.576 139.561 100.245 139.561C100.02 139.561 99.8197 139.611 99.6445 139.71C99.4717 139.807 99.3356 139.948 99.2362 140.133C99.1391 140.317 99.0906 140.541 99.0906 140.804ZM106.436 144V136.727H111.095V137.832H107.754V139.806H110.776V140.911H107.754V144H106.436ZM115.373 141.706V138.545H116.659V144H115.412V143.031H115.356C115.233 143.336 115.03 143.586 114.748 143.78C114.469 143.974 114.125 144.071 113.715 144.071C113.358 144.071 113.041 143.992 112.767 143.833C112.495 143.672 112.282 143.439 112.128 143.134C111.974 142.826 111.897 142.454 111.897 142.018V138.545H113.182V141.82C113.182 142.165 113.277 142.44 113.466 142.643C113.656 142.847 113.904 142.949 114.212 142.949C114.402 142.949 114.585 142.903 114.763 142.81C114.94 142.718 115.086 142.581 115.199 142.398C115.315 142.214 115.373 141.983 115.373 141.706ZM120.705 138.545V139.54H117.569V138.545H120.705ZM118.343 137.239H119.629V142.359C119.629 142.532 119.655 142.665 119.707 142.757C119.761 142.847 119.832 142.909 119.92 142.942C120.007 142.975 120.104 142.991 120.211 142.991C120.291 142.991 120.365 142.986 120.431 142.974C120.5 142.962 120.552 142.951 120.587 142.942L120.804 143.947C120.735 143.97 120.637 143.996 120.509 144.025C120.384 144.053 120.23 144.07 120.048 144.075C119.726 144.084 119.436 144.036 119.178 143.929C118.92 143.82 118.715 143.652 118.563 143.425C118.414 143.197 118.341 142.913 118.343 142.572V137.239ZM125.256 141.706V138.545H126.542V144H125.295V143.031H125.238C125.115 143.336 124.913 143.586 124.631 143.78C124.352 143.974 124.007 144.071 123.598 144.071C123.24 144.071 122.924 143.992 122.65 143.833C122.377 143.672 122.164 143.439 122.01 143.134C121.857 142.826 121.78 142.454 121.78 142.018V138.545H123.065V141.82C123.065 142.165 123.16 142.44 123.349 142.643C123.539 142.847 123.787 142.949 124.095 142.949C124.284 142.949 124.468 142.903 124.645 142.81C124.823 142.718 124.969 142.581 125.082 142.398C125.198 142.214 125.256 141.983 125.256 141.706ZM130.587 138.545V139.54H127.452V138.545H130.587ZM128.226 137.239H129.511V142.359C129.511 142.532 129.537 142.665 129.589 142.757C129.644 142.847 129.715 142.909 129.803 142.942C129.89 142.975 129.987 142.991 130.094 142.991C130.174 142.991 130.248 142.986 130.314 142.974C130.383 142.962 130.435 142.951 130.47 142.942L130.687 143.947C130.618 143.97 130.52 143.996 130.392 144.025C130.267 144.053 130.113 144.07 129.93 144.075C129.608 144.084 129.318 144.036 129.06 143.929C128.802 143.82 128.598 143.652 128.446 143.425C128.297 143.197 128.223 142.913 128.226 142.572V137.239ZM134.019 144.107C133.472 144.107 132.999 143.993 132.602 143.766C132.206 143.536 131.902 143.212 131.689 142.793C131.476 142.371 131.369 141.875 131.369 141.305C131.369 140.744 131.476 140.251 131.689 139.827C131.905 139.401 132.205 139.07 132.591 138.833C132.977 138.594 133.43 138.474 133.951 138.474C134.287 138.474 134.605 138.529 134.903 138.638C135.204 138.744 135.469 138.91 135.698 139.135C135.93 139.36 136.113 139.646 136.245 139.994C136.378 140.34 136.444 140.752 136.444 141.23V141.624H131.973V140.758H135.212C135.209 140.512 135.156 140.293 135.052 140.101C134.948 139.907 134.802 139.754 134.615 139.643C134.431 139.531 134.215 139.476 133.969 139.476C133.706 139.476 133.475 139.54 133.276 139.668C133.078 139.793 132.923 139.959 132.811 140.165C132.702 140.368 132.647 140.592 132.644 140.836V141.592C132.644 141.91 132.702 142.182 132.818 142.409C132.934 142.634 133.097 142.807 133.305 142.928C133.513 143.046 133.757 143.105 134.036 143.105C134.223 143.105 134.393 143.079 134.544 143.027C134.696 142.973 134.827 142.893 134.938 142.789C135.05 142.685 135.134 142.556 135.191 142.402L136.391 142.537C136.315 142.854 136.171 143.131 135.958 143.368C135.747 143.602 135.477 143.785 135.148 143.915C134.819 144.043 134.442 144.107 134.019 144.107ZM140.069 144V136.727H142.796C143.355 136.727 143.824 136.831 144.202 137.04C144.584 137.248 144.871 137.535 145.065 137.899C145.262 138.261 145.36 138.673 145.36 139.135C145.36 139.601 145.262 140.016 145.065 140.378C144.869 140.74 144.579 141.025 144.195 141.234C143.812 141.44 143.339 141.543 142.778 141.543H140.971V140.46H142.601C142.928 140.46 143.195 140.403 143.403 140.289C143.612 140.175 143.766 140.019 143.865 139.82C143.967 139.621 144.018 139.393 144.018 139.135C144.018 138.877 143.967 138.65 143.865 138.453C143.766 138.257 143.611 138.104 143.4 137.995C143.192 137.884 142.923 137.828 142.594 137.828H141.386V144H140.069ZM147.92 144.11C147.574 144.11 147.263 144.049 146.986 143.925C146.711 143.8 146.493 143.615 146.332 143.371C146.174 143.128 146.094 142.827 146.094 142.469C146.094 142.162 146.151 141.907 146.265 141.706C146.378 141.505 146.533 141.344 146.73 141.223C146.926 141.102 147.148 141.011 147.394 140.95C147.643 140.886 147.899 140.839 148.165 140.811C148.484 140.778 148.743 140.748 148.942 140.722C149.141 140.694 149.286 140.651 149.376 140.594C149.468 140.535 149.514 140.444 149.514 140.321V140.3C149.514 140.032 149.435 139.825 149.276 139.678C149.117 139.531 148.889 139.458 148.591 139.458C148.276 139.458 148.026 139.527 147.841 139.664C147.659 139.801 147.536 139.964 147.472 140.151L146.272 139.98C146.367 139.649 146.523 139.372 146.741 139.149C146.958 138.924 147.225 138.756 147.54 138.645C147.854 138.531 148.202 138.474 148.584 138.474C148.846 138.474 149.108 138.505 149.368 138.567C149.629 138.628 149.867 138.73 150.082 138.872C150.298 139.012 150.47 139.202 150.601 139.444C150.733 139.685 150.8 139.987 150.8 140.349V144H149.564V143.251H149.521C149.443 143.402 149.333 143.544 149.191 143.677C149.051 143.807 148.875 143.912 148.662 143.993C148.451 144.071 148.204 144.11 147.92 144.11ZM148.253 143.165C148.511 143.165 148.735 143.115 148.925 143.013C149.114 142.909 149.26 142.771 149.361 142.601C149.465 142.43 149.518 142.245 149.518 142.043V141.401C149.477 141.434 149.409 141.464 149.312 141.493C149.217 141.521 149.11 141.546 148.992 141.567C148.874 141.589 148.756 141.608 148.64 141.624C148.524 141.641 148.424 141.655 148.339 141.667C148.147 141.693 147.975 141.736 147.824 141.795C147.672 141.854 147.553 141.937 147.465 142.043C147.377 142.147 147.334 142.282 147.334 142.448C147.334 142.685 147.42 142.864 147.593 142.984C147.766 143.105 147.986 143.165 148.253 143.165ZM152.092 144V138.545H153.339V139.455H153.395C153.495 139.14 153.665 138.897 153.907 138.727C154.151 138.554 154.429 138.467 154.741 138.467C154.812 138.467 154.892 138.471 154.979 138.478C155.069 138.483 155.144 138.491 155.203 138.503V139.685C155.148 139.666 155.062 139.65 154.944 139.636C154.828 139.619 154.715 139.611 154.606 139.611C154.372 139.611 154.161 139.662 153.974 139.763C153.79 139.863 153.644 140.001 153.537 140.179C153.431 140.357 153.378 140.561 153.378 140.793V144H152.092ZM159.074 138.545V139.54H155.938V138.545H159.074ZM156.712 137.239H157.998V142.359C157.998 142.532 158.024 142.665 158.076 142.757C158.13 142.847 158.201 142.909 158.289 142.942C158.376 142.975 158.474 142.991 158.58 142.991C158.661 142.991 158.734 142.986 158.8 142.974C158.869 142.962 158.921 142.951 158.956 142.942L159.173 143.947C159.104 143.97 159.006 143.996 158.878 144.025C158.753 144.053 158.599 144.07 158.417 144.075C158.095 144.084 157.805 144.036 157.547 143.929C157.289 143.82 157.084 143.652 156.932 143.425C156.783 143.197 156.71 142.913 156.712 142.572V137.239ZM160.948 146.045C160.773 146.045 160.61 146.031 160.461 146.003C160.315 145.977 160.197 145.946 160.11 145.911L160.408 144.909C160.595 144.964 160.762 144.99 160.909 144.987C161.056 144.985 161.185 144.939 161.296 144.849C161.409 144.761 161.505 144.614 161.583 144.408L161.694 144.114L159.716 138.545H161.079L162.336 142.665H162.393L163.654 138.545H165.021L162.837 144.661C162.735 144.949 162.6 145.197 162.432 145.403C162.264 145.611 162.058 145.77 161.814 145.879C161.573 145.99 161.284 146.045 160.948 146.045ZM166.702 144.078C166.487 144.078 166.302 144.002 166.148 143.851C165.995 143.699 165.919 143.515 165.921 143.297C165.919 143.084 165.995 142.902 166.148 142.75C166.302 142.598 166.487 142.523 166.702 142.523C166.911 142.523 167.092 142.598 167.246 142.75C167.402 142.902 167.481 143.084 167.484 143.297C167.481 143.441 167.443 143.573 167.37 143.691C167.299 143.809 167.204 143.904 167.086 143.975C166.97 144.044 166.842 144.078 166.702 144.078ZM166.702 140.186C166.487 140.186 166.302 140.11 166.148 139.959C165.995 139.805 165.919 139.62 165.921 139.405C165.919 139.192 165.995 139.009 166.148 138.858C166.302 138.704 166.487 138.627 166.702 138.627C166.911 138.627 167.092 138.704 167.246 138.858C167.402 139.009 167.481 139.192 167.484 139.405C167.481 139.547 167.443 139.677 167.37 139.795C167.299 139.914 167.204 140.009 167.086 140.08C166.97 140.151 166.842 140.186 166.702 140.186ZM171.407 144.099C170.895 144.099 170.441 144.012 170.043 143.837C169.648 143.661 169.335 143.418 169.106 143.105C168.876 142.793 168.754 142.432 168.74 142.022H170.075C170.087 142.219 170.152 142.39 170.27 142.537C170.389 142.681 170.546 142.794 170.743 142.874C170.939 142.955 171.159 142.995 171.403 142.995C171.664 142.995 171.894 142.95 172.096 142.86C172.297 142.768 172.454 142.64 172.568 142.477C172.682 142.313 172.737 142.125 172.735 141.912C172.737 141.692 172.68 141.498 172.564 141.33C172.448 141.161 172.28 141.03 172.06 140.935C171.842 140.841 171.58 140.793 171.272 140.793H170.629V139.778H171.272C171.525 139.778 171.747 139.734 171.936 139.646C172.128 139.559 172.278 139.436 172.387 139.277C172.496 139.116 172.549 138.93 172.547 138.719C172.549 138.513 172.503 138.335 172.408 138.183C172.316 138.029 172.184 137.91 172.014 137.825C171.846 137.739 171.648 137.697 171.421 137.697C171.198 137.697 170.992 137.737 170.803 137.817C170.614 137.898 170.461 138.013 170.345 138.162C170.229 138.309 170.167 138.484 170.16 138.688H168.893C168.902 138.28 169.019 137.923 169.244 137.615C169.471 137.305 169.774 137.063 170.153 136.891C170.532 136.715 170.957 136.628 171.428 136.628C171.913 136.628 172.335 136.719 172.692 136.901C173.052 137.081 173.33 137.324 173.527 137.629C173.723 137.935 173.822 138.272 173.822 138.641C173.824 139.051 173.703 139.394 173.459 139.671C173.218 139.948 172.901 140.129 172.508 140.214V140.271C173.019 140.342 173.411 140.532 173.683 140.839C173.958 141.145 174.094 141.525 174.091 141.979C174.091 142.387 173.975 142.751 173.743 143.073C173.514 143.393 173.197 143.644 172.792 143.826C172.389 144.008 171.928 144.099 171.407 144.099ZM177.999 144.138C177.414 144.138 176.912 143.991 176.493 143.695C176.076 143.396 175.755 142.967 175.531 142.406C175.308 141.842 175.197 141.164 175.197 140.371C175.199 139.578 175.312 138.903 175.534 138.347C175.759 137.788 176.08 137.362 176.496 137.068C176.915 136.775 177.416 136.628 177.999 136.628C178.581 136.628 179.082 136.775 179.501 137.068C179.92 137.362 180.241 137.788 180.463 138.347C180.688 138.905 180.8 139.58 180.8 140.371C180.8 141.166 180.688 141.846 180.463 142.409C180.241 142.97 179.92 143.399 179.501 143.695C179.084 143.991 178.583 144.138 177.999 144.138ZM177.999 143.027C178.453 143.027 178.812 142.803 179.075 142.356C179.34 141.906 179.472 141.244 179.472 140.371C179.472 139.793 179.412 139.308 179.291 138.915C179.17 138.522 179 138.226 178.78 138.027C178.56 137.826 178.299 137.725 177.999 137.725C177.546 137.725 177.189 137.95 176.926 138.4C176.663 138.847 176.531 139.504 176.528 140.371C176.526 140.951 176.584 141.438 176.702 141.834C176.823 142.229 176.994 142.527 177.214 142.729C177.434 142.928 177.696 143.027 177.999 143.027ZM185.869 142.636V142.253C185.869 141.971 185.928 141.712 186.046 141.475C186.167 141.238 186.342 141.048 186.572 140.903C186.802 140.759 187.08 140.687 187.406 140.687C187.743 140.687 188.024 140.759 188.252 140.903C188.479 141.045 188.651 141.235 188.767 141.472C188.885 141.708 188.944 141.969 188.944 142.253V142.636C188.944 142.918 188.885 143.177 188.767 143.414C188.648 143.651 188.474 143.841 188.244 143.986C188.017 144.13 187.738 144.202 187.406 144.202C187.075 144.202 186.794 144.13 186.565 143.986C186.335 143.841 186.161 143.651 186.043 143.414C185.927 143.177 185.869 142.918 185.869 142.636ZM186.796 142.253V142.636C186.796 142.823 186.841 142.995 186.931 143.151C187.021 143.308 187.179 143.386 187.406 143.386C187.636 143.386 187.794 143.309 187.879 143.155C187.966 142.999 188.01 142.826 188.01 142.636V142.253C188.01 142.063 187.969 141.891 187.886 141.734C187.803 141.576 187.643 141.496 187.406 141.496C187.184 141.496 187.026 141.576 186.934 141.734C186.842 141.891 186.796 142.063 186.796 142.253ZM182.172 138.474V138.091C182.172 137.807 182.232 137.546 182.353 137.31C182.474 137.073 182.649 136.884 182.879 136.741C183.108 136.597 183.387 136.525 183.713 136.525C184.047 136.525 184.328 136.597 184.555 136.741C184.785 136.884 184.957 137.073 185.073 137.31C185.189 137.546 185.247 137.807 185.247 138.091V138.474C185.247 138.759 185.188 139.019 185.07 139.256C184.954 139.49 184.781 139.678 184.551 139.82C184.322 139.962 184.042 140.033 183.713 140.033C183.379 140.033 183.098 139.962 182.868 139.82C182.641 139.678 182.468 139.489 182.35 139.252C182.231 139.015 182.172 138.756 182.172 138.474ZM183.106 138.091V138.474C183.106 138.664 183.15 138.837 183.237 138.993C183.327 139.147 183.486 139.224 183.713 139.224C183.941 139.224 184.097 139.147 184.182 138.993C184.27 138.837 184.313 138.664 184.313 138.474V138.091C184.313 137.902 184.272 137.729 184.189 137.572C184.106 137.414 183.948 137.335 183.713 137.335C183.488 137.335 183.331 137.414 183.241 137.572C183.151 137.731 183.106 137.904 183.106 138.091ZM182.577 144L187.577 136.727H188.465L183.465 144H182.577Z" fill="#F7FEF8"/>
<path d="M80.9425 151.181H79.6143C79.5765 150.963 79.5066 150.77 79.4048 150.602C79.303 150.432 79.1764 150.287 79.0249 150.169C78.8733 150.051 78.7005 149.962 78.5064 149.903C78.3146 149.841 78.1075 149.81 77.8849 149.81C77.4896 149.81 77.1392 149.91 76.8338 150.109C76.5284 150.305 76.2893 150.594 76.1165 150.975C75.9437 151.354 75.8572 151.817 75.8572 152.364C75.8572 152.92 75.9437 153.389 76.1165 153.77C76.2917 154.149 76.5308 154.435 76.8338 154.629C77.1392 154.821 77.4884 154.917 77.8814 154.917C78.0992 154.917 78.3028 154.888 78.4922 154.832C78.6839 154.772 78.8556 154.686 79.0071 154.572C79.161 154.459 79.29 154.319 79.3942 154.153C79.5007 153.988 79.5741 153.798 79.6143 153.585L80.9425 153.592C80.8928 153.938 80.785 154.262 80.6193 154.565C80.456 154.868 80.2417 155.136 79.9766 155.368C79.7114 155.598 79.4013 155.777 79.0462 155.908C78.6911 156.036 78.2969 156.099 77.8636 156.099C77.2244 156.099 76.6539 155.951 76.152 155.656C75.6501 155.36 75.2547 154.932 74.9659 154.374C74.6771 153.815 74.5327 153.145 74.5327 152.364C74.5327 151.58 74.6783 150.91 74.9695 150.354C75.2607 149.795 75.6572 149.368 76.1591 149.072C76.661 148.776 77.2292 148.628 77.8636 148.628C78.2685 148.628 78.6449 148.685 78.9929 148.798C79.3409 148.912 79.651 149.079 79.9233 149.299C80.1955 149.517 80.4193 149.784 80.5945 150.102C80.772 150.416 80.888 150.776 80.9425 151.181ZM85.5687 153.706V150.545H86.8542V156H85.6078V155.031H85.551C85.4279 155.336 85.2254 155.586 84.9437 155.78C84.6644 155.974 84.3199 156.071 83.9103 156.071C83.5529 156.071 83.2368 155.992 82.9622 155.833C82.6899 155.672 82.4769 155.439 82.323 155.134C82.1691 154.826 82.0922 154.454 82.0922 154.018V150.545H83.3777V153.82C83.3777 154.165 83.4724 154.44 83.6618 154.643C83.8511 154.847 84.0997 154.949 84.4075 154.949C84.5969 154.949 84.7804 154.903 84.9579 154.81C85.1355 154.718 85.2811 154.581 85.3947 154.398C85.5107 154.214 85.5687 153.983 85.5687 153.706ZM89.4616 148.727V156H88.1761V148.727H89.4616ZM93.5073 150.545V151.54H90.3716V150.545H93.5073ZM91.1458 149.239H92.4313V154.359C92.4313 154.532 92.4573 154.665 92.5094 154.757C92.5639 154.847 92.6349 154.909 92.7225 154.942C92.8101 154.975 92.9071 154.991 93.0137 154.991C93.0942 154.991 93.1676 154.986 93.2338 154.974C93.3025 154.962 93.3546 154.951 93.3901 154.942L93.6067 155.947C93.5381 155.97 93.4398 155.996 93.312 156.025C93.1865 156.053 93.0326 156.07 92.8503 156.075C92.5283 156.084 92.2383 156.036 91.9803 155.929C91.7222 155.82 91.5175 155.652 91.3659 155.425C91.2168 155.197 91.1434 154.913 91.1458 154.572V149.239ZM98.0589 153.706V150.545H99.3445V156H98.098V155.031H98.0412C97.9181 155.336 97.7157 155.586 97.4339 155.78C97.1546 155.974 96.8101 156.071 96.4006 156.071C96.0431 156.071 95.727 155.992 95.4524 155.833C95.1802 155.672 94.9671 155.439 94.8132 155.134C94.6593 154.826 94.5824 154.454 94.5824 154.018V150.545H95.8679V153.82C95.8679 154.165 95.9626 154.44 96.152 154.643C96.3414 154.847 96.59 154.949 96.8977 154.949C97.0871 154.949 97.2706 154.903 97.4482 154.81C97.6257 154.718 97.7713 154.581 97.8849 154.398C98.0009 154.214 98.0589 153.983 98.0589 153.706ZM100.666 156V150.545H101.913V151.455H101.97C102.069 151.14 102.24 150.897 102.481 150.727C102.725 150.554 103.003 150.467 103.316 150.467C103.387 150.467 103.466 150.471 103.553 150.478C103.643 150.483 103.718 150.491 103.777 150.503V151.685C103.723 151.666 103.636 151.65 103.518 151.636C103.402 151.619 103.289 151.611 103.181 151.611C102.946 151.611 102.735 151.662 102.548 151.763C102.364 151.863 102.218 152.001 102.112 152.179C102.005 152.357 101.952 152.561 101.952 152.793V156H100.666ZM106.103 156.11C105.758 156.11 105.446 156.049 105.169 155.925C104.895 155.8 104.677 155.615 104.516 155.371C104.357 155.128 104.278 154.827 104.278 154.469C104.278 154.162 104.335 153.907 104.448 153.706C104.562 153.505 104.717 153.344 104.914 153.223C105.11 153.102 105.331 153.011 105.578 152.95C105.826 152.886 106.083 152.839 106.348 152.811C106.668 152.778 106.927 152.748 107.126 152.722C107.325 152.694 107.469 152.651 107.559 152.594C107.651 152.535 107.698 152.444 107.698 152.321V152.3C107.698 152.032 107.618 151.825 107.46 151.678C107.301 151.531 107.073 151.458 106.774 151.458C106.459 151.458 106.21 151.527 106.025 151.664C105.843 151.801 105.72 151.964 105.656 152.151L104.455 151.98C104.55 151.649 104.706 151.372 104.924 151.149C105.142 150.924 105.408 150.756 105.723 150.645C106.038 150.531 106.386 150.474 106.767 150.474C107.03 150.474 107.292 150.505 107.552 150.567C107.812 150.628 108.05 150.73 108.266 150.872C108.481 151.012 108.654 151.202 108.784 151.444C108.917 151.685 108.983 151.987 108.983 152.349V156H107.747V155.251H107.705C107.627 155.402 107.517 155.544 107.374 155.677C107.235 155.807 107.058 155.912 106.845 155.993C106.635 156.071 106.387 156.11 106.103 156.11ZM106.437 155.165C106.695 155.165 106.919 155.115 107.108 155.013C107.298 154.909 107.443 154.771 107.545 154.601C107.649 154.43 107.701 154.245 107.701 154.043V153.401C107.661 153.434 107.592 153.464 107.495 153.493C107.401 153.521 107.294 153.546 107.176 153.567C107.057 153.589 106.94 153.608 106.824 153.624C106.708 153.641 106.607 153.655 106.522 153.667C106.33 153.693 106.159 153.736 106.007 153.795C105.856 153.854 105.736 153.937 105.649 154.043C105.561 154.147 105.517 154.282 105.517 154.448C105.517 154.685 105.604 154.864 105.776 154.984C105.949 155.105 106.169 155.165 106.437 155.165ZM111.561 148.727V156H110.276V148.727H111.561ZM115.42 156V148.727H118.148C118.706 148.727 119.175 148.831 119.554 149.04C119.935 149.248 120.223 149.535 120.417 149.899C120.613 150.261 120.712 150.673 120.712 151.135C120.712 151.601 120.613 152.016 120.417 152.378C120.22 152.74 119.93 153.025 119.547 153.234C119.163 153.44 118.691 153.543 118.13 153.543H116.322V152.46H117.952C118.279 152.46 118.547 152.403 118.755 152.289C118.963 152.175 119.117 152.019 119.217 151.82C119.318 151.621 119.369 151.393 119.369 151.135C119.369 150.877 119.318 150.65 119.217 150.453C119.117 150.257 118.962 150.104 118.751 149.995C118.543 149.884 118.274 149.828 117.945 149.828H116.738V156H115.42ZM123.271 156.11C122.925 156.11 122.614 156.049 122.337 155.925C122.063 155.8 121.845 155.615 121.684 155.371C121.525 155.128 121.446 154.827 121.446 154.469C121.446 154.162 121.503 153.907 121.616 153.706C121.73 153.505 121.885 153.344 122.081 153.223C122.278 153.102 122.499 153.011 122.746 152.95C122.994 152.886 123.251 152.839 123.516 152.811C123.836 152.778 124.095 152.748 124.294 152.722C124.493 152.694 124.637 152.651 124.727 152.594C124.819 152.535 124.866 152.444 124.866 152.321V152.3C124.866 152.032 124.786 151.825 124.628 151.678C124.469 151.531 124.241 151.458 123.942 151.458C123.627 151.458 123.378 151.527 123.193 151.664C123.011 151.801 122.888 151.964 122.824 152.151L121.623 151.98C121.718 151.649 121.874 151.372 122.092 151.149C122.31 150.924 122.576 150.756 122.891 150.645C123.206 150.531 123.554 150.474 123.935 150.474C124.198 150.474 124.46 150.505 124.72 150.567C124.98 150.628 125.218 150.73 125.434 150.872C125.649 151.012 125.822 151.202 125.952 151.444C126.085 151.685 126.151 151.987 126.151 152.349V156H124.915V155.251H124.873C124.795 155.402 124.684 155.544 124.542 155.677C124.403 155.807 124.226 155.912 124.013 155.993C123.803 156.071 123.555 156.11 123.271 156.11ZM123.605 155.165C123.863 155.165 124.087 155.115 124.276 155.013C124.465 154.909 124.611 154.771 124.713 154.601C124.817 154.43 124.869 154.245 124.869 154.043V153.401C124.829 153.434 124.76 153.464 124.663 153.493C124.568 153.521 124.462 153.546 124.344 153.567C124.225 153.589 124.108 153.608 123.992 153.624C123.876 153.641 123.775 153.655 123.69 153.667C123.498 153.693 123.327 153.736 123.175 153.795C123.024 153.854 122.904 153.937 122.817 154.043C122.729 154.147 122.685 154.282 122.685 154.448C122.685 154.685 122.772 154.864 122.944 154.984C123.117 155.105 123.337 155.165 123.605 155.165ZM127.444 156V150.545H128.69V151.455H128.747C128.846 151.14 129.017 150.897 129.258 150.727C129.502 150.554 129.78 150.467 130.093 150.467C130.164 150.467 130.243 150.471 130.331 150.478C130.421 150.483 130.495 150.491 130.555 150.503V151.685C130.5 151.666 130.414 151.65 130.295 151.636C130.179 151.619 130.067 151.611 129.958 151.611C129.724 151.611 129.513 151.662 129.326 151.763C129.141 151.863 128.996 152.001 128.889 152.179C128.782 152.357 128.729 152.561 128.729 152.793V156H127.444ZM134.425 150.545V151.54H131.29V150.545H134.425ZM132.064 149.239H133.349V154.359C133.349 154.532 133.375 154.665 133.427 154.757C133.482 154.847 133.553 154.909 133.64 154.942C133.728 154.975 133.825 154.991 133.932 154.991C134.012 154.991 134.086 154.986 134.152 154.974C134.22 154.962 134.273 154.951 134.308 154.942L134.525 155.947C134.456 155.97 134.358 155.996 134.23 156.025C134.104 156.053 133.951 156.07 133.768 156.075C133.446 156.084 133.156 156.036 132.898 155.929C132.64 155.82 132.435 155.652 132.284 155.425C132.135 155.197 132.061 154.913 132.064 154.572V149.239ZM136.299 158.045C136.124 158.045 135.962 158.031 135.813 158.003C135.666 157.977 135.549 157.946 135.461 157.911L135.76 156.909C135.947 156.964 136.114 156.99 136.26 156.987C136.407 156.985 136.536 156.939 136.647 156.849C136.761 156.761 136.857 156.614 136.935 156.408L137.045 156.114L135.067 150.545H136.431L137.688 154.665H137.745L139.005 150.545H140.373L138.189 156.661C138.087 156.949 137.952 157.197 137.784 157.403C137.616 157.611 137.41 157.77 137.166 157.879C136.924 157.99 136.636 158.045 136.299 158.045ZM142.054 156.078C141.839 156.078 141.654 156.002 141.5 155.851C141.346 155.699 141.27 155.515 141.273 155.297C141.27 155.084 141.346 154.902 141.5 154.75C141.654 154.598 141.839 154.523 142.054 154.523C142.262 154.523 142.443 154.598 142.597 154.75C142.754 154.902 142.833 155.084 142.835 155.297C142.833 155.441 142.795 155.573 142.722 155.691C142.651 155.809 142.556 155.904 142.438 155.975C142.321 156.044 142.194 156.078 142.054 156.078ZM142.054 152.186C141.839 152.186 141.654 152.11 141.5 151.959C141.346 151.805 141.27 151.62 141.273 151.405C141.27 151.192 141.346 151.009 141.5 150.858C141.654 150.704 141.839 150.627 142.054 150.627C142.262 150.627 142.443 150.704 142.597 150.858C142.754 151.009 142.833 151.192 142.835 151.405C142.833 151.547 142.795 151.677 142.722 151.795C142.651 151.914 142.556 152.009 142.438 152.08C142.321 152.151 142.194 152.186 142.054 152.186ZM144.148 156V155.048L146.673 152.573C146.915 152.329 147.116 152.113 147.277 151.923C147.438 151.734 147.559 151.55 147.639 151.373C147.72 151.195 147.76 151.006 147.76 150.805C147.76 150.575 147.708 150.379 147.604 150.215C147.499 150.049 147.356 149.922 147.174 149.832C146.992 149.742 146.784 149.697 146.552 149.697C146.313 149.697 146.104 149.746 145.924 149.846C145.744 149.943 145.604 150.081 145.505 150.261C145.408 150.441 145.359 150.656 145.359 150.904H144.106C144.106 150.442 144.211 150.041 144.422 149.7C144.632 149.359 144.922 149.095 145.292 148.908C145.663 148.721 146.09 148.628 146.57 148.628C147.058 148.628 147.486 148.719 147.856 148.901C148.225 149.084 148.511 149.333 148.715 149.651C148.921 149.968 149.024 150.33 149.024 150.737C149.024 151.009 148.972 151.277 148.868 151.54C148.764 151.803 148.58 152.094 148.317 152.413C148.057 152.733 147.691 153.12 147.22 153.575L145.966 154.849V154.899H149.134V156H144.148ZM152.944 156.099C152.416 156.099 151.948 156.011 151.538 155.833C151.131 155.656 150.811 155.413 150.579 155.105C150.35 154.795 150.236 154.443 150.238 154.05C150.236 153.745 150.302 153.464 150.437 153.209C150.572 152.953 150.755 152.74 150.984 152.57C151.216 152.397 151.474 152.287 151.758 152.239V152.19C151.384 152.107 151.081 151.916 150.849 151.618C150.62 151.317 150.506 150.97 150.508 150.577C150.506 150.203 150.61 149.87 150.821 149.576C151.032 149.282 151.32 149.052 151.687 148.884C152.054 148.713 152.473 148.628 152.944 148.628C153.411 148.628 153.826 148.713 154.191 148.884C154.558 149.052 154.847 149.282 155.057 149.576C155.27 149.87 155.377 150.203 155.377 150.577C155.377 150.97 155.26 151.317 155.025 151.618C154.793 151.916 154.494 152.107 154.127 152.19V152.239C154.411 152.287 154.667 152.397 154.894 152.57C155.124 152.74 155.306 152.953 155.441 153.209C155.578 153.464 155.647 153.745 155.647 154.05C155.647 154.443 155.531 154.795 155.299 155.105C155.067 155.413 154.747 155.656 154.34 155.833C153.935 156.011 153.47 156.099 152.944 156.099ZM152.944 155.084C153.217 155.084 153.453 155.038 153.655 154.945C153.856 154.851 154.012 154.718 154.123 154.548C154.235 154.377 154.291 154.181 154.294 153.958C154.291 153.726 154.231 153.521 154.113 153.344C153.997 153.164 153.837 153.023 153.633 152.921C153.432 152.819 153.202 152.768 152.944 152.768C152.684 152.768 152.452 152.819 152.248 152.921C152.045 153.023 151.884 153.164 151.765 153.344C151.649 153.521 151.593 153.726 151.595 153.958C151.593 154.181 151.647 154.377 151.758 154.548C151.87 154.716 152.026 154.847 152.227 154.942C152.431 155.036 152.67 155.084 152.944 155.084ZM152.944 151.771C153.167 151.771 153.363 151.726 153.534 151.636C153.707 151.546 153.843 151.42 153.942 151.259C154.042 151.098 154.093 150.912 154.095 150.702C154.093 150.493 154.043 150.311 153.946 150.155C153.849 149.996 153.714 149.874 153.541 149.789C153.368 149.701 153.169 149.658 152.944 149.658C152.715 149.658 152.512 149.701 152.337 149.789C152.164 149.874 152.029 149.996 151.932 150.155C151.838 150.311 151.791 150.493 151.794 150.702C151.791 150.912 151.839 151.098 151.936 151.259C152.035 151.418 152.171 151.543 152.344 151.636C152.519 151.726 152.72 151.771 152.944 151.771ZM160.703 154.636V154.253C160.703 153.971 160.762 153.712 160.88 153.475C161.001 153.238 161.176 153.048 161.406 152.903C161.636 152.759 161.914 152.687 162.24 152.687C162.577 152.687 162.858 152.759 163.086 152.903C163.313 153.045 163.484 153.235 163.6 153.472C163.719 153.708 163.778 153.969 163.778 154.253V154.636C163.778 154.918 163.719 155.177 163.6 155.414C163.482 155.651 163.308 155.841 163.078 155.986C162.851 156.13 162.572 156.202 162.24 156.202C161.909 156.202 161.628 156.13 161.399 155.986C161.169 155.841 160.995 155.651 160.877 155.414C160.761 155.177 160.703 154.918 160.703 154.636ZM161.63 154.253V154.636C161.63 154.823 161.675 154.995 161.765 155.151C161.855 155.308 162.013 155.386 162.24 155.386C162.47 155.386 162.627 155.309 162.713 155.155C162.8 154.999 162.844 154.826 162.844 154.636V154.253C162.844 154.063 162.803 153.891 162.72 153.734C162.637 153.576 162.477 153.496 162.24 153.496C162.018 153.496 161.86 153.576 161.768 153.734C161.676 153.891 161.63 154.063 161.63 154.253ZM157.006 150.474V150.091C157.006 149.807 157.066 149.546 157.187 149.31C157.308 149.073 157.483 148.884 157.713 148.741C157.942 148.597 158.221 148.525 158.547 148.525C158.881 148.525 159.162 148.597 159.389 148.741C159.618 148.884 159.791 149.073 159.907 149.31C160.023 149.546 160.081 149.807 160.081 150.091V150.474C160.081 150.759 160.022 151.019 159.904 151.256C159.788 151.49 159.615 151.678 159.385 151.82C159.156 151.962 158.876 152.033 158.547 152.033C158.213 152.033 157.932 151.962 157.702 151.82C157.475 151.678 157.302 151.489 157.184 151.252C157.065 151.015 157.006 150.756 157.006 150.474ZM157.94 150.091V150.474C157.94 150.664 157.984 150.837 158.071 150.993C158.161 151.147 158.32 151.224 158.547 151.224C158.775 151.224 158.931 151.147 159.016 150.993C159.104 150.837 159.147 150.664 159.147 150.474V150.091C159.147 149.902 159.106 149.729 159.023 149.572C158.94 149.414 158.782 149.335 158.547 149.335C158.322 149.335 158.165 149.414 158.075 149.572C157.985 149.731 157.94 149.904 157.94 150.091ZM157.411 156L162.411 148.727H163.299L158.299 156H157.411Z" fill="white"/>
<path d="M95.2398 77.6585C94.5835 77.6585 94.0168 77.5221 93.5395 77.2494C93.0651 76.9738 92.7 76.5846 92.4443 76.0818C92.1886 75.5761 92.0608 74.9809 92.0608 74.2963C92.0608 73.623 92.1886 73.0321 92.4443 72.5235C92.7028 72.0122 93.0636 71.6144 93.5267 71.3304C93.9898 71.0434 94.5338 70.9 95.1588 70.9C95.5622 70.9 95.9429 70.9653 96.3009 71.096C96.6617 71.2238 96.9798 71.4227 97.2554 71.6926C97.5338 71.9625 97.7526 72.3062 97.9117 72.7238C98.0707 73.1386 98.1503 73.6329 98.1503 74.2068V74.6798H92.7852V73.64H96.6716C96.6688 73.3446 96.6048 73.0818 96.4798 72.8517C96.3548 72.6187 96.1801 72.4355 95.9557 72.3019C95.7341 72.1684 95.4756 72.1017 95.1801 72.1017C94.8648 72.1017 94.5878 72.1784 94.3492 72.3318C94.1105 72.4823 93.9244 72.6812 93.7909 72.9284C93.6602 73.1727 93.5935 73.4412 93.5906 73.7338V74.6414C93.5906 75.0221 93.6602 75.3488 93.7994 75.6215C93.9386 75.8914 94.1332 76.0988 94.3832 76.2437C94.6332 76.3858 94.9259 76.4568 95.2611 76.4568C95.4855 76.4568 95.6886 76.4255 95.8705 76.363C96.0523 76.2977 96.2099 76.2025 96.3435 76.0775C96.477 75.9525 96.5778 75.7977 96.646 75.613L98.0864 75.775C97.9955 76.1556 97.8222 76.488 97.5665 76.7721C97.3136 77.0534 96.9898 77.2721 96.5949 77.4284C96.2 77.5818 95.7483 77.6585 95.2398 77.6585ZM100.998 68.8034V77.5306H99.4553V68.8034H100.998ZM105.482 77.6585C104.826 77.6585 104.259 77.5221 103.782 77.2494C103.307 76.9738 102.942 76.5846 102.687 76.0818C102.431 75.5761 102.303 74.9809 102.303 74.2963C102.303 73.623 102.431 73.0321 102.687 72.5235C102.945 72.0122 103.306 71.6144 103.769 71.3304C104.232 71.0434 104.776 70.9 105.401 70.9C105.804 70.9 106.185 70.9653 106.543 71.096C106.904 71.2238 107.222 71.4227 107.498 71.6926C107.776 71.9625 107.995 72.3062 108.154 72.7238C108.313 73.1386 108.392 73.6329 108.392 74.2068V74.6798H103.027V73.64H106.914C106.911 73.3446 106.847 73.0818 106.722 72.8517C106.597 72.6187 106.422 72.4355 106.198 72.3019C105.976 72.1684 105.718 72.1017 105.422 72.1017C105.107 72.1017 104.83 72.1784 104.591 72.3318C104.353 72.4823 104.167 72.6812 104.033 72.9284C103.902 73.1727 103.836 73.4412 103.833 73.7338V74.6414C103.833 75.0221 103.902 75.3488 104.042 75.6215C104.181 75.8914 104.375 76.0988 104.625 76.2437C104.875 76.3858 105.168 76.4568 105.503 76.4568C105.728 76.4568 105.931 76.4255 106.113 76.363C106.294 76.2977 106.452 76.2025 106.586 76.0775C106.719 75.9525 106.82 75.7977 106.888 75.613L108.329 75.775C108.238 76.1556 108.064 76.488 107.809 76.7721C107.556 77.0534 107.232 77.2721 106.837 77.4284C106.442 77.5818 105.99 77.6585 105.482 77.6585ZM112.553 77.6585C111.899 77.6585 111.338 77.515 110.869 77.2281C110.403 76.9412 110.044 76.5448 109.791 76.0392C109.541 75.5306 109.416 74.9454 109.416 74.2835C109.416 73.6187 109.544 73.0321 109.8 72.5235C110.055 72.0122 110.416 71.6144 110.882 71.3304C111.351 71.0434 111.905 70.9 112.544 70.9C113.075 70.9 113.546 70.998 113.955 71.194C114.367 71.3872 114.695 71.6613 114.939 72.0164C115.183 72.3687 115.323 72.7806 115.357 73.2522H113.882C113.823 72.9369 113.68 72.6741 113.456 72.4639C113.234 72.2508 112.938 72.1443 112.565 72.1443C112.25 72.1443 111.973 72.2295 111.734 72.4C111.496 72.5676 111.31 72.809 111.176 73.1244C111.046 73.4397 110.98 73.8176 110.98 74.2579C110.98 74.7039 111.046 75.0875 111.176 75.4085C111.307 75.7267 111.49 75.9724 111.726 76.1457C111.965 76.3162 112.244 76.4014 112.565 76.4014C112.793 76.4014 112.996 76.3588 113.175 76.2735C113.357 76.1855 113.509 76.059 113.631 75.8943C113.753 75.7295 113.837 75.5292 113.882 75.2934H115.357C115.32 75.7565 115.183 76.167 114.948 76.525C114.712 76.8801 114.391 77.1585 113.984 77.3602C113.578 77.559 113.101 77.6585 112.553 77.6585ZM119.892 70.9852V72.1784H116.129V70.9852H119.892ZM117.058 69.417H118.601V75.5619C118.601 75.7693 118.632 75.9284 118.694 76.0392C118.76 76.1471 118.845 76.221 118.95 76.2608C119.055 76.3005 119.172 76.3204 119.299 76.3204C119.396 76.3204 119.484 76.3133 119.564 76.2991C119.646 76.2849 119.709 76.2721 119.751 76.2608L120.011 77.4667C119.929 77.4951 119.811 77.5264 119.657 77.5605C119.507 77.5946 119.322 77.6144 119.103 77.6201C118.717 77.6315 118.369 77.5733 118.059 77.4454C117.75 77.3147 117.504 77.113 117.322 76.8403C117.143 76.5676 117.055 76.2267 117.058 75.8176V69.417ZM121.182 77.5306V70.9852H122.725V77.5306H121.182ZM121.957 70.0562C121.713 70.0562 121.503 69.9752 121.327 69.8133C121.151 69.6485 121.063 69.4511 121.063 69.221C121.063 68.988 121.151 68.7906 121.327 68.6287C121.503 68.4639 121.713 68.3815 121.957 68.3815C122.205 68.3815 122.415 68.4639 122.588 68.6287C122.764 68.7906 122.852 68.988 122.852 69.221C122.852 69.4511 122.764 69.6485 122.588 69.8133C122.415 69.9752 122.205 70.0562 121.957 70.0562ZM127.166 77.6585C126.527 77.6585 125.973 77.5179 125.504 77.2366C125.035 76.9554 124.672 76.5619 124.413 76.0562C124.157 75.5505 124.03 74.9596 124.03 74.2835C124.03 73.6073 124.157 73.015 124.413 72.5065C124.672 71.998 125.035 71.6031 125.504 71.3218C125.973 71.0406 126.527 70.9 127.166 70.9C127.805 70.9 128.359 71.0406 128.828 71.3218C129.297 71.6031 129.659 71.998 129.914 72.5065C130.173 73.015 130.302 73.6073 130.302 74.2835C130.302 74.9596 130.173 75.5505 129.914 76.0562C129.659 76.5619 129.297 76.9554 128.828 77.2366C128.359 77.5179 127.805 77.6585 127.166 77.6585ZM127.174 76.4227C127.521 76.4227 127.811 76.3275 128.044 76.1372C128.277 75.944 128.45 75.6855 128.564 75.3616C128.68 75.0377 128.738 74.6769 128.738 74.2792C128.738 73.8787 128.68 73.5164 128.564 73.1926C128.45 72.8659 128.277 72.6059 128.044 72.4127C127.811 72.2196 127.521 72.123 127.174 72.123C126.819 72.123 126.524 72.2196 126.288 72.4127C126.055 72.6059 125.88 72.8659 125.764 73.1926C125.65 73.5164 125.593 73.8787 125.593 74.2792C125.593 74.6769 125.65 75.0377 125.764 75.3616C125.88 75.6855 126.055 75.944 126.288 76.1372C126.524 76.3275 126.819 76.4227 127.174 76.4227ZM133.154 73.6954V77.5306H131.612V70.9852H133.086V72.0974H133.163C133.313 71.7309 133.553 71.4397 133.883 71.2238C134.215 71.0079 134.626 70.9 135.114 70.9C135.566 70.9 135.96 70.9965 136.295 71.1897C136.633 71.3829 136.894 71.6627 137.079 72.0292C137.266 72.3957 137.359 72.8403 137.356 73.363V77.5306H135.813V73.6017C135.813 73.1642 135.7 72.8218 135.472 72.5747C135.248 72.3275 134.937 72.2039 134.539 72.2039C134.269 72.2039 134.029 72.2636 133.819 72.3829C133.612 72.4994 133.448 72.6684 133.329 72.89C133.212 73.1116 133.154 73.3801 133.154 73.6954ZM149.141 68.8034V77.5306H147.734L143.622 71.586H143.55V77.5306H141.969V68.8034H143.384L147.492 74.7522H147.568V68.8034H149.141ZM153.693 77.6585C153.037 77.6585 152.47 77.5221 151.993 77.2494C151.518 76.9738 151.153 76.5846 150.897 76.0818C150.642 75.5761 150.514 74.9809 150.514 74.2963C150.514 73.623 150.642 73.0321 150.897 72.5235C151.156 72.0122 151.517 71.6144 151.98 71.3304C152.443 71.0434 152.987 70.9 153.612 70.9C154.015 70.9 154.396 70.9653 154.754 71.096C155.115 71.2238 155.433 71.4227 155.709 71.6926C155.987 71.9625 156.206 72.3062 156.365 72.7238C156.524 73.1386 156.603 73.6329 156.603 74.2068V74.6798H151.238V73.64H155.125C155.122 73.3446 155.058 73.0818 154.933 72.8517C154.808 72.6187 154.633 72.4355 154.409 72.3019C154.187 72.1684 153.929 72.1017 153.633 72.1017C153.318 72.1017 153.041 72.1784 152.802 72.3318C152.564 72.4823 152.378 72.6812 152.244 72.9284C152.113 73.1727 152.047 73.4412 152.044 73.7338V74.6414C152.044 75.0221 152.113 75.3488 152.253 75.6215C152.392 75.8914 152.586 76.0988 152.836 76.2437C153.086 76.3858 153.379 76.4568 153.714 76.4568C153.939 76.4568 154.142 76.4255 154.324 76.363C154.505 76.2977 154.663 76.2025 154.797 76.0775C154.93 75.9525 155.031 75.7977 155.099 75.613L156.539 75.775C156.449 76.1556 156.275 76.488 156.02 76.7721C155.767 77.0534 155.443 77.2721 155.048 77.4284C154.653 77.5818 154.201 77.6585 153.693 77.6585ZM159.224 77.5306L157.375 70.9852H158.947L160.098 75.5875H160.157L161.334 70.9852H162.889L164.065 75.5619H164.129L165.263 70.9852H166.839L164.986 77.5306H163.379L162.152 73.1073H162.062L160.835 77.5306H159.224ZM173.09 72.7153L171.683 72.8687C171.644 72.7267 171.574 72.5931 171.475 72.4681C171.378 72.3431 171.247 72.2423 171.082 72.1656C170.918 72.0889 170.716 72.0505 170.477 72.0505C170.156 72.0505 169.886 72.1201 169.668 72.2593C169.452 72.3985 169.345 72.5789 169.348 72.8005C169.345 72.9909 169.415 73.1457 169.557 73.265C169.702 73.3843 169.94 73.4823 170.273 73.559L171.389 73.7977C172.009 73.9312 172.469 74.1429 172.77 74.4326C173.074 74.7224 173.227 75.1017 173.23 75.5704C173.227 75.9823 173.107 76.346 172.868 76.6613C172.632 76.9738 172.304 77.2181 171.884 77.3943C171.463 77.5704 170.98 77.6585 170.435 77.6585C169.634 77.6585 168.989 77.4909 168.5 77.1556C168.011 76.8176 167.72 76.3474 167.626 75.7451L169.131 75.6002C169.199 75.8957 169.344 76.1187 169.565 76.2693C169.787 76.4198 170.075 76.4951 170.43 76.4951C170.797 76.4951 171.091 76.4198 171.313 76.2693C171.537 76.1187 171.649 75.9326 171.649 75.711C171.649 75.5235 171.577 75.3687 171.432 75.2465C171.29 75.1244 171.068 75.0306 170.767 74.9653L169.651 74.7309C169.023 74.6002 168.558 74.3801 168.257 74.0704C167.956 73.7579 167.807 73.363 167.81 72.8858C167.807 72.4823 167.916 72.1329 168.138 71.8375C168.362 71.5392 168.673 71.309 169.071 71.1471C169.472 70.9823 169.933 70.9 170.456 70.9C171.223 70.9 171.827 71.0633 172.267 71.39C172.71 71.7167 172.984 72.1585 173.09 72.7153Z" fill="#F5E1E6"/>
</svg>
