<svg width="312" height="244" viewBox="0 0 312 244" fill="none" xmlns="http://www.w3.org/2000/svg">
<rect width="312" height="243.002" fill="#022027"/>
<rect x="19.2521" y="17.9653" width="274.496" height="196.207" rx="25" fill="white"/>
<rect x="45.3944" y="57.6031" width="184.003" height="122.877" rx="25" fill="#FCFCFC"/>
<rect x="32.3232" y="29.8567" width="249.359" height="177.379" rx="25" fill="#040404"/>
<rect x="45.3944" y="38.7751" width="182.997" height="154.587" rx="25" fill="white"/>
<path d="M53.4382 59.6755C53.4382 54.1527 57.9154 49.6755 63.4382 49.6755H210.348C215.871 49.6755 220.348 54.1527 220.348 59.6755V177.417C220.348 182.94 215.871 187.417 210.348 187.417H63.4382C57.9154 187.417 53.4382 182.94 53.4382 177.417V59.6755Z" fill="#1D221E"/>
<ellipse cx="252.523" cy="71.9718" rx="7.03836" ry="6.44114" fill="#D9D9D9"/>
<ellipse cx="252.523" cy="97.7364" rx="7.03836" ry="6.44114" fill="#D9D9D9"/>
<ellipse cx="252.523" cy="118.546" rx="7.03836" ry="6.44114" fill="#D9D9D9"/>
<rect x="235.43" y="137.87" width="34.1863" height="6.93661" rx="3.46831" fill="#D9D9D9"/>
<rect x="235.43" y="152.734" width="34.1863" height="6.93661" rx="3.46831" fill="#D9D9D9"/>
<rect x="235.43" y="167.598" width="34.1863" height="6.93661" rx="3.46831" fill="#D9D9D9"/>
<rect width="12.8149" height="35.8002" rx="6.40747" transform="matrix(0.813138 0.582071 -0.593275 0.805 86.7434 206.245)" fill="#FDFBFB"/>
<rect width="12.8207" height="32.5335" rx="6.41035" transform="matrix(0.83177 -0.55512 0.566315 0.824189 210.293 216.335)" fill="#FDFBFB"/>
<path d="M199.295 56.4018L199.495 65.1268L198.089 65.1581L193.841 59.3065L193.769 59.3081L193.905 65.2512L192.324 65.2864L192.125 56.5614L193.539 56.5299L197.782 62.3858L197.859 62.3841L197.723 56.4368L199.295 56.4018ZM201.132 65.0904L201.105 63.9487L204.067 60.9119C204.35 60.6129 204.585 60.3476 204.773 60.1161C204.961 59.8846 205.101 59.6613 205.192 59.4461C205.284 59.231 205.327 59.0027 205.322 58.7613C205.315 58.4858 205.247 58.2514 205.118 58.0582C204.988 57.8622 204.813 57.7127 204.592 57.6096C204.371 57.5065 204.121 57.4581 203.843 57.4643C203.556 57.4707 203.306 57.5359 203.093 57.66C202.879 57.7813 202.716 57.9511 202.601 58.1696C202.49 58.3881 202.437 58.6464 202.444 58.9446L200.94 58.9781C200.928 58.4243 201.043 57.94 201.287 57.5254C201.53 57.1108 201.871 56.7864 202.309 56.5522C202.749 56.3179 203.258 56.1943 203.835 56.1815C204.42 56.1685 204.936 56.2664 205.384 56.4752C205.832 56.684 206.183 56.976 206.436 57.3512C206.692 57.7263 206.825 58.1581 206.836 58.6466C206.844 58.9732 206.789 59.2955 206.671 59.6136C206.553 59.9316 206.341 60.2858 206.035 60.6763C205.731 61.0666 205.303 61.5408 204.75 62.0987L203.281 63.6616L203.283 63.7212L207.083 63.6366L207.113 64.9573L201.132 65.0904ZM208.201 63.3134L208.172 62.0566L211.74 56.1249L212.788 56.1016L212.829 57.8909L212.19 57.9051L209.788 61.9098L209.79 61.978L214.958 61.863L214.987 63.1624L208.201 63.3134ZM212.4 64.8397L212.354 62.8374L212.358 62.2746L212.217 56.1143L213.708 56.0811L213.908 64.8061L212.4 64.8397Z" fill="#CC1F1F"/>
<path d="M94.3313 77.6585C93.6751 77.6585 93.1083 77.5221 92.631 77.2494C92.1566 76.9738 91.7916 76.5846 91.5359 76.0818C91.2802 75.5761 91.1524 74.9809 91.1524 74.2963C91.1524 73.623 91.2802 73.0321 91.5359 72.5235C91.7944 72.0122 92.1552 71.6144 92.6183 71.3304C93.0813 71.0434 93.6254 70.9 94.2504 70.9C94.6538 70.9 95.0345 70.9653 95.3924 71.096C95.7532 71.2238 96.0714 71.4227 96.347 71.6926C96.6254 71.9625 96.8441 72.3062 97.0032 72.7238C97.1623 73.1386 97.2418 73.6329 97.2418 74.2068V74.6798H91.8768V73.64H95.7632C95.7603 73.3446 95.6964 73.0818 95.5714 72.8517C95.4464 72.6187 95.2717 72.4355 95.0472 72.3019C94.8257 72.1684 94.5671 72.1017 94.2717 72.1017C93.9563 72.1017 93.6793 72.1784 93.4407 72.3318C93.2021 72.4823 93.016 72.6812 92.8825 72.9284C92.7518 73.1727 92.685 73.4412 92.6822 73.7338V74.6414C92.6822 75.0221 92.7518 75.3488 92.891 75.6215C93.0302 75.8914 93.2248 76.0988 93.4748 76.2437C93.7248 76.3858 94.0174 76.4568 94.3526 76.4568C94.5771 76.4568 94.7802 76.4255 94.962 76.363C95.1438 76.2977 95.3015 76.2025 95.435 76.0775C95.5685 75.9525 95.6694 75.7977 95.7376 75.613L97.1779 75.775C97.087 76.1556 96.9137 76.488 96.658 76.7721C96.4052 77.0534 96.0813 77.2721 95.6864 77.4284C95.2916 77.5818 94.8399 77.6585 94.3313 77.6585ZM100.089 68.8034V77.5306H98.5469V68.8034H100.089ZM104.574 77.6585C103.917 77.6585 103.351 77.5221 102.873 77.2494C102.399 76.9738 102.034 76.5846 101.778 76.0818C101.522 75.5761 101.395 74.9809 101.395 74.2963C101.395 73.623 101.522 73.0321 101.778 72.5235C102.037 72.0122 102.397 71.6144 102.86 71.3304C103.324 71.0434 103.868 70.9 104.493 70.9C104.896 70.9 105.277 70.9653 105.635 71.096C105.995 71.2238 106.314 71.4227 106.589 71.6926C106.868 71.9625 107.086 72.3062 107.245 72.7238C107.404 73.1386 107.484 73.6329 107.484 74.2068V74.6798H102.119V73.64H106.005C106.002 73.3446 105.939 73.0818 105.814 72.8517C105.689 72.6187 105.514 72.4355 105.289 72.3019C105.068 72.1684 104.809 72.1017 104.514 72.1017C104.199 72.1017 103.922 72.1784 103.683 72.3318C103.444 72.4823 103.258 72.6812 103.125 72.9284C102.994 73.1727 102.927 73.4412 102.924 73.7338V74.6414C102.924 75.0221 102.994 75.3488 103.133 75.6215C103.272 75.8914 103.467 76.0988 103.717 76.2437C103.967 76.3858 104.26 76.4568 104.595 76.4568C104.819 76.4568 105.022 76.4255 105.204 76.363C105.386 76.2977 105.544 76.2025 105.677 76.0775C105.811 75.9525 105.912 75.7977 105.98 75.613L107.42 75.775C107.329 76.1556 107.156 76.488 106.9 76.7721C106.647 77.0534 106.324 77.2721 105.929 77.4284C105.534 77.5818 105.082 77.6585 104.574 77.6585ZM111.644 77.6585C110.991 77.6585 110.43 77.515 109.961 77.2281C109.495 76.9412 109.136 76.5448 108.883 76.0392C108.633 75.5306 108.508 74.9454 108.508 74.2835C108.508 73.6187 108.636 73.0321 108.891 72.5235C109.147 72.0122 109.508 71.6144 109.974 71.3304C110.442 71.0434 110.996 70.9 111.636 70.9C112.167 70.9 112.637 70.998 113.046 71.194C113.458 71.3872 113.786 71.6613 114.031 72.0164C114.275 72.3687 114.414 72.7806 114.448 73.2522H112.974C112.914 72.9369 112.772 72.6741 112.548 72.4639C112.326 72.2508 112.029 72.1443 111.657 72.1443C111.342 72.1443 111.065 72.2295 110.826 72.4C110.587 72.5676 110.401 72.809 110.268 73.1244C110.137 73.4397 110.072 73.8176 110.072 74.2579C110.072 74.7039 110.137 75.0875 110.268 75.4085C110.398 75.7267 110.582 75.9724 110.817 76.1457C111.056 76.3162 111.336 76.4014 111.657 76.4014C111.884 76.4014 112.087 76.3588 112.266 76.2735C112.448 76.1855 112.6 76.059 112.722 75.8943C112.844 75.7295 112.928 75.5292 112.974 75.2934H114.448C114.411 75.7565 114.275 76.167 114.039 76.525C113.803 76.8801 113.482 77.1585 113.076 77.3602C112.67 77.559 112.192 77.6585 111.644 77.6585ZM118.983 70.9852V72.1784H115.221V70.9852H118.983ZM116.15 69.417H117.692V75.5619C117.692 75.7693 117.723 75.9284 117.786 76.0392C117.851 76.1471 117.936 76.221 118.042 76.2608C118.147 76.3005 118.263 76.3204 118.391 76.3204C118.488 76.3204 118.576 76.3133 118.655 76.2991C118.738 76.2849 118.8 76.2721 118.843 76.2608L119.103 77.4667C119.02 77.4951 118.902 77.5264 118.749 77.5605C118.598 77.5946 118.414 77.6144 118.195 77.6201C117.809 77.6315 117.461 77.5733 117.151 77.4454C116.841 77.3147 116.596 77.113 116.414 76.8403C116.235 76.5676 116.147 76.2267 116.15 75.8176V69.417ZM120.273 77.5306V70.9852H121.816V77.5306H120.273ZM121.049 70.0562C120.805 70.0562 120.594 69.9752 120.418 69.8133C120.242 69.6485 120.154 69.4511 120.154 69.221C120.154 68.988 120.242 68.7906 120.418 68.6287C120.594 68.4639 120.805 68.3815 121.049 68.3815C121.296 68.3815 121.506 68.4639 121.68 68.6287C121.856 68.7906 121.944 68.988 121.944 69.221C121.944 69.4511 121.856 69.6485 121.68 69.8133C121.506 69.9752 121.296 70.0562 121.049 70.0562ZM126.257 77.6585C125.618 77.6585 125.064 77.5179 124.596 77.2366C124.127 76.9554 123.763 76.5619 123.505 76.0562C123.249 75.5505 123.121 74.9596 123.121 74.2835C123.121 73.6073 123.249 73.015 123.505 72.5065C123.763 71.998 124.127 71.6031 124.596 71.3218C125.064 71.0406 125.618 70.9 126.257 70.9C126.897 70.9 127.451 71.0406 127.919 71.3218C128.388 71.6031 128.75 71.998 129.006 72.5065C129.265 73.015 129.394 73.6073 129.394 74.2835C129.394 74.9596 129.265 75.5505 129.006 76.0562C128.75 76.5619 128.388 76.9554 127.919 77.2366C127.451 77.5179 126.897 77.6585 126.257 77.6585ZM126.266 76.4227C126.613 76.4227 126.902 76.3275 127.135 76.1372C127.368 75.944 127.542 75.6855 127.655 75.3616C127.772 75.0377 127.83 74.6769 127.83 74.2792C127.83 73.8787 127.772 73.5164 127.655 73.1926C127.542 72.8659 127.368 72.6059 127.135 72.4127C126.902 72.2196 126.613 72.123 126.266 72.123C125.911 72.123 125.615 72.2196 125.38 72.4127C125.147 72.6059 124.972 72.8659 124.855 73.1926C124.742 73.5164 124.685 73.8787 124.685 74.2792C124.685 74.6769 124.742 75.0377 124.855 75.3616C124.972 75.6855 125.147 75.944 125.38 76.1372C125.615 76.3275 125.911 76.4227 126.266 76.4227ZM132.246 73.6954V77.5306H130.703V70.9852H132.178V72.0974H132.254C132.405 71.7309 132.645 71.4397 132.974 71.2238C133.307 71.0079 133.717 70.9 134.206 70.9C134.658 70.9 135.051 70.9965 135.386 71.1897C135.724 71.3829 135.986 71.6627 136.17 72.0292C136.358 72.3957 136.45 72.8403 136.447 73.363V77.5306H134.905V73.6017C134.905 73.1642 134.791 72.8218 134.564 72.5747C134.339 72.3275 134.028 72.2039 133.631 72.2039C133.361 72.2039 133.121 72.2636 132.911 72.3829C132.703 72.4994 132.54 72.6684 132.42 72.89C132.304 73.1116 132.246 73.3801 132.246 73.6954ZM148.232 68.8034V77.5306H146.826L142.714 71.586H142.641V77.5306H141.06V68.8034H142.475L146.583 74.7522H146.66V68.8034H148.232ZM152.784 77.6585C152.128 77.6585 151.561 77.5221 151.084 77.2494C150.61 76.9738 150.245 76.5846 149.989 76.0818C149.733 75.5761 149.605 74.9809 149.605 74.2963C149.605 73.623 149.733 73.0321 149.989 72.5235C150.248 72.0122 150.608 71.6144 151.071 71.3304C151.534 71.0434 152.078 70.9 152.703 70.9C153.107 70.9 153.488 70.9653 153.846 71.096C154.206 71.2238 154.525 71.4227 154.8 71.6926C155.078 71.9625 155.297 72.3062 155.456 72.7238C155.615 73.1386 155.695 73.6329 155.695 74.2068V74.6798H150.33V73.64H154.216C154.213 73.3446 154.15 73.0818 154.025 72.8517C153.9 72.6187 153.725 72.4355 153.5 72.3019C153.279 72.1684 153.02 72.1017 152.725 72.1017C152.409 72.1017 152.132 72.1784 151.894 72.3318C151.655 72.4823 151.469 72.6812 151.336 72.9284C151.205 73.1727 151.138 73.4412 151.135 73.7338V74.6414C151.135 75.0221 151.205 75.3488 151.344 75.6215C151.483 75.8914 151.678 76.0988 151.928 76.2437C152.178 76.3858 152.471 76.4568 152.806 76.4568C153.03 76.4568 153.233 76.4255 153.415 76.363C153.597 76.2977 153.755 76.2025 153.888 76.0775C154.022 75.9525 154.123 75.7977 154.191 75.613L155.631 75.775C155.54 76.1556 155.367 76.488 155.111 76.7721C154.858 77.0534 154.534 77.2721 154.14 77.4284C153.745 77.5818 153.293 77.6585 152.784 77.6585ZM158.316 77.5306L156.466 70.9852H158.039L159.189 75.5875H159.249L160.425 70.9852H161.98L163.157 75.5619H163.221L164.354 70.9852H165.931L164.077 77.5306H162.471L161.243 73.1073H161.154L159.927 77.5306H158.316ZM172.181 72.7153L170.775 72.8687C170.735 72.7267 170.665 72.5931 170.566 72.4681C170.469 72.3431 170.339 72.2423 170.174 72.1656C170.009 72.0889 169.808 72.0505 169.569 72.0505C169.248 72.0505 168.978 72.1201 168.759 72.2593C168.543 72.3985 168.437 72.5789 168.44 72.8005C168.437 72.9909 168.506 73.1457 168.648 73.265C168.793 73.3843 169.032 73.4823 169.364 73.559L170.481 73.7977C171.1 73.9312 171.56 74.1429 171.862 74.4326C172.165 74.7224 172.319 75.1017 172.322 75.5704C172.319 75.9823 172.198 76.346 171.96 76.6613C171.724 76.9738 171.396 77.2181 170.975 77.3943C170.555 77.5704 170.072 77.6585 169.526 77.6585C168.725 77.6585 168.08 77.4909 167.592 77.1556C167.103 76.8176 166.812 76.3474 166.718 75.7451L168.222 75.6002C168.29 75.8957 168.435 76.1187 168.657 76.2693C168.879 76.4198 169.167 76.4951 169.522 76.4951C169.889 76.4951 170.183 76.4198 170.404 76.2693C170.629 76.1187 170.741 75.9326 170.741 75.711C170.741 75.5235 170.668 75.3687 170.523 75.2465C170.381 75.1244 170.16 75.0306 169.859 74.9653L168.742 74.7309C168.114 74.6002 167.65 74.3801 167.349 74.0704C167.048 73.7579 166.898 73.363 166.901 72.8858C166.898 72.4823 167.008 72.1329 167.229 71.8375C167.454 71.5392 167.765 71.309 168.163 71.1471C168.563 70.9823 169.025 70.9 169.548 70.9C170.315 70.9 170.918 71.0633 171.359 71.39C171.802 71.7167 172.076 72.1585 172.181 72.7153Z" fill="#F5E1E6"/>
<path d="M65.0707 96.1445C65.0276 95.7414 64.846 95.4274 64.5259 95.2028C64.2089 94.9781 63.7965 94.8658 63.2887 94.8658C62.9317 94.8658 62.6255 94.9196 62.37 95.0273C62.1146 95.1351 61.9192 95.2812 61.7837 95.4659C61.6483 95.6506 61.5791 95.8614 61.576 96.0984C61.576 96.2953 61.6206 96.4661 61.7099 96.6108C61.8022 96.7554 61.9268 96.8786 62.0838 96.9801C62.2408 97.0786 62.4147 97.1617 62.6055 97.2294C62.7963 97.2971 62.9886 97.354 63.1825 97.4002L64.0689 97.6218C64.4259 97.7049 64.7691 97.8172 65.0984 97.9588C65.4308 98.1004 65.7277 98.2789 65.9893 98.4943C66.254 98.7098 66.4633 98.9698 66.6172 99.2745C66.7711 99.5792 66.848 99.9362 66.848 100.346C66.848 100.9 66.7064 101.387 66.4233 101.809C66.1402 102.228 65.7308 102.555 65.1953 102.792C64.6629 103.026 64.0181 103.143 63.261 103.143C62.5254 103.143 61.8868 103.029 61.3452 102.801C60.8066 102.574 60.3849 102.241 60.0803 101.804C59.7786 101.367 59.6155 100.835 59.5909 100.207H61.2759C61.3005 100.536 61.4021 100.81 61.5806 101.029C61.7591 101.247 61.9915 101.41 62.2777 101.518C62.567 101.626 62.8902 101.68 63.2472 101.68C63.6196 101.68 63.9458 101.624 64.2259 101.513C64.509 101.4 64.7306 101.243 64.8906 101.043C65.0507 100.839 65.1322 100.603 65.1353 100.332C65.1322 100.085 65.0599 99.8823 64.9183 99.7223C64.7768 99.5592 64.5782 99.4238 64.3228 99.3161C64.0704 99.2053 63.775 99.1068 63.4364 99.0206L62.3608 98.7436C61.5821 98.5436 60.9666 98.2404 60.5142 97.8342C60.0649 97.4248 59.8402 96.8816 59.8402 96.2045C59.8402 95.6475 59.991 95.1597 60.2926 94.7411C60.5973 94.3226 61.0112 93.9979 61.5344 93.767C62.0576 93.5331 62.6501 93.4162 63.3118 93.4162C63.9827 93.4162 64.5705 93.5331 65.0753 93.767C65.5831 93.9979 65.9817 94.3195 66.271 94.7319C66.5603 95.1412 66.7095 95.6121 66.7188 96.1445H65.0707ZM71.3941 103.138C70.7016 103.138 70.1015 102.986 69.5937 102.681C69.0858 102.377 68.6919 101.951 68.4118 101.403C68.1349 100.855 67.9964 100.215 67.9964 99.4822C67.9964 98.7498 68.1349 98.1081 68.4118 97.5572C68.6919 97.0063 69.0858 96.5785 69.5937 96.2738C70.1015 95.9691 70.7016 95.8168 71.3941 95.8168C72.0866 95.8168 72.6867 95.9691 73.1945 96.2738C73.7023 96.5785 74.0947 97.0063 74.3717 97.5572C74.6518 98.1081 74.7918 98.7498 74.7918 99.4822C74.7918 100.215 74.6518 100.855 74.3717 101.403C74.0947 101.951 73.7023 102.377 73.1945 102.681C72.6867 102.986 72.0866 103.138 71.3941 103.138ZM71.4033 101.8C71.7788 101.8 72.0927 101.697 72.3451 101.49C72.5974 101.281 72.7852 101.001 72.9083 100.65C73.0345 100.299 73.0976 99.9085 73.0976 99.4776C73.0976 99.0437 73.0345 98.6513 72.9083 98.3004C72.7852 97.9465 72.5974 97.6649 72.3451 97.4556C72.0927 97.2463 71.7788 97.1417 71.4033 97.1417C71.0186 97.1417 70.6985 97.2463 70.4431 97.4556C70.1907 97.6649 70.0015 97.9465 69.8753 98.3004C69.7522 98.6513 69.6906 99.0437 69.6906 99.4776C69.6906 99.9085 69.7522 100.299 69.8753 100.65C70.0015 101.001 70.1907 101.281 70.4431 101.49C70.6985 101.697 71.0186 101.8 71.4033 101.8ZM79.3033 103.138C78.5954 103.138 77.9876 102.983 77.4798 102.672C76.975 102.361 76.5857 101.932 76.3118 101.384C76.041 100.833 75.9055 100.199 75.9055 99.4822C75.9055 98.7621 76.044 98.1265 76.321 97.5756C76.598 97.0217 76.9889 96.5908 77.4936 96.283C78.0014 95.9722 78.6016 95.8168 79.294 95.8168C79.8696 95.8168 80.3789 95.9229 80.8221 96.1353C81.2683 96.3446 81.6238 96.6416 81.8885 97.0263C82.1532 97.4079 82.304 97.8542 82.3409 98.3651H80.7436C80.679 98.0234 80.5251 97.7388 80.282 97.511C80.0419 97.2802 79.7203 97.1648 79.3171 97.1648C78.9755 97.1648 78.6754 97.2571 78.4169 97.4418C78.1584 97.6233 77.9568 97.8849 77.8121 98.2266C77.6706 98.5682 77.5998 98.9775 77.5998 99.4545C77.5998 99.9377 77.6706 100.353 77.8121 100.701C77.9537 101.046 78.1522 101.312 78.4077 101.5C78.6662 101.684 78.9693 101.777 79.3171 101.777C79.5633 101.777 79.7834 101.73 79.9773 101.638C80.1742 101.543 80.3389 101.406 80.4712 101.227C80.6036 101.049 80.6944 100.832 80.7436 100.576H82.3409C82.3009 101.078 82.1532 101.523 81.8977 101.911C81.6423 102.295 81.2945 102.597 80.8544 102.815C80.4143 103.031 79.8973 103.138 79.3033 103.138ZM83.7132 103V95.9091H85.3843V103H83.7132ZM84.5534 94.9027C84.2887 94.9027 84.0609 94.815 83.8701 94.6396C83.6793 94.4611 83.5839 94.2472 83.5839 93.9979C83.5839 93.7455 83.6793 93.5316 83.8701 93.3562C84.0609 93.1777 84.2887 93.0884 84.5534 93.0884C84.8211 93.0884 85.0489 93.1777 85.2366 93.3562C85.4274 93.5316 85.5228 93.7455 85.5228 93.9979C85.5228 94.2472 85.4274 94.4611 85.2366 94.6396C85.0489 94.815 84.8211 94.9027 84.5534 94.9027ZM89.1433 103.143C88.694 103.143 88.2892 103.063 87.9292 102.903C87.5721 102.74 87.289 102.5 87.0797 102.183C86.8735 101.866 86.7704 101.475 86.7704 101.01C86.7704 100.61 86.8443 100.279 86.992 100.018C87.1397 99.7562 87.3413 99.5469 87.5968 99.3899C87.8522 99.233 88.14 99.1145 88.46 99.0344C88.7832 98.9513 89.1171 98.8913 89.4618 98.8544C89.8773 98.8113 90.2143 98.7728 90.4728 98.739C90.7314 98.7021 90.9191 98.6467 91.036 98.5728C91.1561 98.4959 91.2161 98.3774 91.2161 98.2173V98.1896C91.2161 97.8419 91.113 97.5726 90.9068 97.3817C90.7006 97.1909 90.4036 97.0955 90.0158 97.0955C89.6065 97.0955 89.2818 97.1848 89.0417 97.3633C88.8047 97.5418 88.6447 97.7526 88.5616 97.9957L87.0012 97.7741C87.1243 97.3433 87.3275 96.9832 87.6106 96.6939C87.8938 96.4015 88.24 96.183 88.6493 96.0384C89.0587 95.8906 89.5111 95.8168 90.0066 95.8168C90.3482 95.8168 90.6883 95.8568 91.0268 95.9368C91.3654 96.0168 91.6747 96.1491 91.9547 96.3338C92.2348 96.5154 92.4595 96.7631 92.6287 97.0771C92.8011 97.391 92.8873 97.7834 92.8873 98.2543V103H91.2807V102.026H91.2253C91.1238 102.223 90.9806 102.408 90.796 102.58C90.6144 102.749 90.3851 102.886 90.1081 102.991C89.8342 103.092 89.5126 103.143 89.1433 103.143ZM89.5772 101.915C89.9127 101.915 90.2035 101.849 90.4498 101.717C90.696 101.581 90.8852 101.403 91.0176 101.181C91.153 100.96 91.2207 100.718 91.2207 100.456V99.6207C91.1684 99.6638 91.0791 99.7038 90.9529 99.7408C90.8298 99.7777 90.6913 99.81 90.5375 99.8377C90.3836 99.8654 90.2312 99.89 90.0804 99.9116C89.9296 99.9331 89.7988 99.9516 89.688 99.967C89.4387 100.001 89.2156 100.056 89.0186 100.133C88.8217 100.21 88.6663 100.318 88.5524 100.456C88.4385 100.592 88.3816 100.767 88.3816 100.983C88.3816 101.29 88.4939 101.523 88.7186 101.68C88.9432 101.837 89.2295 101.915 89.5772 101.915ZM96.2388 93.5455V103H94.5676V93.5455H96.2388ZM101.256 93.5455H103.352L106.158 100.396H106.269L109.076 93.5455H111.172V103H109.528V96.5046H109.441L106.828 102.972H105.6L102.987 96.4908H102.899V103H101.256V93.5455ZM116.102 103.138C115.391 103.138 114.777 102.991 114.26 102.695C113.746 102.397 113.351 101.975 113.074 101.43C112.797 100.883 112.658 100.238 112.658 99.4961C112.658 98.7667 112.797 98.1265 113.074 97.5756C113.354 97.0217 113.745 96.5908 114.247 96.283C114.748 95.9722 115.338 95.8168 116.015 95.8168C116.452 95.8168 116.864 95.8875 117.252 96.0291C117.643 96.1676 117.987 96.383 118.286 96.6754C118.588 96.9678 118.825 97.3402 118.997 97.7926C119.169 98.242 119.255 98.7775 119.255 99.3991V99.9116H113.443V98.7852H117.653C117.65 98.4651 117.581 98.1804 117.446 97.9311C117.31 97.6787 117.121 97.4802 116.878 97.3356C116.638 97.1909 116.358 97.1186 116.038 97.1186C115.696 97.1186 115.396 97.2017 115.138 97.3679C114.879 97.531 114.677 97.7464 114.533 98.0142C114.391 98.2789 114.319 98.5697 114.316 98.8867V99.87C114.316 100.282 114.391 100.636 114.542 100.932C114.693 101.224 114.904 101.449 115.174 101.606C115.445 101.76 115.762 101.837 116.125 101.837C116.369 101.837 116.589 101.803 116.786 101.735C116.983 101.664 117.153 101.561 117.298 101.426C117.443 101.29 117.552 101.123 117.626 100.923L119.186 101.098C119.088 101.51 118.9 101.871 118.623 102.178C118.349 102.483 117.998 102.72 117.57 102.889C117.143 103.055 116.653 103.138 116.102 103.138ZM123.301 103.125C122.744 103.125 122.245 102.982 121.805 102.695C121.365 102.409 121.017 101.994 120.762 101.449C120.506 100.904 120.378 100.242 120.378 99.4638C120.378 98.6759 120.508 98.0111 120.766 97.4695C121.028 96.9247 121.38 96.5138 121.823 96.2369C122.267 95.9568 122.76 95.8168 123.305 95.8168C123.721 95.8168 124.062 95.8875 124.33 96.0291C124.598 96.1676 124.81 96.3353 124.967 96.5323C125.124 96.7262 125.246 96.9093 125.332 97.0817H125.401V93.5455H127.077V103H125.433V101.883H125.332C125.246 102.055 125.121 102.238 124.958 102.432C124.795 102.623 124.579 102.786 124.312 102.922C124.044 103.057 123.707 103.125 123.301 103.125ZM123.767 101.754C124.121 101.754 124.422 101.658 124.672 101.467C124.921 101.273 125.11 101.004 125.24 100.659C125.369 100.315 125.433 99.9131 125.433 99.4545C125.433 98.996 125.369 98.5974 125.24 98.2589C125.113 97.9203 124.926 97.6572 124.676 97.4695C124.43 97.2817 124.127 97.1879 123.767 97.1879C123.394 97.1879 123.084 97.2848 122.834 97.4787C122.585 97.6726 122.397 97.9403 122.271 98.282C122.145 98.6236 122.082 99.0144 122.082 99.4545C122.082 99.8977 122.145 100.293 122.271 100.641C122.4 100.986 122.59 101.258 122.839 101.458C123.091 101.655 123.401 101.754 123.767 101.754ZM128.858 103V95.9091H130.529V103H128.858ZM129.698 94.9027C129.433 94.9027 129.205 94.815 129.015 94.6396C128.824 94.4611 128.728 94.2472 128.728 93.9979C128.728 93.7455 128.824 93.5316 129.015 93.3562C129.205 93.1777 129.433 93.0884 129.698 93.0884C129.966 93.0884 130.193 93.1777 130.381 93.3562C130.572 93.5316 130.667 93.7455 130.667 93.9979C130.667 94.2472 130.572 94.4611 130.381 94.6396C130.193 94.815 129.966 94.9027 129.698 94.9027ZM134.288 103.143C133.838 103.143 133.434 103.063 133.074 102.903C132.717 102.74 132.434 102.5 132.224 102.183C132.018 101.866 131.915 101.475 131.915 101.01C131.915 100.61 131.989 100.279 132.137 100.018C132.284 99.7562 132.486 99.5469 132.741 99.3899C132.997 99.233 133.285 99.1145 133.605 99.0344C133.928 98.9513 134.262 98.8913 134.606 98.8544C135.022 98.8113 135.359 98.7728 135.617 98.739C135.876 98.7021 136.064 98.6467 136.181 98.5728C136.301 98.4959 136.361 98.3774 136.361 98.2173V98.1896C136.361 97.8419 136.258 97.5726 136.051 97.3817C135.845 97.1909 135.548 97.0955 135.16 97.0955C134.751 97.0955 134.426 97.1848 134.186 97.3633C133.949 97.5418 133.789 97.7526 133.706 97.9957L132.146 97.7741C132.269 97.3433 132.472 96.9832 132.755 96.6939C133.038 96.4015 133.385 96.183 133.794 96.0384C134.203 95.8906 134.656 95.8168 135.151 95.8168C135.493 95.8168 135.833 95.8568 136.171 95.9368C136.51 96.0168 136.819 96.1491 137.099 96.3338C137.379 96.5154 137.604 96.7631 137.773 97.0771C137.946 97.391 138.032 97.7834 138.032 98.2543V103H136.425V102.026H136.37C136.268 102.223 136.125 102.408 135.941 102.58C135.759 102.749 135.53 102.886 135.253 102.991C134.979 103.092 134.657 103.143 134.288 103.143ZM134.722 101.915C135.057 101.915 135.348 101.849 135.594 101.717C135.84 101.581 136.03 101.403 136.162 101.181C136.298 100.96 136.365 100.718 136.365 100.456V99.6207C136.313 99.6638 136.224 99.7038 136.097 99.7408C135.974 99.7777 135.836 99.81 135.682 99.8377C135.528 99.8654 135.376 99.89 135.225 99.9116C135.074 99.9331 134.943 99.9516 134.833 99.967C134.583 100.001 134.36 100.056 134.163 100.133C133.966 100.21 133.811 100.318 133.697 100.456C133.583 100.592 133.526 100.767 133.526 100.983C133.526 101.29 133.638 101.523 133.863 101.68C134.088 101.837 134.374 101.915 134.722 101.915ZM143.011 103V93.5455H146.556C147.282 93.5455 147.892 93.6809 148.384 93.9517C148.88 94.2225 149.254 94.5949 149.506 95.0689C149.761 95.5398 149.889 96.0753 149.889 96.6754C149.889 97.2817 149.761 97.8203 149.506 98.2912C149.251 98.7621 148.874 99.1329 148.375 99.4038C147.876 99.6715 147.262 99.8054 146.533 99.8054H144.183V98.3974H146.302C146.727 98.3974 147.075 98.3235 147.346 98.1758C147.616 98.0281 147.816 97.8249 147.946 97.5664C148.078 97.3079 148.144 97.0109 148.144 96.6754C148.144 96.34 148.078 96.0445 147.946 95.7891C147.816 95.5336 147.615 95.3351 147.341 95.1935C147.07 95.0489 146.721 94.9766 146.293 94.9766H144.723V103H143.011ZM154.294 103.138C153.602 103.138 153.002 102.986 152.494 102.681C151.986 102.377 151.592 101.951 151.312 101.403C151.035 100.855 150.897 100.215 150.897 99.4822C150.897 98.7498 151.035 98.1081 151.312 97.5572C151.592 97.0063 151.986 96.5785 152.494 96.2738C153.002 95.9691 153.602 95.8168 154.294 95.8168C154.987 95.8168 155.587 95.9691 156.095 96.2738C156.603 96.5785 156.995 97.0063 157.272 97.5572C157.552 98.1081 157.692 98.7498 157.692 99.4822C157.692 100.215 157.552 100.855 157.272 101.403C156.995 101.951 156.603 102.377 156.095 102.681C155.587 102.986 154.987 103.138 154.294 103.138ZM154.304 101.8C154.679 101.8 154.993 101.697 155.245 101.49C155.498 101.281 155.686 101.001 155.809 100.65C155.935 100.299 155.998 99.9085 155.998 99.4776C155.998 99.0437 155.935 98.6513 155.809 98.3004C155.686 97.9465 155.498 97.6649 155.245 97.4556C154.993 97.2463 154.679 97.1417 154.304 97.1417C153.919 97.1417 153.599 97.2463 153.343 97.4556C153.091 97.6649 152.902 97.9465 152.776 98.3004C152.653 98.6513 152.591 99.0437 152.591 99.4776C152.591 99.9085 152.653 100.299 152.776 100.65C152.902 101.001 153.091 101.281 153.343 101.49C153.599 101.697 153.919 101.8 154.304 101.8ZM160.782 93.5455V103H159.111V93.5455H160.782ZM164.171 93.5455V103H162.5V93.5455H164.171ZM169.188 103V93.5455H172.734C173.46 93.5455 174.07 93.6716 174.562 93.924C175.057 94.1764 175.431 94.5303 175.684 94.9858C175.939 95.4382 176.067 95.966 176.067 96.5692C176.067 97.1755 175.938 97.7018 175.679 98.1481C175.424 98.5913 175.047 98.9344 174.548 99.1776C174.05 99.4176 173.437 99.5376 172.711 99.5376H170.186V98.1158H172.48C172.905 98.1158 173.252 98.0573 173.523 97.9403C173.794 97.8203 173.994 97.6464 174.123 97.4187C174.256 97.1879 174.322 96.9047 174.322 96.5692C174.322 96.2338 174.256 95.9476 174.123 95.7106C173.991 95.4705 173.789 95.2889 173.519 95.1658C173.248 95.0397 172.898 94.9766 172.471 94.9766H170.901V103H169.188ZM174.073 98.7159L176.413 103H174.502L172.203 98.7159H174.073ZM180.607 103.138C179.896 103.138 179.282 102.991 178.765 102.695C178.251 102.397 177.856 101.975 177.579 101.43C177.302 100.883 177.163 100.238 177.163 99.4961C177.163 98.7667 177.302 98.1265 177.579 97.5756C177.859 97.0217 178.25 96.5908 178.751 96.283C179.253 95.9722 179.842 95.8168 180.52 95.8168C180.957 95.8168 181.369 95.8875 181.757 96.0291C182.148 96.1676 182.492 96.383 182.791 96.6754C183.092 96.9678 183.329 97.3402 183.502 97.7926C183.674 98.242 183.76 98.7775 183.76 99.3991V99.9116H177.948V98.7852H182.158C182.155 98.4651 182.086 98.1804 181.951 97.9311C181.815 97.6787 181.626 97.4802 181.383 97.3356C181.143 97.1909 180.863 97.1186 180.543 97.1186C180.201 97.1186 179.901 97.2017 179.642 97.3679C179.384 97.531 179.182 97.7464 179.038 98.0142C178.896 98.2789 178.824 98.5697 178.821 98.8867V99.87C178.821 100.282 178.896 100.636 179.047 100.932C179.198 101.224 179.408 101.449 179.679 101.606C179.95 101.76 180.267 101.837 180.63 101.837C180.873 101.837 181.094 101.803 181.29 101.735C181.487 101.664 181.658 101.561 181.803 101.426C181.948 101.29 182.057 101.123 182.131 100.923L183.691 101.098C183.593 101.51 183.405 101.871 183.128 102.178C182.854 102.483 182.503 102.72 182.075 102.889C181.647 103.055 181.158 103.138 180.607 103.138ZM190.778 97.7834L189.255 97.9496C189.212 97.7957 189.137 97.651 189.029 97.5156C188.924 97.3802 188.783 97.271 188.604 97.1879C188.426 97.1048 188.207 97.0632 187.949 97.0632C187.601 97.0632 187.308 97.1386 187.071 97.2894C186.838 97.4402 186.722 97.6357 186.725 97.8757C186.722 98.0819 186.798 98.2496 186.951 98.3789C187.108 98.5082 187.367 98.6143 187.727 98.6974L188.937 98.956C189.607 99.1006 190.106 99.3299 190.432 99.6438C190.762 99.9577 190.928 100.369 190.931 100.876C190.928 101.323 190.797 101.717 190.538 102.058C190.283 102.397 189.928 102.661 189.472 102.852C189.017 103.043 188.493 103.138 187.902 103.138C187.035 103.138 186.336 102.957 185.807 102.594C185.277 102.228 184.962 101.718 184.86 101.066L186.49 100.909C186.564 101.229 186.721 101.47 186.961 101.634C187.201 101.797 187.513 101.878 187.898 101.878C188.295 101.878 188.613 101.797 188.853 101.634C189.097 101.47 189.218 101.269 189.218 101.029C189.218 100.826 189.14 100.658 188.983 100.526C188.829 100.393 188.589 100.292 188.263 100.221L187.053 99.967C186.373 99.8254 185.87 99.5869 185.543 99.2514C185.217 98.9129 185.056 98.4851 185.059 97.968C185.056 97.531 185.174 97.1525 185.414 96.8324C185.657 96.5092 185.994 96.2599 186.425 96.0845C186.859 95.906 187.359 95.8168 187.926 95.8168C188.756 95.8168 189.41 95.9937 189.888 96.3477C190.368 96.7016 190.665 97.1802 190.778 97.7834ZM196.828 100.018V95.9091H198.5V103H196.879V101.74H196.805C196.645 102.137 196.382 102.461 196.016 102.714C195.653 102.966 195.205 103.092 194.672 103.092C194.208 103.092 193.797 102.989 193.44 102.783C193.086 102.574 192.809 102.271 192.609 101.874C192.409 101.473 192.309 100.99 192.309 100.424V95.9091H193.98V100.165C193.98 100.615 194.103 100.972 194.349 101.237C194.596 101.501 194.919 101.634 195.319 101.634C195.565 101.634 195.804 101.574 196.034 101.453C196.265 101.333 196.454 101.155 196.602 100.918C196.753 100.678 196.828 100.378 196.828 100.018ZM201.889 93.5455V103H200.218V93.5455H201.889ZM207.149 95.9091V97.2017H203.072V95.9091H207.149ZM204.079 94.2102H205.75V100.867C205.75 101.092 205.784 101.264 205.851 101.384C205.922 101.501 206.014 101.581 206.128 101.624C206.242 101.667 206.368 101.689 206.507 101.689C206.611 101.689 206.707 101.681 206.793 101.666C206.882 101.65 206.95 101.637 206.996 101.624L207.278 102.931C207.189 102.962 207.061 102.995 206.895 103.032C206.732 103.069 206.531 103.091 206.294 103.097C205.876 103.109 205.499 103.046 205.163 102.908C204.828 102.766 204.562 102.548 204.365 102.252C204.171 101.957 204.075 101.587 204.079 101.144V94.2102Z" fill="#DEF7E3"/>
<path d="M72.0309 126.05C71.9717 125.858 71.89 125.686 71.7859 125.535C71.6841 125.381 71.561 125.25 71.4165 125.141C71.2745 125.032 71.1112 124.95 70.9265 124.896C70.7418 124.839 70.5406 124.81 70.3228 124.81C69.9322 124.81 69.5842 124.909 69.2788 125.105C68.9734 125.302 68.7331 125.59 68.5579 125.972C68.3851 126.35 68.2987 126.812 68.2987 127.357C68.2987 127.906 68.3851 128.371 68.5579 128.752C68.7307 129.133 68.971 129.423 69.2788 129.622C69.5865 129.819 69.944 129.917 70.3512 129.917C70.7205 129.917 71.0401 129.846 71.31 129.704C71.5823 129.562 71.7918 129.361 71.9386 129.1C72.0853 128.837 72.1587 128.53 72.1587 128.177L72.457 128.223H70.4826V127.193H73.4336V128.067C73.4336 128.689 73.301 129.228 73.0359 129.683C72.7707 130.137 72.4061 130.487 71.9421 130.734C71.4781 130.978 70.9454 131.099 70.3441 131.099C69.6741 131.099 69.0858 130.949 68.5792 130.648C68.0749 130.345 67.6808 129.916 67.3967 129.359C67.1149 128.801 66.9741 128.138 66.9741 127.371C66.9741 126.784 67.0569 126.259 67.2227 125.798C67.3907 125.336 67.6251 124.944 67.9258 124.622C68.2264 124.298 68.5792 124.052 68.984 123.884C69.3888 123.713 69.8292 123.628 70.305 123.628C70.7075 123.628 71.0827 123.687 71.4308 123.805C71.7788 123.921 72.0877 124.087 72.3576 124.303C72.6299 124.518 72.8536 124.774 73.0288 125.07C73.204 125.366 73.3188 125.692 73.3732 126.05H72.0309ZM74.6507 131V125.545H75.8972V126.455H75.954C76.0534 126.14 76.2239 125.897 76.4654 125.727C76.7092 125.554 76.9874 125.467 77.2999 125.467C77.3709 125.467 77.4502 125.471 77.5378 125.478C77.6278 125.483 77.7024 125.491 77.7615 125.503V126.685C77.7071 126.666 77.6207 126.65 77.5023 126.636C77.3863 126.619 77.2739 126.611 77.165 126.611C76.9306 126.611 76.7199 126.662 76.5328 126.763C76.3482 126.863 76.2026 127.001 76.0961 127.179C75.9895 127.357 75.9363 127.561 75.9363 127.793V131H74.6507ZM80.8058 131.107C80.2589 131.107 79.7866 130.993 79.3888 130.766C78.9935 130.536 78.6893 130.212 78.4762 129.793C78.2631 129.371 78.1566 128.875 78.1566 128.305C78.1566 127.744 78.2631 127.251 78.4762 126.827C78.6916 126.401 78.9923 126.07 79.3782 125.833C79.7641 125.594 80.2174 125.474 80.7383 125.474C81.0745 125.474 81.3917 125.529 81.69 125.638C81.9906 125.744 82.2558 125.91 82.4854 126.135C82.7174 126.36 82.8997 126.646 83.0323 126.994C83.1649 127.34 83.2312 127.752 83.2312 128.23V128.624H78.7603V127.758H81.9989C81.9966 127.512 81.9433 127.293 81.8391 127.101C81.735 126.907 81.5894 126.754 81.4023 126.643C81.2177 126.531 81.0022 126.476 80.756 126.476C80.4933 126.476 80.2624 126.54 80.0636 126.668C79.8647 126.793 79.7096 126.959 79.5984 127.165C79.4895 127.368 79.4338 127.592 79.4315 127.836V128.592C79.4315 128.91 79.4895 129.182 79.6055 129.409C79.7215 129.634 79.8836 129.807 80.092 129.928C80.3003 130.046 80.5442 130.105 80.8235 130.105C81.0105 130.105 81.1798 130.079 81.3313 130.027C81.4828 129.973 81.6142 129.893 81.7255 129.789C81.8368 129.685 81.9208 129.556 81.9776 129.402L83.1779 129.537C83.1022 129.854 82.9577 130.131 82.7447 130.368C82.534 130.602 82.2641 130.785 81.935 130.915C81.6059 131.043 81.2295 131.107 80.8058 131.107ZM86.7335 131.107C86.1866 131.107 85.7143 130.993 85.3166 130.766C84.9212 130.536 84.617 130.212 84.4039 129.793C84.1909 129.371 84.0843 128.875 84.0843 128.305C84.0843 127.744 84.1909 127.251 84.4039 126.827C84.6194 126.401 84.92 126.07 85.3059 125.833C85.6918 125.594 86.1452 125.474 86.666 125.474C87.0022 125.474 87.3194 125.529 87.6177 125.638C87.9184 125.744 88.1835 125.91 88.4132 126.135C88.6452 126.36 88.8275 126.646 88.96 126.994C89.0926 127.34 89.1589 127.752 89.1589 128.23V128.624H84.688V127.758H87.9267C87.9243 127.512 87.871 127.293 87.7669 127.101C87.6627 126.907 87.5171 126.754 87.3301 126.643C87.1454 126.531 86.93 126.476 86.6838 126.476C86.421 126.476 86.1902 126.54 85.9913 126.668C85.7924 126.793 85.6374 126.959 85.5261 127.165C85.4172 127.368 85.3616 127.592 85.3592 127.836V128.592C85.3592 128.91 85.4172 129.182 85.5332 129.409C85.6492 129.634 85.8114 129.807 86.0197 129.928C86.228 130.046 86.4719 130.105 86.7512 130.105C86.9383 130.105 87.1075 130.079 87.2591 130.027C87.4106 129.973 87.542 129.893 87.6532 129.789C87.7645 129.685 87.8485 129.556 87.9054 129.402L89.1056 129.537C89.0299 129.854 88.8855 130.131 88.6724 130.368C88.4617 130.602 88.1918 130.785 87.8627 130.915C87.5337 131.043 87.1573 131.107 86.7335 131.107ZM91.532 127.804V131H90.2464V125.545H91.4751V126.472H91.5391C91.6645 126.167 91.8646 125.924 92.1392 125.744C92.4162 125.564 92.7583 125.474 93.1655 125.474C93.5419 125.474 93.8698 125.555 94.1491 125.716C94.4309 125.877 94.6487 126.11 94.8026 126.415C94.9588 126.721 95.0357 127.091 95.0334 127.527V131H93.7479V127.726C93.7479 127.361 93.6532 127.076 93.4638 126.87C93.2768 126.664 93.0175 126.561 92.6861 126.561C92.4612 126.561 92.2611 126.611 92.0859 126.71C91.9131 126.807 91.777 126.948 91.6776 127.133C91.5805 127.317 91.532 127.541 91.532 127.804ZM98.8775 131V123.727H103.537V124.832H100.195V126.806H103.217V127.911H100.195V131H98.8775ZM107.815 128.706V125.545H109.1V131H107.854V130.031H107.797C107.674 130.336 107.472 130.586 107.19 130.78C106.91 130.974 106.566 131.071 106.156 131.071C105.799 131.071 105.483 130.992 105.208 130.833C104.936 130.672 104.723 130.439 104.569 130.134C104.415 129.826 104.338 129.454 104.338 129.018V125.545H105.624V128.82C105.624 129.165 105.718 129.44 105.908 129.643C106.097 129.847 106.346 129.949 106.654 129.949C106.843 129.949 107.026 129.903 107.204 129.81C107.382 129.718 107.527 129.581 107.641 129.398C107.757 129.214 107.815 128.983 107.815 128.706ZM113.146 125.545V126.54H110.01V125.545H113.146ZM110.784 124.239H112.07V129.359C112.07 129.532 112.096 129.665 112.148 129.757C112.203 129.847 112.274 129.909 112.361 129.942C112.449 129.975 112.546 129.991 112.652 129.991C112.733 129.991 112.806 129.986 112.873 129.974C112.941 129.962 112.993 129.951 113.029 129.942L113.245 130.947C113.177 130.97 113.078 130.996 112.951 131.025C112.825 131.053 112.671 131.07 112.489 131.075C112.167 131.084 111.877 131.036 111.619 130.929C111.361 130.82 111.156 130.652 111.005 130.425C110.855 130.197 110.782 129.913 110.784 129.572V124.239ZM117.698 128.706V125.545H118.983V131H117.737V130.031H117.68C117.557 130.336 117.354 130.586 117.073 130.78C116.793 130.974 116.449 131.071 116.039 131.071C115.682 131.071 115.366 130.992 115.091 130.833C114.819 130.672 114.606 130.439 114.452 130.134C114.298 129.826 114.221 129.454 114.221 129.018V125.545H115.507V128.82C115.507 129.165 115.601 129.44 115.791 129.643C115.98 129.847 116.229 129.949 116.536 129.949C116.726 129.949 116.909 129.903 117.087 129.81C117.264 129.718 117.41 129.581 117.524 129.398C117.64 129.214 117.698 128.983 117.698 128.706ZM123.029 125.545V126.54H119.893V125.545H123.029ZM120.667 124.239H121.953V129.359C121.953 129.532 121.979 129.665 122.031 129.757C122.085 129.847 122.156 129.909 122.244 129.942C122.332 129.975 122.429 129.991 122.535 129.991C122.616 129.991 122.689 129.986 122.755 129.974C122.824 129.962 122.876 129.951 122.912 129.942L123.128 130.947C123.06 130.97 122.961 130.996 122.833 131.025C122.708 131.053 122.554 131.07 122.372 131.075C122.05 131.084 121.76 131.036 121.502 130.929C121.244 130.82 121.039 130.652 120.887 130.425C120.738 130.197 120.665 129.913 120.667 129.572V124.239ZM126.46 131.107C125.913 131.107 125.441 130.993 125.043 130.766C124.648 130.536 124.344 130.212 124.131 129.793C123.917 129.371 123.811 128.875 123.811 128.305C123.811 127.744 123.917 127.251 124.131 126.827C124.346 126.401 124.647 126.07 125.032 125.833C125.418 125.594 125.872 125.474 126.393 125.474C126.729 125.474 127.046 125.529 127.344 125.638C127.645 125.744 127.91 125.91 128.14 126.135C128.372 126.36 128.554 126.646 128.687 126.994C128.819 127.34 128.885 127.752 128.885 128.23V128.624H124.415V127.758H127.653C127.651 127.512 127.598 127.293 127.493 127.101C127.389 126.907 127.244 126.754 127.057 126.643C126.872 126.531 126.657 126.476 126.41 126.476C126.148 126.476 125.917 126.54 125.718 126.668C125.519 126.793 125.364 126.959 125.253 127.165C125.144 127.368 125.088 127.592 125.086 127.836V128.592C125.086 128.91 125.144 129.182 125.26 129.409C125.376 129.634 125.538 129.807 125.746 129.928C125.955 130.046 126.198 130.105 126.478 130.105C126.665 130.105 126.834 130.079 126.986 130.027C127.137 129.973 127.269 129.893 127.38 129.789C127.491 129.685 127.575 129.556 127.632 129.402L128.832 129.537C128.756 129.854 128.612 130.131 128.399 130.368C128.188 130.602 127.918 130.785 127.589 130.915C127.26 131.043 126.884 131.107 126.46 131.107ZM132.51 131V123.727H135.238C135.796 123.727 136.265 123.831 136.644 124.04C137.025 124.248 137.313 124.535 137.507 124.899C137.703 125.261 137.801 125.673 137.801 126.135C137.801 126.601 137.703 127.016 137.507 127.378C137.31 127.74 137.02 128.025 136.637 128.234C136.253 128.44 135.781 128.543 135.22 128.543H133.412V127.46H135.042C135.369 127.46 135.636 127.403 135.845 127.289C136.053 127.175 136.207 127.019 136.306 126.82C136.408 126.621 136.459 126.393 136.459 126.135C136.459 125.877 136.408 125.65 136.306 125.453C136.207 125.257 136.052 125.104 135.841 124.995C135.633 124.884 135.364 124.828 135.035 124.828H133.828V131H132.51ZM140.361 131.11C140.015 131.11 139.704 131.049 139.427 130.925C139.152 130.8 138.935 130.615 138.774 130.371C138.615 130.128 138.536 129.827 138.536 129.469C138.536 129.162 138.593 128.907 138.706 128.706C138.82 128.505 138.975 128.344 139.171 128.223C139.368 128.102 139.589 128.011 139.835 127.95C140.084 127.886 140.341 127.839 140.606 127.811C140.926 127.778 141.185 127.748 141.384 127.722C141.583 127.694 141.727 127.651 141.817 127.594C141.909 127.535 141.955 127.444 141.955 127.321V127.3C141.955 127.032 141.876 126.825 141.718 126.678C141.559 126.531 141.33 126.458 141.032 126.458C140.717 126.458 140.468 126.527 140.283 126.664C140.101 126.801 139.977 126.964 139.914 127.151L138.713 126.98C138.808 126.649 138.964 126.372 139.182 126.149C139.4 125.924 139.666 125.756 139.981 125.645C140.296 125.531 140.644 125.474 141.025 125.474C141.288 125.474 141.549 125.505 141.81 125.567C142.07 125.628 142.308 125.73 142.524 125.872C142.739 126.012 142.912 126.202 143.042 126.444C143.175 126.685 143.241 126.987 143.241 127.349V131H142.005V130.251H141.963C141.884 130.402 141.774 130.544 141.632 130.677C141.493 130.807 141.316 130.912 141.103 130.993C140.892 131.071 140.645 131.11 140.361 131.11ZM140.695 130.165C140.953 130.165 141.177 130.115 141.366 130.013C141.555 129.909 141.701 129.771 141.803 129.601C141.907 129.43 141.959 129.245 141.959 129.043V128.401C141.919 128.434 141.85 128.464 141.753 128.493C141.658 128.521 141.552 128.546 141.433 128.567C141.315 128.589 141.198 128.608 141.082 128.624C140.966 128.641 140.865 128.655 140.78 128.667C140.588 128.693 140.417 128.736 140.265 128.795C140.114 128.854 139.994 128.937 139.906 129.043C139.819 129.147 139.775 129.282 139.775 129.448C139.775 129.685 139.861 129.864 140.034 129.984C140.207 130.105 140.427 130.165 140.695 130.165ZM144.534 131V125.545H145.78V126.455H145.837C145.936 126.14 146.107 125.897 146.348 125.727C146.592 125.554 146.87 125.467 147.183 125.467C147.254 125.467 147.333 125.471 147.421 125.478C147.511 125.483 147.585 125.491 147.644 125.503V126.685C147.59 126.666 147.503 126.65 147.385 126.636C147.269 126.619 147.157 126.611 147.048 126.611C146.813 126.611 146.603 126.662 146.416 126.763C146.231 126.863 146.085 127.001 145.979 127.179C145.872 127.357 145.819 127.561 145.819 127.793V131H144.534ZM151.515 125.545V126.54H148.379V125.545H151.515ZM149.154 124.239H150.439V129.359C150.439 129.532 150.465 129.665 150.517 129.757C150.572 129.847 150.643 129.909 150.73 129.942C150.818 129.975 150.915 129.991 151.021 129.991C151.102 129.991 151.175 129.986 151.242 129.974C151.31 129.962 151.362 129.951 151.398 129.942L151.615 130.947C151.546 130.97 151.448 130.996 151.32 131.025C151.194 131.053 151.04 131.07 150.858 131.075C150.536 131.084 150.246 131.036 149.988 130.929C149.73 130.82 149.525 130.652 149.374 130.425C149.225 130.197 149.151 129.913 149.154 129.572V124.239ZM153.389 133.045C153.214 133.045 153.052 133.031 152.903 133.003C152.756 132.977 152.639 132.946 152.551 132.911L152.849 131.909C153.036 131.964 153.203 131.99 153.35 131.987C153.497 131.985 153.626 131.939 153.737 131.849C153.851 131.761 153.947 131.614 154.025 131.408L154.135 131.114L152.157 125.545H153.521L154.778 129.665H154.835L156.095 125.545H157.462L155.278 131.661C155.177 131.949 155.042 132.197 154.874 132.403C154.705 132.611 154.5 132.77 154.256 132.879C154.014 132.99 153.725 133.045 153.389 133.045ZM159.144 131.078C158.928 131.078 158.744 131.002 158.59 130.851C158.436 130.699 158.36 130.515 158.363 130.297C158.36 130.084 158.436 129.902 158.59 129.75C158.744 129.598 158.928 129.523 159.144 129.523C159.352 129.523 159.533 129.598 159.687 129.75C159.843 129.902 159.923 130.084 159.925 130.297C159.923 130.441 159.885 130.573 159.811 130.691C159.74 130.809 159.646 130.904 159.527 130.975C159.411 131.044 159.283 131.078 159.144 131.078ZM159.144 127.186C158.928 127.186 158.744 127.11 158.59 126.959C158.436 126.805 158.36 126.62 158.363 126.405C158.36 126.192 158.436 126.009 158.59 125.858C158.744 125.704 158.928 125.627 159.144 125.627C159.352 125.627 159.533 125.704 159.687 125.858C159.843 126.009 159.923 126.192 159.925 126.405C159.923 126.547 159.885 126.677 159.811 126.795C159.74 126.914 159.646 127.009 159.527 127.08C159.411 127.151 159.283 127.186 159.144 127.186ZM163.901 131.099C163.553 131.097 163.214 131.037 162.882 130.918C162.551 130.798 162.253 130.602 161.987 130.332C161.722 130.06 161.512 129.699 161.355 129.249C161.199 128.797 161.122 128.237 161.124 127.57C161.124 126.947 161.191 126.392 161.323 125.904C161.456 125.416 161.646 125.004 161.895 124.668C162.144 124.33 162.443 124.072 162.794 123.894C163.146 123.717 163.54 123.628 163.976 123.628C164.433 123.628 164.838 123.718 165.191 123.898C165.546 124.078 165.832 124.324 166.05 124.636C166.268 124.946 166.403 125.297 166.455 125.688H165.159C165.092 125.408 164.956 125.186 164.75 125.02C164.547 124.852 164.289 124.768 163.976 124.768C163.472 124.768 163.084 124.987 162.811 125.425C162.541 125.863 162.405 126.464 162.403 127.229H162.453C162.569 127.02 162.719 126.842 162.904 126.692C163.088 126.543 163.297 126.429 163.529 126.348C163.763 126.265 164.01 126.224 164.271 126.224C164.697 126.224 165.079 126.326 165.418 126.529C165.759 126.733 166.029 127.013 166.227 127.371C166.426 127.726 166.525 128.133 166.522 128.592C166.525 129.071 166.416 129.5 166.195 129.881C165.975 130.26 165.669 130.558 165.276 130.776C164.883 130.994 164.425 131.102 163.901 131.099ZM163.894 130.034C164.152 130.034 164.383 129.971 164.587 129.846C164.79 129.72 164.951 129.551 165.07 129.338C165.188 129.125 165.246 128.886 165.244 128.621C165.246 128.36 165.189 128.125 165.073 127.914C164.96 127.703 164.802 127.536 164.601 127.413C164.4 127.29 164.17 127.229 163.912 127.229C163.72 127.229 163.542 127.265 163.376 127.339C163.21 127.412 163.066 127.514 162.943 127.644C162.82 127.772 162.722 127.921 162.651 128.092C162.583 128.26 162.547 128.44 162.545 128.631C162.547 128.885 162.606 129.118 162.722 129.331C162.838 129.544 162.998 129.714 163.202 129.842C163.405 129.97 163.636 130.034 163.894 130.034ZM170.386 131.099C170.038 131.097 169.698 131.037 169.367 130.918C169.035 130.798 168.737 130.602 168.472 130.332C168.207 130.06 167.996 129.699 167.84 129.249C167.683 128.797 167.606 128.237 167.609 127.57C167.609 126.947 167.675 126.392 167.808 125.904C167.94 125.416 168.131 125.004 168.379 124.668C168.628 124.33 168.927 124.072 169.278 123.894C169.631 123.717 170.025 123.628 170.46 123.628C170.917 123.628 171.322 123.718 171.675 123.898C172.03 124.078 172.316 124.324 172.534 124.636C172.752 124.946 172.887 125.297 172.939 125.688H171.643C171.577 125.408 171.441 125.186 171.235 125.02C171.031 124.852 170.773 124.768 170.46 124.768C169.956 124.768 169.568 124.987 169.296 125.425C169.026 125.863 168.89 126.464 168.887 127.229H168.937C169.053 127.02 169.203 126.842 169.388 126.692C169.573 126.543 169.781 126.429 170.013 126.348C170.247 126.265 170.495 126.224 170.755 126.224C171.181 126.224 171.564 126.326 171.902 126.529C172.243 126.733 172.513 127.013 172.712 127.371C172.911 127.726 173.009 128.133 173.007 128.592C173.009 129.071 172.9 129.5 172.68 129.881C172.46 130.26 172.153 130.558 171.76 130.776C171.367 130.994 170.909 131.102 170.386 131.099ZM170.379 130.034C170.637 130.034 170.868 129.971 171.071 129.846C171.275 129.72 171.436 129.551 171.554 129.338C171.673 129.125 171.731 128.886 171.728 128.621C171.731 128.36 171.674 128.125 171.558 127.914C171.444 127.703 171.287 127.536 171.085 127.413C170.884 127.29 170.655 127.229 170.396 127.229C170.205 127.229 170.026 127.265 169.86 127.339C169.695 127.412 169.55 127.514 169.427 127.644C169.304 127.772 169.207 127.921 169.136 128.092C169.067 128.26 169.032 128.44 169.029 128.631C169.032 128.885 169.091 129.118 169.207 129.331C169.323 129.544 169.483 129.714 169.686 129.842C169.89 129.97 170.121 130.034 170.379 130.034ZM178.095 129.636V129.253C178.095 128.971 178.155 128.712 178.273 128.475C178.394 128.238 178.569 128.048 178.798 127.903C179.028 127.759 179.306 127.687 179.633 127.687C179.969 127.687 180.251 127.759 180.478 127.903C180.705 128.045 180.877 128.235 180.993 128.472C181.111 128.708 181.171 128.969 181.171 129.253V129.636C181.171 129.918 181.111 130.177 180.993 130.414C180.875 130.651 180.701 130.841 180.471 130.986C180.244 131.13 179.964 131.202 179.633 131.202C179.302 131.202 179.021 131.13 178.791 130.986C178.562 130.841 178.388 130.651 178.269 130.414C178.153 130.177 178.095 129.918 178.095 129.636ZM179.022 129.253V129.636C179.022 129.823 179.067 129.995 179.157 130.151C179.247 130.308 179.406 130.386 179.633 130.386C179.863 130.386 180.02 130.309 180.105 130.155C180.193 129.999 180.237 129.826 180.237 129.636V129.253C180.237 129.063 180.195 128.891 180.112 128.734C180.03 128.576 179.87 128.496 179.633 128.496C179.41 128.496 179.253 128.576 179.161 128.734C179.068 128.891 179.022 129.063 179.022 129.253ZM174.399 125.474V125.091C174.399 124.807 174.459 124.546 174.58 124.31C174.7 124.073 174.876 123.884 175.105 123.741C175.335 123.597 175.613 123.525 175.94 123.525C176.274 123.525 176.554 123.597 176.781 123.741C177.011 123.884 177.184 124.073 177.3 124.31C177.416 124.546 177.474 124.807 177.474 125.091V125.474C177.474 125.759 177.415 126.019 177.296 126.256C177.18 126.49 177.008 126.678 176.778 126.82C176.548 126.962 176.269 127.033 175.94 127.033C175.606 127.033 175.324 126.962 175.095 126.82C174.867 126.678 174.695 126.489 174.576 126.252C174.458 126.015 174.399 125.756 174.399 125.474ZM175.333 125.091V125.474C175.333 125.664 175.376 125.837 175.464 125.993C175.554 126.147 175.713 126.224 175.94 126.224C176.167 126.224 176.323 126.147 176.409 125.993C176.496 125.837 176.54 125.664 176.54 125.474V125.091C176.54 124.902 176.499 124.729 176.416 124.572C176.333 124.414 176.174 124.335 175.94 124.335C175.715 124.335 175.557 124.414 175.468 124.572C175.378 124.731 175.333 124.904 175.333 125.091ZM174.803 131L179.803 123.727H180.691L175.691 131H174.803Z" fill="#4FDD6E"/>
<path d="M66.8391 136.832V135.727H72.6417V136.832H70.3938V143H69.087V136.832H66.8391ZM75.3272 143.107C74.7804 143.107 74.3081 142.993 73.9103 142.766C73.515 142.536 73.2108 142.212 72.9977 141.793C72.7846 141.371 72.6781 140.875 72.6781 140.305C72.6781 139.744 72.7846 139.251 72.9977 138.827C73.2131 138.401 73.5138 138.07 73.8997 137.833C74.2856 137.594 74.7389 137.474 75.2598 137.474C75.5959 137.474 75.9132 137.529 76.2115 137.638C76.5121 137.744 76.7773 137.91 77.0069 138.135C77.2389 138.36 77.4212 138.646 77.5538 138.994C77.6864 139.34 77.7527 139.752 77.7527 140.23V140.624H73.2818V139.758H76.5204C76.5181 139.512 76.4648 139.293 76.3606 139.101C76.2565 138.907 76.1109 138.754 75.9238 138.643C75.7392 138.531 75.5237 138.476 75.2775 138.476C75.0147 138.476 74.7839 138.54 74.585 138.668C74.3862 138.793 74.2311 138.959 74.1199 139.165C74.0109 139.368 73.9553 139.592 73.9529 139.836V140.592C73.9529 140.91 74.0109 141.182 74.127 141.409C74.243 141.634 74.4051 141.807 74.6135 141.928C74.8218 142.046 75.0656 142.105 75.345 142.105C75.532 142.105 75.7013 142.079 75.8528 142.027C76.0043 141.973 76.1357 141.893 76.247 141.789C76.3583 141.685 76.4423 141.556 76.4991 141.402L77.6994 141.537C77.6236 141.854 77.4792 142.131 77.2662 142.368C77.0555 142.602 76.7856 142.785 76.4565 142.915C76.1274 143.043 75.751 143.107 75.3272 143.107ZM81.2195 143.107C80.675 143.107 80.2074 142.987 79.8168 142.748C79.4285 142.509 79.129 142.179 78.9183 141.757C78.71 141.333 78.6058 140.846 78.6058 140.294C78.6058 139.74 78.7124 139.251 78.9254 138.827C79.1385 138.401 79.4392 138.07 79.8274 137.833C80.218 137.594 80.6797 137.474 81.2124 137.474C81.6551 137.474 82.0469 137.556 82.3878 137.719C82.7311 137.88 83.0045 138.109 83.2081 138.405C83.4117 138.698 83.5277 139.042 83.5561 139.435H82.3274C82.2777 139.172 82.1593 138.953 81.9723 138.778C81.7876 138.6 81.5402 138.511 81.2301 138.511C80.9673 138.511 80.7365 138.582 80.5376 138.724C80.3388 138.864 80.1837 139.065 80.0724 139.328C79.9635 139.591 79.9091 139.906 79.9091 140.273C79.9091 140.644 79.9635 140.964 80.0724 141.232C80.1813 141.497 80.334 141.701 80.5305 141.846C80.7294 141.988 80.9626 142.059 81.2301 142.059C81.4195 142.059 81.5888 142.023 81.7379 141.952C81.8894 141.879 82.0161 141.774 82.1179 141.636C82.2197 141.499 82.2895 141.332 82.3274 141.136H83.5561C83.5253 141.522 83.4117 141.864 83.2152 142.162C83.0187 142.458 82.7512 142.69 82.4126 142.858C82.0741 143.024 81.6764 143.107 81.2195 143.107ZM85.8972 139.804V143H84.6117V135.727H85.8688V138.472H85.9327C86.0605 138.165 86.2582 137.922 86.5257 137.744C86.7956 137.564 87.1389 137.474 87.5556 137.474C87.9344 137.474 88.2646 137.554 88.5463 137.712C88.8281 137.871 89.0459 138.103 89.1998 138.408C89.356 138.714 89.4341 139.087 89.4341 139.527V143H88.1486V139.726C88.1486 139.359 88.0539 139.074 87.8645 138.87C87.6775 138.664 87.4147 138.561 87.0762 138.561C86.8489 138.561 86.6453 138.611 86.4654 138.71C86.2878 138.807 86.1481 138.948 86.0463 139.133C85.9469 139.317 85.8972 139.541 85.8972 139.804ZM92.03 139.804V143H90.7445V137.545H91.9732V138.472H92.0371C92.1626 138.167 92.3626 137.924 92.6373 137.744C92.9142 137.564 93.2563 137.474 93.6635 137.474C94.04 137.474 94.3678 137.555 94.6472 137.716C94.9289 137.877 95.1467 138.11 95.3006 138.415C95.4569 138.721 95.5338 139.091 95.5314 139.527V143H94.2459V139.726C94.2459 139.361 94.1512 139.076 93.9618 138.87C93.7748 138.664 93.5156 138.561 93.1841 138.561C92.9592 138.561 92.7592 138.611 92.584 138.71C92.4112 138.807 92.275 138.948 92.1756 139.133C92.0785 139.317 92.03 139.541 92.03 139.804ZM99.2175 143.107C98.6848 143.107 98.2232 142.989 97.8326 142.755C97.4419 142.521 97.1389 142.193 96.9235 141.771C96.7104 141.35 96.6039 140.857 96.6039 140.294C96.6039 139.731 96.7104 139.237 96.9235 138.813C97.1389 138.389 97.4419 138.06 97.8326 137.826C98.2232 137.592 98.6848 137.474 99.2175 137.474C99.7502 137.474 100.212 137.592 100.602 137.826C100.993 138.06 101.295 138.389 101.508 138.813C101.723 139.237 101.831 139.731 101.831 140.294C101.831 140.857 101.723 141.35 101.508 141.771C101.295 142.193 100.993 142.521 100.602 142.755C100.212 142.989 99.7502 143.107 99.2175 143.107ZM99.2246 142.077C99.5134 142.077 99.7549 141.997 99.949 141.839C100.143 141.678 100.288 141.462 100.382 141.192C100.479 140.923 100.528 140.622 100.528 140.29C100.528 139.957 100.479 139.655 100.382 139.385C100.288 139.113 100.143 138.896 99.949 138.735C99.7549 138.574 99.5134 138.494 99.2246 138.494C98.9287 138.494 98.6825 138.574 98.486 138.735C98.2918 138.896 98.1462 139.113 98.0492 139.385C97.9545 139.655 97.9071 139.957 97.9071 140.29C97.9071 140.622 97.9545 140.923 98.0492 141.192C98.1462 141.462 98.2918 141.678 98.486 141.839C98.6825 141.997 98.9287 142.077 99.2246 142.077ZM104.208 135.727V143H102.922V135.727H104.208ZM107.909 143.107C107.376 143.107 106.915 142.989 106.524 142.755C106.133 142.521 105.83 142.193 105.615 141.771C105.402 141.35 105.295 140.857 105.295 140.294C105.295 139.731 105.402 139.237 105.615 138.813C105.83 138.389 106.133 138.06 106.524 137.826C106.915 137.592 107.376 137.474 107.909 137.474C108.442 137.474 108.903 137.592 109.294 137.826C109.684 138.06 109.986 138.389 110.199 138.813C110.415 139.237 110.523 139.731 110.523 140.294C110.523 140.857 110.415 141.35 110.199 141.771C109.986 142.193 109.684 142.521 109.294 142.755C108.903 142.989 108.442 143.107 107.909 143.107ZM107.916 142.077C108.205 142.077 108.446 141.997 108.64 141.839C108.835 141.678 108.979 141.462 109.074 141.192C109.171 140.923 109.219 140.622 109.219 140.29C109.219 139.957 109.171 139.655 109.074 139.385C108.979 139.113 108.835 138.896 108.64 138.735C108.446 138.574 108.205 138.494 107.916 138.494C107.62 138.494 107.374 138.574 107.177 138.735C106.983 138.896 106.838 139.113 106.741 139.385C106.646 139.655 106.599 139.957 106.599 140.29C106.599 140.622 106.646 140.923 106.741 141.192C106.838 141.462 106.983 141.678 107.177 141.839C107.374 141.997 107.62 142.077 107.916 142.077ZM113.986 145.159C113.524 145.159 113.128 145.096 112.796 144.971C112.465 144.848 112.198 144.682 111.997 144.474C111.796 144.265 111.656 144.035 111.578 143.781L112.736 143.501C112.788 143.607 112.864 143.713 112.963 143.817C113.063 143.923 113.196 144.011 113.364 144.08C113.535 144.151 113.749 144.186 114.007 144.186C114.372 144.186 114.674 144.097 114.913 143.92C115.152 143.745 115.271 143.456 115.271 143.053V142.02H115.207C115.141 142.152 115.044 142.289 114.916 142.428C114.791 142.568 114.624 142.685 114.415 142.78C114.21 142.875 113.95 142.922 113.638 142.922C113.219 142.922 112.839 142.824 112.498 142.627C112.159 142.428 111.889 142.132 111.688 141.739C111.489 141.344 111.39 140.849 111.39 140.255C111.39 139.656 111.489 139.151 111.688 138.739C111.889 138.324 112.161 138.011 112.501 137.798C112.842 137.582 113.222 137.474 113.641 137.474C113.961 137.474 114.224 137.529 114.43 137.638C114.638 137.744 114.804 137.873 114.927 138.025C115.05 138.174 115.143 138.315 115.207 138.447H115.278V137.545H116.546V143.089C116.546 143.555 116.435 143.941 116.212 144.246C115.99 144.552 115.686 144.78 115.3 144.932C114.914 145.083 114.476 145.159 113.986 145.159ZM113.996 141.913C114.269 141.913 114.501 141.847 114.692 141.714C114.884 141.582 115.03 141.391 115.129 141.143C115.229 140.894 115.278 140.596 115.278 140.248C115.278 139.905 115.229 139.604 115.129 139.346C115.032 139.088 114.888 138.888 114.696 138.746C114.507 138.601 114.273 138.529 113.996 138.529C113.71 138.529 113.471 138.604 113.279 138.753C113.087 138.902 112.943 139.107 112.846 139.367C112.749 139.625 112.7 139.919 112.7 140.248C112.7 140.582 112.749 140.874 112.846 141.125C112.945 141.374 113.091 141.568 113.283 141.707C113.477 141.845 113.715 141.913 113.996 141.913ZM117.864 143V137.545H119.149V143H117.864ZM118.51 136.771C118.306 136.771 118.131 136.704 117.984 136.569C117.838 136.432 117.764 136.267 117.764 136.075C117.764 135.881 117.838 135.717 117.984 135.582C118.131 135.444 118.306 135.376 118.51 135.376C118.716 135.376 118.891 135.444 119.036 135.582C119.182 135.717 119.256 135.881 119.256 136.075C119.256 136.267 119.182 136.432 119.036 136.569C118.891 136.704 118.716 136.771 118.51 136.771ZM122.85 143.107C122.306 143.107 121.838 142.987 121.448 142.748C121.059 142.509 120.76 142.179 120.549 141.757C120.341 141.333 120.237 140.846 120.237 140.294C120.237 139.74 120.343 139.251 120.556 138.827C120.769 138.401 121.07 138.07 121.458 137.833C121.849 137.594 122.311 137.474 122.843 137.474C123.286 137.474 123.678 137.556 124.019 137.719C124.362 137.88 124.635 138.109 124.839 138.405C125.043 138.698 125.159 139.042 125.187 139.435H123.958C123.909 139.172 123.79 138.953 123.603 138.778C123.419 138.6 123.171 138.511 122.861 138.511C122.598 138.511 122.367 138.582 122.169 138.724C121.97 138.864 121.815 139.065 121.703 139.328C121.594 139.591 121.54 139.906 121.54 140.273C121.54 140.644 121.594 140.964 121.703 141.232C121.812 141.497 121.965 141.701 122.161 141.846C122.36 141.988 122.593 142.059 122.861 142.059C123.05 142.059 123.22 142.023 123.369 141.952C123.52 141.879 123.647 141.774 123.749 141.636C123.851 141.499 123.92 141.332 123.958 141.136H125.187C125.156 141.522 125.043 141.864 124.846 142.162C124.65 142.458 124.382 142.69 124.044 142.858C123.705 143.024 123.307 143.107 122.85 143.107ZM127.812 143.11C127.467 143.11 127.155 143.049 126.878 142.925C126.604 142.8 126.386 142.615 126.225 142.371C126.066 142.128 125.987 141.827 125.987 141.469C125.987 141.162 126.044 140.907 126.157 140.706C126.271 140.505 126.426 140.344 126.623 140.223C126.819 140.102 127.04 140.011 127.287 139.95C127.535 139.886 127.792 139.839 128.057 139.811C128.377 139.778 128.636 139.748 128.835 139.722C129.034 139.694 129.178 139.651 129.268 139.594C129.36 139.535 129.407 139.444 129.407 139.321V139.3C129.407 139.032 129.327 138.825 129.169 138.678C129.01 138.531 128.782 138.458 128.483 138.458C128.168 138.458 127.919 138.527 127.734 138.664C127.552 138.801 127.429 138.964 127.365 139.151L126.164 138.98C126.259 138.649 126.415 138.372 126.633 138.149C126.851 137.924 127.117 137.756 127.432 137.645C127.747 137.531 128.095 137.474 128.476 137.474C128.739 137.474 129.001 137.505 129.261 137.567C129.521 137.628 129.759 137.73 129.975 137.872C130.19 138.012 130.363 138.202 130.493 138.444C130.626 138.685 130.692 138.987 130.692 139.349V143H129.456V142.251H129.414C129.336 142.402 129.225 142.544 129.083 142.677C128.944 142.807 128.767 142.912 128.554 142.993C128.344 143.071 128.096 143.11 127.812 143.11ZM128.146 142.165C128.404 142.165 128.628 142.115 128.817 142.013C129.007 141.909 129.152 141.771 129.254 141.601C129.358 141.43 129.41 141.245 129.41 141.043V140.401C129.37 140.434 129.301 140.464 129.204 140.493C129.109 140.521 129.003 140.546 128.885 140.567C128.766 140.589 128.649 140.608 128.533 140.624C128.417 140.641 128.316 140.655 128.231 140.667C128.039 140.693 127.868 140.736 127.716 140.795C127.565 140.854 127.445 140.937 127.358 141.043C127.27 141.147 127.226 141.282 127.226 141.448C127.226 141.685 127.313 141.864 127.485 141.984C127.658 142.105 127.878 142.165 128.146 142.165ZM133.27 135.727V143H131.985V135.727H133.27ZM137.129 143V135.727H139.857C140.415 135.727 140.884 135.831 141.263 136.04C141.644 136.248 141.932 136.535 142.126 136.899C142.322 137.261 142.421 137.673 142.421 138.135C142.421 138.601 142.322 139.016 142.126 139.378C141.929 139.74 141.639 140.025 141.256 140.234C140.872 140.44 140.4 140.543 139.839 140.543H138.031V139.46H139.661C139.988 139.46 140.256 139.403 140.464 139.289C140.672 139.175 140.826 139.019 140.926 138.82C141.027 138.621 141.078 138.393 141.078 138.135C141.078 137.877 141.027 137.65 140.926 137.453C140.826 137.257 140.671 137.104 140.46 136.995C140.252 136.884 139.983 136.828 139.654 136.828H138.447V143H137.129ZM144.98 143.11C144.634 143.11 144.323 143.049 144.046 142.925C143.772 142.8 143.554 142.615 143.393 142.371C143.234 142.128 143.155 141.827 143.155 141.469C143.155 141.162 143.212 140.907 143.325 140.706C143.439 140.505 143.594 140.344 143.79 140.223C143.987 140.102 144.208 140.011 144.455 139.95C144.703 139.886 144.96 139.839 145.225 139.811C145.545 139.778 145.804 139.748 146.003 139.722C146.202 139.694 146.346 139.651 146.436 139.594C146.528 139.535 146.575 139.444 146.575 139.321V139.3C146.575 139.032 146.495 138.825 146.337 138.678C146.178 138.531 145.95 138.458 145.651 138.458C145.336 138.458 145.087 138.527 144.902 138.664C144.72 138.801 144.597 138.964 144.533 139.151L143.332 138.98C143.427 138.649 143.583 138.372 143.801 138.149C144.019 137.924 144.285 137.756 144.6 137.645C144.915 137.531 145.263 137.474 145.644 137.474C145.907 137.474 146.169 137.505 146.429 137.567C146.689 137.628 146.927 137.73 147.143 137.872C147.358 138.012 147.531 138.202 147.661 138.444C147.794 138.685 147.86 138.987 147.86 139.349V143H146.624V142.251H146.582C146.504 142.402 146.393 142.544 146.251 142.677C146.112 142.807 145.935 142.912 145.722 142.993C145.512 143.071 145.264 143.11 144.98 143.11ZM145.314 142.165C145.572 142.165 145.796 142.115 145.985 142.013C146.174 141.909 146.32 141.771 146.422 141.601C146.526 141.43 146.578 141.245 146.578 141.043V140.401C146.538 140.434 146.469 140.464 146.372 140.493C146.277 140.521 146.171 140.546 146.053 140.567C145.934 140.589 145.817 140.608 145.701 140.624C145.585 140.641 145.484 140.655 145.399 140.667C145.207 140.693 145.036 140.736 144.884 140.795C144.733 140.854 144.613 140.937 144.526 141.043C144.438 141.147 144.394 141.282 144.394 141.448C144.394 141.685 144.481 141.864 144.653 141.984C144.826 142.105 145.046 142.165 145.314 142.165ZM149.153 143V137.545H150.399V138.455H150.456C150.555 138.14 150.726 137.897 150.967 137.727C151.211 137.554 151.489 137.467 151.802 137.467C151.873 137.467 151.952 137.471 152.04 137.478C152.13 137.483 152.204 137.491 152.263 137.503V138.685C152.209 138.666 152.123 138.65 152.004 138.636C151.888 138.619 151.776 138.611 151.667 138.611C151.433 138.611 151.222 138.662 151.035 138.763C150.85 138.863 150.705 139.001 150.598 139.179C150.491 139.357 150.438 139.561 150.438 139.793V143H149.153ZM156.134 137.545V138.54H152.999V137.545H156.134ZM153.773 136.239H155.058V141.359C155.058 141.532 155.084 141.665 155.136 141.757C155.191 141.847 155.262 141.909 155.349 141.942C155.437 141.975 155.534 141.991 155.641 141.991C155.721 141.991 155.795 141.986 155.861 141.974C155.929 141.962 155.982 141.951 156.017 141.942L156.234 142.947C156.165 142.97 156.067 142.996 155.939 143.025C155.813 143.053 155.66 143.07 155.477 143.075C155.155 143.084 154.865 143.036 154.607 142.929C154.349 142.82 154.144 142.652 153.993 142.425C153.844 142.197 153.77 141.913 153.773 141.572V136.239ZM158.008 145.045C157.833 145.045 157.671 145.031 157.522 145.003C157.375 144.977 157.258 144.946 157.17 144.911L157.469 143.909C157.656 143.964 157.823 143.99 157.969 143.987C158.116 143.985 158.245 143.939 158.356 143.849C158.47 143.761 158.566 143.614 158.644 143.408L158.754 143.114L156.776 137.545H158.14L159.397 141.665H159.454L160.714 137.545H162.081L159.898 143.661C159.796 143.949 159.661 144.197 159.493 144.403C159.325 144.611 159.119 144.77 158.875 144.879C158.633 144.99 158.345 145.045 158.008 145.045ZM163.763 143.078C163.548 143.078 163.363 143.002 163.209 142.851C163.055 142.699 162.979 142.515 162.982 142.297C162.979 142.084 163.055 141.902 163.209 141.75C163.363 141.598 163.548 141.523 163.763 141.523C163.971 141.523 164.152 141.598 164.306 141.75C164.463 141.902 164.542 142.084 164.544 142.297C164.542 142.441 164.504 142.573 164.431 142.691C164.36 142.809 164.265 142.904 164.146 142.975C164.03 143.044 163.903 143.078 163.763 143.078ZM163.763 139.186C163.548 139.186 163.363 139.11 163.209 138.959C163.055 138.805 162.979 138.62 162.982 138.405C162.979 138.192 163.055 138.009 163.209 137.858C163.363 137.704 163.548 137.627 163.763 137.627C163.971 137.627 164.152 137.704 164.306 137.858C164.463 138.009 164.542 138.192 164.544 138.405C164.542 138.547 164.504 138.677 164.431 138.795C164.36 138.914 164.265 139.009 164.146 139.08C164.03 139.151 163.903 139.186 163.763 139.186ZM165.857 143V142.048L168.382 139.573C168.624 139.329 168.825 139.113 168.986 138.923C169.147 138.734 169.268 138.55 169.348 138.373C169.429 138.195 169.469 138.006 169.469 137.805C169.469 137.575 169.417 137.379 169.312 137.215C169.208 137.049 169.065 136.922 168.883 136.832C168.701 136.742 168.493 136.697 168.261 136.697C168.022 136.697 167.813 136.746 167.633 136.846C167.453 136.943 167.313 137.081 167.214 137.261C167.117 137.441 167.068 137.656 167.068 137.904H165.815C165.815 137.442 165.92 137.041 166.131 136.7C166.341 136.359 166.631 136.095 167.001 135.908C167.372 135.721 167.799 135.628 168.279 135.628C168.767 135.628 169.195 135.719 169.565 135.901C169.934 136.084 170.22 136.333 170.424 136.651C170.63 136.968 170.733 137.33 170.733 137.737C170.733 138.009 170.681 138.277 170.577 138.54C170.473 138.803 170.289 139.094 170.026 139.413C169.766 139.733 169.4 140.12 168.929 140.575L167.675 141.849V141.899H170.843V143H165.857ZM174.756 143.138C174.172 143.138 173.67 142.991 173.251 142.695C172.834 142.396 172.513 141.967 172.288 141.406C172.066 140.842 171.955 140.164 171.955 139.371C171.957 138.578 172.069 137.903 172.292 137.347C172.517 136.788 172.838 136.362 173.254 136.068C173.673 135.775 174.174 135.628 174.756 135.628C175.339 135.628 175.839 135.775 176.259 136.068C176.678 136.362 176.998 136.788 177.221 137.347C177.446 137.905 177.558 138.58 177.558 139.371C177.558 140.166 177.446 140.846 177.221 141.409C176.998 141.97 176.678 142.399 176.259 142.695C175.842 142.991 175.341 143.138 174.756 143.138ZM174.756 142.027C175.211 142.027 175.57 141.803 175.832 141.356C176.098 140.906 176.23 140.244 176.23 139.371C176.23 138.793 176.17 138.308 176.049 137.915C175.928 137.522 175.758 137.226 175.538 137.027C175.317 136.826 175.057 136.725 174.756 136.725C174.304 136.725 173.947 136.95 173.684 137.4C173.421 137.847 173.289 138.504 173.286 139.371C173.284 139.951 173.342 140.438 173.46 140.834C173.581 141.229 173.751 141.527 173.972 141.729C174.192 141.928 174.453 142.027 174.756 142.027ZM182.627 141.636V141.253C182.627 140.971 182.686 140.712 182.804 140.475C182.925 140.238 183.1 140.048 183.33 139.903C183.559 139.759 183.838 139.687 184.164 139.687C184.5 139.687 184.782 139.759 185.009 139.903C185.237 140.045 185.408 140.235 185.524 140.472C185.643 140.708 185.702 140.969 185.702 141.253V141.636C185.702 141.918 185.643 142.177 185.524 142.414C185.406 142.651 185.232 142.841 185.002 142.986C184.775 143.13 184.496 143.202 184.164 143.202C183.833 143.202 183.552 143.13 183.323 142.986C183.093 142.841 182.919 142.651 182.801 142.414C182.685 142.177 182.627 141.918 182.627 141.636ZM183.553 141.253V141.636C183.553 141.823 183.598 141.995 183.688 142.151C183.778 142.308 183.937 142.386 184.164 142.386C184.394 142.386 184.551 142.309 184.637 142.155C184.724 141.999 184.768 141.826 184.768 141.636V141.253C184.768 141.063 184.727 140.891 184.644 140.734C184.561 140.576 184.401 140.496 184.164 140.496C183.942 140.496 183.784 140.576 183.692 140.734C183.6 140.891 183.553 141.063 183.553 141.253ZM178.93 137.474V137.091C178.93 136.807 178.99 136.546 179.111 136.31C179.232 136.073 179.407 135.884 179.637 135.741C179.866 135.597 180.144 135.525 180.471 135.525C180.805 135.525 181.085 135.597 181.313 135.741C181.542 135.884 181.715 136.073 181.831 136.31C181.947 136.546 182.005 136.807 182.005 137.091V137.474C182.005 137.759 181.946 138.019 181.828 138.256C181.712 138.49 181.539 138.678 181.309 138.82C181.079 138.962 180.8 139.033 180.471 139.033C180.137 139.033 179.856 138.962 179.626 138.82C179.399 138.678 179.226 138.489 179.107 138.252C178.989 138.015 178.93 137.756 178.93 137.474ZM179.864 137.091V137.474C179.864 137.664 179.908 137.837 179.995 137.993C180.085 138.147 180.244 138.224 180.471 138.224C180.698 138.224 180.855 138.147 180.94 137.993C181.027 137.837 181.071 137.664 181.071 137.474V137.091C181.071 136.902 181.03 136.729 180.947 136.572C180.864 136.414 180.705 136.335 180.471 136.335C180.246 136.335 180.089 136.414 179.999 136.572C179.909 136.731 179.864 136.904 179.864 137.091ZM179.335 143L184.335 135.727H185.222L180.222 143H179.335ZM73.3839 150.181H72.0558C72.0179 149.963 71.948 149.77 71.8462 149.602C71.7444 149.432 71.6178 149.287 71.4663 149.169C71.3147 149.051 71.1419 148.962 70.9478 148.903C70.756 148.841 70.5489 148.81 70.3263 148.81C69.931 148.81 69.5806 148.91 69.2752 149.109C68.9698 149.305 68.7307 149.594 68.5579 149.975C68.3851 150.354 68.2987 150.817 68.2987 151.364C68.2987 151.92 68.3851 152.389 68.5579 152.77C68.7331 153.149 68.9722 153.435 69.2752 153.629C69.5806 153.821 69.9298 153.917 70.3228 153.917C70.5406 153.917 70.7442 153.888 70.9336 153.832C71.1254 153.772 71.297 153.686 71.4485 153.572C71.6024 153.459 71.7314 153.319 71.8356 153.153C71.9421 152.988 72.0155 152.798 72.0558 152.585L73.3839 152.592C73.3342 152.938 73.2264 153.262 73.0607 153.565C72.8974 153.868 72.6831 154.136 72.418 154.368C72.1528 154.598 71.8427 154.777 71.4876 154.908C71.1325 155.036 70.7383 155.099 70.305 155.099C69.6658 155.099 69.0953 154.951 68.5934 154.656C68.0915 154.36 67.6961 153.932 67.4073 153.374C67.1185 152.815 66.9741 152.145 66.9741 151.364C66.9741 150.58 67.1197 149.91 67.4109 149.354C67.7021 148.795 68.0986 148.368 68.6005 148.072C69.1024 147.776 69.6706 147.628 70.305 147.628C70.7099 147.628 71.0863 147.685 71.4343 147.798C71.7823 147.912 72.0924 148.079 72.3647 148.299C72.637 148.517 72.8607 148.784 73.0359 149.102C73.2134 149.416 73.3294 149.776 73.3839 150.181ZM78.0101 152.706V149.545H79.2956V155H78.0492V154.031H77.9924C77.8693 154.336 77.6668 154.586 77.3851 154.78C77.1058 154.974 76.7613 155.071 76.3517 155.071C75.9943 155.071 75.6782 154.992 75.4036 154.833C75.1313 154.672 74.9183 154.439 74.7644 154.134C74.6105 153.826 74.5336 153.454 74.5336 153.018V149.545H75.8191V152.82C75.8191 153.165 75.9138 153.44 76.1032 153.643C76.2926 153.847 76.5411 153.949 76.8489 153.949C77.0383 153.949 77.2218 153.903 77.3993 153.81C77.5769 153.718 77.7225 153.581 77.8361 153.398C77.9521 153.214 78.0101 152.983 78.0101 152.706ZM81.9031 147.727V155H80.6175V147.727H81.9031ZM85.9487 149.545V150.54H82.813V149.545H85.9487ZM83.5872 148.239H84.8727V153.359C84.8727 153.532 84.8987 153.665 84.9508 153.757C85.0053 153.847 85.0763 153.909 85.1639 153.942C85.2515 153.975 85.3485 153.991 85.4551 153.991C85.5356 153.991 85.609 153.986 85.6752 153.974C85.7439 153.962 85.796 153.951 85.8315 153.942L86.0481 154.947C85.9795 154.97 85.8812 154.996 85.7534 155.025C85.6279 155.053 85.474 155.07 85.2917 155.075C84.9698 155.084 84.6797 155.036 84.4217 154.929C84.1636 154.82 83.9589 154.652 83.8074 154.425C83.6582 154.197 83.5848 153.913 83.5872 153.572V148.239ZM90.5004 152.706V149.545H91.7859V155H90.5394V154.031H90.4826C90.3595 154.336 90.1571 154.586 89.8754 154.78C89.596 154.974 89.2515 155.071 88.842 155.071C88.4845 155.071 88.1684 154.992 87.8938 154.833C87.6216 154.672 87.4085 154.439 87.2546 154.134C87.1007 153.826 87.0238 153.454 87.0238 153.018V149.545H88.3093V152.82C88.3093 153.165 88.404 153.44 88.5934 153.643C88.7828 153.847 89.0314 153.949 89.3391 153.949C89.5285 153.949 89.712 153.903 89.8896 153.81C90.0671 153.718 90.2127 153.581 90.3263 153.398C90.4424 153.214 90.5004 152.983 90.5004 152.706ZM93.1078 155V149.545H94.3542V150.455H94.411C94.5105 150.14 94.6809 149.897 94.9224 149.727C95.1663 149.554 95.4444 149.467 95.7569 149.467C95.8279 149.467 95.9073 149.471 95.9949 149.478C96.0848 149.483 96.1594 149.491 96.2186 149.503V150.685C96.1641 150.666 96.0777 150.65 95.9593 150.636C95.8433 150.619 95.7309 150.611 95.622 150.611C95.3876 150.611 95.1769 150.662 94.9899 150.763C94.8052 150.863 94.6596 151.001 94.5531 151.179C94.4466 151.357 94.3933 151.561 94.3933 151.793V155H93.1078ZM98.5446 155.11C98.1989 155.11 97.8876 155.049 97.6106 154.925C97.336 154.8 97.1182 154.615 96.9572 154.371C96.7986 154.128 96.7193 153.827 96.7193 153.469C96.7193 153.162 96.7761 152.907 96.8897 152.706C97.0034 152.505 97.1584 152.344 97.3549 152.223C97.5514 152.102 97.7728 152.011 98.019 151.95C98.2676 151.886 98.5244 151.839 98.7896 151.811C99.1092 151.778 99.3684 151.748 99.5673 151.722C99.7662 151.694 99.9106 151.651 100.001 151.594C100.093 151.535 100.139 151.444 100.139 151.321V151.3C100.139 151.032 100.06 150.825 99.9011 150.678C99.7425 150.531 99.514 150.458 99.2157 150.458C98.9009 150.458 98.6511 150.527 98.4664 150.664C98.2842 150.801 98.161 150.964 98.0971 151.151L96.8968 150.98C96.9915 150.649 97.1478 150.372 97.3656 150.149C97.5834 149.924 97.8497 149.756 98.1646 149.645C98.4795 149.531 98.8275 149.474 99.2086 149.474C99.4714 149.474 99.733 149.505 99.9934 149.567C100.254 149.628 100.492 149.73 100.707 149.872C100.923 150.012 101.095 150.202 101.226 150.444C101.358 150.685 101.425 150.987 101.425 151.349V155H100.189V154.251H100.146C100.068 154.402 99.9579 154.544 99.8159 154.677C99.6762 154.807 99.4998 154.912 99.2868 154.993C99.0761 155.071 98.8287 155.11 98.5446 155.11ZM98.8784 154.165C99.1364 154.165 99.3601 154.115 99.5495 154.013C99.7389 153.909 99.8845 153.771 99.9863 153.601C100.09 153.43 100.143 153.245 100.143 153.043V152.401C100.102 152.434 100.034 152.464 99.9366 152.493C99.8419 152.521 99.7354 152.546 99.617 152.567C99.4986 152.589 99.3815 152.608 99.2654 152.624C99.1494 152.641 99.0488 152.655 98.9636 152.667C98.7718 152.693 98.6002 152.736 98.4487 152.795C98.2972 152.854 98.1776 152.937 98.09 153.043C98.0024 153.147 97.9586 153.282 97.9586 153.448C97.9586 153.685 98.045 153.864 98.2179 153.984C98.3907 154.105 98.6109 154.165 98.8784 154.165ZM104.003 147.727V155H102.717V147.727H104.003ZM107.862 155V147.727H110.589C111.148 147.727 111.617 147.831 111.995 148.04C112.377 148.248 112.664 148.535 112.858 148.899C113.055 149.261 113.153 149.673 113.153 150.135C113.153 150.601 113.055 151.016 112.858 151.378C112.662 151.74 112.372 152.025 111.988 152.234C111.605 152.44 111.132 152.543 110.571 152.543H108.764V151.46H110.394C110.721 151.46 110.988 151.403 111.196 151.289C111.405 151.175 111.559 151.019 111.658 150.82C111.76 150.621 111.811 150.393 111.811 150.135C111.811 149.877 111.76 149.65 111.658 149.453C111.559 149.257 111.404 149.104 111.193 148.995C110.984 148.884 110.716 148.828 110.387 148.828H109.179V155H107.862ZM115.713 155.11C115.367 155.11 115.056 155.049 114.779 154.925C114.504 154.8 114.286 154.615 114.125 154.371C113.967 154.128 113.887 153.827 113.887 153.469C113.887 153.162 113.944 152.907 114.058 152.706C114.171 152.505 114.326 152.344 114.523 152.223C114.719 152.102 114.941 152.011 115.187 151.95C115.436 151.886 115.692 151.839 115.958 151.811C116.277 151.778 116.536 151.748 116.735 151.722C116.934 151.694 117.079 151.651 117.169 151.594C117.261 151.535 117.307 151.444 117.307 151.321V151.3C117.307 151.032 117.228 150.825 117.069 150.678C116.91 150.531 116.682 150.458 116.384 150.458C116.069 150.458 115.819 150.527 115.634 150.664C115.452 150.801 115.329 150.964 115.265 151.151L114.065 150.98C114.16 150.649 114.316 150.372 114.534 150.149C114.751 149.924 115.018 149.756 115.333 149.645C115.647 149.531 115.995 149.474 116.377 149.474C116.639 149.474 116.901 149.505 117.161 149.567C117.422 149.628 117.66 149.73 117.875 149.872C118.091 150.012 118.263 150.202 118.394 150.444C118.526 150.685 118.593 150.987 118.593 151.349V155H117.357V154.251H117.314C117.236 154.402 117.126 154.544 116.984 154.677C116.844 154.807 116.668 154.912 116.455 154.993C116.244 155.071 115.997 155.11 115.713 155.11ZM116.046 154.165C116.304 154.165 116.528 154.115 116.718 154.013C116.907 153.909 117.052 153.771 117.154 153.601C117.258 153.43 117.311 153.245 117.311 153.043V152.401C117.27 152.434 117.202 152.464 117.105 152.493C117.01 152.521 116.903 152.546 116.785 152.567C116.667 152.589 116.549 152.608 116.433 152.624C116.317 152.641 116.217 152.655 116.132 152.667C115.94 152.693 115.768 152.736 115.617 152.795C115.465 152.854 115.346 152.937 115.258 153.043C115.17 153.147 115.127 153.282 115.127 153.448C115.127 153.685 115.213 153.864 115.386 153.984C115.559 154.105 115.779 154.165 116.046 154.165ZM119.885 155V149.545H121.132V150.455H121.188C121.288 150.14 121.458 149.897 121.7 149.727C121.944 149.554 122.222 149.467 122.534 149.467C122.605 149.467 122.685 149.471 122.772 149.478C122.862 149.483 122.937 149.491 122.996 149.503V150.685C122.941 150.666 122.855 150.65 122.737 150.636C122.621 150.619 122.508 150.611 122.399 150.611C122.165 150.611 121.954 150.662 121.767 150.763C121.583 150.863 121.437 151.001 121.33 151.179C121.224 151.357 121.171 151.561 121.171 151.793V155H119.885ZM126.867 149.545V150.54H123.731V149.545H126.867ZM124.505 148.239H125.791V153.359C125.791 153.532 125.817 153.665 125.869 153.757C125.923 153.847 125.994 153.909 126.082 153.942C126.169 153.975 126.267 153.991 126.373 153.991C126.454 153.991 126.527 153.986 126.593 153.974C126.662 153.962 126.714 153.951 126.749 153.942L126.966 154.947C126.897 154.97 126.799 154.996 126.671 155.025C126.546 155.053 126.392 155.07 126.21 155.075C125.888 155.084 125.598 155.036 125.34 154.929C125.082 154.82 124.877 154.652 124.725 154.425C124.576 154.197 124.503 153.913 124.505 153.572V148.239ZM128.741 157.045C128.566 157.045 128.403 157.031 128.254 157.003C128.107 156.977 127.99 156.946 127.903 156.911L128.201 155.909C128.388 155.964 128.555 155.99 128.702 155.987C128.848 155.985 128.978 155.939 129.089 155.849C129.202 155.761 129.298 155.614 129.376 155.408L129.487 155.114L127.509 149.545H128.872L130.129 153.665H130.186L131.447 149.545H132.814L130.63 155.661C130.528 155.949 130.393 156.197 130.225 156.403C130.057 156.611 129.851 156.77 129.607 156.879C129.366 156.99 129.077 157.045 128.741 157.045ZM134.495 155.078C134.28 155.078 134.095 155.002 133.941 154.851C133.788 154.699 133.712 154.515 133.714 154.297C133.712 154.084 133.788 153.902 133.941 153.75C134.095 153.598 134.28 153.523 134.495 153.523C134.704 153.523 134.885 153.598 135.039 153.75C135.195 153.902 135.274 154.084 135.277 154.297C135.274 154.441 135.236 154.573 135.163 154.691C135.092 154.809 134.997 154.904 134.879 154.975C134.763 155.044 134.635 155.078 134.495 155.078ZM134.495 151.186C134.28 151.186 134.095 151.11 133.941 150.959C133.788 150.805 133.712 150.62 133.714 150.405C133.712 150.192 133.788 150.009 133.941 149.858C134.095 149.704 134.28 149.627 134.495 149.627C134.704 149.627 134.885 149.704 135.039 149.858C135.195 150.009 135.274 150.192 135.277 150.405C135.274 150.547 135.236 150.677 135.163 150.795C135.092 150.914 134.997 151.009 134.879 151.08C134.763 151.151 134.635 151.186 134.495 151.186ZM139.548 147.727V155H138.23V149.009H138.188L136.487 150.096V148.888L138.294 147.727H139.548ZM141.263 153.651V152.603L144.349 147.727H145.222V149.219H144.69L142.612 152.511V152.567H146.92V153.651H141.263ZM144.732 155V153.331L144.747 152.862V147.727H145.99V155H144.732ZM151.943 153.636V153.253C151.943 152.971 152.002 152.712 152.121 152.475C152.241 152.238 152.416 152.048 152.646 151.903C152.876 151.759 153.154 151.687 153.481 151.687C153.817 151.687 154.099 151.759 154.326 151.903C154.553 152.045 154.725 152.235 154.841 152.472C154.959 152.708 155.018 152.969 155.018 153.253V153.636C155.018 153.918 154.959 154.177 154.841 154.414C154.722 154.651 154.548 154.841 154.319 154.986C154.091 155.13 153.812 155.202 153.481 155.202C153.149 155.202 152.869 155.13 152.639 154.986C152.409 154.841 152.235 154.651 152.117 154.414C152.001 154.177 151.943 153.918 151.943 153.636ZM152.87 153.253V153.636C152.87 153.823 152.915 153.995 153.005 154.151C153.095 154.308 153.253 154.386 153.481 154.386C153.71 154.386 153.868 154.309 153.953 154.155C154.041 153.999 154.084 153.826 154.084 153.636V153.253C154.084 153.063 154.043 152.891 153.96 152.734C153.877 152.576 153.717 152.496 153.481 152.496C153.258 152.496 153.101 152.576 153.008 152.734C152.916 152.891 152.87 153.063 152.87 153.253ZM148.246 149.474V149.091C148.246 148.807 148.307 148.546 148.427 148.31C148.548 148.073 148.723 147.884 148.953 147.741C149.183 147.597 149.461 147.525 149.787 147.525C150.121 147.525 150.402 147.597 150.629 147.741C150.859 147.884 151.032 148.073 151.148 148.31C151.264 148.546 151.322 148.807 151.322 149.091V149.474C151.322 149.759 151.262 150.019 151.144 150.256C151.028 150.49 150.855 150.678 150.626 150.82C150.396 150.962 150.117 151.033 149.787 151.033C149.454 151.033 149.172 150.962 148.942 150.82C148.715 150.678 148.542 150.489 148.424 150.252C148.305 150.015 148.246 149.756 148.246 149.474ZM149.18 149.091V149.474C149.18 149.664 149.224 149.837 149.312 149.993C149.402 150.147 149.56 150.224 149.787 150.224C150.015 150.224 150.171 150.147 150.256 149.993C150.344 149.837 150.388 149.664 150.388 149.474V149.091C150.388 148.902 150.346 148.729 150.263 148.572C150.18 148.414 150.022 148.335 149.787 148.335C149.563 148.335 149.405 148.414 149.315 148.572C149.225 148.731 149.18 148.904 149.18 149.091ZM148.651 155L153.651 147.727H154.539L149.539 155H148.651Z" fill="white"/>
</svg>
