<svg width="312" height="244" viewBox="0 0 312 244" fill="none" xmlns="http://www.w3.org/2000/svg">
<rect width="350" height="243.002" fill="#022027"/>
<rect x="19.2521" y="17.9653" width="274.496" height="196.207" rx="25" fill="white"/>
<rect x="45.3944" y="57.6031" width="184.003" height="122.877" rx="25" fill="#FCFCFC"/>
<rect x="32.3232" y="29.8567" width="249.359" height="177.379" rx="25" fill="#040404"/>
<rect x="45.3944" y="38.7751" width="182.997" height="154.587" rx="25" fill="white"/>
<path d="M53.4382 59.6755C53.4382 54.1527 57.9154 49.6755 63.4382 49.6755H210.348C215.871 49.6755 220.348 54.1527 220.348 59.6755V177.417C220.348 182.94 215.871 187.417 210.348 187.417H63.4382C57.9154 187.417 53.4382 182.94 53.4382 177.417V59.6755Z" fill="#1D221E"/>
<ellipse cx="252.523" cy="71.9717" rx="7.03836" ry="6.44114" fill="#D9D9D9"/>
<ellipse cx="252.523" cy="97.7364" rx="7.03836" ry="6.44114" fill="#D9D9D9"/>
<ellipse cx="252.523" cy="118.546" rx="7.03836" ry="6.44114" fill="#D9D9D9"/>
<rect x="235.43" y="137.87" width="34.1863" height="6.93661" rx="3.46831" fill="#D9D9D9"/>
<rect x="235.43" y="152.734" width="34.1863" height="6.93661" rx="3.46831" fill="#D9D9D9"/>
<rect x="235.43" y="167.598" width="34.1863" height="6.93661" rx="3.46831" fill="#D9D9D9"/>
<rect width="12.8149" height="35.8002" rx="6.40747" transform="matrix(0.813138 0.582071 -0.593275 0.805 86.7434 206.245)" fill="#FDFBFB"/>
<rect width="12.8207" height="32.5335" rx="6.41035" transform="matrix(0.83177 -0.55512 0.566315 0.824189 210.293 216.335)" fill="#FDFBFB"/>
<path d="M94.3313 77.6585C93.6751 77.6585 93.1083 77.5221 92.631 77.2494C92.1566 76.9738 91.7916 76.5846 91.5359 76.0817C91.2802 75.5761 91.1524 74.9809 91.1524 74.2962C91.1524 73.6229 91.2802 73.032 91.5359 72.5235C91.7944 72.0121 92.1552 71.6144 92.6183 71.3303C93.0813 71.0434 93.6254 70.8999 94.2504 70.8999C94.6538 70.8999 95.0345 70.9653 95.3924 71.0959C95.7532 71.2238 96.0714 71.4227 96.347 71.6925C96.6254 71.9624 96.8441 72.3062 97.0032 72.7238C97.1623 73.1386 97.2418 73.6329 97.2418 74.2067V74.6798H91.8768V73.64H95.7632C95.7603 73.3445 95.6964 73.0817 95.5714 72.8516C95.4464 72.6187 95.2717 72.4354 95.0472 72.3019C94.8257 72.1684 94.5671 72.1016 94.2717 72.1016C93.9563 72.1016 93.6793 72.1783 93.4407 72.3317C93.2021 72.4823 93.016 72.6812 92.8825 72.9283C92.7518 73.1727 92.685 73.4411 92.6822 73.7337V74.6414C92.6822 75.0221 92.7518 75.3488 92.891 75.6215C93.0302 75.8914 93.2248 76.0988 93.4748 76.2437C93.7248 76.3857 94.0174 76.4567 94.3526 76.4567C94.5771 76.4567 94.7802 76.4255 94.962 76.363C95.1438 76.2977 95.3015 76.2025 95.435 76.0775C95.5685 75.9525 95.6694 75.7977 95.7376 75.613L97.1779 75.7749C97.087 76.1556 96.9137 76.488 96.658 76.7721C96.4052 77.0533 96.0813 77.2721 95.6864 77.4283C95.2916 77.5817 94.8399 77.6585 94.3313 77.6585ZM100.089 68.8033V77.5306H98.5469V68.8033H100.089ZM104.574 77.6585C103.917 77.6585 103.351 77.5221 102.873 77.2494C102.399 76.9738 102.034 76.5846 101.778 76.0817C101.522 75.5761 101.395 74.9809 101.395 74.2962C101.395 73.6229 101.522 73.032 101.778 72.5235C102.037 72.0121 102.397 71.6144 102.86 71.3303C103.324 71.0434 103.868 70.8999 104.493 70.8999C104.896 70.8999 105.277 70.9653 105.635 71.0959C105.995 71.2238 106.314 71.4227 106.589 71.6925C106.868 71.9624 107.086 72.3062 107.245 72.7238C107.404 73.1386 107.484 73.6329 107.484 74.2067V74.6798H102.119V73.64H106.005C106.002 73.3445 105.939 73.0817 105.814 72.8516C105.689 72.6187 105.514 72.4354 105.289 72.3019C105.068 72.1684 104.809 72.1016 104.514 72.1016C104.199 72.1016 103.922 72.1783 103.683 72.3317C103.444 72.4823 103.258 72.6812 103.125 72.9283C102.994 73.1727 102.927 73.4411 102.924 73.7337V74.6414C102.924 75.0221 102.994 75.3488 103.133 75.6215C103.272 75.8914 103.467 76.0988 103.717 76.2437C103.967 76.3857 104.26 76.4567 104.595 76.4567C104.819 76.4567 105.022 76.4255 105.204 76.363C105.386 76.2977 105.544 76.2025 105.677 76.0775C105.811 75.9525 105.912 75.7977 105.98 75.613L107.42 75.7749C107.329 76.1556 107.156 76.488 106.9 76.7721C106.647 77.0533 106.324 77.2721 105.929 77.4283C105.534 77.5817 105.082 77.6585 104.574 77.6585ZM111.644 77.6585C110.991 77.6585 110.43 77.515 109.961 77.2281C109.495 76.9411 109.136 76.5448 108.883 76.0391C108.633 75.5306 108.508 74.9454 108.508 74.2835C108.508 73.6187 108.636 73.032 108.891 72.5235C109.147 72.0121 109.508 71.6144 109.974 71.3303C110.442 71.0434 110.996 70.8999 111.636 70.8999C112.167 70.8999 112.637 70.9979 113.046 71.194C113.458 71.3871 113.786 71.6613 114.031 72.0164C114.275 72.3687 114.414 72.7806 114.448 73.2522H112.974C112.914 72.9369 112.772 72.6741 112.548 72.4638C112.326 72.2508 112.029 72.1442 111.657 72.1442C111.342 72.1442 111.065 72.2295 110.826 72.3999C110.587 72.5675 110.401 72.809 110.268 73.1244C110.137 73.4397 110.072 73.8175 110.072 74.2579C110.072 74.7039 110.137 75.0874 110.268 75.4085C110.398 75.7266 110.582 75.9724 110.817 76.1457C111.056 76.3161 111.336 76.4013 111.657 76.4013C111.884 76.4013 112.087 76.3587 112.266 76.2735C112.448 76.1854 112.6 76.059 112.722 75.8942C112.844 75.7295 112.928 75.5292 112.974 75.2934H114.448C114.411 75.7565 114.275 76.167 114.039 76.5249C113.803 76.88 113.482 77.1585 113.076 77.3602C112.67 77.559 112.192 77.6585 111.644 77.6585ZM118.983 70.9852V72.1783H115.221V70.9852H118.983ZM116.15 69.417H117.692V75.5619C117.692 75.7692 117.723 75.9283 117.786 76.0391C117.851 76.1471 117.936 76.2209 118.042 76.2607C118.147 76.3005 118.263 76.3204 118.391 76.3204C118.488 76.3204 118.576 76.3133 118.655 76.2991C118.738 76.2849 118.8 76.2721 118.843 76.2607L119.103 77.4667C119.02 77.4951 118.902 77.5263 118.749 77.5604C118.598 77.5945 118.414 77.6144 118.195 77.6201C117.809 77.6315 117.461 77.5732 117.151 77.4454C116.841 77.3147 116.596 77.113 116.414 76.8403C116.235 76.5675 116.147 76.2266 116.15 75.8175V69.417ZM120.273 77.5306V70.9852H121.816V77.5306H120.273ZM121.049 70.0562C120.805 70.0562 120.594 69.9752 120.418 69.8133C120.242 69.6485 120.154 69.4511 120.154 69.2209C120.154 68.988 120.242 68.7906 120.418 68.6286C120.594 68.4638 120.805 68.3815 121.049 68.3815C121.296 68.3815 121.506 68.4638 121.68 68.6286C121.856 68.7906 121.944 68.988 121.944 69.2209C121.944 69.4511 121.856 69.6485 121.68 69.8133C121.506 69.9752 121.296 70.0562 121.049 70.0562ZM126.257 77.6585C125.618 77.6585 125.064 77.5178 124.596 77.2366C124.127 76.9553 123.763 76.5619 123.505 76.0562C123.249 75.5505 123.121 74.9596 123.121 74.2835C123.121 73.6073 123.249 73.015 123.505 72.5065C123.763 71.9979 124.127 71.6031 124.596 71.3218C125.064 71.0406 125.618 70.8999 126.257 70.8999C126.897 70.8999 127.451 71.0406 127.919 71.3218C128.388 71.6031 128.75 71.9979 129.006 72.5065C129.265 73.015 129.394 73.6073 129.394 74.2835C129.394 74.9596 129.265 75.5505 129.006 76.0562C128.75 76.5619 128.388 76.9553 127.919 77.2366C127.451 77.5178 126.897 77.6585 126.257 77.6585ZM126.266 76.4227C126.613 76.4227 126.902 76.3275 127.135 76.1371C127.368 75.944 127.542 75.6854 127.655 75.3616C127.772 75.0377 127.83 74.6769 127.83 74.2792C127.83 73.8786 127.772 73.5164 127.655 73.1925C127.542 72.8658 127.368 72.6059 127.135 72.4127C126.902 72.2195 126.613 72.1229 126.266 72.1229C125.911 72.1229 125.615 72.2195 125.38 72.4127C125.147 72.6059 124.972 72.8658 124.855 73.1925C124.742 73.5164 124.685 73.8786 124.685 74.2792C124.685 74.6769 124.742 75.0377 124.855 75.3616C124.972 75.6854 125.147 75.944 125.38 76.1371C125.615 76.3275 125.911 76.4227 126.266 76.4227ZM132.246 73.6954V77.5306H130.703V70.9852H132.178V72.0974H132.254C132.405 71.7309 132.645 71.4397 132.974 71.2238C133.307 71.0079 133.717 70.8999 134.206 70.8999C134.658 70.8999 135.051 70.9965 135.386 71.1897C135.724 71.3829 135.986 71.6627 136.17 72.0292C136.358 72.3957 136.45 72.8403 136.447 73.363V77.5306H134.905V73.6016C134.905 73.1641 134.791 72.8218 134.564 72.5746C134.339 72.3275 134.028 72.2039 133.631 72.2039C133.361 72.2039 133.121 72.2636 132.911 72.3829C132.703 72.4994 132.54 72.6684 132.42 72.89C132.304 73.1116 132.246 73.38 132.246 73.6954ZM148.232 68.8033V77.5306H146.826L142.714 71.586H142.641V77.5306H141.06V68.8033H142.475L146.583 74.7522H146.66V68.8033H148.232ZM152.784 77.6585C152.128 77.6585 151.561 77.5221 151.084 77.2494C150.61 76.9738 150.245 76.5846 149.989 76.0817C149.733 75.5761 149.605 74.9809 149.605 74.2962C149.605 73.6229 149.733 73.032 149.989 72.5235C150.248 72.0121 150.608 71.6144 151.071 71.3303C151.534 71.0434 152.078 70.8999 152.703 70.8999C153.107 70.8999 153.488 70.9653 153.846 71.0959C154.206 71.2238 154.525 71.4227 154.8 71.6925C155.078 71.9624 155.297 72.3062 155.456 72.7238C155.615 73.1386 155.695 73.6329 155.695 74.2067V74.6798H150.33V73.64H154.216C154.213 73.3445 154.15 73.0817 154.025 72.8516C153.9 72.6187 153.725 72.4354 153.5 72.3019C153.279 72.1684 153.02 72.1016 152.725 72.1016C152.409 72.1016 152.132 72.1783 151.894 72.3317C151.655 72.4823 151.469 72.6812 151.336 72.9283C151.205 73.1727 151.138 73.4411 151.135 73.7337V74.6414C151.135 75.0221 151.205 75.3488 151.344 75.6215C151.483 75.8914 151.678 76.0988 151.928 76.2437C152.178 76.3857 152.471 76.4567 152.806 76.4567C153.03 76.4567 153.233 76.4255 153.415 76.363C153.597 76.2977 153.755 76.2025 153.888 76.0775C154.022 75.9525 154.123 75.7977 154.191 75.613L155.631 75.7749C155.54 76.1556 155.367 76.488 155.111 76.7721C154.858 77.0533 154.534 77.2721 154.14 77.4283C153.745 77.5817 153.293 77.6585 152.784 77.6585ZM158.316 77.5306L156.466 70.9852H158.039L159.189 75.5874H159.249L160.425 70.9852H161.98L163.157 75.5619H163.221L164.354 70.9852H165.931L164.077 77.5306H162.471L161.243 73.1073H161.154L159.927 77.5306H158.316ZM172.181 72.7153L170.775 72.8687C170.735 72.7266 170.665 72.5931 170.566 72.4681C170.469 72.3431 170.339 72.2423 170.174 72.1656C170.009 72.0888 169.808 72.0505 169.569 72.0505C169.248 72.0505 168.978 72.1201 168.759 72.2593C168.543 72.3985 168.437 72.5789 168.44 72.8005C168.437 72.9908 168.506 73.1457 168.648 73.265C168.793 73.3843 169.032 73.4823 169.364 73.559L170.481 73.7977C171.1 73.9312 171.56 74.1428 171.862 74.4326C172.165 74.7224 172.319 75.1016 172.322 75.5704C172.319 75.9823 172.198 76.346 171.96 76.6613C171.724 76.9738 171.396 77.2181 170.975 77.3942C170.555 77.5704 170.072 77.6585 169.526 77.6585C168.725 77.6585 168.08 77.4908 167.592 77.1556C167.103 76.8175 166.812 76.3474 166.718 75.7451L168.222 75.6002C168.29 75.8957 168.435 76.1187 168.657 76.2692C168.879 76.4198 169.167 76.4951 169.522 76.4951C169.889 76.4951 170.183 76.4198 170.404 76.2692C170.629 76.1187 170.741 75.9326 170.741 75.711C170.741 75.5235 170.668 75.3687 170.523 75.2465C170.381 75.1244 170.16 75.0306 169.859 74.9653L168.742 74.7309C168.114 74.6002 167.65 74.38 167.349 74.0704C167.048 73.7579 166.898 73.363 166.901 72.8857C166.898 72.4823 167.008 72.1329 167.229 71.8374C167.454 71.5391 167.765 71.309 168.163 71.1471C168.563 70.9823 169.025 70.8999 169.548 70.8999C170.315 70.8999 170.918 71.0633 171.359 71.39C171.802 71.7167 172.076 72.1585 172.181 72.7153Z" fill="#CE395D"/>
<path d="M74.0241 104V94.5455H77.5695C78.2959 94.5455 78.9052 94.6809 79.3977 94.9517C79.8932 95.2225 80.2671 95.5949 80.5195 96.0689C80.7749 96.5398 80.9026 97.0753 80.9026 97.6754C80.9026 98.2817 80.7749 98.8203 80.5195 99.2912C80.264 99.7621 79.887 100.133 79.3884 100.404C78.8898 100.672 78.2759 100.805 77.5465 100.805H75.1967V99.3974H77.3156C77.7403 99.3974 78.0881 99.3235 78.359 99.1758C78.6298 99.0281 78.8298 98.8249 78.9591 98.5664C79.0914 98.3079 79.1576 98.0109 79.1576 97.6754C79.1576 97.34 79.0914 97.0445 78.9591 96.7891C78.8298 96.5336 78.6282 96.3351 78.3543 96.1935C78.0835 96.0489 77.7342 95.9766 77.3064 95.9766H75.7368V104H74.0241ZM85.3541 104.138C84.6431 104.138 84.0291 103.991 83.5121 103.695C82.9981 103.397 82.6027 102.975 82.3257 102.43C82.0487 101.883 81.9102 101.238 81.9102 100.496C81.9102 99.7667 82.0487 99.1265 82.3257 98.5756C82.6057 98.0217 82.9966 97.5908 83.4982 97.283C83.9999 96.9722 84.5893 96.8168 85.2664 96.8168C85.7034 96.8168 86.1158 96.8875 86.5036 97.0291C86.8944 97.1676 87.2391 97.383 87.5377 97.6754C87.8393 97.9678 88.0763 98.3402 88.2486 98.7926C88.421 99.242 88.5071 99.7775 88.5071 100.399V100.912H82.695V99.7852H86.9052C86.9021 99.4651 86.8329 99.1804 86.6975 98.9311C86.562 98.6787 86.3728 98.4802 86.1296 98.3356C85.8896 98.1909 85.6095 98.1186 85.2894 98.1186C84.9478 98.1186 84.6477 98.2017 84.3892 98.3679C84.1307 98.531 83.9291 98.7464 83.7845 99.0142C83.6429 99.2789 83.5706 99.5697 83.5675 99.8867V100.87C83.5675 101.282 83.6429 101.636 83.7937 101.932C83.9445 102.224 84.1553 102.449 84.4262 102.606C84.697 102.76 85.014 102.837 85.3772 102.837C85.6203 102.837 85.8403 102.803 86.0373 102.735C86.2343 102.664 86.4051 102.561 86.5497 102.426C86.6944 102.29 86.8036 102.123 86.8775 101.923L88.4379 102.098C88.3394 102.51 88.1517 102.871 87.8747 103.178C87.6008 103.483 87.2499 103.72 86.8221 103.889C86.3943 104.055 85.905 104.138 85.3541 104.138ZM93.014 104.138C92.3215 104.138 91.7213 103.986 91.2135 103.681C90.7057 103.377 90.3118 102.951 90.0317 102.403C89.7547 101.855 89.6162 101.215 89.6162 100.482C89.6162 99.7498 89.7547 99.1081 90.0317 98.5572C90.3118 98.0063 90.7057 97.5785 91.2135 97.2738C91.7213 96.9691 92.3215 96.8168 93.014 96.8168C93.7064 96.8168 94.3066 96.9691 94.8144 97.2738C95.3222 97.5785 95.7146 98.0063 95.9916 98.5572C96.2717 99.1081 96.4117 99.7498 96.4117 100.482C96.4117 101.215 96.2717 101.855 95.9916 102.403C95.7146 102.951 95.3222 103.377 94.8144 103.681C94.3066 103.986 93.7064 104.138 93.014 104.138ZM93.0232 102.8C93.3987 102.8 93.7126 102.697 93.965 102.49C94.2173 102.281 94.4051 102.001 94.5282 101.65C94.6543 101.299 94.7174 100.908 94.7174 100.478C94.7174 100.044 94.6543 99.6513 94.5282 99.3004C94.4051 98.9465 94.2173 98.6649 93.965 98.4556C93.7126 98.2463 93.3987 98.1417 93.0232 98.1417C92.6385 98.1417 92.3184 98.2463 92.063 98.4556C91.8106 98.6649 91.6213 98.9465 91.4951 99.3004C91.372 99.6513 91.3105 100.044 91.3105 100.478C91.3105 100.908 91.372 101.299 91.4951 101.65C91.6213 102.001 91.8106 102.281 92.063 102.49C92.3184 102.697 92.6385 102.8 93.0232 102.8ZM97.8301 106.659V96.9091H99.4736V98.0817H99.5705C99.6567 97.9093 99.7783 97.7262 99.9352 97.5323C100.092 97.3353 100.305 97.1676 100.572 97.0291C100.84 96.8875 101.182 96.8168 101.597 96.8168C102.145 96.8168 102.639 96.9568 103.079 97.2369C103.522 97.5138 103.873 97.9247 104.132 98.4695C104.393 99.0111 104.524 99.6759 104.524 100.464C104.524 101.242 104.396 101.904 104.141 102.449C103.885 102.994 103.538 103.409 103.098 103.695C102.657 103.982 102.159 104.125 101.602 104.125C101.196 104.125 100.859 104.057 100.591 103.922C100.323 103.786 100.108 103.623 99.9444 103.432C99.7844 103.238 99.6598 103.055 99.5705 102.883H99.5013V106.659H97.8301ZM99.4689 100.455C99.4689 100.913 99.5336 101.315 99.6628 101.659C99.7952 102.004 99.9845 102.273 100.231 102.467C100.48 102.658 100.782 102.754 101.135 102.754C101.505 102.754 101.814 102.655 102.063 102.458C102.313 102.258 102.5 101.986 102.627 101.641C102.756 101.293 102.821 100.898 102.821 100.455C102.821 100.014 102.757 99.6236 102.631 99.282C102.505 98.9403 102.317 98.6726 102.068 98.4787C101.819 98.2848 101.508 98.1879 101.135 98.1879C100.778 98.1879 100.475 98.2817 100.226 98.4695C99.9768 98.6572 99.7875 98.9203 99.6582 99.2589C99.532 99.5974 99.4689 99.996 99.4689 100.455ZM107.626 94.5455V104H105.955V94.5455H107.626ZM112.484 104.138C111.773 104.138 111.159 103.991 110.642 103.695C110.128 103.397 109.733 102.975 109.456 102.43C109.179 101.883 109.04 101.238 109.04 100.496C109.04 99.7667 109.179 99.1265 109.456 98.5756C109.736 98.0217 110.126 97.5908 110.628 97.283C111.13 96.9722 111.719 96.8168 112.396 96.8168C112.833 96.8168 113.246 96.8875 113.633 97.0291C114.024 97.1676 114.369 97.383 114.668 97.6754C114.969 97.9678 115.206 98.3402 115.378 98.7926C115.551 99.242 115.637 99.7775 115.637 100.399V100.912H109.825V99.7852H114.035C114.032 99.4651 113.963 99.1804 113.827 98.9311C113.692 98.6787 113.503 98.4802 113.26 98.3356C113.019 98.1909 112.739 98.1186 112.419 98.1186C112.078 98.1186 111.778 98.2017 111.519 98.3679C111.261 98.531 111.059 98.7464 110.914 99.0142C110.773 99.2789 110.7 99.5697 110.697 99.8867V100.87C110.697 101.282 110.773 101.636 110.924 101.932C111.074 102.224 111.285 102.449 111.556 102.606C111.827 102.76 112.144 102.837 112.507 102.837C112.75 102.837 112.97 102.803 113.167 102.735C113.364 102.664 113.535 102.561 113.68 102.426C113.824 102.29 113.934 102.123 114.007 101.923L115.568 102.098C115.469 102.51 115.282 102.871 115.005 103.178C114.731 103.483 114.38 103.72 113.952 103.889C113.524 104.055 113.035 104.138 112.484 104.138ZM120.349 104V94.5455H123.895C124.621 94.5455 125.23 94.6809 125.723 94.9517C126.218 95.2225 126.592 95.5949 126.845 96.0689C127.1 96.5398 127.228 97.0753 127.228 97.6754C127.228 98.2817 127.1 98.8203 126.845 99.2912C126.589 99.7621 126.212 100.133 125.714 100.404C125.215 100.672 124.601 100.805 123.872 100.805H121.522V99.3974H123.641C124.066 99.3974 124.413 99.3235 124.684 99.1758C124.955 99.0281 125.155 98.8249 125.284 98.5664C125.417 98.3079 125.483 98.0109 125.483 97.6754C125.483 97.34 125.417 97.0445 125.284 96.7891C125.155 96.5336 124.953 96.3351 124.68 96.1935C124.409 96.0489 124.059 95.9766 123.632 95.9766H122.062V104H120.349ZM131.633 104.138C130.941 104.138 130.34 103.986 129.833 103.681C129.325 103.377 128.931 102.951 128.651 102.403C128.374 101.855 128.235 101.215 128.235 100.482C128.235 99.7498 128.374 99.1081 128.651 98.5572C128.931 98.0063 129.325 97.5785 129.833 97.2738C130.34 96.9691 130.941 96.8168 131.633 96.8168C132.326 96.8168 132.926 96.9691 133.434 97.2738C133.941 97.5785 134.334 98.0063 134.611 98.5572C134.891 99.1081 135.031 99.7498 135.031 100.482C135.031 101.215 134.891 101.855 134.611 102.403C134.334 102.951 133.941 103.377 133.434 103.681C132.926 103.986 132.326 104.138 131.633 104.138ZM131.642 102.8C132.018 102.8 132.332 102.697 132.584 102.49C132.836 102.281 133.024 102.001 133.147 101.65C133.273 101.299 133.337 100.908 133.337 100.478C133.337 100.044 133.273 99.6513 133.147 99.3004C133.024 98.9465 132.836 98.6649 132.584 98.4556C132.332 98.2463 132.018 98.1417 131.642 98.1417C131.258 98.1417 130.938 98.2463 130.682 98.4556C130.43 98.6649 130.24 98.9465 130.114 99.3004C129.991 99.6513 129.93 100.044 129.93 100.478C129.93 100.908 129.991 101.299 130.114 101.65C130.24 102.001 130.43 102.281 130.682 102.49C130.938 102.697 131.258 102.8 131.642 102.8ZM138.12 94.5455V104H136.449V94.5455H138.12ZM141.51 94.5455V104H139.839V94.5455H141.51ZM146.527 104V94.5455H150.072C150.799 94.5455 151.408 94.6716 151.901 94.924C152.396 95.1764 152.77 95.5303 153.022 95.9858C153.278 96.4382 153.406 96.966 153.406 97.5692C153.406 98.1755 153.276 98.7018 153.018 99.1481C152.762 99.5913 152.385 99.9344 151.887 100.178C151.388 100.418 150.776 100.538 150.049 100.538H147.524V99.1158H149.819C150.243 99.1158 150.591 99.0573 150.862 98.9403C151.133 98.8203 151.333 98.6464 151.462 98.4187C151.594 98.1879 151.661 97.9047 151.661 97.5692C151.661 97.2338 151.594 96.9476 151.462 96.7106C151.33 96.4705 151.128 96.2889 150.857 96.1658C150.586 96.0397 150.237 95.9766 149.809 95.9766H148.24V104H146.527ZM151.411 99.7159L153.752 104H151.841L149.542 99.7159H151.411ZM157.946 104.138C157.235 104.138 156.621 103.991 156.104 103.695C155.59 103.397 155.194 102.975 154.917 102.43C154.64 101.883 154.502 101.238 154.502 100.496C154.502 99.7667 154.64 99.1265 154.917 98.5756C155.198 98.0217 155.588 97.5908 156.09 97.283C156.592 96.9722 157.181 96.8168 157.858 96.8168C158.295 96.8168 158.708 96.8875 159.095 97.0291C159.486 97.1676 159.831 97.383 160.129 97.6754C160.431 97.9678 160.668 98.3402 160.84 98.7926C161.013 99.242 161.099 99.7775 161.099 100.399V100.912H155.287V99.7852H159.497C159.494 99.4651 159.425 99.1804 159.289 98.9311C159.154 98.6787 158.965 98.4802 158.721 98.3356C158.481 98.1909 158.201 98.1186 157.881 98.1186C157.54 98.1186 157.24 98.2017 156.981 98.3679C156.723 98.531 156.521 98.7464 156.376 99.0142C156.235 99.2789 156.162 99.5697 156.159 99.8867V100.87C156.159 101.282 156.235 101.636 156.385 101.932C156.536 102.224 156.747 102.449 157.018 102.606C157.289 102.76 157.606 102.837 157.969 102.837C158.212 102.837 158.432 102.803 158.629 102.735C158.826 102.664 158.997 102.561 159.142 102.426C159.286 102.29 159.395 102.123 159.469 101.923L161.03 102.098C160.931 102.51 160.743 102.871 160.466 103.178C160.193 103.483 159.842 103.72 159.414 103.889C158.986 104.055 158.497 104.138 157.946 104.138ZM168.117 98.7834L166.594 98.9496C166.551 98.7957 166.475 98.651 166.367 98.5156C166.263 98.3802 166.121 98.271 165.943 98.1879C165.764 98.1048 165.546 98.0632 165.287 98.0632C164.939 98.0632 164.647 98.1386 164.41 98.2894C164.176 98.4402 164.061 98.6357 164.064 98.8757C164.061 99.0819 164.136 99.2496 164.29 99.3789C164.447 99.5082 164.706 99.6143 165.066 99.6974L166.275 99.956C166.946 100.101 167.445 100.33 167.771 100.644C168.1 100.958 168.266 101.369 168.269 101.876C168.266 102.323 168.136 102.717 167.877 103.058C167.622 103.397 167.266 103.661 166.811 103.852C166.355 104.043 165.832 104.138 165.241 104.138C164.373 104.138 163.675 103.957 163.145 103.594C162.616 103.228 162.3 102.718 162.199 102.066L163.828 101.909C163.902 102.229 164.059 102.47 164.299 102.634C164.539 102.797 164.852 102.878 165.236 102.878C165.633 102.878 165.952 102.797 166.192 102.634C166.435 102.47 166.557 102.269 166.557 102.029C166.557 101.826 166.478 101.658 166.321 101.526C166.167 101.393 165.927 101.292 165.601 101.221L164.392 100.967C163.711 100.825 163.208 100.587 162.882 100.251C162.556 99.9129 162.394 99.4851 162.397 98.968C162.394 98.531 162.513 98.1525 162.753 97.8324C162.996 97.5092 163.333 97.2599 163.764 97.0845C164.198 96.906 164.698 96.8168 165.264 96.8168C166.095 96.8168 166.749 96.9937 167.226 97.3477C167.706 97.7016 168.003 98.1802 168.117 98.7834ZM174.167 101.018V96.9091H175.838V104H174.218V102.74H174.144C173.984 103.137 173.721 103.461 173.355 103.714C172.991 103.966 172.544 104.092 172.011 104.092C171.546 104.092 171.136 103.989 170.779 103.783C170.425 103.574 170.148 103.271 169.948 102.874C169.748 102.473 169.647 101.99 169.647 101.424V96.9091H171.319V101.165C171.319 101.615 171.442 101.972 171.688 102.237C171.934 102.501 172.257 102.634 172.657 102.634C172.904 102.634 173.142 102.574 173.373 102.453C173.604 102.333 173.793 102.155 173.941 101.918C174.092 101.678 174.167 101.378 174.167 101.018ZM179.228 94.5455V104H177.557V94.5455H179.228ZM184.487 96.9091V98.2017H180.411V96.9091H184.487ZM181.417 95.2102H183.088V101.867C183.088 102.092 183.122 102.264 183.19 102.384C183.261 102.501 183.353 102.581 183.467 102.624C183.581 102.667 183.707 102.689 183.845 102.689C183.95 102.689 184.046 102.681 184.132 102.666C184.221 102.65 184.289 102.637 184.335 102.624L184.616 103.931C184.527 103.962 184.399 103.995 184.233 104.032C184.07 104.069 183.87 104.091 183.633 104.097C183.215 104.109 182.838 104.046 182.502 103.908C182.167 103.766 181.9 103.548 181.703 103.252C181.51 102.957 181.414 102.587 181.417 102.144V95.2102Z" fill="#DEF7E3"/>
<path d="M78.681 127.05C78.6219 126.858 78.5402 126.686 78.436 126.535C78.3342 126.381 78.2111 126.25 78.0667 126.141C77.9246 126.032 77.7613 125.95 77.5766 125.896C77.392 125.839 77.1907 125.81 76.9729 125.81C76.5823 125.81 76.2343 125.909 75.9289 126.105C75.6235 126.302 75.3832 126.59 75.208 126.972C75.0352 127.35 74.9488 127.812 74.9488 128.357C74.9488 128.906 75.0352 129.371 75.208 129.752C75.3809 130.133 75.6211 130.423 75.9289 130.622C76.2367 130.819 76.5942 130.917 77.0014 130.917C77.3707 130.917 77.6903 130.846 77.9602 130.704C78.2324 130.562 78.4419 130.361 78.5887 130.1C78.7355 129.837 78.8089 129.53 78.8089 129.177L79.1072 129.223H77.1327V128.193H80.0837V129.067C80.0837 129.689 79.9512 130.228 79.686 130.683C79.4209 131.137 79.0563 131.487 78.5923 131.734C78.1282 131.978 77.5956 132.099 76.9943 132.099C76.3243 132.099 75.736 131.949 75.2293 131.648C74.7251 131.345 74.3309 130.916 74.0468 130.359C73.7651 129.801 73.6242 129.138 73.6242 128.371C73.6242 127.784 73.7071 127.259 73.8728 126.798C74.0409 126.336 74.2753 125.944 74.5759 125.622C74.8766 125.298 75.2293 125.052 75.6342 124.884C76.039 124.713 76.4793 124.628 76.9552 124.628C77.3577 124.628 77.7329 124.687 78.0809 124.805C78.4289 124.921 78.7379 125.087 79.0077 125.303C79.28 125.518 79.5037 125.774 79.6789 126.07C79.8541 126.366 79.9689 126.692 80.0234 127.05H78.681ZM81.3009 132V126.545H82.5473V127.455H82.6042C82.7036 127.14 82.874 126.897 83.1155 126.727C83.3594 126.554 83.6375 126.467 83.95 126.467C84.0211 126.467 84.1004 126.471 84.188 126.478C84.2779 126.483 84.3525 126.491 84.4117 126.503V127.685C84.3572 127.666 84.2708 127.65 84.1525 127.636C84.0365 127.619 83.924 127.611 83.8151 127.611C83.5807 127.611 83.37 127.662 83.183 127.763C82.9983 127.863 82.8527 128.001 82.7462 128.179C82.6397 128.357 82.5864 128.561 82.5864 128.793V132H81.3009ZM87.4559 132.107C86.909 132.107 86.4367 131.993 86.039 131.766C85.6436 131.536 85.3394 131.212 85.1264 130.793C84.9133 130.371 84.8068 129.875 84.8068 129.305C84.8068 128.744 84.9133 128.251 85.1264 127.827C85.3418 127.401 85.6425 127.07 86.0283 126.833C86.4142 126.594 86.8676 126.474 87.3884 126.474C87.7246 126.474 88.0418 126.529 88.3401 126.638C88.6408 126.744 88.9059 126.91 89.1356 127.135C89.3676 127.36 89.5499 127.646 89.6825 127.994C89.815 128.34 89.8813 128.752 89.8813 129.23V129.624H85.4104V128.758H88.6491C88.6467 128.512 88.5934 128.293 88.4893 128.101C88.3851 127.907 88.2395 127.754 88.0525 127.643C87.8678 127.531 87.6524 127.476 87.4062 127.476C87.1434 127.476 86.9126 127.54 86.7137 127.668C86.5148 127.793 86.3598 127.959 86.2485 128.165C86.1396 128.368 86.084 128.592 86.0816 128.836V129.592C86.0816 129.91 86.1396 130.182 86.2556 130.409C86.3716 130.634 86.5338 130.807 86.7421 130.928C86.9505 131.046 87.1943 131.105 87.4737 131.105C87.6607 131.105 87.83 131.079 87.9815 131.027C88.133 130.973 88.2644 130.893 88.3756 130.789C88.4869 130.685 88.571 130.556 88.6278 130.402L89.8281 130.537C89.7523 130.854 89.6079 131.131 89.3948 131.368C89.1841 131.602 88.9142 131.785 88.5852 131.915C88.2561 132.043 87.8797 132.107 87.4559 132.107ZM93.3836 132.107C92.8368 132.107 92.3645 131.993 91.9667 131.766C91.5714 131.536 91.2672 131.212 91.0541 130.793C90.841 130.371 90.7345 129.875 90.7345 129.305C90.7345 128.744 90.841 128.251 91.0541 127.827C91.2695 127.401 91.5702 127.07 91.9561 126.833C92.342 126.594 92.7953 126.474 93.3162 126.474C93.6523 126.474 93.9696 126.529 94.2679 126.638C94.5685 126.744 94.8337 126.91 95.0633 127.135C95.2953 127.36 95.4776 127.646 95.6102 127.994C95.7428 128.34 95.8091 128.752 95.8091 129.23V129.624H91.3382V128.758H94.5768C94.5744 128.512 94.5212 128.293 94.417 128.101C94.3128 127.907 94.1673 127.754 93.9802 127.643C93.7956 127.531 93.5801 127.476 93.3339 127.476C93.0711 127.476 92.8403 127.54 92.6414 127.668C92.4426 127.793 92.2875 127.959 92.1762 128.165C92.0673 128.368 92.0117 128.592 92.0093 128.836V129.592C92.0093 129.91 92.0673 130.182 92.1833 130.409C92.2994 130.634 92.4615 130.807 92.6699 130.928C92.8782 131.046 93.122 131.105 93.4014 131.105C93.5884 131.105 93.7577 131.079 93.9092 131.027C94.0607 130.973 94.1921 130.893 94.3034 130.789C94.4146 130.685 94.4987 130.556 94.5555 130.402L95.7558 130.537C95.68 130.854 95.5356 131.131 95.3226 131.368C95.1119 131.602 94.842 131.785 94.5129 131.915C94.1838 132.043 93.8074 132.107 93.3836 132.107ZM98.1821 128.804V132H96.8966V126.545H98.1253V127.472H98.1892C98.3147 127.167 98.5147 126.924 98.7894 126.744C99.0663 126.564 99.4084 126.474 99.8156 126.474C100.192 126.474 100.52 126.555 100.799 126.716C101.081 126.877 101.299 127.11 101.453 127.415C101.609 127.721 101.686 128.091 101.684 128.527V132H100.398V128.726C100.398 128.361 100.303 128.076 100.114 127.87C99.9269 127.664 99.6677 127.561 99.3362 127.561C99.1113 127.561 98.9113 127.611 98.7361 127.71C98.5633 127.807 98.4271 127.948 98.3277 128.133C98.2306 128.317 98.1821 128.541 98.1821 128.804ZM105.528 132V124.727H110.187V125.832H106.845V127.806H109.867V128.911H106.845V132H105.528ZM114.465 129.706V126.545H115.75V132H114.504V131.031H114.447C114.324 131.336 114.122 131.586 113.84 131.78C113.561 131.974 113.216 132.071 112.807 132.071C112.449 132.071 112.133 131.992 111.858 131.833C111.586 131.672 111.373 131.439 111.219 131.134C111.065 130.826 110.988 130.454 110.988 130.018V126.545H112.274V129.82C112.274 130.165 112.369 130.44 112.558 130.643C112.747 130.847 112.996 130.949 113.304 130.949C113.493 130.949 113.677 130.903 113.854 130.81C114.032 130.718 114.177 130.581 114.291 130.398C114.407 130.214 114.465 129.983 114.465 129.706ZM119.796 126.545V127.54H116.66V126.545H119.796ZM117.435 125.239H118.72V130.359C118.72 130.532 118.746 130.665 118.798 130.757C118.853 130.847 118.924 130.909 119.011 130.942C119.099 130.975 119.196 130.991 119.302 130.991C119.383 130.991 119.456 130.986 119.523 130.974C119.591 130.962 119.643 130.951 119.679 130.942L119.896 131.947C119.827 131.97 119.729 131.996 119.601 132.025C119.475 132.053 119.321 132.07 119.139 132.075C118.817 132.084 118.527 132.036 118.269 131.929C118.011 131.82 117.806 131.652 117.655 131.425C117.506 131.197 117.432 130.913 117.435 130.572V125.239ZM124.348 129.706V126.545H125.633V132H124.387V131.031H124.33C124.207 131.336 124.004 131.586 123.723 131.78C123.443 131.974 123.099 132.071 122.689 132.071C122.332 132.071 122.016 131.992 121.741 131.833C121.469 131.672 121.256 131.439 121.102 131.134C120.948 130.826 120.871 130.454 120.871 130.018V126.545H122.157V129.82C122.157 130.165 122.251 130.44 122.441 130.643C122.63 130.847 122.879 130.949 123.187 130.949C123.376 130.949 123.559 130.903 123.737 130.81C123.915 130.718 124.06 130.581 124.174 130.398C124.29 130.214 124.348 129.983 124.348 129.706ZM126.955 132V126.545H128.202V127.455H128.258C128.358 127.14 128.528 126.897 128.77 126.727C129.014 126.554 129.292 126.467 129.604 126.467C129.675 126.467 129.755 126.471 129.842 126.478C129.932 126.483 130.007 126.491 130.066 126.503V127.685C130.012 127.666 129.925 127.65 129.807 127.636C129.691 127.619 129.578 127.611 129.469 127.611C129.235 127.611 129.024 127.662 128.837 127.763C128.653 127.863 128.507 128.001 128.401 128.179C128.294 128.357 128.241 128.561 128.241 128.793V132H126.955ZM133.11 132.107C132.563 132.107 132.091 131.993 131.693 131.766C131.298 131.536 130.994 131.212 130.781 130.793C130.568 130.371 130.461 129.875 130.461 129.305C130.461 128.744 130.568 128.251 130.781 127.827C130.996 127.401 131.297 127.07 131.683 126.833C132.069 126.594 132.522 126.474 133.043 126.474C133.379 126.474 133.696 126.529 133.994 126.638C134.295 126.744 134.56 126.91 134.79 127.135C135.022 127.36 135.204 127.646 135.337 127.994C135.469 128.34 135.536 128.752 135.536 129.23V129.624H131.065V128.758H134.303C134.301 128.512 134.248 128.293 134.144 128.101C134.039 127.907 133.894 127.754 133.707 127.643C133.522 127.531 133.307 127.476 133.06 127.476C132.798 127.476 132.567 127.54 132.368 127.668C132.169 127.793 132.014 127.959 131.903 128.165C131.794 128.368 131.738 128.592 131.736 128.836V129.592C131.736 129.91 131.794 130.182 131.91 130.409C132.026 130.634 132.188 130.807 132.396 130.928C132.605 131.046 132.849 131.105 133.128 131.105C133.315 131.105 133.484 131.079 133.636 131.027C133.787 130.973 133.919 130.893 134.03 130.789C134.141 130.685 134.225 130.556 134.282 130.402L135.482 130.537C135.407 130.854 135.262 131.131 135.049 131.368C134.838 131.602 134.569 131.785 134.239 131.915C133.91 132.043 133.534 132.107 133.11 132.107ZM139.16 132V124.727H141.888C142.446 124.727 142.915 124.831 143.294 125.04C143.675 125.248 143.963 125.535 144.157 125.899C144.353 126.261 144.452 126.673 144.452 127.135C144.452 127.601 144.353 128.016 144.157 128.378C143.96 128.74 143.67 129.025 143.287 129.234C142.903 129.44 142.431 129.543 141.87 129.543H140.062V128.46H141.692C142.019 128.46 142.287 128.403 142.495 128.289C142.703 128.175 142.857 128.019 142.957 127.82C143.058 127.621 143.109 127.393 143.109 127.135C143.109 126.877 143.058 126.65 142.957 126.453C142.857 126.257 142.702 126.104 142.491 125.995C142.283 125.884 142.014 125.828 141.685 125.828H140.478V132H139.16ZM147.011 132.11C146.665 132.11 146.354 132.049 146.077 131.925C145.803 131.8 145.585 131.615 145.424 131.371C145.265 131.128 145.186 130.827 145.186 130.469C145.186 130.162 145.243 129.907 145.356 129.706C145.47 129.505 145.625 129.344 145.821 129.223C146.018 129.102 146.239 129.011 146.486 128.95C146.734 128.886 146.991 128.839 147.256 128.811C147.576 128.778 147.835 128.748 148.034 128.722C148.233 128.694 148.377 128.651 148.467 128.594C148.559 128.535 148.606 128.444 148.606 128.321V128.3C148.606 128.032 148.526 127.825 148.368 127.678C148.209 127.531 147.981 127.458 147.682 127.458C147.367 127.458 147.118 127.527 146.933 127.664C146.751 127.801 146.628 127.964 146.564 128.151L145.363 127.98C145.458 127.649 145.614 127.372 145.832 127.149C146.05 126.924 146.316 126.756 146.631 126.645C146.946 126.531 147.294 126.474 147.675 126.474C147.938 126.474 148.2 126.505 148.46 126.567C148.72 126.628 148.958 126.73 149.174 126.872C149.389 127.012 149.562 127.202 149.692 127.444C149.825 127.685 149.891 127.987 149.891 128.349V132H148.655V131.251H148.613C148.535 131.402 148.424 131.544 148.282 131.677C148.143 131.807 147.966 131.912 147.753 131.993C147.543 132.071 147.295 132.11 147.011 132.11ZM147.345 131.165C147.603 131.165 147.827 131.115 148.016 131.013C148.205 130.909 148.351 130.771 148.453 130.601C148.557 130.43 148.609 130.245 148.609 130.043V129.401C148.569 129.434 148.5 129.464 148.403 129.493C148.308 129.521 148.202 129.546 148.084 129.567C147.965 129.589 147.848 129.608 147.732 129.624C147.616 129.641 147.515 129.655 147.43 129.667C147.238 129.693 147.067 129.736 146.915 129.795C146.764 129.854 146.644 129.937 146.557 130.043C146.469 130.147 146.425 130.282 146.425 130.448C146.425 130.685 146.512 130.864 146.684 130.984C146.857 131.105 147.077 131.165 147.345 131.165ZM151.184 132V126.545H152.43V127.455H152.487C152.586 127.14 152.757 126.897 152.998 126.727C153.242 126.554 153.52 126.467 153.833 126.467C153.904 126.467 153.983 126.471 154.071 126.478C154.161 126.483 154.235 126.491 154.295 126.503V127.685C154.24 127.666 154.154 127.65 154.035 127.636C153.919 127.619 153.807 127.611 153.698 127.611C153.464 127.611 153.253 127.662 153.066 127.763C152.881 127.863 152.736 128.001 152.629 128.179C152.522 128.357 152.469 128.561 152.469 128.793V132H151.184ZM158.165 126.545V127.54H155.03V126.545H158.165ZM155.804 125.239H157.089V130.359C157.089 130.532 157.115 130.665 157.167 130.757C157.222 130.847 157.293 130.909 157.38 130.942C157.468 130.975 157.565 130.991 157.672 130.991C157.752 130.991 157.826 130.986 157.892 130.974C157.96 130.962 158.013 130.951 158.048 130.942L158.265 131.947C158.196 131.97 158.098 131.996 157.97 132.025C157.844 132.053 157.691 132.07 157.508 132.075C157.186 132.084 156.896 132.036 156.638 131.929C156.38 131.82 156.175 131.652 156.024 131.425C155.875 131.197 155.801 130.913 155.804 130.572V125.239ZM160.039 134.045C159.864 134.045 159.702 134.031 159.553 134.003C159.406 133.977 159.289 133.946 159.201 133.911L159.5 132.909C159.687 132.964 159.854 132.99 160 132.987C160.147 132.985 160.276 132.939 160.387 132.849C160.501 132.761 160.597 132.614 160.675 132.408L160.785 132.114L158.807 126.545H160.171L161.428 130.665H161.485L162.745 126.545H164.113L161.929 132.661C161.827 132.949 161.692 133.197 161.524 133.403C161.356 133.611 161.15 133.77 160.906 133.879C160.664 133.99 160.376 134.045 160.039 134.045ZM165.794 132.078C165.579 132.078 165.394 132.002 165.24 131.851C165.086 131.699 165.01 131.515 165.013 131.297C165.01 131.084 165.086 130.902 165.24 130.75C165.394 130.598 165.579 130.523 165.794 130.523C166.002 130.523 166.183 130.598 166.337 130.75C166.494 130.902 166.573 131.084 166.575 131.297C166.573 131.441 166.535 131.573 166.462 131.691C166.391 131.809 166.296 131.904 166.177 131.975C166.061 132.044 165.934 132.078 165.794 132.078ZM165.794 128.186C165.579 128.186 165.394 128.11 165.24 127.959C165.086 127.805 165.01 127.62 165.013 127.405C165.01 127.192 165.086 127.009 165.24 126.858C165.394 126.704 165.579 126.627 165.794 126.627C166.002 126.627 166.183 126.704 166.337 126.858C166.494 127.009 166.573 127.192 166.575 127.405C166.573 127.547 166.535 127.677 166.462 127.795C166.391 127.914 166.296 128.009 166.177 128.08C166.061 128.151 165.934 128.186 165.794 128.186ZM170.498 132.099C169.987 132.099 169.532 132.012 169.135 131.837C168.739 131.661 168.427 131.418 168.197 131.105C167.968 130.793 167.846 130.432 167.831 130.022H169.167C169.178 130.219 169.244 130.39 169.362 130.537C169.48 130.681 169.638 130.794 169.834 130.874C170.031 130.955 170.251 130.995 170.495 130.995C170.755 130.995 170.986 130.95 171.187 130.86C171.388 130.768 171.546 130.64 171.66 130.477C171.773 130.313 171.829 130.125 171.826 129.912C171.829 129.692 171.772 129.498 171.656 129.33C171.54 129.161 171.372 129.03 171.152 128.935C170.934 128.841 170.671 128.793 170.363 128.793H169.721V127.778H170.363C170.617 127.778 170.838 127.734 171.027 127.646C171.219 127.559 171.37 127.436 171.478 127.277C171.587 127.116 171.641 126.93 171.638 126.719C171.641 126.513 171.594 126.335 171.5 126.183C171.407 126.029 171.276 125.91 171.106 125.825C170.937 125.739 170.74 125.697 170.513 125.697C170.29 125.697 170.084 125.737 169.895 125.817C169.705 125.898 169.553 126.013 169.437 126.162C169.321 126.309 169.259 126.484 169.252 126.688H167.984C167.994 126.28 168.111 125.923 168.336 125.615C168.563 125.305 168.866 125.063 169.245 124.891C169.624 124.715 170.049 124.628 170.52 124.628C171.005 124.628 171.426 124.719 171.784 124.901C172.144 125.081 172.422 125.324 172.618 125.629C172.815 125.935 172.913 126.272 172.913 126.641C172.915 127.051 172.795 127.394 172.551 127.671C172.309 127.948 171.992 128.129 171.599 128.214V128.271C172.111 128.342 172.502 128.532 172.775 128.839C173.049 129.145 173.185 129.525 173.183 129.979C173.183 130.387 173.067 130.751 172.835 131.073C172.605 131.393 172.288 131.644 171.883 131.826C171.481 132.008 171.019 132.099 170.498 132.099ZM176.987 132.099C176.459 132.099 175.99 132.011 175.581 131.833C175.174 131.656 174.854 131.413 174.622 131.105C174.392 130.795 174.279 130.443 174.281 130.05C174.279 129.745 174.345 129.464 174.48 129.209C174.615 128.953 174.797 128.74 175.027 128.57C175.259 128.397 175.517 128.287 175.801 128.239V128.19C175.427 128.107 175.124 127.916 174.892 127.618C174.662 127.317 174.549 126.97 174.551 126.577C174.549 126.203 174.653 125.87 174.864 125.576C175.074 125.282 175.363 125.052 175.73 124.884C176.097 124.713 176.516 124.628 176.987 124.628C177.454 124.628 177.869 124.713 178.234 124.884C178.601 125.052 178.889 125.282 179.1 125.576C179.313 125.87 179.42 126.203 179.42 126.577C179.42 126.97 179.302 127.317 179.068 127.618C178.836 127.916 178.537 128.107 178.17 128.19V128.239C178.454 128.287 178.709 128.397 178.937 128.57C179.166 128.74 179.349 128.953 179.484 129.209C179.621 129.464 179.69 129.745 179.69 130.05C179.69 130.443 179.574 130.795 179.342 131.105C179.11 131.413 178.79 131.656 178.383 131.833C177.978 132.011 177.513 132.099 176.987 132.099ZM176.987 131.084C177.259 131.084 177.496 131.038 177.697 130.945C177.899 130.851 178.055 130.718 178.166 130.548C178.277 130.377 178.334 130.181 178.337 129.958C178.334 129.726 178.274 129.521 178.155 129.344C178.039 129.164 177.88 129.023 177.676 128.921C177.475 128.819 177.245 128.768 176.987 128.768C176.727 128.768 176.495 128.819 176.291 128.921C176.088 129.023 175.927 129.164 175.808 129.344C175.692 129.521 175.635 129.726 175.638 129.958C175.635 130.181 175.69 130.377 175.801 130.548C175.912 130.716 176.069 130.847 176.27 130.942C176.473 131.036 176.713 131.084 176.987 131.084ZM176.987 127.771C177.21 127.771 177.406 127.726 177.577 127.636C177.749 127.546 177.886 127.42 177.985 127.259C178.084 127.098 178.135 126.912 178.138 126.702C178.135 126.493 178.086 126.311 177.989 126.155C177.892 125.996 177.757 125.874 177.584 125.789C177.411 125.701 177.212 125.658 176.987 125.658C176.758 125.658 176.555 125.701 176.38 125.789C176.207 125.874 176.072 125.996 175.975 126.155C175.88 126.311 175.834 126.493 175.837 126.702C175.834 126.912 175.882 127.098 175.979 127.259C176.078 127.418 176.214 127.543 176.387 127.636C176.562 127.726 176.762 127.771 176.987 127.771ZM184.745 130.636V130.253C184.745 129.971 184.805 129.712 184.923 129.475C185.044 129.238 185.219 129.048 185.449 128.903C185.678 128.759 185.956 128.687 186.283 128.687C186.619 128.687 186.901 128.759 187.128 128.903C187.356 129.045 187.527 129.235 187.643 129.472C187.762 129.708 187.821 129.969 187.821 130.253V130.636C187.821 130.918 187.762 131.177 187.643 131.414C187.525 131.651 187.351 131.841 187.121 131.986C186.894 132.13 186.615 132.202 186.283 132.202C185.952 132.202 185.671 132.13 185.442 131.986C185.212 131.841 185.038 131.651 184.92 131.414C184.803 131.177 184.745 130.918 184.745 130.636ZM185.672 130.253V130.636C185.672 130.823 185.717 130.995 185.807 131.151C185.897 131.308 186.056 131.386 186.283 131.386C186.513 131.386 186.67 131.309 186.755 131.155C186.843 130.999 186.887 130.826 186.887 130.636V130.253C186.887 130.063 186.845 129.891 186.763 129.734C186.68 129.576 186.52 129.496 186.283 129.496C186.061 129.496 185.903 129.576 185.811 129.734C185.719 129.891 185.672 130.063 185.672 130.253ZM181.049 126.474V126.091C181.049 125.807 181.109 125.546 181.23 125.31C181.351 125.073 181.526 124.884 181.755 124.741C181.985 124.597 182.263 124.525 182.59 124.525C182.924 124.525 183.204 124.597 183.432 124.741C183.661 124.884 183.834 125.073 183.95 125.31C184.066 125.546 184.124 125.807 184.124 126.091V126.474C184.124 126.759 184.065 127.019 183.946 127.256C183.83 127.49 183.658 127.678 183.428 127.82C183.198 127.962 182.919 128.033 182.59 128.033C182.256 128.033 181.974 127.962 181.745 127.82C181.518 127.678 181.345 127.489 181.226 127.252C181.108 127.015 181.049 126.756 181.049 126.474ZM181.983 126.091V126.474C181.983 126.664 182.027 126.837 182.114 126.993C182.204 127.147 182.363 127.224 182.59 127.224C182.817 127.224 182.973 127.147 183.059 126.993C183.146 126.837 183.19 126.664 183.19 126.474V126.091C183.19 125.902 183.149 125.729 183.066 125.572C182.983 125.414 182.824 125.335 182.59 125.335C182.365 125.335 182.208 125.414 182.118 125.572C182.028 125.731 181.983 125.904 181.983 126.091ZM181.454 132L186.454 124.727H187.341L182.341 132H181.454Z" fill="#2A8543"/>
<path d="M73.4893 137.832V136.727H79.2918V137.832H77.044V144H75.7371V137.832H73.4893ZM81.9774 144.107C81.4305 144.107 80.9582 143.993 80.5605 143.766C80.1651 143.536 79.8609 143.212 79.6478 142.793C79.4348 142.371 79.3282 141.875 79.3282 141.305C79.3282 140.744 79.4348 140.251 79.6478 139.827C79.8633 139.401 80.1639 139.07 80.5498 138.833C80.9357 138.594 81.3891 138.474 81.9099 138.474C82.2461 138.474 82.5633 138.529 82.8616 138.638C83.1623 138.744 83.4274 138.91 83.6571 139.135C83.8891 139.36 84.0714 139.646 84.2039 139.994C84.3365 140.34 84.4028 140.752 84.4028 141.23V141.624H79.9319V140.758H83.1706C83.1682 140.512 83.1149 140.293 83.0108 140.101C82.9066 139.907 82.761 139.754 82.574 139.643C82.3893 139.531 82.1739 139.476 81.9277 139.476C81.6649 139.476 81.4341 139.54 81.2352 139.668C81.0363 139.793 80.8813 139.959 80.77 140.165C80.6611 140.368 80.6055 140.592 80.6031 140.836V141.592C80.6031 141.91 80.6611 142.182 80.7771 142.409C80.8931 142.634 81.0553 142.807 81.2636 142.928C81.4719 143.046 81.7158 143.105 81.9951 143.105C82.1822 143.105 82.3514 143.079 82.503 143.027C82.6545 142.973 82.7859 142.893 82.8971 142.789C83.0084 142.685 83.0924 142.556 83.1493 142.402L84.3495 142.537C84.2738 142.854 84.1294 143.131 83.9163 143.368C83.7056 143.602 83.4357 143.785 83.1066 143.915C82.7776 144.043 82.4012 144.107 81.9774 144.107ZM87.8696 144.107C87.3251 144.107 86.8575 143.987 86.4669 143.748C86.0787 143.509 85.7792 143.179 85.5685 142.757C85.3601 142.333 85.256 141.846 85.256 141.294C85.256 140.74 85.3625 140.251 85.5756 139.827C85.7886 139.401 86.0893 139.07 86.4776 138.833C86.8682 138.594 87.3298 138.474 87.8625 138.474C88.3052 138.474 88.697 138.556 89.0379 138.719C89.3812 138.88 89.6546 139.109 89.8582 139.405C90.0618 139.698 90.1778 140.042 90.2063 140.435H88.9776C88.9278 140.172 88.8095 139.953 88.6224 139.778C88.4378 139.6 88.1904 139.511 87.8803 139.511C87.6175 139.511 87.3867 139.582 87.1878 139.724C86.9889 139.864 86.8339 140.065 86.7226 140.328C86.6137 140.591 86.5592 140.906 86.5592 141.273C86.5592 141.644 86.6137 141.964 86.7226 142.232C86.8315 142.497 86.9842 142.701 87.1807 142.846C87.3795 142.988 87.6127 143.059 87.8803 143.059C88.0697 143.059 88.2389 143.023 88.3881 142.952C88.5396 142.879 88.6662 142.774 88.768 142.636C88.8698 142.499 88.9397 142.332 88.9776 142.136H90.2063C90.1755 142.522 90.0618 142.864 89.8653 143.162C89.6688 143.458 89.4013 143.69 89.0628 143.858C88.7242 144.024 88.3265 144.107 87.8696 144.107ZM92.5473 140.804V144H91.2618V136.727H92.5189V139.472H92.5829C92.7107 139.165 92.9084 138.922 93.1759 138.744C93.4458 138.564 93.7891 138.474 94.2057 138.474C94.5845 138.474 94.9148 138.554 95.1965 138.712C95.4782 138.871 95.696 139.103 95.8499 139.408C96.0061 139.714 96.0843 140.087 96.0843 140.527V144H94.7988V140.726C94.7988 140.359 94.7041 140.074 94.5147 139.87C94.3276 139.664 94.0649 139.561 93.7263 139.561C93.499 139.561 93.2954 139.611 93.1155 139.71C92.938 139.807 92.7983 139.948 92.6965 140.133C92.5971 140.317 92.5473 140.541 92.5473 140.804ZM98.6802 140.804V144H97.3946V138.545H98.6233V139.472H98.6873C98.8127 139.167 99.0128 138.924 99.2874 138.744C99.5644 138.564 99.9065 138.474 100.314 138.474C100.69 138.474 101.018 138.555 101.297 138.716C101.579 138.877 101.797 139.11 101.951 139.415C102.107 139.721 102.184 140.091 102.182 140.527V144H100.896V140.726C100.896 140.361 100.801 140.076 100.612 139.87C100.425 139.664 100.166 139.561 99.8343 139.561C99.6094 139.561 99.4093 139.611 99.2341 139.71C99.0613 139.807 98.9252 139.948 98.8258 140.133C98.7287 140.317 98.6802 140.541 98.6802 140.804ZM105.868 144.107C105.335 144.107 104.873 143.989 104.483 143.755C104.092 143.521 103.789 143.193 103.574 142.771C103.361 142.35 103.254 141.857 103.254 141.294C103.254 140.731 103.361 140.237 103.574 139.813C103.789 139.389 104.092 139.06 104.483 138.826C104.873 138.592 105.335 138.474 105.868 138.474C106.4 138.474 106.862 138.592 107.253 138.826C107.643 139.06 107.945 139.389 108.158 139.813C108.374 140.237 108.481 140.731 108.481 141.294C108.481 141.857 108.374 142.35 108.158 142.771C107.945 143.193 107.643 143.521 107.253 143.755C106.862 143.989 106.4 144.107 105.868 144.107ZM105.875 143.077C106.164 143.077 106.405 142.997 106.599 142.839C106.793 142.678 106.938 142.462 107.032 142.192C107.129 141.923 107.178 141.622 107.178 141.29C107.178 140.957 107.129 140.655 107.032 140.385C106.938 140.113 106.793 139.896 106.599 139.735C106.405 139.574 106.164 139.494 105.875 139.494C105.579 139.494 105.333 139.574 105.136 139.735C104.942 139.896 104.796 140.113 104.699 140.385C104.605 140.655 104.557 140.957 104.557 141.29C104.557 141.622 104.605 141.923 104.699 142.192C104.796 142.462 104.942 142.678 105.136 142.839C105.333 142.997 105.579 143.077 105.875 143.077ZM110.858 136.727V144H109.572V136.727H110.858ZM114.559 144.107C114.026 144.107 113.565 143.989 113.174 143.755C112.783 143.521 112.48 143.193 112.265 142.771C112.052 142.35 111.945 141.857 111.945 141.294C111.945 140.731 112.052 140.237 112.265 139.813C112.48 139.389 112.783 139.06 113.174 138.826C113.565 138.592 114.026 138.474 114.559 138.474C115.092 138.474 115.553 138.592 115.944 138.826C116.335 139.06 116.636 139.389 116.85 139.813C117.065 140.237 117.173 140.731 117.173 141.294C117.173 141.857 117.065 142.35 116.85 142.771C116.636 143.193 116.335 143.521 115.944 143.755C115.553 143.989 115.092 144.107 114.559 144.107ZM114.566 143.077C114.855 143.077 115.096 142.997 115.291 142.839C115.485 142.678 115.629 142.462 115.724 142.192C115.821 141.923 115.869 141.622 115.869 141.29C115.869 140.957 115.821 140.655 115.724 140.385C115.629 140.113 115.485 139.896 115.291 139.735C115.096 139.574 114.855 139.494 114.566 139.494C114.27 139.494 114.024 139.574 113.828 139.735C113.633 139.896 113.488 140.113 113.391 140.385C113.296 140.655 113.249 140.957 113.249 141.29C113.249 141.622 113.296 141.923 113.391 142.192C113.488 142.462 113.633 142.678 113.828 142.839C114.024 142.997 114.27 143.077 114.566 143.077ZM120.636 146.159C120.174 146.159 119.778 146.096 119.446 145.971C119.115 145.848 118.849 145.682 118.647 145.474C118.446 145.265 118.306 145.035 118.228 144.781L119.386 144.501C119.438 144.607 119.514 144.713 119.613 144.817C119.713 144.923 119.846 145.011 120.014 145.08C120.185 145.151 120.399 145.186 120.657 145.186C121.022 145.186 121.324 145.097 121.563 144.92C121.802 144.745 121.921 144.456 121.921 144.053V143.02H121.858C121.791 143.152 121.694 143.289 121.566 143.428C121.441 143.568 121.274 143.685 121.066 143.78C120.86 143.875 120.6 143.922 120.288 143.922C119.869 143.922 119.489 143.824 119.148 143.627C118.809 143.428 118.54 143.132 118.338 142.739C118.139 142.344 118.04 141.849 118.04 141.255C118.04 140.656 118.139 140.151 118.338 139.739C118.54 139.324 118.811 139.011 119.152 138.798C119.492 138.582 119.872 138.474 120.291 138.474C120.611 138.474 120.874 138.529 121.08 138.638C121.288 138.744 121.454 138.873 121.577 139.025C121.7 139.174 121.794 139.315 121.858 139.447H121.929V138.545H123.196V144.089C123.196 144.555 123.085 144.941 122.863 145.246C122.64 145.552 122.336 145.78 121.95 145.932C121.564 146.083 121.126 146.159 120.636 146.159ZM120.647 142.913C120.919 142.913 121.151 142.847 121.343 142.714C121.534 142.582 121.68 142.391 121.779 142.143C121.879 141.894 121.929 141.596 121.929 141.248C121.929 140.905 121.879 140.604 121.779 140.346C121.682 140.088 121.538 139.888 121.346 139.746C121.157 139.601 120.924 139.529 120.647 139.529C120.36 139.529 120.121 139.604 119.929 139.753C119.738 139.902 119.593 140.107 119.496 140.367C119.399 140.625 119.35 140.919 119.35 141.248C119.35 141.582 119.399 141.874 119.496 142.125C119.595 142.374 119.741 142.568 119.933 142.707C120.127 142.845 120.365 142.913 120.647 142.913ZM124.514 144V138.545H125.799V144H124.514ZM125.16 137.771C124.956 137.771 124.781 137.704 124.635 137.569C124.488 137.432 124.414 137.267 124.414 137.075C124.414 136.881 124.488 136.717 124.635 136.582C124.781 136.444 124.956 136.376 125.16 136.376C125.366 136.376 125.541 136.444 125.686 136.582C125.832 136.717 125.906 136.881 125.906 137.075C125.906 137.267 125.832 137.432 125.686 137.569C125.541 137.704 125.366 137.771 125.16 137.771ZM129.5 144.107C128.956 144.107 128.488 143.987 128.098 143.748C127.71 143.509 127.41 143.179 127.199 142.757C126.991 142.333 126.887 141.846 126.887 141.294C126.887 140.74 126.993 140.251 127.206 139.827C127.42 139.401 127.72 139.07 128.108 138.833C128.499 138.594 128.961 138.474 129.493 138.474C129.936 138.474 130.328 138.556 130.669 138.719C131.012 138.88 131.286 139.109 131.489 139.405C131.693 139.698 131.809 140.042 131.837 140.435H130.608C130.559 140.172 130.44 139.953 130.253 139.778C130.069 139.6 129.821 139.511 129.511 139.511C129.248 139.511 129.018 139.582 128.819 139.724C128.62 139.864 128.465 140.065 128.353 140.328C128.245 140.591 128.19 140.906 128.19 141.273C128.19 141.644 128.245 141.964 128.353 142.232C128.462 142.497 128.615 142.701 128.812 142.846C129.01 142.988 129.244 143.059 129.511 143.059C129.701 143.059 129.87 143.023 130.019 142.952C130.17 142.879 130.297 142.774 130.399 142.636C130.501 142.499 130.571 142.332 130.608 142.136H131.837C131.806 142.522 131.693 142.864 131.496 143.162C131.3 143.458 131.032 143.69 130.694 143.858C130.355 144.024 129.957 144.107 129.5 144.107ZM134.462 144.11C134.117 144.11 133.805 144.049 133.528 143.925C133.254 143.8 133.036 143.615 132.875 143.371C132.716 143.128 132.637 142.827 132.637 142.469C132.637 142.162 132.694 141.907 132.807 141.706C132.921 141.505 133.076 141.344 133.273 141.223C133.469 141.102 133.691 141.011 133.937 140.95C134.185 140.886 134.442 140.839 134.707 140.811C135.027 140.778 135.286 140.748 135.485 140.722C135.684 140.694 135.828 140.651 135.918 140.594C136.011 140.535 136.057 140.444 136.057 140.321V140.3C136.057 140.032 135.977 139.825 135.819 139.678C135.66 139.531 135.432 139.458 135.133 139.458C134.819 139.458 134.569 139.527 134.384 139.664C134.202 139.801 134.079 139.964 134.015 140.151L132.815 139.98C132.909 139.649 133.066 139.372 133.283 139.149C133.501 138.924 133.767 138.756 134.082 138.645C134.397 138.531 134.745 138.474 135.126 138.474C135.389 138.474 135.651 138.505 135.911 138.567C136.172 138.628 136.409 138.73 136.625 138.872C136.84 139.012 137.013 139.202 137.143 139.444C137.276 139.685 137.342 139.987 137.342 140.349V144H136.106V143.251H136.064C135.986 143.402 135.876 143.544 135.734 143.677C135.594 143.807 135.418 143.912 135.204 143.993C134.994 144.071 134.746 144.11 134.462 144.11ZM134.796 143.165C135.054 143.165 135.278 143.115 135.467 143.013C135.657 142.909 135.802 142.771 135.904 142.601C136.008 142.43 136.06 142.245 136.06 142.043V141.401C136.02 141.434 135.951 141.464 135.854 141.493C135.76 141.521 135.653 141.546 135.535 141.567C135.416 141.589 135.299 141.608 135.183 141.624C135.067 141.641 134.967 141.655 134.881 141.667C134.69 141.693 134.518 141.736 134.366 141.795C134.215 141.854 134.095 141.937 134.008 142.043C133.92 142.147 133.876 142.282 133.876 142.448C133.876 142.685 133.963 142.864 134.136 142.984C134.308 143.105 134.529 143.165 134.796 143.165ZM139.92 136.727V144H138.635V136.727H139.92ZM143.78 144V136.727H146.507C147.066 136.727 147.534 136.831 147.913 137.04C148.294 137.248 148.582 137.535 148.776 137.899C148.973 138.261 149.071 138.673 149.071 139.135C149.071 139.601 148.973 140.016 148.776 140.378C148.58 140.74 148.29 141.025 147.906 141.234C147.522 141.44 147.05 141.543 146.489 141.543H144.682V140.46H146.312C146.638 140.46 146.906 140.403 147.114 140.289C147.322 140.175 147.476 140.019 147.576 139.82C147.678 139.621 147.728 139.393 147.728 139.135C147.728 138.877 147.678 138.65 147.576 138.453C147.476 138.257 147.321 138.104 147.111 137.995C146.902 137.884 146.634 137.828 146.304 137.828H145.097V144H143.78ZM151.63 144.11C151.285 144.11 150.973 144.049 150.696 143.925C150.422 143.8 150.204 143.615 150.043 143.371C149.884 143.128 149.805 142.827 149.805 142.469C149.805 142.162 149.862 141.907 149.975 141.706C150.089 141.505 150.244 141.344 150.441 141.223C150.637 141.102 150.858 141.011 151.105 140.95C151.353 140.886 151.61 140.839 151.875 140.811C152.195 140.778 152.454 140.748 152.653 140.722C152.852 140.694 152.996 140.651 153.086 140.594C153.179 140.535 153.225 140.444 153.225 140.321V140.3C153.225 140.032 153.145 139.825 152.987 139.678C152.828 139.531 152.6 139.458 152.301 139.458C151.987 139.458 151.737 139.527 151.552 139.664C151.37 139.801 151.247 139.964 151.183 140.151L149.983 139.98C150.077 139.649 150.233 139.372 150.451 139.149C150.669 138.924 150.935 138.756 151.25 138.645C151.565 138.531 151.913 138.474 152.294 138.474C152.557 138.474 152.819 138.505 153.079 138.567C153.34 138.628 153.577 138.73 153.793 138.872C154.008 139.012 154.181 139.202 154.311 139.444C154.444 139.685 154.51 139.987 154.51 140.349V144H153.274V143.251H153.232C153.154 143.402 153.044 143.544 152.902 143.677C152.762 143.807 152.586 143.912 152.372 143.993C152.162 144.071 151.914 144.11 151.63 144.11ZM151.964 143.165C152.222 143.165 152.446 143.115 152.635 143.013C152.825 142.909 152.97 142.771 153.072 142.601C153.176 142.43 153.228 142.245 153.228 142.043V141.401C153.188 141.434 153.119 141.464 153.022 141.493C152.928 141.521 152.821 141.546 152.703 141.567C152.584 141.589 152.467 141.608 152.351 141.624C152.235 141.641 152.135 141.655 152.049 141.667C151.858 141.693 151.686 141.736 151.534 141.795C151.383 141.854 151.263 141.937 151.176 142.043C151.088 142.147 151.044 142.282 151.044 142.448C151.044 142.685 151.131 142.864 151.304 142.984C151.476 143.105 151.697 143.165 151.964 143.165ZM155.803 144V138.545H157.049V139.455H157.106C157.206 139.14 157.376 138.897 157.617 138.727C157.861 138.554 158.139 138.467 158.452 138.467C158.523 138.467 158.602 138.471 158.69 138.478C158.78 138.483 158.854 138.491 158.914 138.503V139.685C158.859 139.666 158.773 139.65 158.654 139.636C158.538 139.619 158.426 139.611 158.317 139.611C158.083 139.611 157.872 139.662 157.685 139.763C157.5 139.863 157.355 140.001 157.248 140.179C157.142 140.357 157.088 140.561 157.088 140.793V144H155.803ZM162.784 138.545V139.54H159.649V138.545H162.784ZM160.423 137.239H161.708V142.359C161.708 142.532 161.734 142.665 161.787 142.757C161.841 142.847 161.912 142.909 162 142.942C162.087 142.975 162.184 142.991 162.291 142.991C162.371 142.991 162.445 142.986 162.511 142.974C162.58 142.962 162.632 142.951 162.667 142.942L162.884 143.947C162.815 143.97 162.717 143.996 162.589 144.025C162.464 144.053 162.31 144.07 162.127 144.075C161.805 144.084 161.515 144.036 161.257 143.929C160.999 143.82 160.795 143.652 160.643 143.425C160.494 143.197 160.421 142.913 160.423 142.572V137.239ZM164.658 146.045C164.483 146.045 164.321 146.031 164.172 146.003C164.025 145.977 163.908 145.946 163.82 145.911L164.119 144.909C164.306 144.964 164.473 144.99 164.619 144.987C164.766 144.985 164.895 144.939 165.007 144.849C165.12 144.761 165.216 144.614 165.294 144.408L165.404 144.114L163.426 138.545H164.79L166.047 142.665H166.104L167.364 138.545H168.732L166.548 144.661C166.446 144.949 166.311 145.197 166.143 145.403C165.975 145.611 165.769 145.77 165.525 145.879C165.283 145.99 164.995 146.045 164.658 146.045ZM170.413 144.078C170.198 144.078 170.013 144.002 169.859 143.851C169.705 143.699 169.629 143.515 169.632 143.297C169.629 143.084 169.705 142.902 169.859 142.75C170.013 142.598 170.198 142.523 170.413 142.523C170.621 142.523 170.803 142.598 170.956 142.75C171.113 142.902 171.192 143.084 171.194 143.297C171.192 143.441 171.154 143.573 171.081 143.691C171.01 143.809 170.915 143.904 170.797 143.975C170.681 144.044 170.553 144.078 170.413 144.078ZM170.413 140.186C170.198 140.186 170.013 140.11 169.859 139.959C169.705 139.805 169.629 139.62 169.632 139.405C169.629 139.192 169.705 139.009 169.859 138.858C170.013 138.704 170.198 138.627 170.413 138.627C170.621 138.627 170.803 138.704 170.956 138.858C171.113 139.009 171.192 139.192 171.194 139.405C171.192 139.547 171.154 139.677 171.081 139.795C171.01 139.914 170.915 140.009 170.797 140.08C170.681 140.151 170.553 140.186 170.413 140.186ZM175.117 144.099C174.606 144.099 174.152 144.012 173.754 143.837C173.358 143.661 173.046 143.418 172.816 143.105C172.587 142.793 172.465 142.432 172.451 142.022H173.786C173.798 142.219 173.863 142.39 173.981 142.537C174.099 142.681 174.257 142.794 174.453 142.874C174.65 142.955 174.87 142.995 175.114 142.995C175.374 142.995 175.605 142.95 175.806 142.86C176.008 142.768 176.165 142.64 176.279 142.477C176.392 142.313 176.448 142.125 176.446 141.912C176.448 141.692 176.391 141.498 176.275 141.33C176.159 141.161 175.991 141.03 175.771 140.935C175.553 140.841 175.29 140.793 174.983 140.793H174.34V139.778H174.983C175.236 139.778 175.457 139.734 175.647 139.646C175.838 139.559 175.989 139.436 176.098 139.277C176.206 139.116 176.26 138.93 176.257 138.719C176.26 138.513 176.214 138.335 176.119 138.183C176.027 138.029 175.895 137.91 175.725 137.825C175.557 137.739 175.359 137.697 175.132 137.697C174.909 137.697 174.703 137.737 174.514 137.817C174.324 137.898 174.172 138.013 174.056 138.162C173.94 138.309 173.878 138.484 173.871 138.688H172.603C172.613 138.28 172.73 137.923 172.955 137.615C173.182 137.305 173.485 137.063 173.864 136.891C174.243 136.715 174.668 136.628 175.139 136.628C175.624 136.628 176.046 136.719 176.403 136.901C176.763 137.081 177.041 137.324 177.238 137.629C177.434 137.935 177.532 138.272 177.532 138.641C177.535 139.051 177.414 139.394 177.17 139.671C176.929 139.948 176.611 140.129 176.218 140.214V140.271C176.73 140.342 177.122 140.532 177.394 140.839C177.668 141.145 177.805 141.525 177.802 141.979C177.802 142.387 177.686 142.751 177.454 143.073C177.224 143.393 176.907 143.644 176.502 143.826C176.1 144.008 175.638 144.099 175.117 144.099ZM179.021 144V143.048L181.546 140.573C181.787 140.329 181.989 140.113 182.15 139.923C182.311 139.734 182.431 139.55 182.512 139.373C182.592 139.195 182.633 139.006 182.633 138.805C182.633 138.575 182.58 138.379 182.476 138.215C182.372 138.049 182.229 137.922 182.047 137.832C181.864 137.742 181.657 137.697 181.425 137.697C181.186 137.697 180.977 137.746 180.797 137.846C180.617 137.943 180.477 138.081 180.378 138.261C180.281 138.441 180.232 138.656 180.232 138.904H178.978C178.978 138.442 179.084 138.041 179.295 137.7C179.505 137.359 179.795 137.095 180.165 136.908C180.536 136.721 180.962 136.628 181.443 136.628C181.931 136.628 182.359 136.719 182.728 136.901C183.098 137.084 183.384 137.333 183.588 137.651C183.794 137.968 183.897 138.33 183.897 138.737C183.897 139.009 183.845 139.277 183.741 139.54C183.636 139.803 183.453 140.094 183.19 140.413C182.93 140.733 182.564 141.12 182.093 141.575L180.839 142.849V142.899H184.007V144H179.021ZM189.12 142.636V142.253C189.12 141.971 189.18 141.712 189.298 141.475C189.419 141.238 189.594 141.048 189.824 140.903C190.053 140.759 190.331 140.687 190.658 140.687C190.994 140.687 191.276 140.759 191.503 140.903C191.731 141.045 191.902 141.235 192.018 141.472C192.137 141.708 192.196 141.969 192.196 142.253V142.636C192.196 142.918 192.137 143.177 192.018 143.414C191.9 143.651 191.726 143.841 191.496 143.986C191.269 144.13 190.99 144.202 190.658 144.202C190.327 144.202 190.046 144.13 189.817 143.986C189.587 143.841 189.413 143.651 189.295 143.414C189.178 143.177 189.12 142.918 189.12 142.636ZM190.047 142.253V142.636C190.047 142.823 190.092 142.995 190.182 143.151C190.272 143.308 190.431 143.386 190.658 143.386C190.888 143.386 191.045 143.309 191.13 143.155C191.218 142.999 191.262 142.826 191.262 142.636V142.253C191.262 142.063 191.22 141.891 191.138 141.734C191.055 141.576 190.895 141.496 190.658 141.496C190.436 141.496 190.278 141.576 190.186 141.734C190.094 141.891 190.047 142.063 190.047 142.253ZM185.424 138.474V138.091C185.424 137.807 185.484 137.546 185.605 137.31C185.726 137.073 185.901 136.884 186.13 136.741C186.36 136.597 186.638 136.525 186.965 136.525C187.299 136.525 187.579 136.597 187.807 136.741C188.036 136.884 188.209 137.073 188.325 137.31C188.441 137.546 188.499 137.807 188.499 138.091V138.474C188.499 138.759 188.44 139.019 188.321 139.256C188.205 139.49 188.033 139.678 187.803 139.82C187.573 139.962 187.294 140.033 186.965 140.033C186.631 140.033 186.349 139.962 186.12 139.82C185.893 139.678 185.72 139.489 185.601 139.252C185.483 139.015 185.424 138.756 185.424 138.474ZM186.358 138.091V138.474C186.358 138.664 186.402 138.837 186.489 138.993C186.579 139.147 186.738 139.224 186.965 139.224C187.192 139.224 187.348 139.147 187.434 138.993C187.521 138.837 187.565 138.664 187.565 138.474V138.091C187.565 137.902 187.524 137.729 187.441 137.572C187.358 137.414 187.199 137.335 186.965 137.335C186.74 137.335 186.583 137.414 186.493 137.572C186.403 137.731 186.358 137.904 186.358 138.091ZM185.829 144L190.829 136.727H191.716L186.716 144H185.829Z" fill="#F7FEF8"/>
<path d="M80.034 151.181H78.7059C78.668 150.963 78.5982 150.77 78.4964 150.602C78.3946 150.432 78.2679 150.287 78.1164 150.169C77.9649 150.051 77.7921 149.962 77.5979 149.903C77.4062 149.841 77.199 149.81 76.9765 149.81C76.5811 149.81 76.2308 149.91 75.9254 150.109C75.62 150.305 75.3809 150.594 75.208 150.975C75.0352 151.354 74.9488 151.817 74.9488 152.364C74.9488 152.92 75.0352 153.389 75.208 153.77C75.3832 154.149 75.6223 154.435 75.9254 154.629C76.2308 154.821 76.58 154.917 76.9729 154.917C77.1907 154.917 77.3943 154.888 77.5837 154.832C77.7755 154.772 77.9471 154.686 78.0987 154.572C78.2525 154.459 78.3816 154.319 78.4857 154.153C78.5923 153.988 78.6657 153.798 78.7059 153.585L80.034 153.592C79.9843 153.938 79.8766 154.262 79.7109 154.565C79.5475 154.868 79.3333 155.136 79.0681 155.368C78.803 155.598 78.4928 155.777 78.1377 155.908C77.7826 156.036 77.3884 156.099 76.9552 156.099C76.316 156.099 75.7454 155.951 75.2435 155.656C74.7416 155.36 74.3463 154.932 74.0575 154.374C73.7686 153.815 73.6242 153.145 73.6242 152.364C73.6242 151.58 73.7698 150.91 74.061 150.354C74.3522 149.795 74.7487 149.368 75.2506 149.072C75.7525 148.776 76.3207 148.628 76.9552 148.628C77.36 148.628 77.7364 148.685 78.0845 148.798C78.4325 148.912 78.7426 149.079 79.0148 149.299C79.2871 149.517 79.5108 149.784 79.686 150.102C79.8636 150.416 79.9796 150.776 80.034 151.181ZM84.6603 153.706V150.545H85.9458V156H84.6993V155.031H84.6425C84.5194 155.336 84.317 155.586 84.0353 155.78C83.7559 155.974 83.4115 156.071 83.0019 156.071C82.6444 156.071 82.3284 155.992 82.0537 155.833C81.7815 155.672 81.5684 155.439 81.4145 155.134C81.2606 154.826 81.1837 154.454 81.1837 154.018V150.545H82.4692V153.82C82.4692 154.165 82.5639 154.44 82.7533 154.643C82.9427 154.847 83.1913 154.949 83.499 154.949C83.6884 154.949 83.8719 154.903 84.0495 154.81C84.227 154.718 84.3726 154.581 84.4863 154.398C84.6023 154.214 84.6603 153.983 84.6603 153.706ZM88.5532 148.727V156H87.2677V148.727H88.5532ZM92.5988 150.545V151.54H89.4632V150.545H92.5988ZM90.2373 149.239H91.5228V154.359C91.5228 154.532 91.5489 154.665 91.601 154.757C91.6554 154.847 91.7264 154.909 91.814 154.942C91.9016 154.975 91.9987 154.991 92.1052 154.991C92.1857 154.991 92.2591 154.986 92.3254 154.974C92.3941 154.962 92.4461 154.951 92.4816 154.942L92.6983 155.947C92.6296 155.97 92.5314 155.996 92.4035 156.025C92.278 156.053 92.1242 156.07 91.9419 156.075C91.6199 156.084 91.3299 156.036 91.0718 155.929C90.8138 155.82 90.609 155.652 90.4575 155.425C90.3083 155.197 90.235 154.913 90.2373 154.572V149.239ZM97.1505 153.706V150.545H98.436V156H97.1896V155.031H97.1327C97.0096 155.336 96.8072 155.586 96.5255 155.78C96.2461 155.974 95.9017 156.071 95.4921 156.071C95.1346 156.071 94.8186 155.992 94.544 155.833C94.2717 155.672 94.0586 155.439 93.9048 155.134C93.7509 154.826 93.6739 154.454 93.6739 154.018V150.545H94.9595V153.82C94.9595 154.165 95.0541 154.44 95.2435 154.643C95.4329 154.847 95.6815 154.949 95.9893 154.949C96.1787 154.949 96.3621 154.903 96.5397 154.81C96.7173 154.718 96.8629 154.581 96.9765 154.398C97.0925 154.214 97.1505 153.983 97.1505 153.706ZM99.7579 156V150.545H101.004V151.455H101.061C101.161 151.14 101.331 150.897 101.573 150.727C101.816 150.554 102.095 150.467 102.407 150.467C102.478 150.467 102.557 150.471 102.645 150.478C102.735 150.483 102.81 150.491 102.869 150.503V151.685C102.814 151.666 102.728 151.65 102.609 151.636C102.493 151.619 102.381 151.611 102.272 151.611C102.038 151.611 101.827 151.662 101.64 151.763C101.455 151.863 101.31 152.001 101.203 152.179C101.097 152.357 101.043 152.561 101.043 152.793V156H99.7579ZM105.195 156.11C104.849 156.11 104.538 156.049 104.261 155.925C103.986 155.8 103.768 155.615 103.607 155.371C103.449 155.128 103.369 154.827 103.369 154.469C103.369 154.162 103.426 153.907 103.54 153.706C103.654 153.505 103.809 153.344 104.005 153.223C104.202 153.102 104.423 153.011 104.669 152.95C104.918 152.886 105.175 152.839 105.44 152.811C105.759 152.778 106.019 152.748 106.217 152.722C106.416 152.694 106.561 152.651 106.651 152.594C106.743 152.535 106.789 152.444 106.789 152.321V152.3C106.789 152.032 106.71 151.825 106.551 151.678C106.393 151.531 106.164 151.458 105.866 151.458C105.551 151.458 105.301 151.527 105.117 151.664C104.934 151.801 104.811 151.964 104.747 152.151L103.547 151.98C103.642 151.649 103.798 151.372 104.016 151.149C104.234 150.924 104.5 150.756 104.815 150.645C105.13 150.531 105.478 150.474 105.859 150.474C106.122 150.474 106.383 150.505 106.644 150.567C106.904 150.628 107.142 150.73 107.357 150.872C107.573 151.012 107.746 151.202 107.876 151.444C108.008 151.685 108.075 151.987 108.075 152.349V156H106.839V155.251H106.796C106.718 155.402 106.608 155.544 106.466 155.677C106.326 155.807 106.15 155.912 105.937 155.993C105.726 156.071 105.479 156.11 105.195 156.11ZM105.529 155.165C105.787 155.165 106.01 155.115 106.2 155.013C106.389 154.909 106.535 154.771 106.636 154.601C106.741 154.43 106.793 154.245 106.793 154.043V153.401C106.752 153.434 106.684 153.464 106.587 153.493C106.492 153.521 106.386 153.546 106.267 153.567C106.149 153.589 106.032 153.608 105.916 153.624C105.8 153.641 105.699 153.655 105.614 153.667C105.422 153.693 105.25 153.736 105.099 153.795C104.947 153.854 104.828 153.937 104.74 154.043C104.653 154.147 104.609 154.282 104.609 154.448C104.609 154.685 104.695 154.864 104.868 154.984C105.041 155.105 105.261 155.165 105.529 155.165ZM110.653 148.727V156H109.367V148.727H110.653ZM114.512 156V148.727H117.239C117.798 148.727 118.267 148.831 118.646 149.04C119.027 149.248 119.314 149.535 119.508 149.899C119.705 150.261 119.803 150.673 119.803 151.135C119.803 151.601 119.705 152.016 119.508 152.378C119.312 152.74 119.022 153.025 118.638 153.234C118.255 153.44 117.783 153.543 117.222 153.543H115.414V152.46H117.044C117.371 152.46 117.638 152.403 117.847 152.289C118.055 152.175 118.209 152.019 118.308 151.82C118.41 151.621 118.461 151.393 118.461 151.135C118.461 150.877 118.41 150.65 118.308 150.453C118.209 150.257 118.054 150.104 117.843 149.995C117.635 149.884 117.366 149.828 117.037 149.828H115.829V156H114.512ZM122.363 156.11C122.017 156.11 121.706 156.049 121.429 155.925C121.154 155.8 120.936 155.615 120.775 155.371C120.617 155.128 120.537 154.827 120.537 154.469C120.537 154.162 120.594 153.907 120.708 153.706C120.821 153.505 120.977 153.344 121.173 153.223C121.37 153.102 121.591 153.011 121.837 152.95C122.086 152.886 122.343 152.839 122.608 152.811C122.927 152.778 123.187 152.748 123.385 152.722C123.584 152.694 123.729 152.651 123.819 152.594C123.911 152.535 123.957 152.444 123.957 152.321V152.3C123.957 152.032 123.878 151.825 123.719 151.678C123.561 151.531 123.332 151.458 123.034 151.458C122.719 151.458 122.469 151.527 122.285 151.664C122.102 151.801 121.979 151.964 121.915 152.151L120.715 151.98C120.81 151.649 120.966 151.372 121.184 151.149C121.402 150.924 121.668 150.756 121.983 150.645C122.298 150.531 122.646 150.474 123.027 150.474C123.29 150.474 123.551 150.505 123.812 150.567C124.072 150.628 124.31 150.73 124.525 150.872C124.741 151.012 124.914 151.202 125.044 151.444C125.176 151.685 125.243 151.987 125.243 152.349V156H124.007V155.251H123.964C123.886 155.402 123.776 155.544 123.634 155.677C123.494 155.807 123.318 155.912 123.105 155.993C122.894 156.071 122.647 156.11 122.363 156.11ZM122.696 155.165C122.955 155.165 123.178 155.115 123.368 155.013C123.557 154.909 123.703 154.771 123.804 154.601C123.909 154.43 123.961 154.245 123.961 154.043V153.401C123.92 153.434 123.852 153.464 123.755 153.493C123.66 153.521 123.553 153.546 123.435 153.567C123.317 153.589 123.2 153.608 123.084 153.624C122.968 153.641 122.867 153.655 122.782 153.667C122.59 153.693 122.418 153.736 122.267 153.795C122.115 153.854 121.996 153.937 121.908 154.043C121.821 154.147 121.777 154.282 121.777 154.448C121.777 154.685 121.863 154.864 122.036 154.984C122.209 155.105 122.429 155.165 122.696 155.165ZM126.535 156V150.545H127.782V151.455H127.839C127.938 151.14 128.108 150.897 128.35 150.727C128.594 150.554 128.872 150.467 129.184 150.467C129.255 150.467 129.335 150.471 129.422 150.478C129.512 150.483 129.587 150.491 129.646 150.503V151.685C129.592 151.666 129.505 151.65 129.387 151.636C129.271 151.619 129.158 151.611 129.049 151.611C128.815 151.611 128.604 151.662 128.417 151.763C128.233 151.863 128.087 152.001 127.981 152.179C127.874 152.357 127.821 152.561 127.821 152.793V156H126.535ZM133.517 150.545V151.54H130.381V150.545H133.517ZM131.155 149.239H132.441V154.359C132.441 154.532 132.467 154.665 132.519 154.757C132.573 154.847 132.644 154.909 132.732 154.942C132.82 154.975 132.917 154.991 133.023 154.991C133.104 154.991 133.177 154.986 133.243 154.974C133.312 154.962 133.364 154.951 133.4 154.942L133.616 155.947C133.548 155.97 133.449 155.996 133.321 156.025C133.196 156.053 133.042 156.07 132.86 156.075C132.538 156.084 132.248 156.036 131.99 155.929C131.732 155.82 131.527 155.652 131.375 155.425C131.226 155.197 131.153 154.913 131.155 154.572V149.239ZM135.391 158.045C135.216 158.045 135.054 158.031 134.904 158.003C134.758 157.977 134.64 157.946 134.553 157.911L134.851 156.909C135.038 156.964 135.205 156.99 135.352 156.987C135.499 156.985 135.628 156.939 135.739 156.849C135.853 156.761 135.948 156.614 136.027 156.408L136.137 156.114L134.159 150.545H135.522L136.779 154.665H136.836L138.097 150.545H139.464L137.28 156.661C137.178 156.949 137.043 157.197 136.875 157.403C136.707 157.611 136.501 157.77 136.257 157.879C136.016 157.99 135.727 158.045 135.391 158.045ZM141.146 156.078C140.93 156.078 140.745 156.002 140.592 155.851C140.438 155.699 140.362 155.515 140.364 155.297C140.362 155.084 140.438 154.902 140.592 154.75C140.745 154.598 140.93 154.523 141.146 154.523C141.354 154.523 141.535 154.598 141.689 154.75C141.845 154.902 141.924 155.084 141.927 155.297C141.924 155.441 141.887 155.573 141.813 155.691C141.742 155.809 141.647 155.904 141.529 155.975C141.413 156.044 141.285 156.078 141.146 156.078ZM141.146 152.186C140.93 152.186 140.745 152.11 140.592 151.959C140.438 151.805 140.362 151.62 140.364 151.405C140.362 151.192 140.438 151.009 140.592 150.858C140.745 150.704 140.93 150.627 141.146 150.627C141.354 150.627 141.535 150.704 141.689 150.858C141.845 151.009 141.924 151.192 141.927 151.405C141.924 151.547 141.887 151.677 141.813 151.795C141.742 151.914 141.647 152.009 141.529 152.08C141.413 152.151 141.285 152.186 141.146 152.186ZM145.85 156.099C145.339 156.099 144.884 156.012 144.486 155.837C144.091 155.661 143.778 155.418 143.549 155.105C143.319 154.793 143.197 154.432 143.183 154.022H144.518C144.53 154.219 144.595 154.39 144.714 154.537C144.832 154.681 144.989 154.794 145.186 154.874C145.382 154.955 145.603 154.995 145.846 154.995C146.107 154.995 146.338 154.95 146.539 154.86C146.74 154.768 146.897 154.64 147.011 154.477C147.125 154.313 147.18 154.125 147.178 153.912C147.18 153.692 147.124 153.498 147.008 153.33C146.892 153.161 146.723 153.03 146.503 152.935C146.286 152.841 146.023 152.793 145.715 152.793H145.072V151.778H145.715C145.968 151.778 146.19 151.734 146.379 151.646C146.571 151.559 146.721 151.436 146.83 151.277C146.939 151.116 146.992 150.93 146.99 150.719C146.992 150.513 146.946 150.335 146.851 150.183C146.759 150.029 146.628 149.91 146.457 149.825C146.289 149.739 146.091 149.697 145.864 149.697C145.642 149.697 145.436 149.737 145.246 149.817C145.057 149.898 144.904 150.013 144.788 150.162C144.672 150.309 144.611 150.484 144.603 150.688H143.336C143.345 150.28 143.462 149.923 143.687 149.615C143.915 149.305 144.218 149.063 144.596 148.891C144.975 148.715 145.4 148.628 145.871 148.628C146.357 148.628 146.778 148.719 147.135 148.901C147.495 149.081 147.773 149.324 147.97 149.629C148.166 149.935 148.265 150.272 148.265 150.641C148.267 151.051 148.146 151.394 147.902 151.671C147.661 151.948 147.344 152.129 146.951 152.214V152.271C147.462 152.342 147.854 152.532 148.126 152.839C148.401 153.145 148.537 153.525 148.535 153.979C148.535 154.387 148.419 154.751 148.187 155.073C147.957 155.393 147.64 155.644 147.235 155.826C146.832 156.008 146.371 156.099 145.85 156.099ZM152.442 156.138C151.857 156.138 151.355 155.991 150.936 155.695C150.519 155.396 150.199 154.967 149.974 154.406C149.751 153.842 149.64 153.164 149.64 152.371C149.642 151.578 149.755 150.903 149.977 150.347C150.202 149.788 150.523 149.362 150.94 149.068C151.359 148.775 151.859 148.628 152.442 148.628C153.024 148.628 153.525 148.775 153.944 149.068C154.363 149.362 154.684 149.788 154.906 150.347C155.131 150.905 155.244 151.58 155.244 152.371C155.244 153.166 155.131 153.846 154.906 154.409C154.684 154.97 154.363 155.399 153.944 155.695C153.527 155.991 153.026 156.138 152.442 156.138ZM152.442 155.027C152.896 155.027 153.255 154.803 153.518 154.356C153.783 153.906 153.915 153.244 153.915 152.371C153.915 151.793 153.855 151.308 153.734 150.915C153.614 150.522 153.443 150.226 153.223 150.027C153.003 149.826 152.742 149.725 152.442 149.725C151.99 149.725 151.632 149.95 151.369 150.4C151.106 150.847 150.974 151.504 150.972 152.371C150.969 152.951 151.027 153.438 151.146 153.834C151.266 154.229 151.437 154.527 151.657 154.729C151.877 154.928 152.139 155.027 152.442 155.027ZM160.312 154.636V154.253C160.312 153.971 160.371 153.712 160.489 153.475C160.61 153.238 160.785 153.048 161.015 152.903C161.245 152.759 161.523 152.687 161.85 152.687C162.186 152.687 162.467 152.759 162.695 152.903C162.922 153.045 163.094 153.235 163.21 153.472C163.328 153.708 163.387 153.969 163.387 154.253V154.636C163.387 154.918 163.328 155.177 163.21 155.414C163.091 155.651 162.917 155.841 162.688 155.986C162.46 156.13 162.181 156.202 161.85 156.202C161.518 156.202 161.238 156.13 161.008 155.986C160.778 155.841 160.604 155.651 160.486 155.414C160.37 155.177 160.312 154.918 160.312 154.636ZM161.239 154.253V154.636C161.239 154.823 161.284 154.995 161.374 155.151C161.464 155.308 161.622 155.386 161.85 155.386C162.079 155.386 162.237 155.309 162.322 155.155C162.409 154.999 162.453 154.826 162.453 154.636V154.253C162.453 154.063 162.412 153.891 162.329 153.734C162.246 153.576 162.086 153.496 161.85 153.496C161.627 153.496 161.47 153.576 161.377 153.734C161.285 153.891 161.239 154.063 161.239 154.253ZM156.615 150.474V150.091C156.615 149.807 156.676 149.546 156.796 149.31C156.917 149.073 157.092 148.884 157.322 148.741C157.551 148.597 157.83 148.525 158.156 148.525C158.49 148.525 158.771 148.597 158.998 148.741C159.228 148.884 159.4 149.073 159.516 149.31C159.632 149.546 159.69 149.807 159.69 150.091V150.474C159.69 150.759 159.631 151.019 159.513 151.256C159.397 151.49 159.224 151.678 158.994 151.82C158.765 151.962 158.485 152.033 158.156 152.033C157.823 152.033 157.541 151.962 157.311 151.82C157.084 151.678 156.911 151.489 156.793 151.252C156.674 151.015 156.615 150.756 156.615 150.474ZM157.549 150.091V150.474C157.549 150.664 157.593 150.837 157.681 150.993C157.77 151.147 157.929 151.224 158.156 151.224C158.384 151.224 158.54 151.147 158.625 150.993C158.713 150.837 158.757 150.664 158.757 150.474V150.091C158.757 149.902 158.715 149.729 158.632 149.572C158.549 149.414 158.391 149.335 158.156 149.335C157.931 149.335 157.774 149.414 157.684 149.572C157.594 149.731 157.549 149.904 157.549 150.091ZM157.02 156L162.02 148.727H162.908L157.908 156H157.02Z" fill="white"/>
<path d="M180.665 61V55.1818H182.847C183.294 55.1818 183.669 55.2652 183.972 55.4318C184.277 55.5985 184.507 55.8277 184.663 56.1193C184.82 56.4091 184.898 56.7386 184.898 57.108C184.898 57.4811 184.82 57.8125 184.663 58.1023C184.505 58.392 184.273 58.6203 183.967 58.7869C183.66 58.9517 183.282 59.0341 182.833 59.0341H181.387V58.1676H182.691C182.952 58.1676 183.166 58.1222 183.333 58.0312C183.5 57.9403 183.623 57.8153 183.702 57.6562C183.784 57.4972 183.825 57.3144 183.825 57.108C183.825 56.9015 183.784 56.7197 183.702 56.5625C183.623 56.4053 183.499 56.2831 183.33 56.196C183.164 56.107 182.949 56.0625 182.685 56.0625H181.719V61H180.665ZM187.638 61.0852C187.2 61.0852 186.822 60.9943 186.504 60.8125C186.188 60.6288 185.945 60.3693 185.774 60.0341C185.604 59.697 185.518 59.3002 185.518 58.8438C185.518 58.3949 185.604 58.0009 185.774 57.6619C185.946 57.321 186.187 57.0559 186.496 56.8665C186.804 56.6752 187.167 56.5795 187.584 56.5795C187.853 56.5795 188.106 56.6231 188.345 56.7102C188.586 56.7955 188.798 56.928 188.981 57.108C189.167 57.2879 189.313 57.517 189.419 57.7955C189.525 58.072 189.578 58.4015 189.578 58.7841V59.0994H186.001V58.4062H188.592C188.59 58.2093 188.548 58.0341 188.464 57.8807C188.381 57.7254 188.265 57.6032 188.115 57.5142C187.967 57.4252 187.795 57.3807 187.598 57.3807C187.388 57.3807 187.203 57.4318 187.044 57.5341C186.885 57.6345 186.761 57.767 186.672 57.9318C186.585 58.0947 186.54 58.2737 186.538 58.4688V59.0739C186.538 59.3277 186.585 59.5455 186.677 59.7273C186.77 59.9072 186.9 60.0455 187.067 60.142C187.233 60.2367 187.428 60.2841 187.652 60.2841C187.802 60.2841 187.937 60.2633 188.058 60.2216C188.179 60.178 188.284 60.1146 188.374 60.0312C188.463 59.9479 188.53 59.8447 188.575 59.7216L189.535 59.8295C189.475 60.0833 189.359 60.3049 189.189 60.4943C189.02 60.6818 188.804 60.8277 188.541 60.9318C188.278 61.0341 187.977 61.0852 187.638 61.0852ZM192.351 61.0852C191.925 61.0852 191.556 60.9915 191.244 60.804C190.931 60.6165 190.689 60.3542 190.516 60.017C190.346 59.6799 190.261 59.286 190.261 58.8352C190.261 58.3845 190.346 57.9896 190.516 57.6506C190.689 57.3116 190.931 57.0483 191.244 56.8608C191.556 56.6733 191.925 56.5795 192.351 56.5795C192.778 56.5795 193.147 56.6733 193.459 56.8608C193.772 57.0483 194.013 57.3116 194.184 57.6506C194.356 57.9896 194.442 58.3845 194.442 58.8352C194.442 59.286 194.356 59.6799 194.184 60.017C194.013 60.3542 193.772 60.6165 193.459 60.804C193.147 60.9915 192.778 61.0852 192.351 61.0852ZM192.357 60.2614C192.588 60.2614 192.781 60.1979 192.937 60.071C193.092 59.9422 193.208 59.7699 193.283 59.554C193.361 59.3381 193.4 59.0975 193.4 58.8324C193.4 58.5653 193.361 58.3239 193.283 58.108C193.208 57.8902 193.092 57.7169 192.937 57.5881C192.781 57.4593 192.588 57.3949 192.357 57.3949C192.12 57.3949 191.923 57.4593 191.766 57.5881C191.611 57.7169 191.494 57.8902 191.417 58.108C191.341 58.3239 191.303 58.5653 191.303 58.8324C191.303 59.0975 191.341 59.3381 191.417 59.554C191.494 59.7699 191.611 59.9422 191.766 60.071C191.923 60.1979 192.12 60.2614 192.357 60.2614ZM195.315 62.6364V56.6364H196.327V57.358H196.386C196.439 57.2519 196.514 57.1392 196.611 57.0199C196.707 56.8987 196.838 56.7955 197.003 56.7102C197.168 56.6231 197.378 56.5795 197.633 56.5795C197.971 56.5795 198.275 56.6657 198.545 56.8381C198.818 57.0085 199.034 57.2614 199.193 57.5966C199.354 57.9299 199.435 58.339 199.435 58.8239C199.435 59.303 199.356 59.7102 199.199 60.0455C199.042 60.3807 198.828 60.6364 198.557 60.8125C198.286 60.9886 197.979 61.0767 197.636 61.0767C197.386 61.0767 197.179 61.035 197.014 60.9517C196.849 60.8684 196.717 60.768 196.616 60.6506C196.518 60.5312 196.441 60.4186 196.386 60.3125H196.344V62.6364H195.315ZM196.324 58.8182C196.324 59.1004 196.364 59.3475 196.443 59.5597C196.525 59.7718 196.641 59.9375 196.793 60.0568C196.946 60.1742 197.132 60.233 197.349 60.233C197.577 60.233 197.767 60.1723 197.92 60.0511C198.074 59.928 198.189 59.7604 198.267 59.5483C198.347 59.3343 198.386 59.0909 198.386 58.8182C198.386 58.5473 198.347 58.3068 198.27 58.0966C198.192 57.8864 198.077 57.7216 197.923 57.6023C197.77 57.483 197.579 57.4233 197.349 57.4233C197.13 57.4233 196.943 57.4811 196.79 57.5966C196.636 57.7121 196.52 57.8741 196.44 58.0824C196.363 58.2907 196.324 58.536 196.324 58.8182ZM201.344 55.1818V61H200.315V55.1818H201.344ZM204.333 61.0852C203.896 61.0852 203.518 60.9943 203.2 60.8125C202.883 60.6288 202.64 60.3693 202.469 60.0341C202.299 59.697 202.214 59.3002 202.214 58.8438C202.214 58.3949 202.299 58.0009 202.469 57.6619C202.642 57.321 202.882 57.0559 203.191 56.8665C203.5 56.6752 203.862 56.5795 204.279 56.5795C204.548 56.5795 204.802 56.6231 205.04 56.7102C205.281 56.7955 205.493 56.928 205.677 57.108C205.862 57.2879 206.008 57.517 206.114 57.7955C206.22 58.072 206.273 58.4015 206.273 58.7841V59.0994H202.697V58.4062H205.288C205.286 58.2093 205.243 58.0341 205.16 57.8807C205.076 57.7254 204.96 57.6032 204.81 57.5142C204.663 57.4252 204.49 57.3807 204.293 57.3807C204.083 57.3807 203.898 57.4318 203.739 57.5341C203.58 57.6345 203.456 57.767 203.367 57.9318C203.28 58.0947 203.235 58.2737 203.234 58.4688V59.0739C203.234 59.3277 203.28 59.5455 203.373 59.7273C203.466 59.9072 203.595 60.0455 203.762 60.142C203.929 60.2367 204.124 60.2841 204.347 60.2841C204.497 60.2841 204.632 60.2633 204.753 60.2216C204.875 60.178 204.98 60.1146 205.069 60.0312C205.158 59.9479 205.225 59.8447 205.271 59.7216L206.231 59.8295C206.17 60.0833 206.055 60.3049 205.884 60.4943C205.716 60.6818 205.5 60.8277 205.236 60.9318C204.973 61.0341 204.672 61.0852 204.333 61.0852ZM206.527 56.0653V55.1818H211.169V56.0653H209.371V61H208.325V56.0653H206.527ZM215.416 56.6364L213.862 61H212.726L211.172 56.6364H212.268L213.271 59.8778H213.317L214.322 56.6364H215.416Z" fill="#D9802E"/>
</svg>
