<svg width="365" height="276" viewBox="0 0 365 276" fill="none" xmlns="http://www.w3.org/2000/svg">
<rect width="365" height="276" fill="#0B0909"/>
<rect x="46" y="36" width="273" height="198" rx="25" fill="white"/>
<rect x="72" y="76" width="183" height="124" rx="25" fill="#FCFCFC"/>
<rect x="59" y="48" width="248" height="179" rx="25" fill="#040404"/>
<rect x="72" y="57" width="182" height="156" rx="25" fill="white"/>
<path d="M80 78C80 72.4772 84.4772 68 90 68H236C241.523 68 246 72.4772 246 78V197C246 202.523 241.523 207 236 207H90C84.4772 207 80 202.523 80 197V78Z" fill="#0B1445"/>
<ellipse cx="278" cy="90.5" rx="7" ry="6.5" fill="#D9D9D9"/>
<ellipse cx="278" cy="116.5" rx="7" ry="6.5" fill="#D9D9D9"/>
<ellipse cx="278" cy="137.5" rx="7" ry="6.5" fill="#D9D9D9"/>
<rect x="261" y="157" width="34" height="7" rx="3.5" fill="#D9D9D9"/>
<rect x="261" y="172" width="34" height="7" rx="3.5" fill="#D9D9D9"/>
<rect x="261" y="187" width="34" height="7" rx="3.5" fill="#D9D9D9"/>
<path d="M99.517 145.981V144.545H107.06V145.981H104.138V154H102.439V145.981H99.517ZM110.552 154.138C109.841 154.138 109.227 153.991 108.71 153.695C108.196 153.397 107.8 152.975 107.523 152.43C107.246 151.883 107.108 151.238 107.108 150.496C107.108 149.767 107.246 149.127 107.523 148.576C107.803 148.022 108.194 147.591 108.696 147.283C109.197 146.972 109.787 146.817 110.464 146.817C110.901 146.817 111.313 146.888 111.701 147.029C112.092 147.168 112.437 147.383 112.735 147.675C113.037 147.968 113.274 148.34 113.446 148.793C113.618 149.242 113.705 149.777 113.705 150.399V150.912H107.892V149.785H112.103C112.1 149.465 112.03 149.18 111.895 148.931C111.76 148.679 111.57 148.48 111.327 148.336C111.087 148.191 110.807 148.119 110.487 148.119C110.145 148.119 109.845 148.202 109.587 148.368C109.328 148.531 109.127 148.746 108.982 149.014C108.84 149.279 108.768 149.57 108.765 149.887V150.87C108.765 151.282 108.84 151.636 108.991 151.932C109.142 152.224 109.353 152.449 109.624 152.606C109.895 152.76 110.211 152.837 110.575 152.837C110.818 152.837 111.038 152.803 111.235 152.735C111.432 152.664 111.603 152.561 111.747 152.426C111.892 152.29 112.001 152.123 112.075 151.923L113.635 152.098C113.537 152.51 113.349 152.871 113.072 153.178C112.798 153.483 112.447 153.72 112.02 153.889C111.592 154.055 111.102 154.138 110.552 154.138ZM118.211 154.138C117.504 154.138 116.896 153.983 116.388 153.672C115.883 153.361 115.494 152.932 115.22 152.384C114.949 151.833 114.814 151.199 114.814 150.482C114.814 149.762 114.952 149.127 115.229 148.576C115.506 148.022 115.897 147.591 116.402 147.283C116.91 146.972 117.51 146.817 118.202 146.817C118.778 146.817 119.287 146.923 119.73 147.135C120.177 147.345 120.532 147.642 120.797 148.026C121.061 148.408 121.212 148.854 121.249 149.365H119.652C119.587 149.023 119.433 148.739 119.19 148.511C118.95 148.28 118.628 148.165 118.225 148.165C117.884 148.165 117.584 148.257 117.325 148.442C117.067 148.623 116.865 148.885 116.72 149.227C116.579 149.568 116.508 149.978 116.508 150.455C116.508 150.938 116.579 151.353 116.72 151.701C116.862 152.046 117.06 152.312 117.316 152.5C117.574 152.684 117.878 152.777 118.225 152.777C118.472 152.777 118.692 152.73 118.885 152.638C119.082 152.543 119.247 152.406 119.379 152.227C119.512 152.049 119.603 151.832 119.652 151.576H121.249C121.209 152.078 121.061 152.523 120.806 152.911C120.55 153.295 120.203 153.597 119.763 153.815C119.323 154.031 118.805 154.138 118.211 154.138ZM124.293 149.845V154H122.621V144.545H124.256V148.114H124.339C124.505 147.714 124.762 147.398 125.11 147.168C125.46 146.934 125.907 146.817 126.448 146.817C126.941 146.817 127.37 146.92 127.736 147.126C128.103 147.332 128.386 147.634 128.586 148.031C128.789 148.428 128.891 148.913 128.891 149.485V154H127.219V149.744C127.219 149.267 127.096 148.896 126.85 148.631C126.607 148.363 126.265 148.229 125.825 148.229C125.53 148.229 125.265 148.294 125.031 148.423C124.8 148.549 124.619 148.733 124.486 148.973C124.357 149.213 124.293 149.504 124.293 149.845ZM132.265 149.845V154H130.594V146.909H132.191V148.114H132.274C132.438 147.717 132.698 147.402 133.055 147.168C133.415 146.934 133.859 146.817 134.389 146.817C134.878 146.817 135.304 146.921 135.668 147.131C136.034 147.34 136.317 147.643 136.517 148.04C136.72 148.437 136.82 148.919 136.817 149.485V154H135.146V149.744C135.146 149.27 135.023 148.899 134.777 148.631C134.533 148.363 134.196 148.229 133.766 148.229C133.473 148.229 133.213 148.294 132.985 148.423C132.761 148.549 132.584 148.733 132.454 148.973C132.328 149.213 132.265 149.504 132.265 149.845ZM141.609 154.138C140.916 154.138 140.316 153.986 139.809 153.681C139.301 153.377 138.907 152.951 138.627 152.403C138.35 151.855 138.211 151.215 138.211 150.482C138.211 149.75 138.35 149.108 138.627 148.557C138.907 148.006 139.301 147.578 139.809 147.274C140.316 146.969 140.916 146.817 141.609 146.817C142.301 146.817 142.902 146.969 143.409 147.274C143.917 147.578 144.31 148.006 144.587 148.557C144.867 149.108 145.007 149.75 145.007 150.482C145.007 151.215 144.867 151.855 144.587 152.403C144.31 152.951 143.917 153.377 143.409 153.681C142.902 153.986 142.301 154.138 141.609 154.138ZM141.618 152.8C141.994 152.8 142.308 152.697 142.56 152.49C142.812 152.281 143 152.001 143.123 151.65C143.249 151.299 143.312 150.908 143.312 150.478C143.312 150.044 143.249 149.651 143.123 149.3C143 148.946 142.812 148.665 142.56 148.456C142.308 148.246 141.994 148.142 141.618 148.142C141.233 148.142 140.913 148.246 140.658 148.456C140.406 148.665 140.216 148.946 140.09 149.3C139.967 149.651 139.905 150.044 139.905 150.478C139.905 150.908 139.967 151.299 140.09 151.65C140.216 152.001 140.406 152.281 140.658 152.49C140.913 152.697 141.233 152.8 141.618 152.8ZM148.096 144.545V154H146.425V144.545H148.096ZM152.908 154.138C152.215 154.138 151.615 153.986 151.107 153.681C150.6 153.377 150.206 152.951 149.926 152.403C149.649 151.855 149.51 151.215 149.51 150.482C149.51 149.75 149.649 149.108 149.926 148.557C150.206 148.006 150.6 147.578 151.107 147.274C151.615 146.969 152.215 146.817 152.908 146.817C153.6 146.817 154.2 146.969 154.708 147.274C155.216 147.578 155.608 148.006 155.885 148.557C156.165 149.108 156.305 149.75 156.305 150.482C156.305 151.215 156.165 151.855 155.885 152.403C155.608 152.951 155.216 153.377 154.708 153.681C154.2 153.986 153.6 154.138 152.908 154.138ZM152.917 152.8C153.292 152.8 153.606 152.697 153.859 152.49C154.111 152.281 154.299 152.001 154.422 151.65C154.548 151.299 154.611 150.908 154.611 150.478C154.611 150.044 154.548 149.651 154.422 149.3C154.299 148.946 154.111 148.665 153.859 148.456C153.606 148.246 153.292 148.142 152.917 148.142C152.532 148.142 152.212 148.246 151.957 148.456C151.704 148.665 151.515 148.946 151.389 149.3C151.266 149.651 151.204 150.044 151.204 150.478C151.204 150.908 151.266 151.299 151.389 151.65C151.515 152.001 151.704 152.281 151.957 152.49C152.212 152.697 152.532 152.8 152.917 152.8ZM160.808 156.807C160.208 156.807 159.692 156.725 159.261 156.562C158.83 156.402 158.484 156.187 158.222 155.916C157.961 155.645 157.779 155.345 157.678 155.016L159.183 154.651C159.25 154.789 159.349 154.926 159.478 155.062C159.607 155.2 159.781 155.314 160 155.403C160.221 155.496 160.5 155.542 160.835 155.542C161.309 155.542 161.702 155.426 162.013 155.196C162.323 154.968 162.479 154.592 162.479 154.069V152.726H162.396C162.31 152.898 162.183 153.075 162.017 153.257C161.854 153.438 161.637 153.591 161.366 153.714C161.099 153.837 160.762 153.898 160.355 153.898C159.811 153.898 159.317 153.771 158.873 153.515C158.433 153.257 158.082 152.872 157.821 152.361C157.562 151.847 157.433 151.204 157.433 150.431C157.433 149.653 157.562 148.996 157.821 148.46C158.082 147.922 158.435 147.514 158.878 147.237C159.321 146.957 159.815 146.817 160.36 146.817C160.775 146.817 161.117 146.888 161.385 147.029C161.656 147.168 161.871 147.335 162.031 147.532C162.191 147.726 162.313 147.909 162.396 148.082H162.488V146.909H164.136V154.115C164.136 154.722 163.992 155.223 163.702 155.62C163.413 156.017 163.017 156.314 162.516 156.511C162.014 156.708 161.445 156.807 160.808 156.807ZM160.822 152.587C161.175 152.587 161.477 152.501 161.726 152.329C161.976 152.156 162.165 151.909 162.294 151.586C162.423 151.262 162.488 150.875 162.488 150.422C162.488 149.976 162.423 149.585 162.294 149.25C162.168 148.914 161.98 148.654 161.731 148.469C161.485 148.282 161.182 148.188 160.822 148.188C160.449 148.188 160.138 148.285 159.889 148.479C159.64 148.673 159.452 148.939 159.326 149.277C159.2 149.613 159.137 149.994 159.137 150.422C159.137 150.856 159.2 151.236 159.326 151.562C159.455 151.886 159.644 152.138 159.894 152.32C160.146 152.498 160.455 152.587 160.822 152.587ZM165.849 154V146.909H167.52V154H165.849ZM166.689 145.903C166.424 145.903 166.197 145.815 166.006 145.64C165.815 145.461 165.72 145.247 165.72 144.998C165.72 144.746 165.815 144.532 166.006 144.356C166.197 144.178 166.424 144.088 166.689 144.088C166.957 144.088 167.185 144.178 167.372 144.356C167.563 144.532 167.659 144.746 167.659 144.998C167.659 145.247 167.563 145.461 167.372 145.64C167.185 145.815 166.957 145.903 166.689 145.903ZM172.332 154.138C171.624 154.138 171.016 153.983 170.508 153.672C170.003 153.361 169.614 152.932 169.34 152.384C169.069 151.833 168.934 151.199 168.934 150.482C168.934 149.762 169.072 149.127 169.349 148.576C169.626 148.022 170.017 147.591 170.522 147.283C171.03 146.972 171.63 146.817 172.322 146.817C172.898 146.817 173.407 146.923 173.85 147.135C174.297 147.345 174.652 147.642 174.917 148.026C175.181 148.408 175.332 148.854 175.369 149.365H173.772C173.707 149.023 173.553 148.739 173.31 148.511C173.07 148.28 172.749 148.165 172.345 148.165C172.004 148.165 171.704 148.257 171.445 148.442C171.187 148.623 170.985 148.885 170.84 149.227C170.699 149.568 170.628 149.978 170.628 150.455C170.628 150.938 170.699 151.353 170.84 151.701C170.982 152.046 171.181 152.312 171.436 152.5C171.695 152.684 171.998 152.777 172.345 152.777C172.592 152.777 172.812 152.73 173.006 152.638C173.203 152.543 173.367 152.406 173.5 152.227C173.632 152.049 173.723 151.832 173.772 151.576H175.369C175.329 152.078 175.181 152.523 174.926 152.911C174.671 153.295 174.323 153.597 173.883 153.815C173.443 154.031 172.926 154.138 172.332 154.138ZM178.782 154.143C178.333 154.143 177.928 154.063 177.568 153.903C177.211 153.74 176.928 153.5 176.718 153.183C176.512 152.866 176.409 152.475 176.409 152.01C176.409 151.61 176.483 151.279 176.631 151.018C176.778 150.756 176.98 150.547 177.235 150.39C177.491 150.233 177.779 150.114 178.099 150.034C178.422 149.951 178.756 149.891 179.1 149.854C179.516 149.811 179.853 149.773 180.112 149.739C180.37 149.702 180.558 149.647 180.675 149.573C180.795 149.496 180.855 149.377 180.855 149.217V149.19C180.855 148.842 180.752 148.573 180.545 148.382C180.339 148.191 180.042 148.096 179.654 148.096C179.245 148.096 178.92 148.185 178.68 148.363C178.443 148.542 178.283 148.753 178.2 148.996L176.64 148.774C176.763 148.343 176.966 147.983 177.249 147.694C177.532 147.402 177.879 147.183 178.288 147.038C178.697 146.891 179.15 146.817 179.645 146.817C179.987 146.817 180.327 146.857 180.665 146.937C181.004 147.017 181.313 147.149 181.593 147.334C181.873 147.515 182.098 147.763 182.267 148.077C182.44 148.391 182.526 148.783 182.526 149.254V154H180.919V153.026H180.864C180.762 153.223 180.619 153.408 180.435 153.58C180.253 153.749 180.024 153.886 179.747 153.991C179.473 154.092 179.151 154.143 178.782 154.143ZM179.216 152.915C179.551 152.915 179.842 152.849 180.088 152.717C180.335 152.581 180.524 152.403 180.656 152.181C180.792 151.96 180.859 151.718 180.859 151.456V150.621C180.807 150.664 180.718 150.704 180.592 150.741C180.469 150.778 180.33 150.81 180.176 150.838C180.022 150.865 179.87 150.89 179.719 150.912C179.568 150.933 179.438 150.952 179.327 150.967C179.077 151.001 178.854 151.056 178.657 151.133C178.46 151.21 178.305 151.318 178.191 151.456C178.077 151.592 178.02 151.767 178.02 151.983C178.02 152.29 178.133 152.523 178.357 152.68C178.582 152.837 178.868 152.915 179.216 152.915ZM185.877 144.545V154H184.206V144.545H185.877ZM190.894 154V144.545H194.44C195.166 144.545 195.776 144.681 196.268 144.952C196.764 145.223 197.137 145.595 197.39 146.069C197.645 146.54 197.773 147.075 197.773 147.675C197.773 148.282 197.645 148.82 197.39 149.291C197.134 149.762 196.757 150.133 196.259 150.404C195.76 150.672 195.146 150.805 194.417 150.805H192.067V149.397H194.186C194.611 149.397 194.958 149.324 195.229 149.176C195.5 149.028 195.7 148.825 195.829 148.566C195.962 148.308 196.028 148.011 196.028 147.675C196.028 147.34 195.962 147.045 195.829 146.789C195.7 146.534 195.499 146.335 195.225 146.194C194.954 146.049 194.605 145.977 194.177 145.977H192.607V154H190.894ZM201.1 154.143C200.651 154.143 200.246 154.063 199.886 153.903C199.529 153.74 199.246 153.5 199.037 153.183C198.831 152.866 198.727 152.475 198.727 152.01C198.727 151.61 198.801 151.279 198.949 151.018C199.097 150.756 199.298 150.547 199.554 150.39C199.809 150.233 200.097 150.114 200.417 150.034C200.74 149.951 201.074 149.891 201.419 149.854C201.834 149.811 202.171 149.773 202.43 149.739C202.688 149.702 202.876 149.647 202.993 149.573C203.113 149.496 203.173 149.377 203.173 149.217V149.19C203.173 148.842 203.07 148.573 202.864 148.382C202.658 148.191 202.361 148.096 201.973 148.096C201.564 148.096 201.239 148.185 200.999 148.363C200.762 148.542 200.602 148.753 200.519 148.996L198.958 148.774C199.081 148.343 199.285 147.983 199.568 147.694C199.851 147.402 200.197 147.183 200.606 147.038C201.016 146.891 201.468 146.817 201.964 146.817C202.305 146.817 202.645 146.857 202.984 146.937C203.322 147.017 203.632 147.149 203.912 147.334C204.192 147.515 204.416 147.763 204.586 148.077C204.758 148.391 204.844 148.783 204.844 149.254V154H203.238V153.026H203.182C203.081 153.223 202.938 153.408 202.753 153.58C202.571 153.749 202.342 153.886 202.065 153.991C201.791 154.092 201.47 154.143 201.1 154.143ZM201.534 152.915C201.87 152.915 202.161 152.849 202.407 152.717C202.653 152.581 202.842 152.403 202.975 152.181C203.11 151.96 203.178 151.718 203.178 151.456V150.621C203.125 150.664 203.036 150.704 202.91 150.741C202.787 150.778 202.648 150.81 202.494 150.838C202.341 150.865 202.188 150.89 202.037 150.912C201.887 150.933 201.756 150.952 201.645 150.967C201.396 151.001 201.173 151.056 200.976 151.133C200.779 151.21 200.623 151.318 200.509 151.456C200.396 151.592 200.339 151.767 200.339 151.983C200.339 152.29 200.451 152.523 200.676 152.68C200.9 152.837 201.186 152.915 201.534 152.915ZM206.525 154V146.909H208.145V148.091H208.219C208.348 147.682 208.57 147.366 208.884 147.145C209.201 146.92 209.562 146.808 209.969 146.808C210.061 146.808 210.164 146.812 210.278 146.821C210.395 146.828 210.492 146.838 210.569 146.854V148.391C210.498 148.366 210.386 148.345 210.232 148.326C210.081 148.305 209.935 148.294 209.793 148.294C209.488 148.294 209.215 148.36 208.971 148.493C208.731 148.622 208.542 148.802 208.404 149.033C208.265 149.263 208.196 149.53 208.196 149.831V154H206.525ZM215.601 146.909V148.202H211.524V146.909H215.601ZM212.531 145.21H214.202V151.867C214.202 152.092 214.236 152.264 214.303 152.384C214.374 152.501 214.467 152.581 214.58 152.624C214.694 152.667 214.82 152.689 214.959 152.689C215.064 152.689 215.159 152.681 215.245 152.666C215.334 152.65 215.402 152.637 215.448 152.624L215.73 153.931C215.641 153.962 215.513 153.995 215.347 154.032C215.184 154.069 214.984 154.091 214.747 154.097C214.328 154.109 213.951 154.046 213.616 153.908C213.28 153.766 213.014 153.548 212.817 153.252C212.623 152.957 212.528 152.587 212.531 152.144V145.21ZM218.037 156.659C217.809 156.659 217.598 156.641 217.405 156.604C217.214 156.57 217.061 156.53 216.948 156.484L217.335 155.182C217.578 155.253 217.795 155.286 217.986 155.283C218.177 155.28 218.345 155.22 218.489 155.103C218.637 154.989 218.762 154.799 218.863 154.531L219.006 154.148L216.435 146.909H218.208L219.842 152.264H219.916L221.555 146.909H223.332L220.493 154.859C220.361 155.234 220.185 155.556 219.967 155.824C219.748 156.094 219.48 156.301 219.163 156.442C218.85 156.587 218.474 156.659 218.037 156.659Z" fill="white"/>
<path d="M91.1974 163.545L93.658 170.987H93.755L96.2109 163.545H98.0945L94.7614 173H92.647L89.3185 163.545H91.1974ZM101.597 173.138C100.905 173.138 100.305 172.986 99.7968 172.681C99.289 172.377 98.895 171.951 98.615 171.403C98.338 170.855 98.1995 170.215 98.1995 169.482C98.1995 168.75 98.338 168.108 98.615 167.557C98.895 167.006 99.289 166.578 99.7968 166.274C100.305 165.969 100.905 165.817 101.597 165.817C102.29 165.817 102.89 165.969 103.398 166.274C103.905 166.578 104.298 167.006 104.575 167.557C104.855 168.108 104.995 168.75 104.995 169.482C104.995 170.215 104.855 170.855 104.575 171.403C104.298 171.951 103.905 172.377 103.398 172.681C102.89 172.986 102.29 173.138 101.597 173.138ZM101.606 171.8C101.982 171.8 102.296 171.697 102.548 171.49C102.801 171.281 102.988 171.001 103.111 170.65C103.238 170.299 103.301 169.908 103.301 169.478C103.301 169.044 103.238 168.651 103.111 168.3C102.988 167.946 102.801 167.665 102.548 167.456C102.296 167.246 101.982 167.142 101.606 167.142C101.222 167.142 100.902 167.246 100.646 167.456C100.394 167.665 100.205 167.946 100.078 168.3C99.9553 168.651 99.8937 169.044 99.8937 169.478C99.8937 169.908 99.9553 170.299 100.078 170.65C100.205 171.001 100.394 171.281 100.646 171.49C100.902 171.697 101.222 171.8 101.606 171.8ZM109.954 165.909V167.202H105.878V165.909H109.954ZM106.884 164.21H108.555V170.867C108.555 171.092 108.589 171.264 108.657 171.384C108.728 171.501 108.82 171.581 108.934 171.624C109.048 171.667 109.174 171.689 109.312 171.689C109.417 171.689 109.513 171.681 109.599 171.666C109.688 171.65 109.756 171.637 109.802 171.624L110.083 172.931C109.994 172.962 109.866 172.995 109.7 173.032C109.537 173.069 109.337 173.091 109.1 173.097C108.682 173.109 108.305 173.046 107.969 172.908C107.634 172.766 107.367 172.548 107.17 172.252C106.977 171.957 106.881 171.587 106.884 171.144V164.21ZM114.415 173.138C113.704 173.138 113.09 172.991 112.573 172.695C112.059 172.397 111.663 171.975 111.386 171.43C111.109 170.883 110.971 170.238 110.971 169.496C110.971 168.767 111.109 168.127 111.386 167.576C111.667 167.022 112.057 166.591 112.559 166.283C113.061 165.972 113.65 165.817 114.327 165.817C114.764 165.817 115.177 165.888 115.564 166.029C115.955 166.168 116.3 166.383 116.598 166.675C116.9 166.968 117.137 167.34 117.309 167.793C117.482 168.242 117.568 168.777 117.568 169.399V169.912H111.756V168.785H115.966C115.963 168.465 115.894 168.18 115.758 167.931C115.623 167.679 115.434 167.48 115.19 167.336C114.95 167.191 114.67 167.119 114.35 167.119C114.009 167.119 113.709 167.202 113.45 167.368C113.191 167.531 112.99 167.746 112.845 168.014C112.704 168.279 112.631 168.57 112.628 168.887V169.87C112.628 170.282 112.704 170.636 112.854 170.932C113.005 171.224 113.216 171.449 113.487 171.606C113.758 171.76 114.075 171.837 114.438 171.837C114.681 171.837 114.901 171.803 115.098 171.735C115.295 171.664 115.466 171.561 115.611 171.426C115.755 171.29 115.864 171.123 115.938 170.923L117.499 171.098C117.4 171.51 117.212 171.871 116.935 172.178C116.662 172.483 116.311 172.72 115.883 172.889C115.455 173.055 114.966 173.138 114.415 173.138ZM122.28 173V163.545H125.826C126.552 163.545 127.161 163.681 127.654 163.952C128.149 164.223 128.523 164.595 128.776 165.069C129.031 165.54 129.159 166.075 129.159 166.675C129.159 167.282 129.031 167.82 128.776 168.291C128.52 168.762 128.143 169.133 127.645 169.404C127.146 169.672 126.532 169.805 125.803 169.805H123.453V168.397H125.572C125.996 168.397 126.344 168.324 126.615 168.176C126.886 168.028 127.086 167.825 127.215 167.566C127.348 167.308 127.414 167.011 127.414 166.675C127.414 166.34 127.348 166.045 127.215 165.789C127.086 165.534 126.884 165.335 126.61 165.194C126.34 165.049 125.99 164.977 125.562 164.977H123.993V173H122.28ZM133.61 173.138C132.899 173.138 132.285 172.991 131.768 172.695C131.254 172.397 130.859 171.975 130.582 171.43C130.305 170.883 130.166 170.238 130.166 169.496C130.166 168.767 130.305 168.127 130.582 167.576C130.862 167.022 131.253 166.591 131.754 166.283C132.256 165.972 132.845 165.817 133.522 165.817C133.959 165.817 134.372 165.888 134.76 166.029C135.151 166.168 135.495 166.383 135.794 166.675C136.095 166.968 136.332 167.34 136.505 167.793C136.677 168.242 136.763 168.777 136.763 169.399V169.912H130.951V168.785H135.161C135.158 168.465 135.089 168.18 134.954 167.931C134.818 167.679 134.629 167.48 134.386 167.336C134.146 167.191 133.866 167.119 133.546 167.119C133.204 167.119 132.904 167.202 132.645 167.368C132.387 167.531 132.185 167.746 132.041 168.014C131.899 168.279 131.827 168.57 131.824 168.887V169.87C131.824 170.282 131.899 170.636 132.05 170.932C132.201 171.224 132.411 171.449 132.682 171.606C132.953 171.76 133.27 171.837 133.633 171.837C133.876 171.837 134.096 171.803 134.293 171.735C134.49 171.664 134.661 171.561 134.806 171.426C134.95 171.29 135.06 171.123 135.134 170.923L136.694 171.098C136.595 171.51 136.408 171.871 136.131 172.178C135.857 172.483 135.506 172.72 135.078 172.889C134.65 173.055 134.161 173.138 133.61 173.138ZM138.177 173V165.909H139.797V167.091H139.871C140.001 166.682 140.222 166.366 140.536 166.145C140.853 165.92 141.215 165.808 141.621 165.808C141.713 165.808 141.816 165.812 141.93 165.821C142.047 165.828 142.144 165.838 142.221 165.854V167.391C142.15 167.366 142.038 167.345 141.884 167.326C141.733 167.305 141.587 167.294 141.445 167.294C141.141 167.294 140.867 167.36 140.624 167.493C140.384 167.622 140.194 167.802 140.056 168.033C139.917 168.263 139.848 168.53 139.848 168.831V173H138.177ZM146.132 173.138C145.425 173.138 144.817 172.983 144.309 172.672C143.804 172.361 143.415 171.932 143.141 171.384C142.87 170.833 142.735 170.199 142.735 169.482C142.735 168.762 142.873 168.127 143.15 167.576C143.427 167.022 143.818 166.591 144.323 166.283C144.831 165.972 145.431 165.817 146.123 165.817C146.699 165.817 147.208 165.923 147.651 166.135C148.097 166.345 148.453 166.642 148.718 167.026C148.982 167.408 149.133 167.854 149.17 168.365H147.573C147.508 168.023 147.354 167.739 147.111 167.511C146.871 167.28 146.549 167.165 146.146 167.165C145.805 167.165 145.505 167.257 145.246 167.442C144.987 167.623 144.786 167.885 144.641 168.227C144.5 168.568 144.429 168.978 144.429 169.455C144.429 169.938 144.5 170.353 144.641 170.701C144.783 171.046 144.981 171.312 145.237 171.5C145.495 171.684 145.798 171.777 146.146 171.777C146.392 171.777 146.612 171.73 146.806 171.638C147.003 171.543 147.168 171.406 147.3 171.227C147.433 171.049 147.523 170.832 147.573 170.576H149.17C149.13 171.078 148.982 171.523 148.727 171.911C148.471 172.295 148.124 172.597 147.684 172.815C147.243 173.031 146.726 173.138 146.132 173.138ZM153.681 173.138C152.971 173.138 152.357 172.991 151.839 172.695C151.326 172.397 150.93 171.975 150.653 171.43C150.376 170.883 150.238 170.238 150.238 169.496C150.238 168.767 150.376 168.127 150.653 167.576C150.933 167.022 151.324 166.591 151.826 166.283C152.327 165.972 152.917 165.817 153.594 165.817C154.031 165.817 154.443 165.888 154.831 166.029C155.222 166.168 155.567 166.383 155.865 166.675C156.167 166.968 156.404 167.34 156.576 167.793C156.748 168.242 156.835 168.777 156.835 169.399V169.912H151.022V168.785H155.233C155.23 168.465 155.16 168.18 155.025 167.931C154.889 167.679 154.7 167.48 154.457 167.336C154.217 167.191 153.937 167.119 153.617 167.119C153.275 167.119 152.975 167.202 152.717 167.368C152.458 167.531 152.257 167.746 152.112 168.014C151.97 168.279 151.898 168.57 151.895 168.887V169.87C151.895 170.282 151.97 170.636 152.121 170.932C152.272 171.224 152.483 171.449 152.754 171.606C153.024 171.76 153.341 171.837 153.705 171.837C153.948 171.837 154.168 171.803 154.365 171.735C154.562 171.664 154.732 171.561 154.877 171.426C155.022 171.29 155.131 171.123 155.205 170.923L156.765 171.098C156.667 171.51 156.479 171.871 156.202 172.178C155.928 172.483 155.577 172.72 155.15 172.889C154.722 173.055 154.232 173.138 153.681 173.138ZM159.919 168.845V173H158.248V165.909H159.846V167.114H159.929C160.092 166.717 160.352 166.402 160.709 166.168C161.069 165.934 161.514 165.817 162.043 165.817C162.532 165.817 162.959 165.921 163.322 166.131C163.688 166.34 163.971 166.643 164.171 167.04C164.374 167.437 164.474 167.919 164.471 168.485V173H162.8V168.744C162.8 168.27 162.677 167.899 162.431 167.631C162.188 167.363 161.851 167.229 161.42 167.229C161.127 167.229 160.867 167.294 160.64 167.423C160.415 167.549 160.238 167.733 160.109 167.973C159.983 168.213 159.919 168.504 159.919 168.845ZM169.711 165.909V167.202H165.635V165.909H169.711ZM166.641 164.21H168.312V170.867C168.312 171.092 168.346 171.264 168.414 171.384C168.485 171.501 168.577 171.581 168.691 171.624C168.805 171.667 168.931 171.689 169.069 171.689C169.174 171.689 169.269 171.681 169.356 171.666C169.445 171.65 169.513 171.637 169.559 171.624L169.84 172.931C169.751 172.962 169.623 172.995 169.457 173.032C169.294 173.069 169.094 173.091 168.857 173.097C168.438 173.109 168.061 173.046 167.726 172.908C167.39 172.766 167.124 172.548 166.927 172.252C166.733 171.957 166.638 171.587 166.641 171.144V164.21ZM173.149 173.143C172.7 173.143 172.295 173.063 171.935 172.903C171.578 172.74 171.295 172.5 171.086 172.183C170.879 171.866 170.776 171.475 170.776 171.01C170.776 170.61 170.85 170.279 170.998 170.018C171.146 169.756 171.347 169.547 171.603 169.39C171.858 169.233 172.146 169.114 172.466 169.034C172.789 168.951 173.123 168.891 173.468 168.854C173.883 168.811 174.22 168.773 174.479 168.739C174.737 168.702 174.925 168.647 175.042 168.573C175.162 168.496 175.222 168.377 175.222 168.217V168.19C175.222 167.842 175.119 167.573 174.913 167.382C174.706 167.191 174.409 167.096 174.022 167.096C173.612 167.096 173.288 167.185 173.048 167.363C172.811 167.542 172.651 167.753 172.567 167.996L171.007 167.774C171.13 167.343 171.333 166.983 171.616 166.694C171.9 166.402 172.246 166.183 172.655 166.038C173.065 165.891 173.517 165.817 174.012 165.817C174.354 165.817 174.694 165.857 175.033 165.937C175.371 166.017 175.681 166.149 175.961 166.334C176.241 166.515 176.465 166.763 176.635 167.077C176.807 167.391 176.893 167.783 176.893 168.254V173H175.287V172.026H175.231C175.13 172.223 174.987 172.408 174.802 172.58C174.62 172.749 174.391 172.886 174.114 172.991C173.84 173.092 173.518 173.143 173.149 173.143ZM173.583 171.915C173.919 171.915 174.209 171.849 174.456 171.717C174.702 171.581 174.891 171.403 175.023 171.181C175.159 170.96 175.227 170.718 175.227 170.456V169.621C175.174 169.664 175.085 169.704 174.959 169.741C174.836 169.778 174.697 169.81 174.543 169.838C174.389 169.865 174.237 169.89 174.086 169.912C173.935 169.933 173.805 169.952 173.694 169.967C173.445 170.001 173.221 170.056 173.025 170.133C172.828 170.21 172.672 170.318 172.558 170.456C172.444 170.592 172.387 170.767 172.387 170.983C172.387 171.29 172.5 171.523 172.724 171.68C172.949 171.837 173.235 171.915 173.583 171.915ZM181.657 175.807C181.057 175.807 180.542 175.725 180.111 175.562C179.68 175.402 179.334 175.187 179.072 174.916C178.81 174.645 178.629 174.345 178.527 174.016L180.032 173.651C180.1 173.789 180.199 173.926 180.328 174.062C180.457 174.2 180.631 174.314 180.849 174.403C181.071 174.496 181.35 174.542 181.685 174.542C182.159 174.542 182.551 174.426 182.862 174.196C183.173 173.968 183.328 173.592 183.328 173.069V171.726H183.245C183.159 171.898 183.033 172.075 182.867 172.257C182.704 172.438 182.487 172.591 182.216 172.714C181.948 172.837 181.611 172.898 181.205 172.898C180.66 172.898 180.166 172.771 179.723 172.515C179.283 172.257 178.932 171.872 178.67 171.361C178.412 170.847 178.283 170.204 178.283 169.431C178.283 168.653 178.412 167.996 178.67 167.46C178.932 166.922 179.284 166.514 179.728 166.237C180.171 165.957 180.665 165.817 181.21 165.817C181.625 165.817 181.967 165.888 182.234 166.029C182.505 166.168 182.721 166.335 182.881 166.532C183.041 166.726 183.162 166.909 183.245 167.082H183.338V165.909H184.986V173.115C184.986 173.722 184.841 174.223 184.552 174.62C184.263 175.017 183.867 175.314 183.365 175.511C182.864 175.708 182.294 175.807 181.657 175.807ZM181.671 171.587C182.025 171.587 182.327 171.501 182.576 171.329C182.825 171.156 183.015 170.909 183.144 170.586C183.273 170.262 183.338 169.875 183.338 169.422C183.338 168.976 183.273 168.585 183.144 168.25C183.018 167.914 182.83 167.654 182.581 167.469C182.334 167.282 182.031 167.188 181.671 167.188C181.299 167.188 180.988 167.285 180.739 167.479C180.489 167.673 180.302 167.939 180.175 168.277C180.049 168.613 179.986 168.994 179.986 169.422C179.986 169.856 180.049 170.236 180.175 170.562C180.305 170.886 180.494 171.138 180.743 171.32C180.996 171.498 181.305 171.587 181.671 171.587ZM189.838 173.138C189.127 173.138 188.513 172.991 187.996 172.695C187.482 172.397 187.086 171.975 186.809 171.43C186.532 170.883 186.394 170.238 186.394 169.496C186.394 168.767 186.532 168.127 186.809 167.576C187.089 167.022 187.48 166.591 187.982 166.283C188.484 165.972 189.073 165.817 189.75 165.817C190.187 165.817 190.599 165.888 190.987 166.029C191.378 166.168 191.723 166.383 192.021 166.675C192.323 166.968 192.56 167.34 192.732 167.793C192.905 168.242 192.991 168.777 192.991 169.399V169.912H187.179V168.785H191.389C191.386 168.465 191.317 168.18 191.181 167.931C191.046 167.679 190.856 167.48 190.613 167.336C190.373 167.191 190.093 167.119 189.773 167.119C189.431 167.119 189.131 167.202 188.873 167.368C188.614 167.531 188.413 167.746 188.268 168.014C188.127 168.279 188.054 168.57 188.051 168.887V169.87C188.051 170.282 188.127 170.636 188.277 170.932C188.428 171.224 188.639 171.449 188.91 171.606C189.181 171.76 189.498 171.837 189.861 171.837C190.104 171.837 190.324 171.803 190.521 171.735C190.718 171.664 190.889 171.561 191.033 171.426C191.178 171.29 191.287 171.123 191.361 170.923L192.922 171.098C192.823 171.51 192.635 171.871 192.358 172.178C192.084 172.483 191.734 172.72 191.306 172.889C190.878 173.055 190.389 173.138 189.838 173.138ZM195.434 173.102C195.154 173.102 194.914 173.003 194.714 172.806C194.514 172.609 194.415 172.369 194.418 172.086C194.415 171.809 194.514 171.572 194.714 171.375C194.914 171.178 195.154 171.08 195.434 171.08C195.705 171.08 195.94 171.178 196.14 171.375C196.343 171.572 196.447 171.809 196.45 172.086C196.447 172.274 196.397 172.444 196.302 172.598C196.21 172.752 196.086 172.875 195.933 172.968C195.782 173.057 195.616 173.102 195.434 173.102ZM195.434 168.042C195.154 168.042 194.914 167.943 194.714 167.746C194.514 167.546 194.415 167.306 194.418 167.026C194.415 166.749 194.514 166.512 194.714 166.315C194.914 166.115 195.154 166.015 195.434 166.015C195.705 166.015 195.94 166.115 196.14 166.315C196.343 166.512 196.447 166.749 196.45 167.026C196.447 167.211 196.397 167.38 196.302 167.534C196.21 167.688 196.086 167.811 195.933 167.903C195.782 167.996 195.616 168.042 195.434 168.042ZM204.668 173.129C204.053 173.129 203.502 173.014 203.015 172.783C202.529 172.549 202.143 172.229 201.857 171.823C201.574 171.417 201.423 170.952 201.404 170.429H203.066C203.097 170.816 203.265 171.133 203.569 171.38C203.874 171.623 204.24 171.744 204.668 171.744C205.004 171.744 205.302 171.667 205.564 171.513C205.825 171.36 206.032 171.146 206.182 170.872C206.333 170.598 206.407 170.286 206.404 169.935C206.407 169.578 206.332 169.261 206.178 168.984C206.024 168.707 205.813 168.49 205.545 168.333C205.278 168.173 204.97 168.093 204.622 168.093C204.339 168.09 204.06 168.142 203.786 168.25C203.512 168.357 203.296 168.499 203.135 168.674L201.589 168.42L202.083 163.545H207.567V164.977H203.5L203.228 167.483H203.283C203.459 167.277 203.706 167.106 204.026 166.971C204.347 166.832 204.697 166.763 205.079 166.763C205.651 166.763 206.162 166.899 206.612 167.169C207.061 167.437 207.415 167.806 207.673 168.277C207.932 168.748 208.061 169.287 208.061 169.893C208.061 170.518 207.917 171.075 207.627 171.564C207.341 172.051 206.943 172.434 206.432 172.714C205.924 172.991 205.336 173.129 204.668 173.129ZM213.102 173.18C212.342 173.18 211.69 172.988 211.145 172.603C210.603 172.215 210.186 171.657 209.894 170.927C209.605 170.195 209.46 169.313 209.46 168.282C209.463 167.251 209.609 166.374 209.899 165.651C210.191 164.924 210.608 164.37 211.15 163.989C211.694 163.607 212.345 163.416 213.102 163.416C213.86 163.416 214.51 163.607 215.055 163.989C215.6 164.37 216.017 164.924 216.306 165.651C216.599 166.377 216.745 167.254 216.745 168.282C216.745 169.316 216.599 170.199 216.306 170.932C216.017 171.661 215.6 172.218 215.055 172.603C214.514 172.988 213.863 173.18 213.102 173.18ZM213.102 171.735C213.693 171.735 214.16 171.444 214.501 170.863C214.846 170.278 215.018 169.418 215.018 168.282C215.018 167.531 214.94 166.9 214.783 166.389C214.626 165.878 214.404 165.494 214.118 165.235C213.832 164.973 213.493 164.843 213.102 164.843C212.515 164.843 212.05 165.135 211.708 165.72C211.367 166.301 211.194 167.156 211.191 168.282C211.188 169.036 211.264 169.67 211.417 170.184C211.574 170.698 211.796 171.086 212.082 171.347C212.368 171.606 212.709 171.735 213.102 171.735ZM223.334 171.227V170.729C223.334 170.362 223.411 170.025 223.565 169.718C223.722 169.41 223.949 169.162 224.248 168.974C224.546 168.787 224.908 168.693 225.333 168.693C225.77 168.693 226.136 168.787 226.431 168.974C226.727 169.159 226.95 169.405 227.101 169.713C227.255 170.021 227.332 170.359 227.332 170.729V171.227C227.332 171.594 227.255 171.931 227.101 172.238C226.947 172.546 226.721 172.794 226.422 172.982C226.127 173.169 225.764 173.263 225.333 173.263C224.902 173.263 224.537 173.169 224.239 172.982C223.94 172.794 223.714 172.546 223.56 172.238C223.409 171.931 223.334 171.594 223.334 171.227ZM224.539 170.729V171.227C224.539 171.47 224.597 171.694 224.714 171.897C224.831 172.1 225.037 172.201 225.333 172.201C225.631 172.201 225.836 172.101 225.947 171.901C226.061 171.698 226.117 171.473 226.117 171.227V170.729C226.117 170.482 226.064 170.258 225.956 170.055C225.848 169.848 225.64 169.745 225.333 169.745C225.043 169.745 224.839 169.848 224.719 170.055C224.599 170.258 224.539 170.482 224.539 170.729ZM218.528 165.817V165.318C218.528 164.949 218.606 164.61 218.763 164.303C218.92 163.995 219.148 163.749 219.447 163.564C219.745 163.376 220.107 163.282 220.532 163.282C220.965 163.282 221.33 163.376 221.626 163.564C221.924 163.749 222.149 163.995 222.3 164.303C222.45 164.61 222.526 164.949 222.526 165.318V165.817C222.526 166.186 222.449 166.525 222.295 166.832C222.144 167.137 221.92 167.382 221.621 167.566C221.322 167.751 220.959 167.843 220.532 167.843C220.098 167.843 219.731 167.751 219.433 167.566C219.137 167.382 218.913 167.136 218.759 166.828C218.605 166.52 218.528 166.183 218.528 165.817ZM219.742 165.318V165.817C219.742 166.063 219.799 166.288 219.913 166.491C220.03 166.691 220.236 166.791 220.532 166.791C220.827 166.791 221.03 166.691 221.141 166.491C221.255 166.288 221.312 166.063 221.312 165.817V165.318C221.312 165.072 221.258 164.847 221.15 164.644C221.042 164.438 220.836 164.335 220.532 164.335C220.239 164.335 220.034 164.438 219.918 164.644C219.801 164.85 219.742 165.075 219.742 165.318ZM219.054 173L225.554 163.545H226.708L220.208 173H219.054Z" fill="white"/>
<rect x="113.124" y="226" width="12.8087" height="35.9444" rx="6.40437" transform="rotate(35.9922 113.124 226)" fill="#FDFBFB"/>
<rect x="236" y="236.182" width="12.8087" height="32.6793" rx="6.40437" transform="rotate(-34.1053 236 236.182)" fill="#FDFBFB"/>
<rect width="29" height="13" transform="translate(135 110)" fill="#0B1445"/>
<path d="M158.5 124C159.302 124 159.95 124.363 159.95 124.812V126.438H165.388C167.191 126.438 168.65 127.255 168.65 128.266V135.172C168.65 136.182 167.191 137 165.388 137H151.613C149.809 137 148.35 136.182 148.35 135.172V128.266C148.35 127.255 149.809 126.438 151.613 126.438H157.05V124.812C157.05 124.363 157.698 124 158.5 124ZM153.425 133.75C153.026 133.75 152.7 133.933 152.7 134.156C152.7 134.38 153.026 134.562 153.425 134.562H154.875C155.274 134.562 155.6 134.38 155.6 134.156C155.6 133.933 155.274 133.75 154.875 133.75H153.425ZM157.775 133.75C157.376 133.75 157.05 133.933 157.05 134.156C157.05 134.38 157.376 134.562 157.775 134.562H159.225C159.624 134.562 159.95 134.38 159.95 134.156C159.95 133.933 159.624 133.75 159.225 133.75H157.775ZM162.125 133.75C161.726 133.75 161.4 133.933 161.4 134.156C161.4 134.38 161.726 134.562 162.125 134.562H163.575C163.974 134.562 164.3 134.38 164.3 134.156C164.3 133.933 163.974 133.75 163.575 133.75H162.125ZM155.963 130.5C155.963 130.231 155.772 129.972 155.432 129.782C155.092 129.591 154.631 129.484 154.15 129.484C153.669 129.484 153.208 129.591 152.868 129.782C152.528 129.972 152.338 130.231 152.338 130.5C152.338 130.769 152.528 131.028 152.868 131.218C153.208 131.409 153.669 131.516 154.15 131.516C154.631 131.516 155.092 131.409 155.432 131.218C155.772 131.028 155.963 130.769 155.963 130.5ZM162.85 131.516C163.331 131.516 163.792 131.409 164.132 131.218C164.472 131.028 164.663 130.769 164.663 130.5C164.663 130.231 164.472 129.972 164.132 129.782C163.792 129.591 163.331 129.484 162.85 129.484C162.369 129.484 161.908 129.591 161.568 129.782C161.228 129.972 161.038 130.231 161.038 130.5C161.038 130.769 161.228 131.028 161.568 131.218C161.908 131.409 162.369 131.516 162.85 131.516ZM146.175 129.688H146.9V134.562H146.175C144.974 134.562 144 134.017 144 133.344V130.906C144 130.233 144.974 129.688 146.175 129.688ZM170.825 129.688C172.026 129.688 173 130.233 173 130.906V133.344C173 134.017 172.026 134.562 170.825 134.562H170.1V129.688H170.825Z" fill="#6361D9"/>
<path d="M225.104 74.7569L225.301 83.482L223.896 83.5137L219.65 77.6634L219.578 77.6651L219.712 83.6082L218.131 83.6438L217.934 74.9188L219.349 74.8869L223.59 80.7415L223.667 80.7398L223.532 74.7924L225.104 74.7569ZM226.938 83.445L226.913 82.3033L229.875 79.2655C230.158 78.9664 230.393 78.7011 230.581 78.4695C230.769 78.2379 230.909 78.0145 231.001 77.7993C231.093 77.5841 231.136 77.3558 231.13 77.1144C231.124 76.8389 231.056 76.6046 230.927 76.4114C230.798 76.2154 230.622 76.066 230.401 75.963C230.18 75.86 229.93 75.8116 229.652 75.8179C229.365 75.8244 229.115 75.8897 228.902 76.0139C228.689 76.1352 228.525 76.3051 228.41 76.5237C228.299 76.7421 228.246 77.0005 228.253 77.2987L226.749 77.3327C226.737 76.7788 226.852 76.2946 227.096 75.8799C227.339 75.4652 227.68 75.1406 228.118 74.9063C228.559 74.6718 229.068 74.5481 229.644 74.5351C230.229 74.5219 230.746 74.6196 231.194 74.8283C231.642 75.037 231.992 75.3289 232.245 75.7039C232.501 76.079 232.634 76.5107 232.645 76.9992C232.653 77.3258 232.597 77.6482 232.48 77.9663C232.362 78.2844 232.15 78.6387 231.843 79.0292C231.539 79.4197 231.111 79.894 230.558 80.452L229.089 82.0154L229.09 82.0751L232.89 81.9893L232.92 83.31L226.938 83.445ZM234.008 81.6657L233.98 80.4089L237.55 74.476L238.598 74.4523L238.638 76.2416L237.999 76.256L235.596 80.2616L235.598 80.3297L240.765 80.2131L240.795 81.5125L234.008 81.6657ZM238.207 83.1906L238.162 81.1883L238.166 80.6255L238.027 74.4652L239.518 74.4315L239.715 83.1566L238.207 83.1906Z" fill="#CC1F1F"/>
<path d="M120.69 96.1278C120.034 96.1278 119.467 95.9915 118.99 95.7188C118.516 95.4432 118.151 95.054 117.895 94.5511C117.639 94.0455 117.511 93.4503 117.511 92.7656C117.511 92.0923 117.639 91.5014 117.895 90.9929C118.153 90.4815 118.514 90.0838 118.977 89.7997C119.44 89.5128 119.984 89.3693 120.609 89.3693C121.013 89.3693 121.393 89.4347 121.751 89.5653C122.112 89.6932 122.43 89.892 122.706 90.1619C122.984 90.4318 123.203 90.7756 123.362 91.1932C123.521 91.608 123.601 92.1023 123.601 92.6761V93.1491H118.236V92.1094H122.122C122.119 91.8139 122.055 91.5511 121.93 91.321C121.805 91.0881 121.631 90.9048 121.406 90.7713C121.185 90.6378 120.926 90.571 120.631 90.571C120.315 90.571 120.038 90.6477 119.8 90.8011C119.561 90.9517 119.375 91.1506 119.241 91.3977C119.111 91.642 119.044 91.9105 119.041 92.2031V93.1108C119.041 93.4915 119.111 93.8182 119.25 94.0909C119.389 94.3608 119.584 94.5682 119.834 94.7131C120.084 94.8551 120.376 94.9261 120.712 94.9261C120.936 94.9261 121.139 94.8949 121.321 94.8324C121.503 94.767 121.661 94.6719 121.794 94.5469C121.928 94.4219 122.028 94.267 122.097 94.0824L123.537 94.2443C123.446 94.625 123.273 94.9574 123.017 95.2415C122.764 95.5227 122.44 95.7415 122.045 95.8977C121.651 96.0511 121.199 96.1278 120.69 96.1278ZM126.449 87.2727V96H124.906V87.2727H126.449ZM130.933 96.1278C130.276 96.1278 129.71 95.9915 129.232 95.7188C128.758 95.4432 128.393 95.054 128.137 94.5511C127.881 94.0455 127.754 93.4503 127.754 92.7656C127.754 92.0923 127.881 91.5014 128.137 90.9929C128.396 90.4815 128.756 90.0838 129.219 89.7997C129.683 89.5128 130.227 89.3693 130.852 89.3693C131.255 89.3693 131.636 89.4347 131.994 89.5653C132.354 89.6932 132.673 89.892 132.948 90.1619C133.227 90.4318 133.445 90.7756 133.604 91.1932C133.763 91.608 133.843 92.1023 133.843 92.6761V93.1491H128.478V92.1094H132.364C132.362 91.8139 132.298 91.5511 132.173 91.321C132.048 91.0881 131.873 90.9048 131.648 90.7713C131.427 90.6378 131.168 90.571 130.873 90.571C130.558 90.571 130.281 90.6477 130.042 90.8011C129.803 90.9517 129.617 91.1506 129.484 91.3977C129.353 91.642 129.286 91.9105 129.283 92.2031V93.1108C129.283 93.4915 129.353 93.8182 129.492 94.0909C129.631 94.3608 129.826 94.5682 130.076 94.7131C130.326 94.8551 130.619 94.9261 130.954 94.9261C131.178 94.9261 131.381 94.8949 131.563 94.8324C131.745 94.767 131.903 94.6719 132.036 94.5469C132.17 94.4219 132.271 94.267 132.339 94.0824L133.779 94.2443C133.688 94.625 133.515 94.9574 133.259 95.2415C133.006 95.5227 132.683 95.7415 132.288 95.8977C131.893 96.0511 131.441 96.1278 130.933 96.1278ZM138.003 96.1278C137.35 96.1278 136.789 95.9844 136.32 95.6974C135.854 95.4105 135.495 95.0142 135.242 94.5085C134.992 94 134.867 93.4148 134.867 92.7528C134.867 92.0881 134.995 91.5014 135.25 90.9929C135.506 90.4815 135.867 90.0838 136.333 89.7997C136.801 89.5128 137.355 89.3693 137.995 89.3693C138.526 89.3693 138.996 89.4673 139.405 89.6634C139.817 89.8565 140.145 90.1307 140.39 90.4858C140.634 90.8381 140.773 91.25 140.807 91.7216H139.333C139.273 91.4062 139.131 91.1435 138.907 90.9332C138.685 90.7202 138.388 90.6136 138.016 90.6136C137.701 90.6136 137.424 90.6989 137.185 90.8693C136.946 91.0369 136.76 91.2784 136.627 91.5938C136.496 91.9091 136.431 92.2869 136.431 92.7273C136.431 93.1733 136.496 93.5568 136.627 93.8778C136.757 94.196 136.941 94.4418 137.176 94.6151C137.415 94.7855 137.695 94.8707 138.016 94.8707C138.243 94.8707 138.446 94.8281 138.625 94.7429C138.807 94.6548 138.959 94.5284 139.081 94.3636C139.203 94.1989 139.287 93.9986 139.333 93.7628H140.807C140.77 94.2259 140.634 94.6364 140.398 94.9943C140.162 95.3494 139.841 95.6278 139.435 95.8295C139.029 96.0284 138.551 96.1278 138.003 96.1278ZM145.342 89.4545V90.6477H141.58V89.4545H145.342ZM142.509 87.8864H144.051V94.0312C144.051 94.2386 144.082 94.3977 144.145 94.5085C144.21 94.6165 144.295 94.6903 144.401 94.7301C144.506 94.7699 144.622 94.7898 144.75 94.7898C144.847 94.7898 144.935 94.7827 145.014 94.7685C145.097 94.7543 145.159 94.7415 145.202 94.7301L145.462 95.9361C145.379 95.9645 145.261 95.9957 145.108 96.0298C144.957 96.0639 144.773 96.0838 144.554 96.0895C144.168 96.1009 143.82 96.0426 143.51 95.9148C143.2 95.7841 142.955 95.5824 142.773 95.3097C142.594 95.0369 142.506 94.696 142.509 94.2869V87.8864ZM146.632 96V89.4545H148.175V96H146.632ZM147.408 88.5256C147.164 88.5256 146.953 88.4446 146.777 88.2827C146.601 88.1179 146.513 87.9205 146.513 87.6903C146.513 87.4574 146.601 87.2599 146.777 87.098C146.953 86.9332 147.164 86.8509 147.408 86.8509C147.655 86.8509 147.865 86.9332 148.039 87.098C148.215 87.2599 148.303 87.4574 148.303 87.6903C148.303 87.9205 148.215 88.1179 148.039 88.2827C147.865 88.4446 147.655 88.5256 147.408 88.5256ZM152.616 96.1278C151.977 96.1278 151.423 95.9872 150.955 95.706C150.486 95.4247 150.122 95.0312 149.864 94.5256C149.608 94.0199 149.48 93.429 149.48 92.7528C149.48 92.0767 149.608 91.4844 149.864 90.9759C150.122 90.4673 150.486 90.0724 150.955 89.7912C151.423 89.5099 151.977 89.3693 152.616 89.3693C153.256 89.3693 153.81 89.5099 154.278 89.7912C154.747 90.0724 155.109 90.4673 155.365 90.9759C155.624 91.4844 155.753 92.0767 155.753 92.7528C155.753 93.429 155.624 94.0199 155.365 94.5256C155.109 95.0312 154.747 95.4247 154.278 95.706C153.81 95.9872 153.256 96.1278 152.616 96.1278ZM152.625 94.892C152.972 94.892 153.261 94.7969 153.494 94.6065C153.727 94.4134 153.901 94.1548 154.014 93.831C154.131 93.5071 154.189 93.1463 154.189 92.7486C154.189 92.348 154.131 91.9858 154.014 91.6619C153.901 91.3352 153.727 91.0753 153.494 90.8821C153.261 90.6889 152.972 90.5923 152.625 90.5923C152.27 90.5923 151.974 90.6889 151.739 90.8821C151.506 91.0753 151.331 91.3352 151.214 91.6619C151.101 91.9858 151.044 92.348 151.044 92.7486C151.044 93.1463 151.101 93.5071 151.214 93.831C151.331 94.1548 151.506 94.4134 151.739 94.6065C151.974 94.7969 152.27 94.892 152.625 94.892ZM158.605 92.1648V96H157.062V89.4545H158.537V90.5668H158.613C158.764 90.2003 159.004 89.9091 159.333 89.6932C159.666 89.4773 160.076 89.3693 160.565 89.3693C161.017 89.3693 161.41 89.4659 161.745 89.6591C162.083 89.8523 162.345 90.1321 162.529 90.4986C162.717 90.8651 162.809 91.3097 162.806 91.8324V96H161.264V92.071C161.264 91.6335 161.15 91.2912 160.923 91.044C160.699 90.7969 160.387 90.6733 159.99 90.6733C159.72 90.6733 159.48 90.733 159.27 90.8523C159.062 90.9687 158.899 91.1378 158.779 91.3594C158.663 91.581 158.605 91.8494 158.605 92.1648ZM174.591 87.2727V96H173.185L169.073 90.0554H169V96H167.419V87.2727H168.834L172.942 93.2216H173.019V87.2727H174.591ZM179.143 96.1278C178.487 96.1278 177.92 95.9915 177.443 95.7188C176.969 95.4432 176.604 95.054 176.348 94.5511C176.092 94.0455 175.964 93.4503 175.964 92.7656C175.964 92.0923 176.092 91.5014 176.348 90.9929C176.607 90.4815 176.967 90.0838 177.43 89.7997C177.893 89.5128 178.438 89.3693 179.062 89.3693C179.466 89.3693 179.847 89.4347 180.205 89.5653C180.565 89.6932 180.884 89.892 181.159 90.1619C181.438 90.4318 181.656 90.7756 181.815 91.1932C181.974 91.608 182.054 92.1023 182.054 92.6761V93.1491H176.689V92.1094H180.575C180.572 91.8139 180.509 91.5511 180.384 91.321C180.259 91.0881 180.084 90.9048 179.859 90.7713C179.638 90.6378 179.379 90.571 179.084 90.571C178.768 90.571 178.491 90.6477 178.253 90.8011C178.014 90.9517 177.828 91.1506 177.695 91.3977C177.564 91.642 177.497 91.9105 177.494 92.2031V93.1108C177.494 93.4915 177.564 93.8182 177.703 94.0909C177.842 94.3608 178.037 94.5682 178.287 94.7131C178.537 94.8551 178.83 94.9261 179.165 94.9261C179.389 94.9261 179.592 94.8949 179.774 94.8324C179.956 94.767 180.114 94.6719 180.247 94.5469C180.381 94.4219 180.482 94.267 180.55 94.0824L181.99 94.2443C181.899 94.625 181.726 94.9574 181.47 95.2415C181.217 95.5227 180.893 95.7415 180.499 95.8977C180.104 96.0511 179.652 96.1278 179.143 96.1278ZM184.675 96L182.825 89.4545H184.398L185.548 94.0568H185.608L186.784 89.4545H188.339L189.516 94.0312H189.58L190.713 89.4545H192.29L190.436 96H188.83L187.602 91.5767H187.513L186.286 96H184.675ZM198.54 91.1847L197.134 91.3381C197.094 91.196 197.025 91.0625 196.925 90.9375C196.828 90.8125 196.698 90.7116 196.533 90.6349C196.368 90.5582 196.167 90.5199 195.928 90.5199C195.607 90.5199 195.337 90.5895 195.118 90.7287C194.902 90.8679 194.796 91.0483 194.799 91.2699C194.796 91.4602 194.865 91.6151 195.007 91.7344C195.152 91.8537 195.391 91.9517 195.723 92.0284L196.84 92.267C197.459 92.4006 197.919 92.6122 198.221 92.902C198.525 93.1918 198.678 93.571 198.681 94.0398C198.678 94.4517 198.557 94.8153 198.319 95.1307C198.083 95.4432 197.755 95.6875 197.334 95.8636C196.914 96.0398 196.431 96.1278 195.885 96.1278C195.084 96.1278 194.439 95.9602 193.951 95.625C193.462 95.2869 193.171 94.8168 193.077 94.2145L194.581 94.0696C194.65 94.3651 194.794 94.5881 195.016 94.7386C195.238 94.8892 195.526 94.9645 195.881 94.9645C196.248 94.9645 196.542 94.8892 196.763 94.7386C196.988 94.5881 197.1 94.402 197.1 94.1804C197.1 93.9929 197.027 93.8381 196.882 93.7159C196.74 93.5937 196.519 93.5 196.218 93.4347L195.101 93.2003C194.473 93.0696 194.009 92.8494 193.708 92.5398C193.407 92.2273 193.257 91.8324 193.26 91.3551C193.257 90.9517 193.367 90.6023 193.588 90.3068C193.813 90.0085 194.124 89.7784 194.522 89.6165C194.922 89.4517 195.384 89.3693 195.907 89.3693C196.674 89.3693 197.277 89.5327 197.718 89.8594C198.161 90.1861 198.435 90.6278 198.54 91.1847Z" fill="white"/>
</svg>
