<svg width="1909" height="3579" viewBox="0 0 1909 3579" fill="none" xmlns="http://www.w3.org/2000/svg">
<rect width="1909" height="3579" fill="#F5F5F5"/>
<rect width="1440" height="1024" fill="white"/>
<rect x="393" y="137" width="395" height="738" rx="18" fill="#E8EDE9" stroke="#B6B6B6" stroke-width="4"/>
<path d="M392.5 206C392.5 195.783 400.783 187.5 411 187.5H640C650.217 187.5 658.5 195.783 658.5 206V857C658.5 867.217 650.217 875.5 640 875.5H411C400.783 875.5 392.5 867.217 392.5 857V206Z" fill="#D6DFD9" stroke="#AAAAAA" stroke-width="3"/>
<rect x="391" y="186" width="46" height="691" rx="20" fill="#C6C9C6"/>
<g clip-path="url(#clip0_0_1)">
<g filter="url(#filter0_d_0_1)">
<path d="M1882.84 2591H1324.3C1311.98 2591 1302 2600.98 1302 2613.3V3552.99C1302 3565.31 1311.98 3575.29 1324.3 3575.29H1882.84C1895.15 3575.29 1905.13 3565.31 1905.13 3552.99V2613.3C1905.13 2600.98 1895.15 2591 1882.84 2591Z" fill="#E8EDE9"/>
<path d="M1882.84 2591H1324.3C1311.98 2591 1302 2600.98 1302 2613.3V3552.99C1302 3565.31 1311.98 3575.29 1324.3 3575.29H1882.84C1895.15 3575.29 1905.13 3565.31 1905.13 3552.99V2613.3C1905.13 2600.98 1895.15 2591 1882.84 2591Z" stroke="#B6B6B6" stroke-width="6.18278"/>
</g>
<path d="M1657.92 2654.65H1327C1313.2 2654.65 1302.01 2665.84 1302.01 2679.64V3547.82C1302.01 3561.63 1313.2 3572.81 1327 3572.81H1657.92C1671.72 3572.81 1682.91 3561.63 1682.91 3547.82V2679.64C1682.91 2665.84 1671.72 2654.65 1657.92 2654.65Z" stroke="#B6B6B6" stroke-width="6.28681"/>
<path d="M1509.31 2640.42C1515.94 2640.42 1521.32 2635.47 1521.32 2629.38C1521.32 2623.28 1515.94 2618.34 1509.31 2618.34C1502.68 2618.34 1497.3 2623.28 1497.3 2629.38C1497.3 2635.47 1502.68 2640.42 1509.31 2640.42Z" fill="#064D5A"/>
<path d="M1438.5 2633.09V2620.98H1442.59C1443.54 2620.98 1444.31 2621.14 1444.92 2621.47C1445.53 2621.79 1445.98 2622.23 1446.27 2622.79C1446.56 2623.35 1446.71 2623.98 1446.71 2624.7C1446.71 2625.41 1446.56 2626.04 1446.27 2626.59C1445.98 2627.15 1445.53 2627.58 1444.93 2627.89C1444.32 2628.21 1443.55 2628.36 1442.61 2628.36H1439.3V2627.04H1442.57C1443.21 2627.04 1443.73 2626.94 1444.13 2626.75C1444.53 2626.56 1444.81 2626.3 1444.99 2625.95C1445.17 2625.6 1445.26 2625.18 1445.26 2624.7C1445.26 2624.21 1445.17 2623.79 1444.99 2623.42C1444.81 2623.06 1444.52 2622.78 1444.12 2622.58C1443.72 2622.38 1443.2 2622.28 1442.54 2622.28H1439.96V2633.09H1438.5ZM1444.2 2627.65L1447.18 2633.09H1445.48L1442.54 2627.65H1444.2ZM1452.67 2633.28C1451.8 2633.28 1451.04 2633.09 1450.41 2632.7C1449.78 2632.31 1449.29 2631.77 1448.95 2631.07C1448.61 2630.37 1448.44 2629.55 1448.44 2628.62C1448.44 2627.69 1448.61 2626.87 1448.95 2626.16C1449.29 2625.45 1449.77 2624.89 1450.38 2624.49C1450.99 2624.09 1451.71 2623.89 1452.53 2623.89C1453 2623.89 1453.47 2623.97 1453.93 2624.13C1454.39 2624.29 1454.81 2624.54 1455.19 2624.9C1455.57 2625.25 1455.87 2625.71 1456.09 2626.29C1456.32 2626.87 1456.43 2627.59 1456.43 2628.43V2629.02H1449.43V2627.82H1455.01C1455.01 2627.31 1454.91 2626.85 1454.71 2626.45C1454.5 2626.04 1454.22 2625.73 1453.84 2625.49C1453.47 2625.26 1453.03 2625.14 1452.53 2625.14C1451.97 2625.14 1451.49 2625.28 1451.09 2625.56C1450.68 2625.83 1450.37 2626.19 1450.16 2626.62C1449.94 2627.06 1449.83 2627.53 1449.83 2628.03V2628.83C1449.83 2629.52 1449.95 2630.1 1450.19 2630.58C1450.43 2631.05 1450.76 2631.41 1451.19 2631.66C1451.61 2631.91 1452.11 2632.03 1452.67 2632.03C1453.04 2632.03 1453.37 2631.98 1453.66 2631.87C1453.96 2631.77 1454.22 2631.61 1454.44 2631.4C1454.66 2631.19 1454.82 2630.92 1454.94 2630.61L1456.29 2630.99C1456.15 2631.44 1455.91 2631.85 1455.57 2632.19C1455.24 2632.54 1454.83 2632.8 1454.33 2633C1453.84 2633.19 1453.29 2633.28 1452.67 2633.28ZM1461.23 2633.31C1460.65 2633.31 1460.13 2633.2 1459.66 2632.98C1459.19 2632.76 1458.82 2632.44 1458.54 2632.03C1458.27 2631.61 1458.13 2631.11 1458.13 2630.51C1458.13 2629.99 1458.23 2629.57 1458.44 2629.25C1458.64 2628.92 1458.92 2628.67 1459.26 2628.48C1459.6 2628.29 1459.98 2628.16 1460.39 2628.07C1460.81 2627.97 1461.23 2627.9 1461.65 2627.84C1462.21 2627.77 1462.65 2627.72 1463 2627.68C1463.34 2627.64 1463.6 2627.58 1463.75 2627.49C1463.91 2627.4 1464 2627.24 1464 2627.01V2626.97C1464 2626.38 1463.84 2625.93 1463.52 2625.61C1463.2 2625.28 1462.72 2625.12 1462.08 2625.12C1461.41 2625.12 1460.89 2625.27 1460.51 2625.56C1460.13 2625.85 1459.87 2626.16 1459.71 2626.49L1458.39 2626.02C1458.63 2625.47 1458.94 2625.04 1459.34 2624.73C1459.73 2624.42 1460.17 2624.2 1460.64 2624.08C1461.11 2623.95 1461.57 2623.89 1462.03 2623.89C1462.32 2623.89 1462.66 2623.93 1463.04 2624C1463.42 2624.06 1463.79 2624.2 1464.14 2624.42C1464.5 2624.63 1464.8 2624.95 1465.04 2625.38C1465.27 2625.81 1465.39 2626.39 1465.39 2627.11V2633.09H1464V2631.86H1463.92C1463.83 2632.06 1463.67 2632.27 1463.45 2632.5C1463.23 2632.72 1462.94 2632.91 1462.57 2633.07C1462.2 2633.23 1461.76 2633.31 1461.23 2633.31ZM1461.44 2632.05C1461.99 2632.05 1462.46 2631.94 1462.84 2631.73C1463.22 2631.51 1463.51 2631.23 1463.7 2630.89C1463.9 2630.54 1464 2630.18 1464 2629.8V2628.53C1463.94 2628.6 1463.81 2628.66 1463.6 2628.72C1463.41 2628.78 1463.18 2628.83 1462.92 2628.87C1462.66 2628.91 1462.41 2628.95 1462.17 2628.98C1461.93 2629 1461.73 2629.03 1461.58 2629.05C1461.22 2629.09 1460.88 2629.17 1460.57 2629.28C1460.25 2629.38 1460 2629.54 1459.81 2629.75C1459.62 2629.95 1459.52 2630.23 1459.52 2630.59C1459.52 2631.07 1459.7 2631.44 1460.06 2631.69C1460.43 2631.93 1460.88 2632.05 1461.44 2632.05ZM1471.37 2633.28C1470.61 2633.28 1469.94 2633.09 1469.36 2632.71C1468.78 2632.32 1468.33 2631.78 1468 2631.08C1467.68 2630.37 1467.51 2629.54 1467.51 2628.57C1467.51 2627.62 1467.68 2626.79 1468 2626.09C1468.33 2625.39 1468.79 2624.85 1469.37 2624.46C1469.95 2624.08 1470.63 2623.89 1471.39 2623.89C1471.98 2623.89 1472.45 2623.99 1472.79 2624.19C1473.14 2624.38 1473.4 2624.6 1473.59 2624.85C1473.77 2625.09 1473.91 2625.29 1474.02 2625.45H1474.14V2620.98H1475.53V2633.09H1474.18V2631.7H1474.02C1473.91 2631.86 1473.77 2632.07 1473.58 2632.32C1473.39 2632.57 1473.12 2632.79 1472.77 2632.99C1472.42 2633.19 1471.95 2633.28 1471.37 2633.28ZM1471.56 2632.03C1472.12 2632.03 1472.59 2631.88 1472.98 2631.59C1473.36 2631.29 1473.66 2630.89 1473.86 2630.37C1474.06 2629.84 1474.16 2629.24 1474.16 2628.55C1474.16 2627.87 1474.06 2627.28 1473.86 2626.77C1473.67 2626.26 1473.37 2625.86 1472.99 2625.58C1472.6 2625.29 1472.12 2625.14 1471.56 2625.14C1470.97 2625.14 1470.47 2625.3 1470.08 2625.6C1469.69 2625.9 1469.39 2626.31 1469.2 2626.82C1469 2627.34 1468.91 2627.91 1468.91 2628.55C1468.91 2629.2 1469.01 2629.78 1469.2 2630.31C1469.4 2630.84 1469.7 2631.26 1470.09 2631.57C1470.48 2631.87 1470.97 2632.03 1471.56 2632.03ZM1479.18 2636.5C1478.94 2636.5 1478.73 2636.48 1478.55 2636.44C1478.36 2636.4 1478.23 2636.37 1478.16 2636.33L1478.52 2635.1C1478.86 2635.19 1479.16 2635.22 1479.42 2635.2C1479.68 2635.17 1479.91 2635.06 1480.11 2634.85C1480.31 2634.64 1480.5 2634.31 1480.67 2633.85L1480.93 2633.14L1477.57 2624.01H1479.08L1481.59 2631.25H1481.69L1484.19 2624.01H1485.71L1481.85 2634.42C1481.68 2634.89 1481.46 2635.27 1481.21 2635.58C1480.95 2635.89 1480.65 2636.12 1480.31 2636.27C1479.98 2636.42 1479.6 2636.5 1479.18 2636.5Z" fill="black"/>
<path d="M1698.19 2658.53V2644.41H1703.13C1704.11 2644.41 1704.92 2644.58 1705.56 2644.92C1706.2 2645.25 1706.68 2645.7 1706.99 2646.27C1707.3 2646.84 1707.46 2647.47 1707.46 2648.16C1707.46 2648.77 1707.35 2649.27 1707.14 2649.66C1706.93 2650.06 1706.64 2650.37 1706.3 2650.6C1705.95 2650.83 1705.58 2651 1705.17 2651.11V2651.25C1705.6 2651.28 1706.04 2651.43 1706.47 2651.7C1706.91 2651.98 1707.28 2652.38 1707.57 2652.89C1707.87 2653.41 1708.01 2654.04 1708.01 2654.78C1708.01 2655.49 1707.85 2656.13 1707.53 2656.69C1707.21 2657.26 1706.7 2657.71 1706.01 2658.04C1705.31 2658.37 1704.41 2658.53 1703.29 2658.53H1698.19ZM1699.9 2657.02H1703.29C1704.41 2657.02 1705.21 2656.8 1705.67 2656.37C1706.15 2655.93 1706.39 2655.4 1706.39 2654.78C1706.39 2654.3 1706.26 2653.86 1706.02 2653.46C1705.78 2653.05 1705.43 2652.72 1704.98 2652.48C1704.53 2652.23 1703.99 2652.1 1703.38 2652.1H1699.9V2657.02ZM1699.9 2650.61H1703.07C1703.59 2650.61 1704.05 2650.51 1704.47 2650.31C1704.89 2650.11 1705.22 2649.82 1705.46 2649.46C1705.71 2649.09 1705.83 2648.66 1705.83 2648.16C1705.83 2647.54 1705.62 2647.01 1705.18 2646.58C1704.75 2646.14 1704.07 2645.92 1703.13 2645.92H1699.9V2650.61ZM1713.72 2658.78C1713.05 2658.78 1712.44 2658.66 1711.89 2658.4C1711.35 2658.15 1710.91 2657.78 1710.59 2657.29C1710.27 2656.81 1710.11 2656.22 1710.11 2655.53C1710.11 2654.92 1710.23 2654.43 1710.47 2654.05C1710.71 2653.67 1711.02 2653.37 1711.42 2653.15C1711.82 2652.94 1712.27 2652.78 1712.75 2652.67C1713.24 2652.56 1713.73 2652.47 1714.22 2652.41C1714.86 2652.33 1715.38 2652.26 1715.79 2652.22C1716.19 2652.18 1716.48 2652.1 1716.67 2651.99C1716.86 2651.89 1716.95 2651.7 1716.95 2651.44V2651.39C1716.95 2650.71 1716.76 2650.18 1716.39 2649.8C1716.02 2649.42 1715.47 2649.23 1714.72 2649.23C1713.94 2649.23 1713.33 2649.4 1712.89 2649.75C1712.45 2650.09 1712.14 2650.45 1711.96 2650.84L1710.41 2650.28C1710.69 2649.64 1711.05 2649.14 1711.51 2648.78C1711.98 2648.42 1712.48 2648.16 1713.03 2648.02C1713.58 2647.87 1714.13 2647.8 1714.66 2647.8C1715 2647.8 1715.39 2647.84 1715.83 2647.92C1716.28 2648 1716.71 2648.17 1717.12 2648.41C1717.54 2648.66 1717.89 2649.04 1718.17 2649.54C1718.44 2650.04 1718.58 2650.71 1718.58 2651.55V2658.53H1716.95V2657.1H1716.87C1716.76 2657.33 1716.57 2657.58 1716.32 2657.84C1716.06 2658.1 1715.72 2658.32 1715.29 2658.51C1714.86 2658.69 1714.34 2658.78 1713.72 2658.78ZM1713.97 2657.32C1714.61 2657.32 1715.16 2657.19 1715.6 2656.94C1716.04 2656.69 1716.38 2656.36 1716.61 2655.96C1716.84 2655.56 1716.95 2655.14 1716.95 2654.7V2653.21C1716.88 2653.29 1716.73 2653.37 1716.5 2653.44C1716.27 2653.5 1716 2653.56 1715.7 2653.61C1715.4 2653.65 1715.1 2653.7 1714.82 2653.73C1714.54 2653.76 1714.31 2653.79 1714.14 2653.82C1713.71 2653.87 1713.32 2653.96 1712.95 2654.08C1712.59 2654.2 1712.29 2654.39 1712.07 2654.63C1711.85 2654.87 1711.74 2655.2 1711.74 2655.61C1711.74 2656.17 1711.94 2656.6 1712.36 2656.89C1712.79 2657.18 1713.32 2657.32 1713.97 2657.32ZM1723.18 2644.41V2658.53H1721.55V2644.41H1723.18ZM1727.79 2644.41V2658.53H1726.16V2644.41H1727.79ZM1735.08 2658.76C1734.12 2658.76 1733.28 2658.53 1732.56 2658.07C1731.84 2657.62 1731.28 2656.98 1730.87 2656.16C1730.47 2655.34 1730.27 2654.39 1730.27 2653.29C1730.27 2652.19 1730.47 2651.22 1730.87 2650.4C1731.28 2649.58 1731.84 2648.94 1732.56 2648.48C1733.28 2648.03 1734.12 2647.8 1735.08 2647.8C1736.03 2647.8 1736.87 2648.03 1737.59 2648.48C1738.31 2648.94 1738.87 2649.58 1739.27 2650.4C1739.68 2651.22 1739.88 2652.19 1739.88 2653.29C1739.88 2654.39 1739.68 2655.34 1739.27 2656.16C1738.87 2656.98 1738.31 2657.62 1737.59 2658.07C1736.87 2658.53 1736.03 2658.76 1735.08 2658.76ZM1735.08 2657.29C1735.8 2657.29 1736.4 2657.11 1736.87 2656.73C1737.34 2656.36 1737.69 2655.87 1737.91 2655.26C1738.14 2654.66 1738.25 2654 1738.25 2653.29C1738.25 2652.58 1738.14 2651.92 1737.91 2651.31C1737.69 2650.7 1737.34 2650.21 1736.87 2649.83C1736.4 2649.45 1735.8 2649.26 1735.08 2649.26C1734.35 2649.26 1733.75 2649.45 1733.28 2649.83C1732.81 2650.21 1732.47 2650.7 1732.24 2651.31C1732.02 2651.92 1731.9 2652.58 1731.9 2653.29C1731.9 2654 1732.02 2654.66 1732.24 2655.26C1732.47 2655.87 1732.81 2656.36 1733.28 2656.73C1733.75 2657.11 1734.35 2657.29 1735.08 2657.29ZM1746.97 2647.94V2649.32H1741.48V2647.94H1746.97ZM1743.08 2645.4H1744.71V2655.5C1744.71 2655.96 1744.78 2656.3 1744.91 2656.53C1745.05 2656.76 1745.22 2656.91 1745.43 2656.99C1745.65 2657.06 1745.88 2657.1 1746.12 2657.1C1746.3 2657.1 1746.44 2657.09 1746.56 2657.07C1746.67 2657.05 1746.77 2657.03 1746.83 2657.02L1747.17 2658.48C1747.05 2658.52 1746.9 2658.56 1746.7 2658.6C1746.51 2658.65 1746.25 2658.67 1745.95 2658.67C1745.49 2658.67 1745.04 2658.57 1744.6 2658.38C1744.16 2658.18 1743.8 2657.88 1743.51 2657.47C1743.22 2657.07 1743.08 2656.56 1743.08 2655.94V2645.4ZM1764.38 2644.41H1766.09V2653.76C1766.09 2654.73 1765.86 2655.59 1765.41 2656.35C1764.96 2657.1 1764.32 2657.7 1763.5 2658.13C1762.67 2658.57 1761.71 2658.78 1760.6 2658.78C1759.49 2658.78 1758.52 2658.57 1757.7 2658.13C1756.88 2657.7 1756.24 2657.1 1755.78 2656.35C1755.33 2655.59 1755.11 2654.73 1755.11 2653.76V2644.41H1756.82V2653.62C1756.82 2654.31 1756.97 2654.93 1757.27 2655.46C1757.58 2656 1758.01 2656.42 1758.57 2656.73C1759.14 2657.03 1759.81 2657.18 1760.6 2657.18C1761.38 2657.18 1762.06 2657.03 1762.63 2656.73C1763.19 2656.42 1763.62 2656 1763.92 2655.46C1764.23 2654.93 1764.38 2654.31 1764.38 2653.62V2644.41ZM1770.91 2652.16V2658.53H1769.29V2647.94H1770.86V2649.59H1771C1771.24 2649.06 1771.62 2648.62 1772.13 2648.3C1772.63 2647.97 1773.29 2647.8 1774.09 2647.8C1774.8 2647.8 1775.43 2647.95 1775.97 2648.24C1776.51 2648.53 1776.93 2648.97 1777.23 2649.57C1777.53 2650.15 1777.67 2650.9 1777.67 2651.8V2658.53H1776.05V2651.91C1776.05 2651.08 1775.83 2650.43 1775.4 2649.97C1774.97 2649.5 1774.37 2649.26 1773.62 2649.26C1773.1 2649.26 1772.63 2649.37 1772.22 2649.6C1771.82 2649.83 1771.5 2650.15 1771.27 2650.59C1771.03 2651.02 1770.91 2651.54 1770.91 2652.16ZM1780.65 2658.53V2647.94H1782.28V2658.53H1780.65ZM1781.48 2646.17C1781.16 2646.17 1780.89 2646.06 1780.66 2645.85C1780.43 2645.63 1780.32 2645.37 1780.32 2645.07C1780.32 2644.76 1780.43 2644.5 1780.66 2644.29C1780.89 2644.07 1781.16 2643.96 1781.48 2643.96C1781.8 2643.96 1782.07 2644.07 1782.29 2644.29C1782.52 2644.5 1782.64 2644.76 1782.64 2645.07C1782.64 2645.37 1782.52 2645.63 1782.29 2645.85C1782.07 2646.06 1781.8 2646.17 1781.48 2646.17ZM1789.87 2647.94V2649.32H1784.38V2647.94H1789.87ZM1785.98 2645.4H1787.61V2655.5C1787.61 2655.96 1787.67 2656.3 1787.81 2656.53C1787.94 2656.76 1788.12 2656.91 1788.33 2656.99C1788.55 2657.06 1788.77 2657.1 1789.01 2657.1C1789.19 2657.1 1789.34 2657.09 1789.45 2657.07C1789.57 2657.05 1789.66 2657.03 1789.73 2657.02L1790.06 2658.48C1789.95 2658.52 1789.8 2658.56 1789.6 2658.6C1789.4 2658.65 1789.15 2658.67 1788.85 2658.67C1788.39 2658.67 1787.94 2658.57 1787.5 2658.38C1787.06 2658.18 1786.7 2657.88 1786.41 2657.47C1786.12 2657.07 1785.98 2656.56 1785.98 2655.94V2645.4Z" fill="black"/>
<path d="M1878.7 2591.94H1760.99V2612.72H1878.7V2591.94Z" fill="#2C6A90"/>
<path d="M1901.34 2798.26H1687.03V2858.05H1901.34V2798.26Z" fill="#F4F4F4" fill-opacity="0.953975" stroke="#C6BEBC" stroke-width="2.01815"/>
<path d="M1833.27 2808.2H1788.53C1776.67 2808.2 1767.05 2817.04 1767.05 2827.94C1767.05 2838.85 1776.67 2847.69 1788.53 2847.69H1833.27C1845.13 2847.69 1854.75 2838.85 1854.75 2827.94C1854.75 2817.04 1845.13 2808.2 1833.27 2808.2Z" fill="#2C6A90" stroke="#264D74" stroke-width="1.97324"/>
<path d="M1719.32 2842.01C1726.99 2842.01 1733.21 2836.29 1733.21 2829.24C1733.21 2822.19 1726.99 2816.47 1719.32 2816.47C1711.64 2816.47 1705.42 2822.19 1705.42 2829.24C1705.42 2836.29 1711.64 2842.01 1719.32 2842.01Z" fill="#642043" stroke="#2F1117" stroke-width="2.08154"/>
<path d="M1820.31 2641.92H1818.94C1814.63 2641.92 1811.15 2645.4 1811.15 2649.71V2658.8C1811.15 2663.1 1814.63 2666.59 1818.94 2666.59H1820.31C1824.61 2666.59 1828.1 2663.1 1828.1 2658.8V2649.71C1828.1 2645.4 1824.61 2641.92 1820.31 2641.92Z" fill="black" fill-opacity="0.953975"/>
<path d="M1901.34 2678.69H1687.03V2738.48H1901.34V2678.69Z" fill="#F4F4F4" fill-opacity="0.953975" stroke="#C6BEBC" stroke-width="2.01815"/>
<path d="M1833.27 2688.62H1788.53C1776.67 2688.62 1767.05 2697.46 1767.05 2708.37C1767.05 2719.27 1776.67 2728.11 1788.53 2728.11H1833.27C1845.13 2728.11 1854.75 2719.27 1854.75 2708.37C1854.75 2697.46 1845.13 2688.62 1833.27 2688.62Z" fill="#2C6A90" stroke="#264D74" stroke-width="1.97324"/>
<path d="M1719.32 2722.43C1726.99 2722.43 1733.21 2716.72 1733.21 2709.66C1733.21 2702.61 1726.99 2696.9 1719.32 2696.9C1711.64 2696.9 1705.42 2702.61 1705.42 2709.66C1705.42 2716.72 1711.64 2722.43 1719.32 2722.43Z" fill="#642043" stroke="#2F1117" stroke-width="2.08154"/>
<path d="M1901.34 2738.48H1687.03V2798.27H1901.34V2738.48Z" fill="#F4F4F4" fill-opacity="0.953975" stroke="#C6BEBC" stroke-width="2.01815"/>
<path d="M1833.27 2748.41H1788.53C1776.67 2748.41 1767.05 2757.25 1767.05 2768.15C1767.05 2779.06 1776.67 2787.9 1788.53 2787.9H1833.27C1845.13 2787.9 1854.75 2779.06 1854.75 2768.15C1854.75 2757.25 1845.13 2748.41 1833.27 2748.41Z" fill="#2C6A90" stroke="#264D74" stroke-width="1.97324"/>
<path d="M1719.32 2782.22C1726.99 2782.22 1733.21 2776.51 1733.21 2769.45C1733.21 2762.4 1726.99 2756.69 1719.32 2756.69C1711.64 2756.69 1705.42 2762.4 1705.42 2769.45C1705.42 2776.51 1711.64 2782.22 1719.32 2782.22Z" fill="#642043" stroke="#2F1117" stroke-width="2.08154"/>
<path d="M1901.34 2858.05H1687.03V2917.84H1901.34V2858.05Z" fill="#F4F4F4" fill-opacity="0.953975" stroke="#C6BEBC" stroke-width="2.01815"/>
<path d="M1833.27 2867.99H1788.53C1776.67 2867.99 1767.05 2876.83 1767.05 2887.73C1767.05 2898.64 1776.67 2907.48 1788.53 2907.48H1833.27C1845.13 2907.48 1854.75 2898.64 1854.75 2887.73C1854.75 2876.83 1845.13 2867.99 1833.27 2867.99Z" fill="#2C6A90" stroke="#264D74" stroke-width="1.97324"/>
<path d="M1719.32 2901.8C1726.99 2901.8 1733.21 2896.08 1733.21 2889.03C1733.21 2881.98 1726.99 2876.26 1719.32 2876.26C1711.64 2876.26 1705.42 2881.98 1705.42 2889.03C1705.42 2896.08 1711.64 2901.8 1719.32 2901.8Z" fill="#642043" stroke="#2F1117" stroke-width="2.08154"/>
<path d="M1901.34 2917.84H1687.03V2977.63H1901.34V2917.84Z" fill="#F4F4F4" fill-opacity="0.953975" stroke="#C6BEBC" stroke-width="2.01815"/>
<path d="M1833.27 2927.77H1788.53C1776.67 2927.77 1767.05 2936.61 1767.05 2947.52C1767.05 2958.42 1776.67 2967.26 1788.53 2967.26H1833.27C1845.13 2967.26 1854.75 2958.42 1854.75 2947.52C1854.75 2936.61 1845.13 2927.77 1833.27 2927.77Z" fill="#2C6A90" stroke="#264D74" stroke-width="1.97324"/>
<path d="M1719.32 2961.59C1726.99 2961.59 1733.21 2955.87 1733.21 2948.82C1733.21 2941.77 1726.99 2936.05 1719.32 2936.05C1711.64 2936.05 1705.42 2941.77 1705.42 2948.82C1705.42 2955.87 1711.64 2961.59 1719.32 2961.59Z" fill="#642043" stroke="#2F1117" stroke-width="2.08154"/>
<path d="M1901.34 2977.63H1687.03V3037.42H1901.34V2977.63Z" fill="#F4F4F4" fill-opacity="0.953975" stroke="#C6BEBC" stroke-width="2.01815"/>
<path d="M1833.27 2987.56H1788.53C1776.67 2987.56 1767.05 2996.4 1767.05 3007.31C1767.05 3018.21 1776.67 3027.05 1788.53 3027.05H1833.27C1845.13 3027.05 1854.75 3018.21 1854.75 3007.31C1854.75 2996.4 1845.13 2987.56 1833.27 2987.56Z" fill="#2C6A90" stroke="#264D74" stroke-width="1.97324"/>
<path d="M1719.32 3021.37C1726.99 3021.37 1733.21 3015.66 1733.21 3008.61C1733.21 3001.55 1726.99 2995.84 1719.32 2995.84C1711.64 2995.84 1705.42 3001.55 1705.42 3008.61C1705.42 3015.66 1711.64 3021.37 1719.32 3021.37Z" fill="#642043" stroke="#2F1117" stroke-width="2.08154"/>
<path d="M1901.34 3037.42H1687.03V3097.21H1901.34V3037.42Z" fill="#F4F4F4" fill-opacity="0.953975" stroke="#C6BEBC" stroke-width="2.01815"/>
<path d="M1833.27 3047.35H1788.53C1776.67 3047.35 1767.05 3056.19 1767.05 3067.1C1767.05 3078 1776.67 3086.84 1788.53 3086.84H1833.27C1845.13 3086.84 1854.75 3078 1854.75 3067.1C1854.75 3056.19 1845.13 3047.35 1833.27 3047.35Z" fill="#2C6A90" stroke="#264D74" stroke-width="1.97324"/>
<path d="M1719.32 3081.16C1726.99 3081.16 1733.21 3075.45 1733.21 3068.39C1733.21 3061.34 1726.99 3055.63 1719.32 3055.63C1711.64 3055.63 1705.42 3061.34 1705.42 3068.39C1705.42 3075.45 1711.64 3081.16 1719.32 3081.16Z" fill="#642043" stroke="#2F1117" stroke-width="2.08154"/>
<path d="M1901.34 3097.21H1687.03V3157H1901.34V3097.21Z" fill="#F4F4F4" fill-opacity="0.953975" stroke="#C6BEBC" stroke-width="2.01815"/>
<path d="M1833.27 3107.14H1788.53C1776.67 3107.14 1767.05 3115.98 1767.05 3126.89C1767.05 3137.79 1776.67 3146.63 1788.53 3146.63H1833.27C1845.13 3146.63 1854.75 3137.79 1854.75 3126.89C1854.75 3115.98 1845.13 3107.14 1833.27 3107.14Z" fill="#2C6A90" stroke="#264D74" stroke-width="1.97324"/>
<path d="M1719.32 3140.95C1726.99 3140.95 1733.21 3135.24 1733.21 3128.18C1733.21 3121.13 1726.99 3115.42 1719.32 3115.42C1711.64 3115.42 1705.42 3121.13 1705.42 3128.18C1705.42 3135.24 1711.64 3140.95 1719.32 3140.95Z" fill="#642043" stroke="#2F1117" stroke-width="2.08154"/>
<path d="M1901.34 3157H1687.03V3216.78H1901.34V3157Z" fill="#F4F4F4" fill-opacity="0.953975" stroke="#C6BEBC" stroke-width="2.01815"/>
<path d="M1833.27 3166.93H1788.53C1776.67 3166.93 1767.05 3175.77 1767.05 3186.67C1767.05 3197.58 1776.67 3206.42 1788.53 3206.42H1833.27C1845.13 3206.42 1854.75 3197.58 1854.75 3186.67C1854.75 3175.77 1845.13 3166.93 1833.27 3166.93Z" fill="#2C6A90" stroke="#264D74" stroke-width="1.97324"/>
<path d="M1719.32 3200.74C1726.99 3200.74 1733.21 3195.02 1733.21 3187.97C1733.21 3180.92 1726.99 3175.2 1719.32 3175.2C1711.64 3175.2 1705.42 3180.92 1705.42 3187.97C1705.42 3195.02 1711.64 3200.74 1719.32 3200.74Z" fill="#642043" stroke="#2F1117" stroke-width="2.08154"/>
<path d="M1901.34 3216.78H1687.03V3276.57H1901.34V3216.78Z" fill="#F4F4F4" fill-opacity="0.953975" stroke="#C6BEBC" stroke-width="2.01815"/>
<path d="M1833.27 3226.72H1788.53C1776.67 3226.72 1767.05 3235.56 1767.05 3246.46C1767.05 3257.37 1776.67 3266.21 1788.53 3266.21H1833.27C1845.13 3266.21 1854.75 3257.37 1854.75 3246.46C1854.75 3235.56 1845.13 3226.72 1833.27 3226.72Z" fill="#2C6A90" stroke="#264D74" stroke-width="1.97324"/>
<path d="M1719.32 3260.53C1726.99 3260.53 1733.21 3254.81 1733.21 3247.76C1733.21 3240.71 1726.99 3234.99 1719.32 3234.99C1711.64 3234.99 1705.42 3240.71 1705.42 3247.76C1705.42 3254.81 1711.64 3260.53 1719.32 3260.53Z" fill="#642043" stroke="#2F1117" stroke-width="2.08154"/>
<path d="M1901.34 3276.57H1687.03V3336.36H1901.34V3276.57Z" fill="#F4F4F4" fill-opacity="0.953975" stroke="#C6BEBC" stroke-width="2.01815"/>
<path d="M1833.27 3286.51H1788.53C1776.67 3286.51 1767.05 3295.35 1767.05 3306.25C1767.05 3317.15 1776.67 3325.99 1788.53 3325.99H1833.27C1845.13 3325.99 1854.75 3317.15 1854.75 3306.25C1854.75 3295.35 1845.13 3286.51 1833.27 3286.51Z" fill="#2C6A90" stroke="#264D74" stroke-width="1.97324"/>
<path d="M1719.32 3320.32C1726.99 3320.32 1733.21 3314.6 1733.21 3307.55C1733.21 3300.5 1726.99 3294.78 1719.32 3294.78C1711.64 3294.78 1705.42 3300.5 1705.42 3307.55C1705.42 3314.6 1711.64 3320.32 1719.32 3320.32Z" fill="#642043" stroke="#2F1117" stroke-width="2.08154"/>
<path d="M1658.06 2654.51H1336.17C1322.37 2654.51 1311.18 2665.7 1311.18 2679.51V3547.96C1311.18 3561.76 1322.37 3572.95 1336.17 3572.95H1658.06C1671.87 3572.95 1683.06 3561.76 1683.06 3547.96V2679.51C1683.06 2665.7 1671.87 2654.51 1658.06 2654.51Z" fill="#D6DFD9" stroke="#B6B6B6" stroke-width="6.2129"/>
<path d="M1343.36 2684.06C1343.36 2669.25 1334.11 2657.24 1322.69 2657.24C1311.27 2657.24 1302.01 2669.25 1302.01 2684.06V3546C1302.01 3560.81 1311.27 3572.81 1322.69 3572.81C1334.11 3572.81 1343.36 3560.81 1343.36 3546V2684.06Z" fill="#C6C9C6"/>
<path d="M1901.34 3336.36H1687.03V3396.15H1901.34V3336.36Z" fill="#F4F4F4" fill-opacity="0.953975" stroke="#C6BEBC" stroke-width="2.01815"/>
<path d="M1833.27 3346.29H1788.53C1776.67 3346.29 1767.05 3355.13 1767.05 3366.04C1767.05 3376.94 1776.67 3385.78 1788.53 3385.78H1833.27C1845.13 3385.78 1854.75 3376.94 1854.75 3366.04C1854.75 3355.13 1845.13 3346.29 1833.27 3346.29Z" fill="#2C6A90" stroke="#264D74" stroke-width="1.97324"/>
<path d="M1719.32 3380.1C1726.99 3380.1 1733.21 3374.39 1733.21 3367.34C1733.21 3360.29 1726.99 3354.57 1719.32 3354.57C1711.64 3354.57 1705.42 3360.29 1705.42 3367.34C1705.42 3374.39 1711.64 3380.1 1719.32 3380.1Z" fill="#642043" stroke="#2F1117" stroke-width="2.08154"/>
<path d="M1901.34 3396.15H1687.03V3455.94H1901.34V3396.15Z" fill="#F4F4F4" fill-opacity="0.953975" stroke="#C6BEBC" stroke-width="2.01815"/>
<path d="M1833.27 3406.08H1788.53C1776.67 3406.08 1767.05 3414.92 1767.05 3425.83C1767.05 3436.73 1776.67 3445.57 1788.53 3445.57H1833.27C1845.13 3445.57 1854.75 3436.73 1854.75 3425.83C1854.75 3414.92 1845.13 3406.08 1833.27 3406.08Z" fill="#2C6A90" stroke="#264D74" stroke-width="1.97324"/>
<path d="M1719.32 3439.89C1726.99 3439.89 1733.21 3434.18 1733.21 3427.13C1733.21 3420.07 1726.99 3414.36 1719.32 3414.36C1711.64 3414.36 1705.42 3420.07 1705.42 3427.13C1705.42 3434.18 1711.64 3439.89 1719.32 3439.89Z" fill="#642043" stroke="#2F1117" stroke-width="2.08154"/>
<path d="M1496.07 2738.98H1678.76" stroke="white" stroke-width="4.16308"/>
<path d="M1494.31 2915.99H1677.01" stroke="white" stroke-width="4.16308"/>
<path d="M1496.07 2796.83H1678.76" stroke="white" stroke-width="4.16308"/>
<path d="M1495.35 2855.41H1678.05" stroke="white" stroke-width="4.16308"/>
<path d="M1495.03 2975.28H1677.72" stroke="white" stroke-width="4.16308"/>
<path d="M1495.38 3034.21H1678.08" stroke="white" stroke-width="4.16308"/>
<path d="M1495.74 3094.56H1678.44" stroke="white" stroke-width="4.16308"/>
<path d="M1494.22 3153.15H1676.92" stroke="white" stroke-width="4.16308"/>
<path d="M1494.73 3213.26H1677.43" stroke="white" stroke-width="4.16308"/>
<path d="M1493.72 3273.36H1676.42" stroke="white" stroke-width="4.16308"/>
<path d="M1493.72 3332.96H1676.42" stroke="white" stroke-width="4.16308"/>
<path d="M1494.22 3393.06H1676.92" stroke="white" stroke-width="4.16308"/>
<path d="M1494.22 3452.66H1676.92" stroke="white" stroke-width="4.16308"/>
<path d="M1336.56 2625.92L1335.65 2626.18C1335.6 2626.03 1335.51 2625.88 1335.4 2625.74C1335.29 2625.59 1335.15 2625.47 1334.96 2625.38C1334.77 2625.29 1334.53 2625.24 1334.24 2625.24C1333.84 2625.24 1333.5 2625.33 1333.24 2625.52C1332.97 2625.7 1332.84 2625.93 1332.84 2626.21C1332.84 2626.46 1332.93 2626.66 1333.11 2626.8C1333.3 2626.95 1333.58 2627.07 1333.97 2627.16L1334.94 2627.4C1335.52 2627.55 1335.96 2627.76 1336.25 2628.06C1336.53 2628.35 1336.68 2628.72 1336.68 2629.18C1336.68 2629.55 1336.57 2629.89 1336.35 2630.18C1336.14 2630.48 1335.84 2630.71 1335.46 2630.88C1335.07 2631.05 1334.63 2631.14 1334.12 2631.14C1333.45 2631.14 1332.9 2630.99 1332.46 2630.7C1332.02 2630.41 1331.75 2629.99 1331.63 2629.43L1332.59 2629.19C1332.68 2629.55 1332.85 2629.81 1333.1 2629.99C1333.36 2630.16 1333.69 2630.25 1334.1 2630.25C1334.57 2630.25 1334.94 2630.15 1335.22 2629.95C1335.5 2629.75 1335.64 2629.51 1335.64 2629.23C1335.64 2629 1335.56 2628.81 1335.4 2628.66C1335.24 2628.5 1334.99 2628.38 1334.66 2628.31L1333.57 2628.05C1332.97 2627.91 1332.53 2627.69 1332.25 2627.39C1331.97 2627.09 1331.84 2626.71 1331.84 2626.26C1331.84 2625.89 1331.94 2625.57 1332.15 2625.28C1332.36 2625 1332.64 2624.77 1333 2624.61C1333.37 2624.45 1333.78 2624.37 1334.24 2624.37C1334.89 2624.37 1335.39 2624.51 1335.76 2624.8C1336.14 2625.08 1336.4 2625.45 1336.56 2625.92ZM1341.04 2624.45V2625.31H1337.64V2624.45H1341.04ZM1338.63 2622.89H1339.64V2629.13C1339.64 2629.41 1339.68 2629.62 1339.76 2629.76C1339.85 2629.9 1339.96 2630 1340.09 2630.05C1340.22 2630.09 1340.36 2630.11 1340.51 2630.11C1340.62 2630.11 1340.71 2630.11 1340.78 2630.1C1340.85 2630.08 1340.91 2630.07 1340.95 2630.06L1341.16 2630.97C1341.09 2630.99 1340.99 2631.02 1340.87 2631.04C1340.75 2631.07 1340.59 2631.09 1340.41 2631.09C1340.12 2631.09 1339.84 2631.02 1339.57 2630.9C1339.3 2630.78 1339.08 2630.59 1338.9 2630.34C1338.72 2630.09 1338.63 2629.78 1338.63 2629.4V2622.89Z" fill="black" fill-opacity="0.953975"/>
<path d="M1323 2625.5C1323 2619.15 1328.15 2614 1334.5 2614H1382.5C1388.85 2614 1394 2619.15 1394 2625.5C1394 2631.85 1388.85 2637 1382.5 2637H1334.5C1328.15 2637 1323 2631.85 1323 2625.5Z" fill="#2C6A90"/>
<path d="M1343.53 2622.41V2621.27H1350.28V2622.41H1347.56V2630H1346.25V2622.41H1343.53ZM1353.54 2630.13C1352.9 2630.13 1352.34 2629.99 1351.88 2629.72C1351.42 2629.44 1351.06 2629.05 1350.8 2628.55C1350.55 2628.04 1350.43 2627.45 1350.43 2626.77C1350.43 2626.1 1350.55 2625.51 1350.8 2625C1351.06 2624.49 1351.41 2624.09 1351.86 2623.8C1352.32 2623.51 1352.85 2623.37 1353.46 2623.37C1353.82 2623.37 1354.18 2623.43 1354.53 2623.55C1354.88 2623.67 1355.19 2623.87 1355.46 2624.13C1355.74 2624.39 1355.96 2624.73 1356.11 2625.15C1356.27 2625.56 1356.35 2626.07 1356.35 2626.66V2627.11H1351.15V2626.16H1355.1C1355.1 2625.82 1355.04 2625.52 1354.9 2625.27C1354.76 2625 1354.57 2624.8 1354.32 2624.65C1354.08 2624.5 1353.79 2624.42 1353.46 2624.42C1353.11 2624.42 1352.79 2624.51 1352.53 2624.69C1352.26 2624.86 1352.06 2625.09 1351.91 2625.37C1351.77 2625.65 1351.7 2625.95 1351.7 2626.28V2627.02C1351.7 2627.46 1351.78 2627.83 1351.93 2628.14C1352.09 2628.44 1352.3 2628.68 1352.58 2628.84C1352.86 2629 1353.19 2629.08 1353.56 2629.08C1353.8 2629.08 1354.02 2629.05 1354.22 2628.98C1354.42 2628.91 1354.59 2628.8 1354.73 2628.66C1354.88 2628.52 1354.99 2628.35 1355.07 2628.15L1356.27 2628.36C1356.18 2628.72 1356 2629.03 1355.75 2629.3C1355.5 2629.56 1355.19 2629.77 1354.82 2629.91C1354.45 2630.06 1354.02 2630.13 1353.54 2630.13ZM1362.67 2625.05L1361.52 2625.26C1361.47 2625.11 1361.39 2624.97 1361.29 2624.84C1361.18 2624.7 1361.05 2624.59 1360.87 2624.51C1360.69 2624.42 1360.47 2624.38 1360.21 2624.38C1359.85 2624.38 1359.55 2624.46 1359.3 2624.62C1359.06 2624.78 1358.94 2624.99 1358.94 2625.24C1358.94 2625.46 1359.02 2625.63 1359.19 2625.77C1359.35 2625.9 1359.61 2626.01 1359.97 2626.1L1361.01 2626.34C1361.61 2626.47 1362.06 2626.69 1362.36 2626.98C1362.65 2627.27 1362.8 2627.64 1362.8 2628.11C1362.8 2628.5 1362.69 2628.85 1362.46 2629.16C1362.23 2629.46 1361.92 2629.7 1361.52 2629.87C1361.12 2630.05 1360.65 2630.13 1360.12 2630.13C1359.39 2630.13 1358.79 2629.98 1358.33 2629.66C1357.87 2629.35 1357.58 2628.9 1357.48 2628.32L1358.71 2628.13C1358.79 2628.45 1358.94 2628.7 1359.18 2628.86C1359.42 2629.02 1359.73 2629.11 1360.11 2629.11C1360.53 2629.11 1360.87 2629.02 1361.12 2628.85C1361.37 2628.67 1361.49 2628.45 1361.49 2628.2C1361.49 2628 1361.41 2627.83 1361.26 2627.69C1361.11 2627.55 1360.88 2627.44 1360.57 2627.37L1359.46 2627.13C1358.85 2626.99 1358.4 2626.77 1358.1 2626.46C1357.81 2626.16 1357.67 2625.77 1357.67 2625.31C1357.67 2624.92 1357.78 2624.58 1357.99 2624.29C1358.21 2624 1358.51 2623.78 1358.89 2623.62C1359.27 2623.45 1359.7 2623.37 1360.2 2623.37C1360.9 2623.37 1361.46 2623.52 1361.87 2623.83C1362.27 2624.13 1362.54 2624.54 1362.67 2625.05ZM1367.26 2623.45V2624.48H1363.68V2623.45H1367.26ZM1364.64 2621.89H1365.91V2628.08C1365.91 2628.33 1365.95 2628.51 1366.02 2628.64C1366.1 2628.76 1366.19 2628.84 1366.31 2628.89C1366.43 2628.93 1366.56 2628.95 1366.7 2628.95C1366.8 2628.95 1366.89 2628.94 1366.97 2628.93C1367.04 2628.92 1367.1 2628.9 1367.14 2628.9L1367.37 2629.95C1367.3 2629.98 1367.2 2630.01 1367.06 2630.03C1366.92 2630.07 1366.75 2630.08 1366.55 2630.09C1366.21 2630.09 1365.9 2630.03 1365.61 2629.91C1365.32 2629.78 1365.09 2629.59 1364.91 2629.33C1364.73 2629.07 1364.64 2628.74 1364.64 2628.34V2621.89Z" fill="white"/>
<path d="M1381.83 2722H1379.5L1384.73 2707.45H1387.27L1392.5 2722H1390.17L1386.06 2710.1H1385.95L1381.83 2722ZM1382.22 2716.3H1389.77V2718.15H1382.22V2716.3ZM1394.43 2722V2711.09H1396.47V2712.87H1396.6C1396.83 2712.27 1397.2 2711.8 1397.72 2711.46C1398.24 2711.12 1398.85 2710.95 1399.57 2710.95C1400.3 2710.95 1400.91 2711.12 1401.41 2711.46C1401.9 2711.8 1402.27 2712.27 1402.51 2712.87H1402.62C1402.88 2712.28 1403.3 2711.82 1403.86 2711.47C1404.43 2711.12 1405.11 2710.95 1405.89 2710.95C1406.88 2710.95 1407.69 2711.26 1408.32 2711.88C1408.95 2712.5 1409.26 2713.43 1409.26 2714.68V2722H1407.14V2714.88C1407.14 2714.14 1406.94 2713.61 1406.53 2713.28C1406.13 2712.95 1405.65 2712.78 1405.09 2712.78C1404.4 2712.78 1403.86 2712.99 1403.48 2713.42C1403.1 2713.84 1402.9 2714.38 1402.9 2715.05V2722H1400.79V2714.75C1400.79 2714.16 1400.6 2713.68 1400.23 2713.32C1399.86 2712.96 1399.38 2712.78 1398.79 2712.78C1398.39 2712.78 1398.02 2712.89 1397.68 2713.1C1397.34 2713.31 1397.07 2713.6 1396.86 2713.97C1396.66 2714.35 1396.56 2714.78 1396.56 2715.27V2722H1394.43ZM1412.11 2722V2711.09H1414.23V2722H1412.11ZM1413.18 2709.41C1412.81 2709.41 1412.49 2709.28 1412.23 2709.04C1411.97 2708.79 1411.84 2708.49 1411.84 2708.14C1411.84 2707.79 1411.97 2707.49 1412.23 2707.25C1412.49 2707 1412.81 2706.87 1413.18 2706.87C1413.55 2706.87 1413.86 2707 1414.12 2707.25C1414.39 2707.49 1414.52 2707.79 1414.52 2708.14C1414.52 2708.49 1414.39 2708.79 1414.12 2709.04C1413.86 2709.28 1413.55 2709.41 1413.18 2709.41ZM1422.18 2711.09V2712.8H1416.22V2711.09H1422.18ZM1417.82 2708.48H1419.94V2718.8C1419.94 2719.21 1420 2719.52 1420.13 2719.73C1420.25 2719.93 1420.41 2720.07 1420.6 2720.15C1420.8 2720.22 1421.02 2720.25 1421.25 2720.25C1421.42 2720.25 1421.57 2720.24 1421.7 2720.22C1421.82 2720.19 1421.92 2720.17 1422 2720.16L1422.38 2721.91C1422.26 2721.96 1422.08 2722.01 1421.85 2722.06C1421.63 2722.11 1421.34 2722.14 1421 2722.14C1420.44 2722.15 1419.92 2722.05 1419.44 2721.84C1418.96 2721.64 1418.56 2721.31 1418.27 2720.88C1417.97 2720.44 1417.82 2719.9 1417.82 2719.24V2708.48ZM1429.28 2709.34V2707.45H1440.53V2709.34H1435.99V2722H1433.81V2709.34H1429.28ZM1441.72 2722V2711.09H1443.77V2712.82H1443.88C1444.08 2712.24 1444.43 2711.78 1444.93 2711.44C1445.44 2711.1 1446.01 2710.93 1446.65 2710.93C1446.79 2710.93 1446.94 2710.93 1447.12 2710.94C1447.31 2710.95 1447.45 2710.96 1447.55 2710.98V2713.01C1447.47 2712.98 1447.32 2712.96 1447.1 2712.93C1446.88 2712.9 1446.66 2712.88 1446.45 2712.88C1445.94 2712.88 1445.5 2712.99 1445.1 2713.2C1444.72 2713.41 1444.41 2713.7 1444.18 2714.07C1443.95 2714.44 1443.84 2714.86 1443.84 2715.34V2722H1441.72ZM1449.39 2722V2711.09H1451.52V2722H1449.39ZM1450.46 2709.41C1450.1 2709.41 1449.78 2709.28 1449.51 2709.04C1449.25 2708.79 1449.12 2708.49 1449.12 2708.14C1449.12 2707.79 1449.25 2707.49 1449.51 2707.25C1449.78 2707 1450.1 2706.87 1450.46 2706.87C1450.83 2706.87 1451.15 2707 1451.41 2707.25C1451.67 2707.49 1451.81 2707.79 1451.81 2708.14C1451.81 2708.49 1451.67 2708.79 1451.41 2709.04C1451.15 2709.28 1450.83 2709.41 1450.46 2709.41ZM1463.71 2711.09L1459.75 2722H1457.48L1453.51 2711.09H1455.79L1458.56 2719.49H1458.67L1461.43 2711.09H1463.71ZM1470.03 2722.22C1468.96 2722.22 1468.03 2721.99 1467.25 2721.53C1466.48 2721.07 1465.89 2720.42 1465.46 2719.58C1465.05 2718.74 1464.84 2717.75 1464.84 2716.62C1464.84 2715.5 1465.05 2714.51 1465.46 2713.66C1465.89 2712.81 1466.47 2712.14 1467.23 2711.67C1467.98 2711.19 1468.87 2710.95 1469.88 2710.95C1470.5 2710.95 1471.09 2711.05 1471.67 2711.25C1472.25 2711.46 1472.77 2711.78 1473.23 2712.21C1473.69 2712.65 1474.05 2713.21 1474.31 2713.91C1474.58 2714.6 1474.71 2715.44 1474.71 2716.43V2717.18H1466.04V2715.59H1472.63C1472.63 2715.04 1472.52 2714.54 1472.29 2714.11C1472.06 2713.67 1471.74 2713.33 1471.33 2713.08C1470.92 2712.83 1470.45 2712.7 1469.9 2712.7C1469.3 2712.7 1468.78 2712.85 1468.33 2713.14C1467.89 2713.43 1467.55 2713.81 1467.31 2714.28C1467.07 2714.74 1466.96 2715.25 1466.96 2715.79V2717.04C1466.96 2717.76 1467.08 2718.38 1467.34 2718.9C1467.6 2719.41 1467.96 2719.8 1468.43 2720.07C1468.89 2720.33 1469.43 2720.47 1470.05 2720.47C1470.46 2720.47 1470.82 2720.41 1471.15 2720.3C1471.49 2720.18 1471.77 2720 1472.01 2719.77C1472.25 2719.54 1472.44 2719.25 1472.57 2718.91L1474.58 2719.27C1474.42 2719.86 1474.13 2720.38 1473.71 2720.83C1473.3 2721.27 1472.78 2721.61 1472.16 2721.86C1471.53 2722.1 1470.83 2722.22 1470.03 2722.22ZM1481.15 2722.21C1480.27 2722.21 1479.49 2721.99 1478.79 2721.54C1478.11 2721.08 1477.57 2720.44 1477.17 2719.6C1476.79 2718.76 1476.59 2717.75 1476.59 2716.57C1476.59 2715.39 1476.79 2714.38 1477.18 2713.54C1477.58 2712.7 1478.12 2712.06 1478.82 2711.62C1479.51 2711.17 1480.29 2710.95 1481.17 2710.95C1481.84 2710.95 1482.39 2711.06 1482.8 2711.29C1483.22 2711.51 1483.54 2711.77 1483.77 2712.07C1484 2712.37 1484.18 2712.63 1484.31 2712.86H1484.43V2707.45H1486.56V2722H1484.48V2720.3H1484.31C1484.18 2720.53 1483.99 2720.8 1483.75 2721.1C1483.51 2721.4 1483.19 2721.66 1482.77 2721.88C1482.35 2722.1 1481.81 2722.21 1481.15 2722.21ZM1481.62 2720.4C1482.23 2720.4 1482.75 2720.24 1483.17 2719.92C1483.6 2719.59 1483.92 2719.14 1484.13 2718.56C1484.36 2717.98 1484.47 2717.31 1484.47 2716.55C1484.47 2715.79 1484.36 2715.12 1484.14 2714.56C1483.92 2713.99 1483.6 2713.55 1483.18 2713.23C1482.76 2712.91 1482.24 2712.75 1481.62 2712.75C1480.98 2712.75 1480.45 2712.92 1480.02 2713.25C1479.6 2713.58 1479.27 2714.03 1479.06 2714.61C1478.84 2715.18 1478.74 2715.83 1478.74 2716.55C1478.74 2717.27 1478.85 2717.93 1479.06 2718.51C1479.28 2719.1 1479.6 2719.56 1480.03 2719.9C1480.46 2720.23 1480.99 2720.4 1481.62 2720.4ZM1489.59 2722V2711.09H1491.71V2722H1489.59ZM1490.66 2709.41C1490.29 2709.41 1489.97 2709.28 1489.71 2709.04C1489.45 2708.79 1489.32 2708.49 1489.32 2708.14C1489.32 2707.79 1489.45 2707.49 1489.71 2707.25C1489.97 2707 1490.29 2706.87 1490.66 2706.87C1491.03 2706.87 1491.34 2707 1491.6 2707.25C1491.87 2707.49 1492 2707.79 1492 2708.14C1492 2708.49 1491.87 2708.79 1491.6 2709.04C1491.34 2709.28 1491.03 2709.41 1490.66 2709.41Z" fill="black"/>
<path d="M1380.87 2760.45L1384.92 2772.3H1385.08L1389.13 2760.45H1391.5L1386.27 2775H1383.73L1378.5 2760.45H1380.87ZM1393.43 2775V2764.09H1395.56V2775H1393.43ZM1394.5 2762.41C1394.13 2762.41 1393.82 2762.28 1393.55 2762.04C1393.29 2761.79 1393.16 2761.49 1393.16 2761.14C1393.16 2760.79 1393.29 2760.49 1393.55 2760.25C1393.82 2760 1394.13 2759.87 1394.5 2759.87C1394.87 2759.87 1395.19 2760 1395.45 2760.25C1395.71 2760.49 1395.85 2760.79 1395.85 2761.14C1395.85 2761.49 1395.71 2761.79 1395.45 2762.04C1395.19 2762.28 1394.87 2762.41 1394.5 2762.41ZM1400.37 2771.3L1400.35 2768.71H1400.72L1405.07 2764.09H1407.61L1402.65 2769.35H1402.32L1400.37 2771.3ZM1398.41 2775V2760.45H1400.54V2775H1398.41ZM1405.3 2775L1401.39 2769.82L1402.86 2768.33L1407.91 2775H1405.3ZM1409.54 2775V2764.09H1411.6V2765.82H1411.71C1411.91 2765.24 1412.26 2764.78 1412.76 2764.44C1413.27 2764.1 1413.84 2763.93 1414.48 2763.93C1414.61 2763.93 1414.77 2763.93 1414.95 2763.94C1415.13 2763.95 1415.28 2763.96 1415.38 2763.98V2766.01C1415.3 2765.98 1415.15 2765.96 1414.93 2765.93C1414.71 2765.9 1414.49 2765.88 1414.27 2765.88C1413.77 2765.88 1413.33 2765.99 1412.93 2766.2C1412.54 2766.41 1412.24 2766.7 1412.01 2767.07C1411.78 2767.44 1411.67 2767.86 1411.67 2768.34V2775H1409.54ZM1420.3 2775.24C1419.61 2775.24 1418.98 2775.11 1418.42 2774.86C1417.86 2774.6 1417.42 2774.22 1417.09 2773.73C1416.77 2773.24 1416.61 2772.63 1416.61 2771.92C1416.61 2771.3 1416.73 2770.8 1416.97 2770.4C1417.2 2770 1417.52 2769.69 1417.93 2769.45C1418.33 2769.22 1418.78 2769.05 1419.27 2768.93C1419.77 2768.81 1420.28 2768.72 1420.79 2768.66C1421.45 2768.58 1421.98 2768.52 1422.39 2768.47C1422.79 2768.42 1423.09 2768.34 1423.27 2768.22C1423.46 2768.11 1423.55 2767.93 1423.55 2767.67V2767.62C1423.55 2767 1423.38 2766.52 1423.02 2766.18C1422.68 2765.84 1422.16 2765.67 1421.48 2765.67C1420.76 2765.67 1420.2 2765.83 1419.79 2766.14C1419.38 2766.46 1419.1 2766.8 1418.94 2767.19L1416.95 2766.73C1417.18 2766.07 1417.53 2765.54 1417.98 2765.13C1418.44 2764.72 1418.97 2764.42 1419.57 2764.23C1420.16 2764.04 1420.79 2763.95 1421.45 2763.95C1421.88 2763.95 1422.35 2764 1422.83 2764.11C1423.33 2764.2 1423.78 2764.39 1424.21 2764.66C1424.64 2764.93 1424.99 2765.31 1425.27 2765.82C1425.54 2766.31 1425.68 2766.96 1425.68 2767.76V2775H1423.61V2773.51H1423.52C1423.38 2773.78 1423.18 2774.05 1422.9 2774.32C1422.63 2774.58 1422.28 2774.8 1421.85 2774.98C1421.42 2775.15 1420.9 2775.24 1420.3 2775.24ZM1420.76 2773.54C1421.35 2773.54 1421.85 2773.42 1422.26 2773.19C1422.69 2772.96 1423.01 2772.65 1423.22 2772.28C1423.45 2771.9 1423.56 2771.5 1423.56 2771.07V2769.66C1423.48 2769.73 1423.33 2769.81 1423.12 2769.87C1422.9 2769.93 1422.66 2769.99 1422.39 2770.04C1422.11 2770.08 1421.84 2770.12 1421.58 2770.16C1421.32 2770.19 1421.1 2770.22 1420.93 2770.24C1420.52 2770.29 1420.14 2770.38 1419.8 2770.5C1419.46 2770.63 1419.19 2770.8 1418.99 2771.04C1418.79 2771.26 1418.69 2771.57 1418.69 2771.95C1418.69 2772.47 1418.89 2772.87 1419.27 2773.14C1419.66 2773.4 1420.16 2773.54 1420.76 2773.54ZM1428.51 2775V2764.09H1430.55V2765.87H1430.68C1430.91 2765.27 1431.28 2764.8 1431.8 2764.46C1432.31 2764.12 1432.93 2763.95 1433.65 2763.95C1434.38 2763.95 1434.99 2764.12 1435.48 2764.46C1435.98 2764.8 1436.35 2765.27 1436.58 2765.87H1436.7C1436.96 2765.28 1437.37 2764.82 1437.94 2764.47C1438.51 2764.12 1439.19 2763.95 1439.97 2763.95C1440.96 2763.95 1441.77 2764.26 1442.39 2764.88C1443.02 2765.5 1443.34 2766.43 1443.34 2767.68V2775H1441.22V2767.88C1441.22 2767.14 1441.01 2766.61 1440.61 2766.28C1440.21 2765.95 1439.73 2765.78 1439.17 2765.78C1438.48 2765.78 1437.94 2765.99 1437.56 2766.42C1437.17 2766.84 1436.98 2767.38 1436.98 2768.05V2775H1434.87V2767.75C1434.87 2767.16 1434.68 2766.68 1434.31 2766.32C1433.94 2765.96 1433.46 2765.78 1432.87 2765.78C1432.47 2765.78 1432.1 2765.89 1431.76 2766.1C1431.42 2766.31 1431.15 2766.6 1430.94 2766.97C1430.73 2767.35 1430.63 2767.78 1430.63 2768.27V2775H1428.51ZM1451.65 2775V2760.45H1456.83C1457.97 2760.45 1458.9 2760.66 1459.65 2761.07C1460.39 2761.48 1460.95 2762.05 1461.31 2762.76C1461.68 2763.47 1461.87 2764.27 1461.87 2765.16C1461.87 2766.06 1461.68 2766.86 1461.31 2767.58C1460.94 2768.29 1460.38 2768.85 1459.63 2769.27C1458.89 2769.68 1457.95 2769.89 1456.83 2769.89H1453.26V2768.03H1456.63C1457.34 2768.03 1457.92 2767.9 1458.37 2767.66C1458.81 2767.41 1459.14 2767.06 1459.35 2766.63C1459.56 2766.2 1459.66 2765.71 1459.66 2765.16C1459.66 2764.61 1459.56 2764.13 1459.35 2763.7C1459.14 2763.27 1458.81 2762.94 1458.36 2762.7C1457.92 2762.46 1457.33 2762.34 1456.6 2762.34H1453.84V2775H1451.65ZM1467.35 2775.24C1466.66 2775.24 1466.03 2775.11 1465.47 2774.86C1464.91 2774.6 1464.47 2774.22 1464.15 2773.73C1463.82 2773.24 1463.66 2772.63 1463.66 2771.92C1463.66 2771.3 1463.78 2770.8 1464.02 2770.4C1464.25 2770 1464.57 2769.69 1464.98 2769.45C1465.38 2769.22 1465.83 2769.05 1466.33 2768.93C1466.82 2768.81 1467.33 2768.72 1467.85 2768.66C1468.5 2768.58 1469.03 2768.52 1469.44 2768.47C1469.84 2768.42 1470.14 2768.34 1470.32 2768.22C1470.51 2768.11 1470.6 2767.93 1470.6 2767.67V2767.62C1470.6 2767 1470.43 2766.52 1470.08 2766.18C1469.73 2765.84 1469.21 2765.67 1468.53 2765.67C1467.81 2765.67 1467.25 2765.83 1466.84 2766.14C1466.43 2766.46 1466.15 2766.8 1465.99 2767.19L1464 2766.73C1464.23 2766.07 1464.58 2765.54 1465.03 2765.13C1465.49 2764.72 1466.02 2764.42 1466.62 2764.23C1467.21 2764.04 1467.84 2763.95 1468.5 2763.95C1468.93 2763.95 1469.4 2764 1469.88 2764.11C1470.38 2764.2 1470.84 2764.39 1471.26 2764.66C1471.69 2764.93 1472.05 2765.31 1472.32 2765.82C1472.59 2766.31 1472.73 2766.96 1472.73 2767.76V2775H1470.66V2773.51H1470.57C1470.44 2773.78 1470.23 2774.05 1469.95 2774.32C1469.68 2774.58 1469.33 2774.8 1468.9 2774.98C1468.47 2775.15 1467.95 2775.24 1467.35 2775.24ZM1467.81 2773.54C1468.4 2773.54 1468.9 2773.42 1469.32 2773.19C1469.74 2772.96 1470.06 2772.65 1470.27 2772.28C1470.5 2771.9 1470.61 2771.5 1470.61 2771.07V2769.66C1470.53 2769.73 1470.39 2769.81 1470.17 2769.87C1469.95 2769.93 1469.71 2769.99 1469.44 2770.04C1469.16 2770.08 1468.89 2770.12 1468.63 2770.16C1468.37 2770.19 1468.16 2770.22 1467.98 2770.24C1467.57 2770.29 1467.19 2770.38 1466.85 2770.5C1466.52 2770.63 1466.25 2770.8 1466.04 2771.04C1465.84 2771.26 1465.74 2771.57 1465.74 2771.95C1465.74 2772.47 1465.94 2772.87 1466.33 2773.14C1466.71 2773.4 1467.21 2773.54 1467.81 2773.54ZM1480.65 2764.09V2765.8H1474.69V2764.09H1480.65ZM1476.29 2761.48H1478.42V2771.8C1478.42 2772.21 1478.48 2772.52 1478.6 2772.73C1478.72 2772.93 1478.88 2773.07 1479.08 2773.15C1479.27 2773.22 1479.49 2773.25 1479.72 2773.25C1479.89 2773.25 1480.04 2773.24 1480.17 2773.22C1480.3 2773.19 1480.4 2773.17 1480.47 2773.16L1480.85 2774.91C1480.73 2774.96 1480.55 2775.01 1480.33 2775.06C1480.1 2775.11 1479.81 2775.14 1479.47 2775.14C1478.92 2775.15 1478.39 2775.05 1477.91 2774.84C1477.43 2774.64 1477.04 2774.31 1476.74 2773.88C1476.44 2773.44 1476.29 2772.9 1476.29 2772.24V2761.48ZM1487.59 2775.22C1486.51 2775.22 1485.59 2774.99 1484.81 2774.53C1484.04 2774.07 1483.44 2773.42 1483.02 2772.58C1482.6 2771.74 1482.39 2770.75 1482.39 2769.62C1482.39 2768.5 1482.6 2767.51 1483.02 2766.66C1483.44 2765.81 1484.03 2765.14 1484.78 2764.67C1485.54 2764.19 1486.42 2763.95 1487.44 2763.95C1488.05 2763.95 1488.65 2764.05 1489.23 2764.25C1489.8 2764.46 1490.32 2764.78 1490.78 2765.21C1491.24 2765.65 1491.6 2766.21 1491.87 2766.91C1492.13 2767.6 1492.27 2768.44 1492.27 2769.43V2770.18H1483.59V2768.59H1490.19C1490.19 2768.04 1490.07 2767.54 1489.84 2767.11C1489.62 2766.67 1489.3 2766.33 1488.89 2766.08C1488.48 2765.83 1488 2765.7 1487.45 2765.7C1486.85 2765.7 1486.33 2765.85 1485.89 2766.14C1485.45 2766.43 1485.11 2766.81 1484.87 2767.28C1484.63 2767.74 1484.51 2768.25 1484.51 2768.79V2770.04C1484.51 2770.76 1484.64 2771.38 1484.89 2771.9C1485.15 2772.41 1485.52 2772.8 1485.98 2773.07C1486.45 2773.33 1486.99 2773.47 1487.61 2773.47C1488.01 2773.47 1488.38 2773.41 1488.71 2773.3C1489.04 2773.18 1489.33 2773 1489.57 2772.77C1489.81 2772.54 1489.99 2772.25 1490.12 2771.91L1492.13 2772.27C1491.97 2772.86 1491.68 2773.38 1491.27 2773.83C1490.85 2774.27 1490.33 2774.61 1489.71 2774.86C1489.09 2775.1 1488.38 2775.22 1487.59 2775.22ZM1496.75 2760.45V2775H1494.62V2760.45H1496.75Z" fill="black"/>
<path d="M1391.44 2827.05C1391.3 2826.62 1391.12 2826.23 1390.89 2825.89C1390.66 2825.55 1390.39 2825.25 1390.07 2825.01C1389.75 2824.77 1389.39 2824.58 1388.98 2824.45C1388.58 2824.32 1388.14 2824.26 1387.66 2824.26C1386.84 2824.26 1386.1 2824.47 1385.44 2824.89C1384.78 2825.31 1384.26 2825.93 1383.88 2826.74C1383.5 2827.55 1383.31 2828.55 1383.31 2829.72C1383.31 2830.9 1383.5 2831.9 1383.88 2832.71C1384.27 2833.52 1384.79 2834.14 1385.46 2834.56C1386.13 2834.99 1386.89 2835.2 1387.74 2835.2C1388.53 2835.2 1389.22 2835.04 1389.81 2834.71C1390.4 2834.39 1390.86 2833.94 1391.18 2833.35C1391.51 2832.76 1391.67 2832.06 1391.67 2831.26L1392.24 2831.37H1388.08V2829.56H1393.79V2831.21C1393.79 2832.43 1393.53 2833.49 1393.01 2834.39C1392.5 2835.29 1391.78 2835.98 1390.87 2836.47C1389.96 2836.96 1388.92 2837.2 1387.74 2837.2C1386.43 2837.2 1385.27 2836.9 1384.28 2836.29C1383.29 2835.68 1382.51 2834.82 1381.96 2833.71C1381.41 2832.59 1381.13 2831.27 1381.13 2829.73C1381.13 2828.57 1381.29 2827.53 1381.61 2826.61C1381.93 2825.69 1382.39 2824.9 1382.97 2824.26C1383.56 2823.61 1384.24 2823.12 1385.04 2822.77C1385.83 2822.43 1386.7 2822.26 1387.64 2822.26C1388.43 2822.26 1389.16 2822.37 1389.84 2822.6C1390.52 2822.84 1391.12 2823.16 1391.65 2823.59C1392.19 2824.02 1392.63 2824.52 1392.98 2825.11C1393.33 2825.69 1393.57 2826.34 1393.69 2827.05H1391.44ZM1401.11 2837.22C1400.03 2837.22 1399.11 2836.99 1398.33 2836.53C1397.56 2836.07 1396.96 2835.42 1396.54 2834.58C1396.13 2833.74 1395.92 2832.75 1395.92 2831.62C1395.92 2830.5 1396.13 2829.51 1396.54 2828.66C1396.96 2827.81 1397.55 2827.14 1398.3 2826.67C1399.06 2826.19 1399.95 2825.95 1400.96 2825.95C1401.58 2825.95 1402.17 2826.05 1402.75 2826.25C1403.33 2826.46 1403.85 2826.78 1404.31 2827.21C1404.77 2827.65 1405.13 2828.21 1405.39 2828.91C1405.66 2829.6 1405.79 2830.44 1405.79 2831.43V2832.18H1397.12V2830.59H1403.71C1403.71 2830.04 1403.6 2829.54 1403.37 2829.11C1403.14 2828.67 1402.82 2828.33 1402.41 2828.08C1402 2827.83 1401.52 2827.7 1400.97 2827.7C1400.38 2827.7 1399.86 2827.85 1399.41 2828.14C1398.97 2828.43 1398.63 2828.81 1398.39 2829.28C1398.15 2829.74 1398.03 2830.25 1398.03 2830.79V2832.04C1398.03 2832.76 1398.16 2833.38 1398.42 2833.9C1398.68 2834.41 1399.04 2834.8 1399.5 2835.07C1399.97 2835.33 1400.51 2835.47 1401.13 2835.47C1401.53 2835.47 1401.9 2835.41 1402.23 2835.3C1402.56 2835.18 1402.85 2835 1403.09 2834.77C1403.33 2834.54 1403.52 2834.25 1403.65 2833.91L1405.66 2834.27C1405.49 2834.86 1405.21 2835.38 1404.79 2835.83C1404.38 2836.27 1403.86 2836.61 1403.23 2836.86C1402.61 2837.1 1401.91 2837.22 1401.11 2837.22ZM1412.85 2837.22C1411.77 2837.22 1410.85 2836.99 1410.07 2836.53C1409.3 2836.07 1408.7 2835.42 1408.28 2834.58C1407.86 2833.74 1407.66 2832.75 1407.66 2831.62C1407.66 2830.5 1407.86 2829.51 1408.28 2828.66C1408.7 2827.81 1409.29 2827.14 1410.04 2826.67C1410.8 2826.19 1411.69 2825.95 1412.7 2825.95C1413.31 2825.95 1413.91 2826.05 1414.49 2826.25C1415.07 2826.46 1415.58 2826.78 1416.04 2827.21C1416.5 2827.65 1416.87 2828.21 1417.13 2828.91C1417.4 2829.6 1417.53 2830.44 1417.53 2831.43V2832.18H1408.86V2830.59H1415.45C1415.45 2830.04 1415.33 2829.54 1415.11 2829.11C1414.88 2828.67 1414.56 2828.33 1414.15 2828.08C1413.74 2827.83 1413.26 2827.7 1412.71 2827.7C1412.12 2827.7 1411.6 2827.85 1411.15 2828.14C1410.71 2828.43 1410.37 2828.81 1410.13 2829.28C1409.89 2829.74 1409.77 2830.25 1409.77 2830.79V2832.04C1409.77 2832.76 1409.9 2833.38 1410.16 2833.9C1410.42 2834.41 1410.78 2834.8 1411.24 2835.07C1411.71 2835.33 1412.25 2835.47 1412.87 2835.47C1413.27 2835.47 1413.64 2835.41 1413.97 2835.3C1414.3 2835.18 1414.59 2835 1414.83 2834.77C1415.07 2834.54 1415.26 2834.25 1415.38 2833.91L1417.39 2834.27C1417.23 2834.86 1416.94 2835.38 1416.53 2835.83C1416.12 2836.27 1415.6 2836.61 1414.97 2836.86C1414.35 2837.1 1413.64 2837.22 1412.85 2837.22ZM1424.98 2826.09V2827.8H1419.02V2826.09H1424.98ZM1420.62 2823.48H1422.74V2833.8C1422.74 2834.21 1422.8 2834.52 1422.92 2834.73C1423.05 2834.93 1423.21 2835.07 1423.4 2835.15C1423.6 2835.22 1423.81 2835.25 1424.05 2835.25C1424.22 2835.25 1424.37 2835.24 1424.49 2835.22C1424.62 2835.19 1424.72 2835.17 1424.79 2835.16L1425.18 2836.91C1425.05 2836.96 1424.88 2837.01 1424.65 2837.06C1424.42 2837.11 1424.14 2837.14 1423.8 2837.14C1423.24 2837.15 1422.72 2837.05 1422.24 2836.84C1421.75 2836.64 1421.36 2836.31 1421.06 2835.88C1420.77 2835.44 1420.62 2834.9 1420.62 2834.24V2823.48ZM1429.68 2830.52V2837H1427.56V2822.45H1429.66V2827.87H1429.79C1430.05 2827.28 1430.44 2826.81 1430.96 2826.47C1431.49 2826.12 1432.17 2825.95 1433.02 2825.95C1433.77 2825.95 1434.42 2826.1 1434.98 2826.41C1435.55 2826.72 1435.98 2827.18 1436.29 2827.79C1436.6 2828.39 1436.76 2829.15 1436.76 2830.06V2837H1434.63V2830.32C1434.63 2829.52 1434.43 2828.9 1434.02 2828.46C1433.6 2828.01 1433.03 2827.79 1432.3 2827.79C1431.8 2827.79 1431.35 2827.89 1430.95 2828.11C1430.56 2828.32 1430.25 2828.63 1430.02 2829.05C1429.8 2829.45 1429.68 2829.95 1429.68 2830.52ZM1442.77 2837.24C1442.08 2837.24 1441.45 2837.11 1440.89 2836.86C1440.33 2836.6 1439.89 2836.22 1439.56 2835.73C1439.24 2835.24 1439.08 2834.63 1439.08 2833.92C1439.08 2833.3 1439.2 2832.8 1439.44 2832.4C1439.67 2832 1439.99 2831.69 1440.39 2831.45C1440.8 2831.22 1441.25 2831.05 1441.74 2830.93C1442.24 2830.81 1442.75 2830.72 1443.26 2830.66C1443.92 2830.58 1444.45 2830.52 1444.85 2830.47C1445.26 2830.42 1445.56 2830.34 1445.74 2830.22C1445.93 2830.11 1446.02 2829.93 1446.02 2829.67V2829.62C1446.02 2829 1445.84 2828.52 1445.49 2828.18C1445.15 2827.84 1444.63 2827.67 1443.95 2827.67C1443.23 2827.67 1442.67 2827.83 1442.25 2828.14C1441.85 2828.46 1441.57 2828.8 1441.41 2829.19L1439.41 2828.73C1439.65 2828.07 1440 2827.54 1440.45 2827.13C1440.91 2826.72 1441.44 2826.42 1442.03 2826.23C1442.63 2826.04 1443.26 2825.95 1443.92 2825.95C1444.35 2825.95 1444.81 2826 1445.3 2826.11C1445.79 2826.2 1446.25 2826.39 1446.68 2826.66C1447.11 2826.93 1447.46 2827.31 1447.74 2827.82C1448.01 2828.31 1448.15 2828.96 1448.15 2829.76V2837H1446.08V2835.51H1445.99C1445.85 2835.78 1445.65 2836.05 1445.37 2836.32C1445.1 2836.58 1444.75 2836.8 1444.31 2836.98C1443.88 2837.15 1443.37 2837.24 1442.77 2837.24ZM1443.23 2835.54C1443.82 2835.54 1444.32 2835.42 1444.73 2835.19C1445.16 2834.96 1445.47 2834.65 1445.69 2834.28C1445.92 2833.9 1446.03 2833.5 1446.03 2833.07V2831.66C1445.95 2831.73 1445.8 2831.81 1445.59 2831.87C1445.37 2831.93 1445.13 2831.99 1444.85 2832.04C1444.58 2832.08 1444.31 2832.12 1444.05 2832.16C1443.79 2832.19 1443.57 2832.22 1443.4 2832.24C1442.99 2832.29 1442.61 2832.38 1442.27 2832.5C1441.93 2832.63 1441.66 2832.8 1441.46 2833.04C1441.26 2833.26 1441.16 2833.57 1441.16 2833.95C1441.16 2834.47 1441.36 2834.87 1441.74 2835.14C1442.13 2835.4 1442.63 2835.54 1443.23 2835.54ZM1456.27 2826.09H1458.39V2837.71C1458.39 2838.44 1458.26 2839.05 1458 2839.56C1457.74 2840.06 1457.35 2840.44 1456.83 2840.7C1456.32 2840.96 1455.69 2841.09 1454.94 2841.09C1454.86 2841.09 1454.79 2841.09 1454.72 2841.09C1454.65 2841.09 1454.58 2841.09 1454.5 2841.08V2839.26C1454.57 2839.26 1454.63 2839.26 1454.68 2839.26C1454.73 2839.26 1454.78 2839.26 1454.84 2839.26C1455.35 2839.26 1455.71 2839.12 1455.93 2838.85C1456.16 2838.59 1456.27 2838.2 1456.27 2837.7V2826.09ZM1457.32 2824.41C1456.95 2824.41 1456.64 2824.28 1456.37 2824.04C1456.11 2823.79 1455.98 2823.49 1455.98 2823.14C1455.98 2822.79 1456.11 2822.49 1456.37 2822.25C1456.64 2822 1456.95 2821.87 1457.32 2821.87C1457.69 2821.87 1458.01 2822 1458.27 2822.25C1458.53 2822.49 1458.66 2822.79 1458.66 2823.14C1458.66 2823.49 1458.53 2823.79 1458.27 2824.04C1458.01 2824.28 1457.69 2824.41 1457.32 2824.41ZM1465.95 2837.22C1464.88 2837.22 1463.95 2836.99 1463.18 2836.53C1462.4 2836.07 1461.81 2835.42 1461.39 2834.58C1460.97 2833.74 1460.76 2832.75 1460.76 2831.62C1460.76 2830.5 1460.97 2829.51 1461.39 2828.66C1461.81 2827.81 1462.4 2827.14 1463.15 2826.67C1463.91 2826.19 1464.79 2825.95 1465.8 2825.95C1466.42 2825.95 1467.02 2826.05 1467.59 2826.25C1468.17 2826.46 1468.69 2826.78 1469.15 2827.21C1469.61 2827.65 1469.97 2828.21 1470.24 2828.91C1470.5 2829.6 1470.63 2830.44 1470.63 2831.43V2832.18H1461.96V2830.59H1468.55C1468.55 2830.04 1468.44 2829.54 1468.21 2829.11C1467.98 2828.67 1467.67 2828.33 1467.25 2828.08C1466.85 2827.83 1466.37 2827.7 1465.82 2827.7C1465.22 2827.7 1464.7 2827.85 1464.26 2828.14C1463.82 2828.43 1463.47 2828.81 1463.23 2829.28C1463 2829.74 1462.88 2830.25 1462.88 2830.79V2832.04C1462.88 2832.76 1463.01 2833.38 1463.26 2833.9C1463.52 2834.41 1463.88 2834.8 1464.35 2835.07C1464.81 2835.33 1465.35 2835.47 1465.97 2835.47C1466.38 2835.47 1466.74 2835.41 1467.08 2835.3C1467.41 2835.18 1467.69 2835 1467.94 2834.77C1468.18 2834.54 1468.36 2834.25 1468.49 2833.91L1470.5 2834.27C1470.34 2834.86 1470.05 2835.38 1469.63 2835.83C1469.22 2836.27 1468.7 2836.61 1468.08 2836.86C1467.46 2837.1 1466.75 2837.22 1465.95 2837.22ZM1477.69 2837.22C1476.62 2837.22 1475.69 2836.99 1474.91 2836.53C1474.14 2836.07 1473.55 2835.42 1473.12 2834.58C1472.71 2833.74 1472.5 2832.75 1472.5 2831.62C1472.5 2830.5 1472.71 2829.51 1473.12 2828.66C1473.55 2827.81 1474.13 2827.14 1474.89 2826.67C1475.64 2826.19 1476.53 2825.95 1477.54 2825.95C1478.16 2825.95 1478.75 2826.05 1479.33 2826.25C1479.91 2826.46 1480.43 2826.78 1480.89 2827.21C1481.35 2827.65 1481.71 2828.21 1481.97 2828.91C1482.24 2829.6 1482.37 2830.44 1482.37 2831.43V2832.18H1473.7V2830.59H1480.29C1480.29 2830.04 1480.18 2829.54 1479.95 2829.11C1479.72 2828.67 1479.4 2828.33 1478.99 2828.08C1478.58 2827.83 1478.11 2827.7 1477.56 2827.7C1476.96 2827.7 1476.44 2827.85 1475.99 2828.14C1475.55 2828.43 1475.21 2828.81 1474.97 2829.28C1474.73 2829.74 1474.62 2830.25 1474.62 2830.79V2832.04C1474.62 2832.76 1474.74 2833.38 1475 2833.9C1475.26 2834.41 1475.62 2834.8 1476.09 2835.07C1476.55 2835.33 1477.09 2835.47 1477.71 2835.47C1478.12 2835.47 1478.48 2835.41 1478.81 2835.3C1479.15 2835.18 1479.43 2835 1479.67 2834.77C1479.91 2834.54 1480.1 2834.25 1480.23 2833.91L1482.24 2834.27C1482.08 2834.86 1481.79 2835.38 1481.37 2835.83C1480.96 2836.27 1480.44 2836.61 1479.82 2836.86C1479.2 2837.1 1478.49 2837.22 1477.69 2837.22ZM1493.75 2826.09L1489.79 2837H1487.52L1483.56 2826.09H1485.84L1488.6 2834.49H1488.71L1491.47 2826.09H1493.75ZM1498.61 2837.24C1497.91 2837.24 1497.29 2837.11 1496.73 2836.86C1496.17 2836.6 1495.73 2836.22 1495.4 2835.73C1495.08 2835.24 1494.92 2834.63 1494.92 2833.92C1494.92 2833.3 1495.04 2832.8 1495.28 2832.4C1495.51 2832 1495.83 2831.69 1496.23 2831.45C1496.64 2831.22 1497.09 2831.05 1497.58 2830.93C1498.08 2830.81 1498.59 2830.72 1499.1 2830.66C1499.76 2830.58 1500.29 2830.52 1500.69 2830.47C1501.1 2830.42 1501.4 2830.34 1501.58 2830.22C1501.77 2830.11 1501.86 2829.93 1501.86 2829.67V2829.62C1501.86 2829 1501.68 2828.52 1501.33 2828.18C1500.99 2827.84 1500.47 2827.67 1499.79 2827.67C1499.07 2827.67 1498.51 2827.83 1498.09 2828.14C1497.69 2828.46 1497.41 2828.8 1497.25 2829.19L1495.25 2828.73C1495.49 2828.07 1495.84 2827.54 1496.29 2827.13C1496.75 2826.72 1497.28 2826.42 1497.87 2826.23C1498.47 2826.04 1499.1 2825.95 1499.76 2825.95C1500.19 2825.95 1500.65 2826 1501.14 2826.11C1501.63 2826.2 1502.09 2826.39 1502.52 2826.66C1502.95 2826.93 1503.3 2827.31 1503.58 2827.82C1503.85 2828.31 1503.99 2828.96 1503.99 2829.76V2837H1501.92V2835.51H1501.83C1501.69 2835.78 1501.49 2836.05 1501.21 2836.32C1500.94 2836.58 1500.59 2836.8 1500.15 2836.98C1499.72 2837.15 1499.21 2837.24 1498.61 2837.24ZM1499.07 2835.54C1499.65 2835.54 1500.16 2835.42 1500.57 2835.19C1500.99 2834.96 1501.31 2834.65 1501.53 2834.28C1501.75 2833.9 1501.87 2833.5 1501.87 2833.07V2831.66C1501.79 2831.73 1501.64 2831.81 1501.43 2831.87C1501.21 2831.93 1500.97 2831.99 1500.69 2832.04C1500.42 2832.08 1500.15 2832.12 1499.89 2832.16C1499.63 2832.19 1499.41 2832.22 1499.24 2832.24C1498.83 2832.29 1498.45 2832.38 1498.11 2832.5C1497.77 2832.63 1497.5 2832.8 1497.3 2833.04C1497.1 2833.26 1497 2833.57 1497 2833.95C1497 2834.47 1497.2 2834.87 1497.58 2835.14C1497.97 2835.4 1498.47 2835.54 1499.07 2835.54Z" fill="black"/>
<path d="M1360.92 2707.45V2722H1358.72V2709.66H1358.63L1355.15 2711.93V2709.83L1358.78 2707.45H1360.92Z" fill="black"/>
<path d="M1355.4 2776V2774.41L1360.32 2769.31C1360.85 2768.76 1361.28 2768.27 1361.62 2767.85C1361.97 2767.43 1362.22 2767.03 1362.39 2766.65C1362.57 2766.27 1362.65 2765.87 1362.65 2765.45C1362.65 2764.96 1362.54 2764.55 1362.31 2764.2C1362.08 2763.84 1361.77 2763.57 1361.38 2763.38C1360.99 2763.19 1360.54 2763.09 1360.05 2763.09C1359.53 2763.09 1359.08 2763.19 1358.69 2763.41C1358.3 2763.62 1358 2763.92 1357.79 2764.31C1357.58 2764.7 1357.48 2765.15 1357.48 2765.67H1355.38C1355.38 2764.79 1355.59 2764.01 1356 2763.35C1356.4 2762.69 1356.96 2762.17 1357.67 2761.81C1358.38 2761.44 1359.19 2761.26 1360.09 2761.26C1361.01 2761.26 1361.81 2761.44 1362.51 2761.8C1363.21 2762.16 1363.76 2762.65 1364.15 2763.28C1364.54 2763.9 1364.74 2764.6 1364.74 2765.38C1364.74 2765.92 1364.64 2766.45 1364.43 2766.97C1364.23 2767.48 1363.89 2768.06 1363.39 2768.69C1362.89 2769.32 1362.2 2770.09 1361.32 2770.99L1358.42 2774.01V2774.12H1364.97V2776H1355.4Z" fill="black"/>
<path d="M1361.46 2837.2C1360.49 2837.2 1359.62 2837.03 1358.85 2836.69C1358.09 2836.36 1357.48 2835.89 1357.04 2835.3C1356.6 2834.69 1356.36 2834 1356.33 2833.21H1358.56C1358.59 2833.64 1358.73 2834.01 1358.99 2834.33C1359.26 2834.64 1359.6 2834.88 1360.03 2835.05C1360.45 2835.22 1360.93 2835.31 1361.45 2835.31C1362.02 2835.31 1362.53 2835.21 1362.97 2835.01C1363.41 2834.81 1363.76 2834.54 1364.01 2834.18C1364.26 2833.82 1364.39 2833.41 1364.39 2832.94C1364.39 2832.45 1364.26 2832.02 1364.01 2831.65C1363.77 2831.28 1363.4 2830.98 1362.93 2830.77C1362.45 2830.56 1361.88 2830.45 1361.21 2830.45H1359.98V2828.66H1361.21C1361.75 2828.66 1362.22 2828.56 1362.63 2828.37C1363.04 2828.18 1363.36 2827.91 1363.59 2827.56C1363.83 2827.21 1363.94 2826.8 1363.94 2826.33C1363.94 2825.88 1363.84 2825.49 1363.64 2825.16C1363.44 2824.82 1363.15 2824.56 1362.78 2824.37C1362.42 2824.18 1361.99 2824.09 1361.49 2824.09C1361.02 2824.09 1360.58 2824.18 1360.16 2824.35C1359.76 2824.52 1359.42 2824.77 1359.17 2825.09C1358.91 2825.41 1358.78 2825.79 1358.76 2826.23H1356.63C1356.66 2825.45 1356.89 2824.76 1357.33 2824.16C1357.77 2823.56 1358.36 2823.1 1359.09 2822.76C1359.82 2822.42 1360.63 2822.26 1361.52 2822.26C1362.45 2822.26 1363.26 2822.44 1363.93 2822.8C1364.62 2823.16 1365.14 2823.64 1365.51 2824.24C1365.89 2824.85 1366.07 2825.5 1366.07 2826.22C1366.07 2827.03 1365.84 2827.72 1365.38 2828.29C1364.93 2828.86 1364.32 2829.24 1363.57 2829.44V2829.55C1364.53 2829.7 1365.28 2830.08 1365.81 2830.7C1366.34 2831.32 1366.61 2832.09 1366.61 2833.01C1366.61 2833.81 1366.39 2834.53 1365.94 2835.16C1365.49 2835.79 1364.88 2836.29 1364.11 2836.66C1363.34 2837.02 1362.46 2837.2 1361.46 2837.2Z" fill="black"/>
<path d="M1629.71 2818.38C1629.71 2817.06 1628.44 2816 1626.86 2816C1625.28 2816 1624 2817.06 1624 2818.38V2820.75V2843.31V2851.62C1624 2852.94 1625.28 2854 1626.86 2854C1628.44 2854 1629.71 2852.94 1629.71 2851.62V2842.12L1635.46 2840.93C1639.13 2840.17 1643.01 2840.52 1646.39 2841.92C1650.34 2843.56 1654.92 2843.77 1659.04 2842.47L1662.14 2841.51C1663.26 2841.16 1664 2840.28 1664 2839.28V2820.91C1664 2819.2 1661.84 2818.09 1660 2818.85L1659.14 2819.21C1655.01 2820.93 1650.14 2820.93 1646.01 2819.21C1642.87 2817.9 1639.28 2817.57 1635.88 2818.28L1629.71 2819.56V2818.38Z" fill="#59478C"/>
<path d="M1640.5 2748C1641.8 2748 1642.85 2749.09 1642.85 2750.44V2755.31H1651.66C1654.59 2755.31 1656.95 2757.77 1656.95 2760.8V2781.52C1656.95 2784.55 1654.59 2787 1651.66 2787H1629.34C1626.41 2787 1624.05 2784.55 1624.05 2781.52V2760.8C1624.05 2757.77 1626.41 2755.31 1629.34 2755.31H1638.15V2750.44C1638.15 2749.09 1639.2 2748 1640.5 2748ZM1632.27 2777.25C1631.63 2777.25 1631.1 2777.8 1631.1 2778.47C1631.1 2779.14 1631.63 2779.69 1632.27 2779.69H1634.62C1635.27 2779.69 1635.8 2779.14 1635.8 2778.47C1635.8 2777.8 1635.27 2777.25 1634.62 2777.25H1632.27ZM1639.32 2777.25C1638.68 2777.25 1638.15 2777.8 1638.15 2778.47C1638.15 2779.14 1638.68 2779.69 1639.32 2779.69H1641.67C1642.32 2779.69 1642.85 2779.14 1642.85 2778.47C1642.85 2777.8 1642.32 2777.25 1641.67 2777.25H1639.32ZM1646.37 2777.25C1645.73 2777.25 1645.2 2777.8 1645.2 2778.47C1645.2 2779.14 1645.73 2779.69 1646.37 2779.69H1648.72C1649.37 2779.69 1649.9 2779.14 1649.9 2778.47C1649.9 2777.8 1649.37 2777.25 1648.72 2777.25H1646.37ZM1636.39 2767.5C1636.39 2766.69 1636.08 2765.92 1635.53 2765.35C1634.98 2764.77 1634.23 2764.45 1633.45 2764.45C1632.67 2764.45 1631.92 2764.77 1631.37 2765.35C1630.82 2765.92 1630.51 2766.69 1630.51 2767.5C1630.51 2768.31 1630.82 2769.08 1631.37 2769.65C1631.92 2770.23 1632.67 2770.55 1633.45 2770.55C1634.23 2770.55 1634.98 2770.23 1635.53 2769.65C1636.08 2769.08 1636.39 2768.31 1636.39 2767.5ZM1647.55 2770.55C1648.33 2770.55 1649.08 2770.23 1649.63 2769.65C1650.18 2769.08 1650.49 2768.31 1650.49 2767.5C1650.49 2766.69 1650.18 2765.92 1649.63 2765.35C1649.08 2764.77 1648.33 2764.45 1647.55 2764.45C1646.77 2764.45 1646.02 2764.77 1645.47 2765.35C1644.92 2765.92 1644.61 2766.69 1644.61 2767.5C1644.61 2768.31 1644.92 2769.08 1645.47 2769.65C1646.02 2770.23 1646.77 2770.55 1647.55 2770.55ZM1620.52 2765.06H1621.7V2779.69H1620.52C1618.58 2779.69 1617 2778.05 1617 2776.03V2768.72C1617 2766.7 1618.58 2765.06 1620.52 2765.06ZM1660.47 2765.06C1662.42 2765.06 1664 2766.7 1664 2768.72V2776.03C1664 2778.05 1662.42 2779.69 1660.47 2779.69H1659.3V2765.06H1660.47Z" fill="#B53333"/>
<path d="M1644.78 2694.15C1638.49 2694.15 1633.16 2698.29 1631.35 2703.99C1634.04 2702.62 1637.08 2701.86 1640.3 2701.86H1647.34C1648.05 2701.86 1648.62 2702.44 1648.62 2703.15C1648.62 2703.85 1648.05 2704.43 1647.34 2704.43H1646.06H1640.3C1638.97 2704.43 1637.68 2704.58 1636.44 2704.87C1634.36 2705.34 1632.43 2706.18 1630.72 2707.33C1626.07 2710.44 1623 2715.75 1623 2721.79V2723.07C1623 2724.14 1623.86 2725 1624.92 2725C1625.99 2725 1626.84 2724.14 1626.84 2723.07V2721.79C1626.84 2717.87 1628.5 2714.35 1631.15 2711.89C1632.74 2717.95 1638.24 2722.43 1644.78 2722.43H1644.86C1655.44 2722.37 1664 2711.91 1664 2699.02C1664 2695.59 1663.4 2692.34 1662.31 2689.41C1662.1 2688.85 1661.29 2688.88 1661.01 2689.4C1659.51 2692.23 1656.53 2694.15 1653.11 2694.15H1644.78Z" fill="#49923D"/>
<path d="M1769.87 2595.45L1773.92 2607.3H1774.08L1778.13 2595.45H1780.5L1775.27 2610H1772.73L1767.5 2595.45H1769.87ZM1782.6 2595.45H1785.27L1789.9 2606.76H1790.07L1794.7 2595.45H1797.36V2610H1795.27V2599.47H1795.14L1790.85 2609.98H1789.11L1784.82 2599.47H1784.69V2610H1782.6V2595.45ZM1808.48 2599.28C1808.41 2598.6 1808.1 2598.08 1807.55 2597.71C1807 2597.34 1806.31 2597.15 1805.47 2597.15C1804.88 2597.15 1804.36 2597.25 1803.92 2597.44C1803.49 2597.62 1803.15 2597.88 1802.91 2598.2C1802.67 2598.53 1802.55 2598.89 1802.55 2599.3C1802.55 2599.65 1802.63 2599.95 1802.8 2600.2C1802.96 2600.45 1803.18 2600.66 1803.44 2600.83C1803.71 2601 1804 2601.14 1804.31 2601.25C1804.62 2601.36 1804.91 2601.45 1805.2 2601.52L1806.62 2601.89C1807.08 2602 1807.56 2602.16 1808.04 2602.35C1808.53 2602.54 1808.98 2602.8 1809.4 2603.12C1809.82 2603.44 1810.15 2603.83 1810.41 2604.3C1810.67 2604.77 1810.8 2605.33 1810.8 2605.98C1810.8 2606.8 1810.59 2607.54 1810.16 2608.17C1809.74 2608.81 1809.13 2609.32 1808.32 2609.69C1807.52 2610.06 1806.55 2610.24 1805.42 2610.24C1804.33 2610.24 1803.38 2610.07 1802.59 2609.72C1801.79 2609.38 1801.17 2608.89 1800.72 2608.25C1800.27 2607.61 1800.02 2606.86 1799.98 2605.98H1802.18C1802.22 2606.51 1802.39 2606.94 1802.69 2607.29C1802.99 2607.64 1803.38 2607.9 1803.85 2608.07C1804.32 2608.23 1804.84 2608.32 1805.4 2608.32C1806.02 2608.32 1806.57 2608.22 1807.06 2608.03C1807.54 2607.83 1807.93 2607.55 1808.21 2607.2C1808.49 2606.85 1808.63 2606.43 1808.63 2605.96C1808.63 2605.53 1808.5 2605.18 1808.26 2604.9C1808.02 2604.63 1807.69 2604.4 1807.27 2604.22C1806.86 2604.04 1806.39 2603.88 1805.87 2603.74L1804.15 2603.27C1802.99 2602.96 1802.06 2602.49 1801.38 2601.88C1800.71 2601.26 1800.37 2600.45 1800.37 2599.43C1800.37 2598.59 1800.59 2597.86 1801.05 2597.24C1801.5 2596.61 1802.12 2596.13 1802.89 2595.78C1803.67 2595.43 1804.55 2595.26 1805.52 2595.26C1806.51 2595.26 1807.38 2595.43 1808.13 2595.77C1808.89 2596.12 1809.48 2596.6 1809.92 2597.2C1810.35 2597.8 1810.58 2598.49 1810.6 2599.28H1808.48ZM1825.16 2595.45V2610H1823.15L1815.75 2599.33H1815.62V2610H1813.42V2595.45H1815.45L1822.85 2606.14H1822.99V2595.45H1825.16ZM1827.86 2607.16V2605.38L1834.14 2595.45H1835.54V2598.07H1834.66L1830.16 2605.18V2605.3H1838.78V2607.16H1827.86ZM1834.76 2610V2606.62L1834.77 2605.81V2595.45H1836.85V2610H1834.76ZM1846.31 2610.2C1845.34 2610.2 1844.47 2610.03 1843.7 2609.69C1842.94 2609.36 1842.33 2608.89 1841.89 2608.3C1841.45 2607.69 1841.21 2607 1841.18 2606.21H1843.41C1843.44 2606.64 1843.58 2607.01 1843.84 2607.33C1844.11 2607.64 1844.45 2607.88 1844.88 2608.05C1845.31 2608.22 1845.78 2608.31 1846.3 2608.31C1846.87 2608.31 1847.38 2608.21 1847.82 2608.01C1848.27 2607.81 1848.61 2607.54 1848.86 2607.18C1849.12 2606.82 1849.24 2606.41 1849.24 2605.94C1849.24 2605.45 1849.12 2605.02 1848.86 2604.65C1848.62 2604.28 1848.26 2603.98 1847.78 2603.77C1847.3 2603.56 1846.73 2603.45 1846.06 2603.45H1844.83V2601.66H1846.06C1846.6 2601.66 1847.07 2601.56 1847.48 2601.37C1847.89 2601.18 1848.21 2600.91 1848.45 2600.56C1848.68 2600.21 1848.79 2599.8 1848.79 2599.33C1848.79 2598.88 1848.69 2598.49 1848.49 2598.16C1848.29 2597.82 1848 2597.56 1847.64 2597.37C1847.27 2597.18 1846.84 2597.09 1846.34 2597.09C1845.87 2597.09 1845.43 2597.18 1845.01 2597.35C1844.61 2597.52 1844.28 2597.77 1844.02 2598.09C1843.76 2598.41 1843.63 2598.79 1843.61 2599.23H1841.49C1841.51 2598.45 1841.74 2597.76 1842.18 2597.16C1842.63 2596.56 1843.21 2596.1 1843.94 2595.76C1844.67 2595.42 1845.48 2595.26 1846.37 2595.26C1847.3 2595.26 1848.11 2595.44 1848.79 2595.8C1849.47 2596.16 1849.99 2596.64 1850.36 2597.24C1850.74 2597.85 1850.92 2598.5 1850.92 2599.22C1850.92 2600.03 1850.69 2600.72 1850.24 2601.29C1849.78 2601.86 1849.17 2602.24 1848.42 2602.44V2602.55C1849.38 2602.7 1850.13 2603.08 1850.66 2603.7C1851.2 2604.32 1851.46 2605.09 1851.46 2606.01C1851.46 2606.81 1851.24 2607.53 1850.79 2608.16C1850.34 2608.79 1849.74 2609.29 1848.96 2609.66C1848.19 2610.02 1847.31 2610.2 1846.31 2610.2ZM1854.14 2610V2608.41L1859.06 2603.31C1859.59 2602.76 1860.02 2602.27 1860.36 2601.85C1860.71 2601.43 1860.97 2601.03 1861.14 2600.65C1861.31 2600.27 1861.39 2599.87 1861.39 2599.45C1861.39 2598.96 1861.28 2598.55 1861.05 2598.2C1860.82 2597.84 1860.51 2597.57 1860.12 2597.38C1859.73 2597.19 1859.29 2597.09 1858.79 2597.09C1858.27 2597.09 1857.82 2597.19 1857.43 2597.41C1857.04 2597.62 1856.74 2597.92 1856.53 2598.31C1856.33 2598.7 1856.22 2599.15 1856.22 2599.67H1854.13C1854.13 2598.79 1854.33 2598.01 1854.74 2597.35C1855.15 2596.69 1855.7 2596.17 1856.41 2595.81C1857.12 2595.44 1857.93 2595.26 1858.84 2595.26C1859.75 2595.26 1860.55 2595.44 1861.25 2595.8C1861.95 2596.16 1862.5 2596.65 1862.89 2597.28C1863.28 2597.9 1863.48 2598.6 1863.48 2599.38C1863.48 2599.92 1863.38 2600.45 1863.18 2600.97C1862.98 2601.48 1862.63 2602.06 1862.13 2602.69C1861.63 2603.32 1860.94 2604.09 1860.06 2604.99L1857.17 2608.01V2608.12H1863.72V2610H1854.14ZM1871.93 2595.45V2610H1869.72V2597.66H1869.64L1866.16 2599.93V2597.83L1869.79 2595.45H1871.93Z" fill="white"/>
</g>
<defs>
<filter id="filter0_d_0_1" x="1294.91" y="2587.91" width="617.316" height="998.474" filterUnits="userSpaceOnUse" color-interpolation-filters="sRGB">
<feFlood flood-opacity="0" result="BackgroundImageFix"/>
<feColorMatrix in="SourceAlpha" type="matrix" values="0 0 0 0 0 0 0 0 0 0 0 0 0 0 0 0 0 0 127 0" result="hardAlpha"/>
<feOffset dy="4"/>
<feGaussianBlur stdDeviation="2"/>
<feComposite in2="hardAlpha" operator="out"/>
<feColorMatrix type="matrix" values="0 0 0 0 0 0 0 0 0 0 0 0 0 0 0 0 0 0 0.25 0"/>
<feBlend mode="normal" in2="BackgroundImageFix" result="effect1_dropShadow_0_1"/>
<feBlend mode="normal" in="SourceGraphic" in2="effect1_dropShadow_0_1" result="shape"/>
</filter>
<clipPath id="clip0_0_1">
<rect width="611" height="992" fill="white" transform="translate(1298 2587)"/>
</clipPath>
</defs>
</svg>
